<svg xmlns="http://www.w3.org/2000/svg" xmlns:xlink="http://www.w3.org/1999/xlink" xmlns:lucid="lucid" width="1680.33" height="458.33"><g transform="translate(-42.5 5.833333333333343)" lucid:page-tab-id="0_0"><path d="M0 0h1760v1360H0z" fill="#fff"/><path d="M1319.58 44.5c0 16.3-13.2 29.5-29.5 29.5s-29.5-13.2-29.5-29.5 13.2-29.5 29.5-29.5 29.5 13.2 29.5 29.5z" stroke="#e81313" stroke-width="3" fill="#fff"/><path d="M1620.83 25h82v39h-82z" stroke="#000" stroke-opacity="0" stroke-width="2" fill="#fff" fill-opacity="0"/><use xlink:href="#a" transform="matrix(1,0,0,1,1625.8333333333328,30) translate(1.7166666666666899 21.511111111111095)"/><path d="M239.5 44.5c0 16.3-13.2 29.5-29.5 29.5s-29.5-13.2-29.5-29.5S193.7 15 210 15s29.5 13.2 29.5 29.5zM180.5 164c0 16.3-13.2 29.5-29.5 29.5s-29.5-13.2-29.5-29.5 13.2-29.5 29.5-29.5 29.5 13.2 29.5 29.5zM298.5 164c0 16.3-13.2 29.5-29.5 29.5s-29.5-13.2-29.5-29.5 13.2-29.5 29.5-29.5 29.5 13.2 29.5 29.5z" stroke="#000" stroke-width="2" fill="#fff"/><path d="M196.1 72.67l-31.2 63.16" stroke="#000" stroke-width="2" fill="none"/><path d="M197.44 72.2l-.46.94-1.8-.9.44-.87zM165.82 136.25l-.44.88-1.82-.82.46-.94z" stroke="#000" stroke-width=".05"/><path d="M223.9 72.66l31.2 63.18" stroke="#000" stroke-width="2" fill="none"/><path d="M224.8 72.24l-1.78.88-.45-.9 1.78-.9zM256.43 136.3l-1.78.9-.46-.94 1.78-.88z" stroke="#000" stroke-width=".05"/><path d="M239.5 283.5c0 16.3-13.2 29.5-29.5 29.5s-29.5-13.2-29.5-29.5S193.7 254 210 254s29.5 13.2 29.5 29.5z" stroke="#e81313" stroke-width="3" fill="#fff"/><path d="M164.9 192.16l30.98 62.73" stroke="#000" stroke-width="2" fill="none"/><path d="M165.8 191.74l-1.78.88-.45-.9 1.78-.9zM197.2 255.34l-1.77.9-.46-.93 1.8-.87z" stroke="#000" stroke-width=".05"/><path d="M121.5 283.5c0 16.3-13.2 29.5-29.5 29.5s-29.5-13.2-29.5-29.5S75.7 254 92 254s29.5 13.2 29.5 29.5z" stroke="#282c33" stroke-width="2" fill="#fff"/><path d="M137.1 192.17l-31.2 63.16" stroke="#000" stroke-width="2" fill="none"/><path d="M138.44 191.7l-.46.94-1.8-.9.44-.87zM106.82 255.75l-.44.88-1.82-.82.46-.94z" stroke="#000" stroke-width=".05"/><path d="M357.5 283.5c0 16.3-13.2 29.5-29.5 29.5s-29.5-13.2-29.5-29.5S311.7 254 328 254s29.5 13.2 29.5 29.5z" stroke="#e81313" stroke-width="3" fill="#fff"/><path d="M313.88 254.9l-30.98-62.74" stroke="#000" stroke-width="2" fill="none"/><path d="M315.2 255.34l-1.77.9-.46-.93 1.8-.87zM283.8 191.74l-1.78.88-.45-.9 1.78-.9z" stroke="#000" stroke-width=".05"/><path d="M180.5 403c0 16.3-13.2 29.5-29.5 29.5s-29.5-13.2-29.5-29.5 13.2-29.5 29.5-29.5 29.5 13.2 29.5 29.5z" stroke="#e81313" stroke-width="3" fill="#fff"/><path d="M105.9 311.66l30.98 62.73" stroke="#000" stroke-width="2" fill="none"/><path d="M106.8 311.24l-1.78.88-.45-.9 1.78-.9zM138.2 374.84l-1.77.9-.46-.93 1.8-.87z" stroke="#000" stroke-width=".05"/><path d="M599.08 44.5c0 16.3-13.2 29.5-29.5 29.5s-29.5-13.2-29.5-29.5 13.2-29.5 29.5-29.5 29.5 13.2 29.5 29.5zM540.08 164c0 16.3-13.2 29.5-29.5 29.5s-29.5-13.2-29.5-29.5 13.2-29.5 29.5-29.5 29.5 13.2 29.5 29.5z" stroke="#000" stroke-width="2" fill="#fff"/><path d="M658.08 164c0 16.3-13.2 29.5-29.5 29.5s-29.5-13.2-29.5-29.5 13.2-29.5 29.5-29.5 29.5 13.2 29.5 29.5z" stroke="#e81313" stroke-width="3" fill="#fff"/><path d="M555.67 72.67l-31.18 63.16" stroke="#000" stroke-width="2" fill="none"/><path d="M557.03 72.2l-.47.94-1.8-.9.44-.87zM525.4 136.25l-.44.88-1.82-.82.47-.94z" stroke="#000" stroke-width=".05"/><path d="M583.5 72.66l30.96 62.73" stroke="#000" stroke-width="2" fill="none"/><path d="M584.4 72.24l-1.8.88-.45-.9 1.78-.9zM615.8 135.84l-1.8.9-.45-.93 1.8-.87z" stroke="#000" stroke-width=".05"/><path d="M488.46 283.5c0 16.3-13.2 29.5-29.5 29.5s-29.5-13.2-29.5-29.5 13.2-29.5 29.5-29.5 29.5 13.2 29.5 29.5z" stroke="#e81313" stroke-width="3" fill="#fff"/><path d="M498.13 192.83L471.6 254.2" stroke="#000" stroke-width="2" fill="none"/><path d="M499.44 192.32l-.4.93-1.84-.8.4-.95zM472.54 254.58l-.4.96-1.84-.82.4-.93z" stroke="#000" stroke-width=".05"/><path d="M959.33 44.5c0 16.3-13.2 29.5-29.5 29.5s-29.5-13.2-29.5-29.5 13.2-29.5 29.5-29.5 29.5 13.2 29.5 29.5z" stroke="#000" stroke-width="2" fill="#fff"/><path d="M900.33 164c0 16.3-13.2 29.5-29.5 29.5s-29.5-13.2-29.5-29.5 13.2-29.5 29.5-29.5 29.5 13.2 29.5 29.5z" stroke="#e81313" stroke-width="3" fill="#fff"/><path d="M915.92 72.67l-30.96 62.7" stroke="#000" stroke-width="2" fill="none"/><path d="M917.28 72.2l-.47.94-1.78-.9.43-.87zM885.87 135.8l-.44.9-1.82-.84.48-.95z" stroke="#000" stroke-width=".05"/><path d="M329.96 34.6h81.02V14.18l38.65 29.9L410.98 74V53.56h-81.02zM689.88 34.6h81.02V14.18l38.64 29.9L770.9 74V53.56h-81.02zM1050.12 35.44h81.03V15l38.64 29.92-38.65 29.9V54.4h-81.03zM1410.37 35.44h81.03V15l38.64 29.92-38.64 29.9V54.4h-81.03z" stroke="#000" stroke-opacity="0" stroke-width="2" fill="#ced4db"/><defs><path d="M190 0L58-211 59 0H30v-248h39L202-35l-2-213h31V0h-41" id="b"/><path d="M232-93c-1 65-40 97-104 97C67 4 28-28 28-90v-158h33c8 89-33 224 67 224 102 0 64-133 71-224h33v155" id="c"/><path d="M30 0v-248h33v221h125V0H30" id="d"/><g id="a"><use transform="matrix(0.0746913580246913,0,0,0.0746913580246913,0,0)" xlink:href="#b"/><use transform="matrix(0.0746913580246913,0,0,0.0746913580246913,19.34506172839505,0)" xlink:href="#c"/><use transform="matrix(0.0746913580246913,0,0,0.0746913580246913,38.6901234567901,0)" xlink:href="#d"/><use transform="matrix(0.0746913580246913,0,0,0.0746913580246913,53.628395061728355,0)" xlink:href="#d"/></g></defs></g></svg>