<svg xmlns="http://www.w3.org/2000/svg" xmlns:lucid="lucid" width="863.5" height="338"><g lucid:page-tab-id="0_0"><path d="M-107-47h1760v1360H-107z" fill="#fff"/><path d="M138 49.5c0 16.3-13.2 29.5-29.5 29.5S79 65.8 79 49.5 92.2 20 108.5 20 138 33.2 138 49.5z" stroke="#000" stroke-width="2" fill="#fff"/><path d="M79 169c0 16.3-13.2 29.5-29.5 29.5S20 185.3 20 169s13.2-29.5 29.5-29.5S79 152.7 79 169zM197 169c0 16.3-13.2 29.5-29.5 29.5S138 185.3 138 169s13.2-29.5 29.5-29.5S197 152.7 197 169z" stroke="#e81313" stroke-width="3" fill="#fff"/><path d="M94.6 77.67l-30.97 62.7" stroke="#000" stroke-width="2" fill="none"/><path d="M95.94 77.2l-.46.94-1.8-.9.44-.87zM64.54 140.8l-.44.9-1.82-.84.47-.95z" stroke="#000" stroke-width=".05"/><path d="M122.4 77.66l30.98 62.73" stroke="#000" stroke-width="2" fill="none"/><path d="M123.3 77.24l-1.78.88-.45-.9 1.78-.9zM154.7 140.84l-1.77.9-.46-.93 1.8-.87z" stroke="#000" stroke-width=".05"/><path d="M434.5 49.5c0 16.3-13.2 29.5-29.5 29.5s-29.5-13.2-29.5-29.5S388.7 20 405 20s29.5 13.2 29.5 29.5zM375.5 169c0 16.3-13.2 29.5-29.5 29.5s-29.5-13.2-29.5-29.5 13.2-29.5 29.5-29.5 29.5 13.2 29.5 29.5z" stroke="#000" stroke-width="2" fill="#fff"/><path d="M493.5 169c0 16.3-13.2 29.5-29.5 29.5s-29.5-13.2-29.5-29.5 13.2-29.5 29.5-29.5 29.5 13.2 29.5 29.5z" stroke="#e81313" stroke-width="3" fill="#fff"/><path d="M391.1 77.67l-31.2 63.16" stroke="#000" stroke-width="2" fill="none"/><path d="M392.44 77.2l-.46.94-1.8-.9.44-.87zM360.82 141.25l-.44.88-1.82-.82.46-.94z" stroke="#000" stroke-width=".05"/><path d="M418.9 77.66l30.98 62.73" stroke="#000" stroke-width="2" fill="none"/><path d="M419.8 77.24l-1.78.88-.45-.9 1.78-.9zM451.2 140.84l-1.77.9-.46-.93 1.8-.87z" stroke="#000" stroke-width=".05"/><path d="M416.5 288.5c0 16.3-13.2 29.5-29.5 29.5s-29.5-13.2-29.5-29.5S370.7 259 387 259s29.5 13.2 29.5 29.5z" stroke="#e81313" stroke-width="3" fill="#fff"/><path d="M356.2 198.72l20.44 59.6" stroke="#000" stroke-width="2" fill="none"/><path d="M357.15 198.42l-1.9.65-.33-1 1.9-.6zM377.92 258.96l-1.9.6-.33-.95 1.88-.64z" stroke="#000" stroke-width=".05"/><path d="M743.5 49.5c0 16.3-13.2 29.5-29.5 29.5s-29.5-13.2-29.5-29.5S697.7 20 714 20s29.5 13.2 29.5 29.5zM684.5 169c0 16.3-13.2 29.5-29.5 29.5s-29.5-13.2-29.5-29.5 13.2-29.5 29.5-29.5 29.5 13.2 29.5 29.5zM802.5 169c0 16.3-13.2 29.5-29.5 29.5s-29.5-13.2-29.5-29.5 13.2-29.5 29.5-29.5 29.5 13.2 29.5 29.5z" stroke="#000" stroke-width="2" fill="#fff"/><path d="M700.1 77.67l-31.2 63.16" stroke="#000" stroke-width="2" fill="none"/><path d="M701.44 77.2l-.46.94-1.8-.9.44-.87zM669.82 141.25l-.44.88-1.82-.82.46-.94z" stroke="#000" stroke-width=".05"/><path d="M727.9 77.66l31.2 63.18" stroke="#000" stroke-width="2" fill="none"/><path d="M728.8 77.24l-1.78.88-.45-.9 1.78-.9zM760.43 141.3l-1.78.9-.46-.94 1.78-.88z" stroke="#000" stroke-width=".05"/><path d="M725.5 288.5c0 16.3-13.2 29.5-29.5 29.5s-29.5-13.2-29.5-29.5S679.7 259 696 259s29.5 13.2 29.5 29.5z" stroke="#e81313" stroke-width="3" fill="#fff"/><path d="M665.2 198.72l20.44 59.6" stroke="#000" stroke-width="2" fill="none"/><path d="M666.15 198.42l-1.9.65-.33-1 1.9-.6zM686.92 258.96l-1.9.6-.33-.95 1.88-.64z" stroke="#000" stroke-width=".05"/><path d="M643.5 288.5c0 16.3-13.2 29.5-29.5 29.5s-29.5-13.2-29.5-29.5S597.7 259 614 259s29.5 13.2 29.5 29.5z" stroke="#e81313" stroke-width="3" fill="#fff"/><path d="M644.78 198.8l-20.4 59.44" stroke="#000" stroke-width="2" fill="none"/><path d="M644.85 197.78l1.23.3-.36 1.06-1.9-.65.36-1.03zM625.34 258.54l-.35 1.02-.7-.3-1.2-.33.34-1.04z" stroke="#000" stroke-width=".05"/><path d="M843.5 288.5c0 16.3-13.2 29.5-29.5 29.5s-29.5-13.2-29.5-29.5S797.7 259 814 259s29.5 13.2 29.5 29.5z" stroke="#e81313" stroke-width="3" fill="#fff"/><path d="M803.64 258.3l-20.44-59.58" stroke="#000" stroke-width="2" fill="none"/><path d="M804.92 258.96l-1.9.6-.33-.95 1.88-.64zM784.15 198.42l-1.9.65-.33-1 1.9-.6z" stroke="#000" stroke-width=".05"/></g></svg>