<svg xmlns="http://www.w3.org/2000/svg" xmlns:xlink="http://www.w3.org/1999/xlink" xmlns:lucid="lucid" width="932" height="358"><g transform="translate(-32.75123364180203 -13.105259117060555)" lucid:page-tab-id="0_0"><path d="M0 0h1760v1360H0z" fill="#fff"/><path d="M542.75 60.1c0 14.92-12.1 27-27 27s-27-12.08-27-27c0-14.9 12.1-27 27-27s27 12.1 27 27z" stroke="#000" stroke-width="2" fill="#fff"/><use xlink:href="#a" transform="matrix(1,0,0,1,493.7512336418022,38.105259117060555) translate(15.03086419753087 30.377777777777773)"/><path d="M394.75 148.1c0 14.92-12.1 27-27 27s-27-12.08-27-27c0-14.9 12.1-27 27-27s27 12.1 27 27z" stroke="#000" stroke-width="2" fill="#fff"/><use xlink:href="#b" transform="matrix(1,0,0,1,345.7512336418022,126.10525911706047) translate(15.03086419753087 30.377777777777773)"/><path d="M690.75 148.1c0 14.92-12.1 27-27 27s-27-12.08-27-27c0-14.9 12.1-27 27-27s27 12.1 27 27z" stroke="#000" stroke-width="2" fill="#fff"/><use xlink:href="#c" transform="matrix(1,0,0,1,641.7512336418024,126.10525911706041) translate(15.03086419753087 30.377777777777773)"/><path d="M320.75 236.1c0 14.92-12.1 27-27 27s-27-12.08-27-27c0-14.9 12.1-27 27-27s27 12.1 27 27z" stroke="#000" stroke-width="2" fill="#fff"/><use xlink:href="#d" transform="matrix(1,0,0,1,271.7512336418022,214.10525911706043) translate(15.03086419753087 30.377777777777773)"/><path d="M468.75 236.1c0 14.92-12.1 27-27 27s-27-12.08-27-27c0-14.9 12.1-27 27-27s27 12.1 27 27z" stroke="#000" stroke-width="2" fill="#fff"/><use xlink:href="#e" transform="matrix(1,0,0,1,419.7512336418022,214.10525911706043) translate(15.03086419753087 30.377777777777773)"/><path d="M616.75 236.1c0 14.92-12.1 27-27 27s-27-12.08-27-27c0-14.9 12.1-27 27-27s27 12.1 27 27z" stroke="#000" stroke-width="2" fill="#fff"/><use xlink:href="#f" transform="matrix(1,0,0,1,567.7512336418022,214.10525911706043) translate(15.03086419753087 30.377777777777773)"/><path d="M764.75 236.1c0 14.92-12.1 27-27 27s-27-12.08-27-27c0-14.9 12.1-27 27-27s27 12.1 27 27z" stroke="#000" stroke-width="2" fill="#fff"/><use xlink:href="#g" transform="matrix(1,0,0,1,715.7512336418023,214.10525911706043) translate(15.03086419753087 30.377777777777773)"/><path d="M266.75 324.1c0 14.92-12.1 27-27 27s-27-12.08-27-27c0-14.9 12.1-27 27-27s27 12.1 27 27z" stroke="#000" stroke-width="2" fill="#fff"/><use xlink:href="#h" transform="matrix(1,0,0,1,217.75123364180214,302.1052591170603) translate(15.03086419753087 30.377777777777773)"/><path d="M710.75 324.1c0 14.92-12.1 27-27 27s-27-12.08-27-27c0-14.9 12.1-27 27-27s27 12.1 27 27z" stroke="#000" stroke-width="2" fill="#fff"/><use xlink:href="#i" transform="matrix(1,0,0,1,661.7512336418023,302.1052591170603) translate(15.03086419753087 30.377777777777773)"/><path d="M278.6 260.82L254.9 299.4" stroke="#000" stroke-width="2" fill="none"/><path d="M279 259.9l1 .52-.58.95-1.7-1.05.58-.94zM255.78 299.9l-.57.93-.7-.53-1-.5.58-.95z" stroke="#000" stroke-width=".05"/><path d="M349.14 170.24l-36.77 43.73" stroke="#000" stroke-width="2" fill="none"/><path d="M350.58 170.08l-.7.82-1.52-1.28.62-.75zM313.15 214.6l-.63.74-1.6-1.2.7-.83z" stroke="#000" stroke-width=".05"/><path d="M386.35 170.23l36.8 43.75" stroke="#000" stroke-width="2" fill="none"/><path d="M387.14 169.6l-1.53 1.3-.63-.76 1.48-1.35zM424.53 214.08l-1.48 1.34-.68-.8 1.53-1.3z" stroke="#000" stroke-width=".05"/><path d="M490.92 74.87l-98.34 58.47" stroke="#000" stroke-width="2" fill="none"/><path d="M492.3 75.2l-.9.54-1.02-1.72.87-.5zM393.12 134.2l-.87.5-1.05-1.7.9-.53z" stroke="#000" stroke-width=".05"/><path d="M540.65 74.9l98.2 58.4" stroke="#000" stroke-width="2" fill="none"/><path d="M541.18 74.06l-1.02 1.72-.9-.53.3-.4.68-1.35zM640.24 132.96l-.3.4-.67 1.35-.95-.55 1.02-1.72z" stroke="#000" stroke-width=".05"/><path d="M682.35 170.23l36.8 43.75" stroke="#000" stroke-width="2" fill="none"/><path d="M683.14 169.6l-1.53 1.3-.63-.76 1.48-1.35zM720.53 214.08l-1.48 1.34-.68-.8 1.53-1.3z" stroke="#000" stroke-width=".05"/><path d="M722.6 260.82L698.9 299.4" stroke="#000" stroke-width="2" fill="none"/><path d="M723 259.9l1 .52-.58.95-1.7-1.05.58-.94zM699.78 299.9l-.57.93-.7-.53-1-.5.58-.95z" stroke="#000" stroke-width=".05"/><path d="M645.14 170.24l-36.77 43.73" stroke="#000" stroke-width="2" fill="none"/><path d="M646.58 170.08l-.7.82-1.52-1.28.62-.75zM609.15 214.6l-.63.74-1.6-1.2.7-.83z" stroke="#000" stroke-width=".05"/><path d="M411.42 148.1h191.16M411.44 148.1h-1.02" stroke="#000" stroke-width="2" fill="none"/><path d="M617.85 148.1l-14.27 4.64v-9.27z" stroke="#000" stroke-width="2"/><path d="M337.42 236.1h43.16M337.44 236.1h-1.02" stroke="#000" stroke-width="2" fill="none"/><path d="M395.85 236.1l-14.27 4.64v-9.27z" stroke="#000" stroke-width="2"/><path d="M633.42 236.1h43.16M633.44 236.1h-1.02" stroke="#000" stroke-width="2" fill="none"/><path d="M691.85 236.1l-14.27 4.64v-9.27z" stroke="#000" stroke-width="2"/><path d="M485.42 236.1h43.16M485.44 236.1h-1.02" stroke="#000" stroke-width="2" fill="none"/><path d="M543.85 236.1l-14.27 4.64v-9.27z" stroke="#000" stroke-width="2"/><path d="M320.75 60.1h133.83M320.78 60.1h-1.03" stroke="#000" stroke-width="2" fill="none"/><path d="M469.85 60.1l-14.27 4.64v-9.27z" stroke="#000" stroke-width="2"/><path d="M172.75 148.1h133.83M172.78 148.1h-1.03" stroke="#000" stroke-width="2" fill="none"/><path d="M321.85 148.1l-14.27 4.64v-9.27z" stroke="#000" stroke-width="2"/><path d="M98.75 236.1h133.83M98.78 236.1h-1.03" stroke="#000" stroke-width="2" fill="none"/><path d="M247.85 236.1l-14.27 4.64v-9.27z" stroke="#000" stroke-width="2"/><path d="M779.42 236.1h135.83M779.44 236.1h-1.02" stroke="#000" stroke-width="2" fill="none"/><path d="M930.52 236.1l-14.27 4.64v-9.27z" stroke="#000" stroke-width="2"/><path d="M705.42 148.1h135.83M705.44 148.1h-1.02" stroke="#000" stroke-width="2" fill="none"/><path d="M856.52 148.1l-14.27 4.64v-9.27z" stroke="#000" stroke-width="2"/><path d="M557.42 60.1h135.83M557.44 60.1h-1.02" stroke="#000" stroke-width="2" fill="none"/><path d="M708.52 60.1l-14.27 4.64v-9.27z" stroke="#000" stroke-width="2"/><path d="M44.75 324.1h133.83M44.78 324.1h-1.03" stroke="#000" stroke-width="2" fill="none"/><path d="M193.85 324.1l-14.27 4.64v-9.27z" stroke="#000" stroke-width="2"/><path d="M725.42 324.1h135.83M725.44 324.1h-1.02" stroke="#000" stroke-width="2" fill="none"/><path d="M876.52 324.1l-14.27 4.64v-9.27z" stroke="#000" stroke-width="2"/><path d="M283.42 324.1h339.16M283.44 324.1h-1.02" stroke="#000" stroke-width="2" fill="none"/><path d="M637.85 324.1l-14.27 4.64v-9.27z" stroke="#000" stroke-width="2"/><defs><path d="M54-142c48-35 137-8 131 61C196 18 31 33 14-55l32-4c7 23 22 37 52 37 35-1 51-22 54-58 4-55-73-65-99-34H22l8-134h141v27H59" id="j"/><use transform="matrix(0.0746913580246913,0,0,0.0746913580246913,0,0)" xlink:href="#j" id="a"/><path d="M126-127c33 6 58 20 58 59 0 88-139 92-164 29-3-8-5-16-6-25l32-3c6 27 21 44 54 44 32 0 52-15 52-46 0-38-36-46-79-43v-28c39 1 72-4 72-42 0-27-17-43-46-43-28 0-47 15-49 41l-32-3c6-42 35-63 81-64 48-1 79 21 79 65 0 36-21 52-52 59" id="k"/><use transform="matrix(0.0746913580246913,0,0,0.0746913580246913,0,0)" xlink:href="#k" id="b"/><path d="M64 0c3-98 48-159 88-221H18v-27h164v26C143-157 98-101 97 0H64" id="l"/><use transform="matrix(0.0746913580246913,0,0,0.0746913580246913,0,0)" xlink:href="#l" id="c"/><path d="M101-251c82-7 93 87 43 132L82-64C71-53 59-42 53-27h129V0H18c2-99 128-94 128-182 0-28-16-43-45-43s-46 15-49 41l-32-3c6-41 34-60 81-64" id="m"/><use transform="matrix(0.0746913580246913,0,0,0.0746913580246913,0,0)" xlink:href="#m" id="d"/><path d="M155-56V0h-30v-56H8v-25l114-167h33v167h35v25h-35zm-30-156c-27 46-58 90-88 131h88v-131" id="n"/><use transform="matrix(0.0746913580246913,0,0,0.0746913580246913,0,0)" xlink:href="#n" id="e"/><path d="M110-160c48 1 74 30 74 79 0 53-28 85-80 85-65 0-83-55-86-122-5-90 50-162 133-122 14 7 22 21 27 39l-31 6c-5-40-67-38-82-6-9 19-15 44-15 74 11-20 30-34 60-33zm-7 138c34 0 49-23 49-58s-16-56-50-56c-29 0-50 16-49 49 1 36 15 65 50 65" id="o"/><use transform="matrix(0.0746913580246913,0,0,0.0746913580246913,0,0)" xlink:href="#o" id="f"/><path d="M99-251c64 0 84 50 84 122C183-37 130 33 47-8c-14-7-20-23-25-40l30-5c6 39 69 39 84 7 9-19 16-44 16-74-10 22-31 35-62 35-49 0-73-33-73-83 0-54 28-83 82-83zm-1 141c31-1 51-18 51-49 0-36-14-67-51-67-34 0-49 23-49 58 0 34 15 58 49 58" id="p"/><use transform="matrix(0.0746913580246913,0,0,0.0746913580246913,0,0)" xlink:href="#p" id="g"/><path d="M27 0v-27h64v-190l-56 39v-29l58-41h29v221h61V0H27" id="q"/><use transform="matrix(0.0746913580246913,0,0,0.0746913580246913,0,0)" xlink:href="#q" id="h"/><path d="M134-131c28 9 52 24 51 62-1 50-34 73-85 73S17-19 16-69c0-36 21-54 49-61-75-25-45-126 34-121 46 3 78 18 79 63 0 33-17 51-44 57zm-34-11c31 1 46-15 46-44 0-28-17-43-47-42-29 0-46 13-45 42 1 28 16 44 46 44zm1 122c35 0 51-18 51-52 0-30-18-46-53-46-33 0-51 17-51 47 0 34 19 51 53 51" id="r"/><use transform="matrix(0.0746913580246913,0,0,0.0746913580246913,0,0)" xlink:href="#r" id="i"/></defs></g></svg>