<svg xmlns="http://www.w3.org/2000/svg" xmlns:xlink="http://www.w3.org/1999/xlink" xmlns:lucid="lucid" width="418" height="297"><g transform="translate(0 0)" lucid:page-tab-id="0_0"><path d="M0 0h1760v1360H0z" fill="#fff"/><path d="M240 50c0 16.57-13.43 30-30 30s-30-13.43-30-30 13.43-30 30-30 30 13.43 30 30z" stroke="#000" stroke-width="2" fill="#fff"/><use xlink:href="#a" transform="matrix(1,0,0,1,185,25) translate(7.592592592592606 34.766666666666666)"/><path d="M140 150c0 16.57-13.43 30-30 30s-30-13.43-30-30 13.43-30 30-30 30 13.43 30 30z" stroke="#000" stroke-width="2" fill="#fff"/><use xlink:href="#b" transform="matrix(1,0,0,1,85,125) translate(8.767592592592607 34.766666666666666)"/><path d="M340 150c0 16.57-13.43 30-30 30s-30-13.43-30-30 13.43-30 30-30 30 13.43 30 30z" stroke="#000" stroke-width="2" fill="#fff"/><use xlink:href="#c" transform="matrix(1,0,0,1,285,125) translate(7.592592592592606 34.766666666666666)"/><path d="M400 250c0 16.57-13.43 30-30 30s-30-13.43-30-30 13.43-30 30-30 30 13.43 30 30z" stroke="#000" stroke-width="2" fill="#fff"/><use xlink:href="#d" transform="matrix(1,0,0,1,345,225) translate(7.592592592592606 34.766666666666666)"/><path d="M187.43 72.57l-54.86 54.86" stroke="#000" stroke-width="2" fill="none"/><path d="M188.87 72.54l-.75.75-1.4-1.42.7-.7zM133.3 128.12l-.7.7-1.47-1.36.75-.75z" stroke="#000" stroke-width=".05"/><path d="M232.57 72.57l54.86 54.86" stroke="#000" stroke-width="2" fill="none"/><path d="M233.3 71.88l-1.42 1.4-.7-.7 1.36-1.45zM288.82 127.4l-1.36 1.47-.75-.75 1.42-1.4z" stroke="#000" stroke-width=".05"/><path d="M326.44 177.4l27.12 45.2" stroke="#000" stroke-width="2" fill="none"/><path d="M327.3 176.9l-1.7 1.03-.56-.93 1.7-.9.06-.05zM354.96 223l-1.7.9-.06.05-.5-.85 1.7-1.03z" stroke="#000" stroke-width=".05"/><path d="M80 250c0 16.57-13.43 30-30 30s-30-13.43-30-30 13.43-30 30-30 30 13.43 30 30z" stroke="#000" stroke-width="2" fill="#fff"/><use xlink:href="#e" transform="matrix(1,0,0,1,25,225) translate(16.296296296296305 34.766666666666666)"/><path d="M93.57 177.38l-27.14 45.24" stroke="#000" stroke-width="2" fill="none"/><path d="M94.1 176.52l.82.55-.5.84-1.72-1.02.53-.87zM67.3 223.12l-.55.9-1.67-1.1.5-.83z" stroke="#000" stroke-width=".05"/><path d="M200 250c0 16.57-13.43 30-30 30s-30-13.43-30-30 13.43-30 30-30 30 13.43 30 30z" stroke="#000" stroke-width="2" fill="#fff"/><use xlink:href="#f" transform="matrix(1,0,0,1,145,225) translate(7.592592592592606 34.766666666666666)"/><path d="M126.44 177.4l27.12 45.2" stroke="#000" stroke-width="2" fill="none"/><path d="M127.3 176.9l-1.7 1.03-.56-.93 1.7-.9.06-.05zM154.96 223l-1.7.9-.06.05-.5-.85 1.7-1.03z" stroke="#000" stroke-width=".05"/><defs><path d="M101-251c82-7 93 87 43 132L82-64C71-53 59-42 53-27h129V0H18c2-99 128-94 128-182 0-28-16-43-45-43s-46 15-49 41l-32-3c6-41 34-60 81-64" id="g"/><path d="M126-127c33 6 58 20 58 59 0 88-139 92-164 29-3-8-5-16-6-25l32-3c6 27 21 44 54 44 32 0 52-15 52-46 0-38-36-46-79-43v-28c39 1 72-4 72-42 0-27-17-43-46-43-28 0-47 15-49 41l-32-3c6-42 35-63 81-64 48-1 79 21 79 65 0 36-21 52-52 59" id="h"/><g id="a"><use transform="matrix(0.08703703703703697,0,0,0.08703703703703697,0,0)" xlink:href="#g"/><use transform="matrix(0.08703703703703697,0,0,0.08703703703703697,17.407407407407394,0)" xlink:href="#h"/></g><path d="M27 0v-27h64v-190l-56 39v-29l58-41h29v221h61V0H27" id="i"/><g id="b"><use transform="matrix(0.08703703703703697,0,0,0.08703703703703697,0,0)" xlink:href="#i"/><use transform="matrix(0.08703703703703697,0,0,0.08703703703703697,15.057407407407396,0)" xlink:href="#i"/></g><path d="M155-56V0h-30v-56H8v-25l114-167h33v167h35v25h-35zm-30-156c-27 46-58 90-88 131h88v-131" id="j"/><g id="c"><use transform="matrix(0.08703703703703697,0,0,0.08703703703703697,0,0)" xlink:href="#g"/><use transform="matrix(0.08703703703703697,0,0,0.08703703703703697,17.407407407407394,0)" xlink:href="#j"/></g><path d="M101-251c68 0 85 55 85 127S166 4 100 4C33 4 14-52 14-124c0-73 17-127 87-127zm-1 229c47 0 54-49 54-102s-4-102-53-102c-51 0-55 48-55 102 0 53 5 102 54 102" id="k"/><g id="d"><use transform="matrix(0.08703703703703697,0,0,0.08703703703703697,0,0)" xlink:href="#h"/><use transform="matrix(0.08703703703703697,0,0,0.08703703703703697,17.407407407407394,0)" xlink:href="#k"/></g><use transform="matrix(0.08703703703703697,0,0,0.08703703703703697,0,0)" xlink:href="#h" id="e"/><path d="M134-131c28 9 52 24 51 62-1 50-34 73-85 73S17-19 16-69c0-36 21-54 49-61-75-25-45-126 34-121 46 3 78 18 79 63 0 33-17 51-44 57zm-34-11c31 1 46-15 46-44 0-28-17-43-47-42-29 0-46 13-45 42 1 28 16 44 46 44zm1 122c35 0 51-18 51-52 0-30-18-46-53-46-33 0-51 17-51 47 0 34 19 51 53 51" id="l"/><g id="f"><use transform="matrix(0.08703703703703697,0,0,0.08703703703703697,0,0)" xlink:href="#i"/><use transform="matrix(0.08703703703703697,0,0,0.08703703703703697,17.407407407407394,0)" xlink:href="#l"/></g></defs></g></svg>