<svg xmlns="http://www.w3.org/2000/svg" xmlns:xlink="http://www.w3.org/1999/xlink" xmlns:lucid="lucid" width="776.28" height="227.16"><g transform="translate(-10.009953687737891 -5.439132099857858)" lucid:page-tab-id="0_0"><path d="M0 0h1760v1360H0z" fill="#fff"/><path d="M121.72 27.42h60v52.6h-60z" stroke="#000" stroke-width="2" fill="#99d5ca"/><use xlink:href="#a" transform="matrix(1,0,0,1,126.72340334732087,32.42340334731976) translate(25 5.511111111111099)"/><use xlink:href="#b" transform="matrix(1,0,0,1,126.72340334732087,32.42340334731976) translate(16.296296296296298 33.333333333333314)"/><path d="M181.72 27.42h60v52.6h-60z" stroke="#000" stroke-width="2" fill="#99d5ca"/><use xlink:href="#a" transform="matrix(1,0,0,1,186.72340334732087,32.42340334731976) translate(25 5.511111111111099)"/><use xlink:href="#c" transform="matrix(1,0,0,1,186.72340334732087,32.42340334731976) translate(25 33.333333333333314)"/><path d="M219 53.72c0 4.02-3.26 7.28-7.28 7.28-4.02 0-7.27-3.26-7.27-7.28 0-4.02 3.25-7.27 7.27-7.27S219 49.7 219 53.72z" stroke="#000" stroke-width="2"/><path d="M221 53.72h81.22" stroke="#000" stroke-width="2" fill="none"/><path d="M221.04 54.72h-1.24l.22-.96-.15-1.04h1.17z"/><path d="M317.5 53.72l-14.28 4.64V49.1z" stroke="#000" stroke-width="2"/><path d="M321.72 27.42h60v52.6h-60z" stroke="#000" stroke-width="2" fill="#99d5ca"/><use xlink:href="#a" transform="matrix(1,0,0,1,326.72340334732087,32.42340334731976) translate(25 5.511111111111099)"/><use xlink:href="#d" transform="matrix(1,0,0,1,326.72340334732087,32.42340334731976) translate(16.296296296296298 33.333333333333314)"/><path d="M381.72 27.42h60v52.6h-60z" stroke="#000" stroke-width="2" fill="#99d5ca"/><use xlink:href="#a" transform="matrix(1,0,0,1,386.7234033473209,32.42340334731976) translate(25 5.511111111111099)"/><use xlink:href="#c" transform="matrix(1,0,0,1,386.7234033473209,32.42340334731976) translate(25 33.333333333333314)"/><path d="M419 53.72c0 4.02-3.26 7.28-7.28 7.28-4.02 0-7.27-3.26-7.27-7.28 0-4.02 3.25-7.27 7.27-7.27S419 49.7 419 53.72z" stroke="#000" stroke-width="2"/><path d="M421 53.72h81.22" stroke="#000" stroke-width="2" fill="none"/><path d="M421.04 54.72h-1.24l.22-.96-.15-1.04h1.17z"/><path d="M517.5 53.72l-14.28 4.64V49.1z" stroke="#000" stroke-width="2"/><path d="M521.72 27.42h60v52.6h-60z" stroke="#000" stroke-width="2" fill="#99d5ca"/><use xlink:href="#a" transform="matrix(1,0,0,1,526.7234033473209,32.42340334731976) translate(25 5.511111111111099)"/><use xlink:href="#e" transform="matrix(1,0,0,1,526.7234033473209,32.42340334731976) translate(16.296296296296298 33.333333333333314)"/><path d="M581.72 27.42h60v52.6h-60z" stroke="#000" stroke-width="2" fill="#99d5ca"/><use xlink:href="#a" transform="matrix(1,0,0,1,586.7234033473209,32.42340334731976) translate(25 5.511111111111099)"/><use xlink:href="#c" transform="matrix(1,0,0,1,586.7234033473209,32.42340334731976) translate(25 33.333333333333314)"/><path d="M619 53.72c0 4.02-3.26 7.28-7.28 7.28-4.02 0-7.27-3.26-7.27-7.28 0-4.02 3.25-7.27 7.27-7.27S619 49.7 619 53.72z" stroke="#000" stroke-width="2"/><path d="M621 53.72h82.22" stroke="#000" stroke-width="2" fill="none"/><path d="M621.04 54.72h-1.24l.22-.96-.15-1.04h1.17z"/><path d="M718.5 53.72l-14.28 4.64V49.1zM725.32 38.13l12.7 12.7 12.68-12.7 2.9 2.9-12.68 12.7L753.6 66.4l-2.9 2.92-12.7-12.7-12.68 12.7-2.9-2.9 12.68-12.7-12.7-12.68z" stroke="#000" stroke-width="2"/><path d="M121.72 160h160v52.6h-160z" stroke="#000" stroke-width="2" fill="#c1e4f7"/><use xlink:href="#f" transform="matrix(1,0,0,1,126.72340334732087,165) translate(75 3.7333333333333196)"/><use xlink:href="#g" transform="matrix(1,0,0,1,126.72340334732087,165) translate(40.1851851851852 30.666666666666643)"/><path d="M151.64 183.95l.07-84.42M151.64 183.92v1.03" stroke="#000" stroke-width="2" fill="none"/><path d="M151.72 84.26l4.62 14.27h-9.27z" stroke="#000" stroke-width="2"/><path d="M221 53.72h81.22M221.04 53.72H220" stroke="#000" stroke-width="2" fill="none"/><path d="M317.5 53.72l-14.28 4.64V49.1z" stroke="#000" stroke-width="2"/><path d="M22 187h81.22M22.04 187H21" stroke="#c92d39" stroke-width="2" fill="none"/><path d="M118.5 187l-14.28 4.64v-9.28z" stroke="#c92d39" stroke-width="2" fill="#c92d39"/><defs><path d="M126-127c33 6 58 20 58 59 0 88-139 92-164 29-3-8-5-16-6-25l32-3c6 27 21 44 54 44 32 0 52-15 52-46 0-38-36-46-79-43v-28c39 1 72-4 72-42 0-27-17-43-46-43-28 0-47 15-49 41l-32-3c6-42 35-63 81-64 48-1 79 21 79 65 0 36-21 52-52 59" id="h"/><use transform="matrix(0.08703703703703701,0,0,0.08703703703703701,0,0)" xlink:href="#h" id="b"/><path d="M27 0v-27h64v-190l-56 39v-29l58-41h29v221h61V0H27" id="i"/><use transform="matrix(0.08703703703703701,0,0,0.08703703703703701,0,0)" xlink:href="#i" id="d"/><path d="M155-56V0h-30v-56H8v-25l114-167h33v167h35v25h-35zm-30-156c-27 46-58 90-88 131h88v-131" id="j"/><use transform="matrix(0.08703703703703701,0,0,0.08703703703703701,0,0)" xlink:href="#j" id="e"/><path d="M106-169C34-169 62-67 57 0H25v-261h32l-1 103c12-21 28-36 61-36 89 0 53 116 60 194h-32v-121c2-32-8-49-39-48" id="k"/><path d="M100-194c63 0 86 42 84 106H49c0 40 14 67 53 68 26 1 43-12 49-29l28 8c-11 28-37 45-77 45C44 4 14-33 15-96c1-61 26-98 85-98zm52 81c6-60-76-77-97-28-3 7-6 17-6 28h103" id="l"/><path d="M141-36C126-15 110 5 73 4 37 3 15-17 15-53c-1-64 63-63 125-63 3-35-9-54-41-54-24 1-41 7-42 31l-33-3c5-37 33-52 76-52 45 0 72 20 72 64v82c-1 20 7 32 28 27v20c-31 9-61-2-59-35zM48-53c0 20 12 33 32 33 41-3 63-29 60-74-43 2-92-5-92 41" id="m"/><path d="M85-194c31 0 48 13 60 33l-1-100h32l1 261h-30c-2-10 0-23-3-31C134-8 116 4 85 4 32 4 16-35 15-94c0-66 23-100 70-100zm9 24c-40 0-46 34-46 75 0 40 6 74 45 74 42 0 51-32 51-76 0-42-9-74-50-73" id="n"/><g id="g"><use transform="matrix(0.08703703703703701,0,0,0.08703703703703701,0,0)" xlink:href="#k"/><use transform="matrix(0.08703703703703701,0,0,0.08703703703703701,17.4074074074074,0)" xlink:href="#l"/><use transform="matrix(0.08703703703703701,0,0,0.08703703703703701,34.8148148148148,0)" xlink:href="#m"/><use transform="matrix(0.08703703703703701,0,0,0.08703703703703701,52.22222222222219,0)" xlink:href="#n"/></g></defs></g></svg>