<svg xmlns="http://www.w3.org/2000/svg" xmlns:xlink="http://www.w3.org/1999/xlink" xmlns:lucid="lucid" width="776.28" height="96.57"><g transform="translate(-10.009953688127986 -5.439132099857858)" lucid:page-tab-id="0_0"><path d="M0 0h1760v1360H0z" fill="#fff"/><path d="M121.72 27.42h60v52.6h-60z" stroke="#000" stroke-width="2" fill="#99d5ca"/><use xlink:href="#a" transform="matrix(1,0,0,1,126.72340334732087,32.42340334731976) translate(25 5.511111111111099)"/><use xlink:href="#b" transform="matrix(1,0,0,1,126.72340334732087,32.42340334731976) translate(16.296296296296298 33.333333333333314)"/><path d="M181.72 27.42h60v52.6h-60z" stroke="#000" stroke-width="2" fill="#99d5ca"/><use xlink:href="#a" transform="matrix(1,0,0,1,186.72340334732087,32.42340334731976) translate(25 5.511111111111099)"/><use xlink:href="#c" transform="matrix(1,0,0,1,186.72340334732087,32.42340334731976) translate(25 33.333333333333314)"/><path d="M219 53.72c0 4.02-3.26 7.28-7.28 7.28-4.02 0-7.27-3.26-7.27-7.28 0-4.02 3.25-7.27 7.27-7.27S219 49.7 219 53.72z" stroke="#000" stroke-width="2"/><path d="M221 53.72h81.22" stroke="#000" stroke-width="2" fill="none"/><path d="M221.04 54.72h-1.24l.22-.96-.15-1.04h1.17z"/><path d="M317.5 53.72l-14.28 4.64V49.1z" stroke="#000" stroke-width="2"/><path d="M321.72 27.42h60v52.6h-60z" stroke="#000" stroke-width="2" fill="#99d5ca"/><use xlink:href="#a" transform="matrix(1,0,0,1,326.72340334732087,32.42340334731976) translate(25 5.511111111111099)"/><use xlink:href="#d" transform="matrix(1,0,0,1,326.72340334732087,32.42340334731976) translate(16.296296296296298 33.333333333333314)"/><path d="M381.72 27.42h60v52.6h-60z" stroke="#000" stroke-width="2" fill="#99d5ca"/><use xlink:href="#a" transform="matrix(1,0,0,1,386.7234033473209,32.42340334731976) translate(25 5.511111111111099)"/><use xlink:href="#c" transform="matrix(1,0,0,1,386.7234033473209,32.42340334731976) translate(25 33.333333333333314)"/><path d="M419 53.72c0 4.02-3.26 7.28-7.28 7.28-4.02 0-7.27-3.26-7.27-7.28 0-4.02 3.25-7.27 7.27-7.27S419 49.7 419 53.72z" stroke="#000" stroke-width="2"/><path d="M421 53.72h81.22" stroke="#000" stroke-width="2" fill="none"/><path d="M421.04 54.72h-1.24l.22-.96-.15-1.04h1.17z"/><path d="M517.5 53.72l-14.28 4.64V49.1z" stroke="#000" stroke-width="2"/><path d="M521.72 27.42h60v52.6h-60z" stroke="#000" stroke-width="2" fill="#99d5ca"/><use xlink:href="#a" transform="matrix(1,0,0,1,526.7234033473209,32.42340334731976) translate(25 5.511111111111099)"/><use xlink:href="#e" transform="matrix(1,0,0,1,526.7234033473209,32.42340334731976) translate(16.296296296296298 33.333333333333314)"/><path d="M581.72 27.42h60v52.6h-60z" stroke="#000" stroke-width="2" fill="#99d5ca"/><use xlink:href="#a" transform="matrix(1,0,0,1,586.7234033473209,32.42340334731976) translate(25 5.511111111111099)"/><use xlink:href="#c" transform="matrix(1,0,0,1,586.7234033473209,32.42340334731976) translate(25 33.333333333333314)"/><path d="M619 53.72c0 4.02-3.26 7.28-7.28 7.28-4.02 0-7.27-3.26-7.27-7.28 0-4.02 3.25-7.27 7.27-7.27S619 49.7 619 53.72z" stroke="#000" stroke-width="2"/><path d="M621 53.72h82.22" stroke="#000" stroke-width="2" fill="none"/><path d="M621.04 54.72h-1.24l.22-.96-.15-1.04h1.17z"/><path d="M718.5 53.72l-14.28 4.64V49.1z" stroke="#000" stroke-width="2"/><path d="M22 53.72h81.22M22.04 53.72H21" stroke="#c92d39" stroke-width="2" fill="none"/><path d="M118.5 53.72l-14.28 4.64V49.1z" stroke="#c92d39" stroke-width="2" fill="#c92d39"/><g><path d="M725.32 38.13l12.7 12.7 12.68-12.7 2.9 2.9-12.68 12.7L753.6 66.4l-2.9 2.92-12.7-12.7-12.68 12.7-2.9-2.9 12.68-12.7-12.7-12.68z" stroke="#000" stroke-width="2"/></g><defs><path d="M126-127c33 6 58 20 58 59 0 88-139 92-164 29-3-8-5-16-6-25l32-3c6 27 21 44 54 44 32 0 52-15 52-46 0-38-36-46-79-43v-28c39 1 72-4 72-42 0-27-17-43-46-43-28 0-47 15-49 41l-32-3c6-42 35-63 81-64 48-1 79 21 79 65 0 36-21 52-52 59" id="f"/><use transform="matrix(0.08703703703703701,0,0,0.08703703703703701,0,0)" xlink:href="#f" id="b"/><path d="M27 0v-27h64v-190l-56 39v-29l58-41h29v221h61V0H27" id="g"/><use transform="matrix(0.08703703703703701,0,0,0.08703703703703701,0,0)" xlink:href="#g" id="d"/><path d="M155-56V0h-30v-56H8v-25l114-167h33v167h35v25h-35zm-30-156c-27 46-58 90-88 131h88v-131" id="h"/><use transform="matrix(0.08703703703703701,0,0,0.08703703703703701,0,0)" xlink:href="#h" id="e"/></defs></g></svg>