<svg xmlns="http://www.w3.org/2000/svg" xmlns:xlink="http://www.w3.org/1999/xlink" xmlns:lucid="lucid" width="291.71" height="215.16"><g transform="translate(-10.009953687737891 0)" lucid:page-tab-id="0_0"><path d="M0 0h1760v1360H0z" fill="#fff"/><path d="M138.6 32.7l12.68 12.68 12.7-12.7 2.9 2.92-12.7 12.68 12.7 12.7-2.9 2.9-12.7-12.7-12.68 12.7-2.9-2.9 12.68-12.7-12.7-12.68z" stroke="#000" stroke-width="2"/><path d="M121.72 142.56h160v52.6h-160z" stroke="#000" stroke-width="2" fill="#c1e4f7"/><use xlink:href="#a" transform="matrix(1,0,0,1,126.72340334732087,147.56086790014217) translate(75 3.7333333333333196)"/><use xlink:href="#b" transform="matrix(1,0,0,1,126.72340334732087,147.56086790014217) translate(40.1851851851852 30.666666666666643)"/><path d="M151.64 166.5l.07-84.4M151.64 166.48v1.03" stroke="#000" stroke-width="2" fill="none"/><path d="M151.72 66.82l4.62 14.27-9.27-.02z" stroke="#000" stroke-width="2"/><path d="M22 169.56h81.22M22.04 169.56H21" stroke="#c92d39" stroke-width="2" fill="none"/><path d="M118.5 169.56l-14.28 4.64v-9.27z" stroke="#c92d39" stroke-width="2" fill="#c92d39"/><defs><path d="M106-169C34-169 62-67 57 0H25v-261h32l-1 103c12-21 28-36 61-36 89 0 53 116 60 194h-32v-121c2-32-8-49-39-48" id="c"/><path d="M100-194c63 0 86 42 84 106H49c0 40 14 67 53 68 26 1 43-12 49-29l28 8c-11 28-37 45-77 45C44 4 14-33 15-96c1-61 26-98 85-98zm52 81c6-60-76-77-97-28-3 7-6 17-6 28h103" id="d"/><path d="M141-36C126-15 110 5 73 4 37 3 15-17 15-53c-1-64 63-63 125-63 3-35-9-54-41-54-24 1-41 7-42 31l-33-3c5-37 33-52 76-52 45 0 72 20 72 64v82c-1 20 7 32 28 27v20c-31 9-61-2-59-35zM48-53c0 20 12 33 32 33 41-3 63-29 60-74-43 2-92-5-92 41" id="e"/><path d="M85-194c31 0 48 13 60 33l-1-100h32l1 261h-30c-2-10 0-23-3-31C134-8 116 4 85 4 32 4 16-35 15-94c0-66 23-100 70-100zm9 24c-40 0-46 34-46 75 0 40 6 74 45 74 42 0 51-32 51-76 0-42-9-74-50-73" id="f"/><g id="b"><use transform="matrix(0.08703703703703701,0,0,0.08703703703703701,0,0)" xlink:href="#c"/><use transform="matrix(0.08703703703703701,0,0,0.08703703703703701,17.4074074074074,0)" xlink:href="#d"/><use transform="matrix(0.08703703703703701,0,0,0.08703703703703701,34.8148148148148,0)" xlink:href="#e"/><use transform="matrix(0.08703703703703701,0,0,0.08703703703703701,52.22222222222219,0)" xlink:href="#f"/></g></defs></g></svg>