<svg xmlns="http://www.w3.org/2000/svg" xmlns:xlink="http://www.w3.org/1999/xlink" xmlns:lucid="lucid" width="462" height="582"><g transform="translate(1 1)" lucid:page-tab-id="0_0"><path d="M0 0h1760v1360H0z" fill="#fff"/><path d="M440 50c0 16.57-13.43 30-30 30s-30-13.43-30-30 13.43-30 30-30 30 13.43 30 30z" stroke="#000" stroke-width="2" fill="#fff"/><use xlink:href="#a" transform="matrix(1,0,0,1,385,25) translate(16.2962962962963 35.766666666666666)"/><path d="M380 130c0 16.57-13.43 30-30 30s-30-13.43-30-30 13.43-30 30-30 30 13.43 30 30z" stroke="#000" stroke-width="2" fill="#fff"/><use xlink:href="#b" transform="matrix(1,0,0,1,325,105) translate(16.2962962962963 35.766666666666666)"/><path d="M390.83 75.56l-21.66 28.88" stroke="#000" stroke-width="2" fill="none"/><path d="M390.84 74.38l1.42.94-.65.86-1.6-1.2.62-.8zM370 105.02l-.62.8-.22-.2-1.42-.94.65-.86z" stroke="#000" stroke-width=".05"/><path d="M320 210c0 16.57-13.43 30-30 30s-30-13.43-30-30 13.43-30 30-30 30 13.43 30 30z" stroke="#000" stroke-width="2" fill="#fff"/><use xlink:href="#c" transform="matrix(1,0,0,1,265,185) translate(16.2962962962963 35.766666666666666)"/><path d="M330.83 155.56l-21.66 28.88" stroke="#000" stroke-width="2" fill="none"/><path d="M330.84 154.38l1.42.94-.65.86-1.6-1.2.62-.8zM310 185.02l-.62.8-.22-.2-1.42-.94.65-.86z" stroke="#000" stroke-width=".05"/><path d="M260 290c0 16.57-13.43 30-30 30s-30-13.43-30-30 13.43-30 30-30 30 13.43 30 30z" stroke="#000" stroke-width="2" fill="#fff"/><use xlink:href="#d" transform="matrix(1,0,0,1,205,265) translate(16.2962962962963 35.766666666666666)"/><path d="M270.83 235.56l-21.66 28.88" stroke="#000" stroke-width="2" fill="none"/><path d="M270.84 234.38l1.42.94-.65.86-1.6-1.2.62-.8zM250 265.02l-.62.8-.22-.2-1.42-.94.65-.86z" stroke="#000" stroke-width=".05"/><path d="M200 370c0 16.57-13.43 30-30 30s-30-13.43-30-30 13.43-30 30-30 30 13.43 30 30z" stroke="#000" stroke-width="2" fill="#fff"/><use xlink:href="#e" transform="matrix(1,0,0,1,145,345) translate(16.2962962962963 35.766666666666666)"/><path d="M210.83 315.56l-21.66 28.88" stroke="#000" stroke-width="2" fill="none"/><path d="M210.84 314.38l1.42.94-.65.86-1.6-1.2.62-.8zM190 345.02l-.62.8-.22-.2-1.42-.94.65-.86z" stroke="#000" stroke-width=".05"/><path d="M140 450c0 16.57-13.43 30-30 30s-30-13.43-30-30 13.43-30 30-30 30 13.43 30 30z" stroke="#000" stroke-width="2" fill="#fff"/><use xlink:href="#f" transform="matrix(1,0,0,1,85,425) translate(16.2962962962963 35.766666666666666)"/><path d="M129.17 424.44l21.66-28.88" stroke="#000" stroke-width="2" fill="none"/><path d="M130 425.02l-.62.8-.22-.2-1.42-.94.65-.86zM150.84 394.38l1.42.94-.65.86-1.6-1.2.62-.8z" stroke="#000" stroke-width=".05"/><path d="M80 530c0 16.57-13.43 30-30 30s-30-13.43-30-30 13.43-30 30-30 30 13.43 30 30z" stroke="#000" stroke-width="2" fill="#fff"/><use xlink:href="#g" transform="matrix(1,0,0,1,25,505) translate(16.2962962962963 35.766666666666666)"/><path d="M90.83 475.56l-21.66 28.88" stroke="#000" stroke-width="2" fill="none"/><path d="M90.84 474.38l1.42.94-.65.86-1.6-1.2.62-.8zM70 505.02l-.62.8-.22-.2-1.42-.94.65-.86z" stroke="#000" stroke-width=".05"/><defs><path d="M64 0c3-98 48-159 88-221H18v-27h164v26C143-157 98-101 97 0H64" id="h"/><use transform="matrix(0.087037037037037,0,0,0.087037037037037,0,0)" xlink:href="#h" id="a"/><path d="M110-160c48 1 74 30 74 79 0 53-28 85-80 85-65 0-83-55-86-122-5-90 50-162 133-122 14 7 22 21 27 39l-31 6c-5-40-67-38-82-6-9 19-15 44-15 74 11-20 30-34 60-33zm-7 138c34 0 49-23 49-58s-16-56-50-56c-29 0-50 16-49 49 1 36 15 65 50 65" id="i"/><use transform="matrix(0.087037037037037,0,0,0.087037037037037,0,0)" xlink:href="#i" id="b"/><path d="M54-142c48-35 137-8 131 61C196 18 31 33 14-55l32-4c7 23 22 37 52 37 35-1 51-22 54-58 4-55-73-65-99-34H22l8-134h141v27H59" id="j"/><use transform="matrix(0.087037037037037,0,0,0.087037037037037,0,0)" xlink:href="#j" id="c"/><path d="M155-56V0h-30v-56H8v-25l114-167h33v167h35v25h-35zm-30-156c-27 46-58 90-88 131h88v-131" id="k"/><use transform="matrix(0.087037037037037,0,0,0.087037037037037,0,0)" xlink:href="#k" id="d"/><path d="M126-127c33 6 58 20 58 59 0 88-139 92-164 29-3-8-5-16-6-25l32-3c6 27 21 44 54 44 32 0 52-15 52-46 0-38-36-46-79-43v-28c39 1 72-4 72-42 0-27-17-43-46-43-28 0-47 15-49 41l-32-3c6-42 35-63 81-64 48-1 79 21 79 65 0 36-21 52-52 59" id="l"/><use transform="matrix(0.087037037037037,0,0,0.087037037037037,0,0)" xlink:href="#l" id="e"/><path d="M101-251c82-7 93 87 43 132L82-64C71-53 59-42 53-27h129V0H18c2-99 128-94 128-182 0-28-16-43-45-43s-46 15-49 41l-32-3c6-41 34-60 81-64" id="m"/><use transform="matrix(0.087037037037037,0,0,0.087037037037037,0,0)" xlink:href="#m" id="f"/><path d="M27 0v-27h64v-190l-56 39v-29l58-41h29v221h61V0H27" id="n"/><use transform="matrix(0.087037037037037,0,0,0.087037037037037,0,0)" xlink:href="#n" id="g"/></defs></g></svg>