<svg xmlns="http://www.w3.org/2000/svg" xmlns:xlink="http://www.w3.org/1999/xlink" xmlns:lucid="lucid" width="952" height="320"><g transform="translate(3 3)" lucid:page-tab-id="0_0"><path d="M0 0h1760v1360H0z" fill="#fff"/><path d="M258 47.5c0 16.84-13.66 30.5-30.5 30.5S197 64.34 197 47.5 210.66 17 227.5 17 258 30.66 258 47.5z" stroke="#000" stroke-width="2" fill="#fff"/><use xlink:href="#a" transform="matrix(1,0,0,1,202,22) translate(16.796296296296305 34.766666666666666)"/><path d="M137 157c0 16.84-13.66 30.5-30.5 30.5S76 173.84 76 157s13.66-30.5 30.5-30.5S137 140.16 137 157z" stroke="#000" stroke-width="2" fill="#fff"/><use xlink:href="#b" transform="matrix(1,0,0,1,81,131.5) translate(16.796296296296305 34.766666666666666)"/><path d="M379 157c0 16.84-13.66 30.5-30.5 30.5S318 173.84 318 157s13.66-30.5 30.5-30.5S379 140.16 379 157z" stroke="#000" stroke-width="2" fill="#fff"/><use xlink:href="#c" transform="matrix(1,0,0,1,323,131.5) translate(16.796296296296305 34.766666666666666)"/><path d="M78 266.5c0 16.84-13.66 30.5-30.5 30.5S17 283.34 17 266.5 30.66 236 47.5 236 78 249.66 78 266.5z" stroke="#000" stroke-width="2" fill="#fff"/><use xlink:href="#d" transform="matrix(1,0,0,1,22,241) translate(16.796296296296305 34.766666666666666)"/><path d="M198 266.5c0 16.84-13.66 30.5-30.5 30.5S137 283.34 137 266.5s13.66-30.5 30.5-30.5 30.5 13.66 30.5 30.5z" stroke="#000" stroke-width="2" fill="#fff"/><use xlink:href="#e" transform="matrix(1,0,0,1,142,241) translate(16.796296296296305 34.766666666666666)"/><path d="M318 266.5c0 16.84-13.66 30.5-30.5 30.5S257 283.34 257 266.5s13.66-30.5 30.5-30.5 30.5 13.66 30.5 30.5z" stroke="#000" stroke-width="2" fill="#fff"/><use xlink:href="#f" transform="matrix(1,0,0,1,262,241) translate(16.796296296296305 34.766666666666666)"/><path d="M440 266.5c0 16.84-13.66 30.5-30.5 30.5S379 283.34 379 266.5s13.66-30.5 30.5-30.5 30.5 13.66 30.5 30.5z" stroke="#000" stroke-width="2" fill="#fff"/><use xlink:href="#g" transform="matrix(1,0,0,1,384,241) translate(16.796296296296305 34.766666666666666)"/><path d="M203.43 69.3l-72.86 65.9" stroke="#000" stroke-width="2" fill="none"/><path d="M204.47 69l.38.34-.77.7-1.34-1.48.8-.73zM131.26 135.94l-.8.73-.93-1.16-.38-.34.77-.7z" stroke="#000" stroke-width=".05"/><path d="M251.52 69.24l72.96 66.02" stroke="#000" stroke-width="2" fill="none"/><path d="M252.2 68.5l-1.33 1.5-.76-.7 1.35-1.47zM325.9 135.2l-1.35 1.47-.76-.68 1.33-1.5z" stroke="#000" stroke-width=".05"/><path d="M91.08 185.6l-28.16 52.3" stroke="#000" stroke-width="2" fill="none"/><path d="M91.64 184.8l.83.35-.52.96-1.76-.94.52-.97zM63.8 238.34l-.52.97-.92-.6-.83-.35.52-.96z" stroke="#000" stroke-width=".05"/><path d="M122.27 185.3l29.46 52.9" stroke="#000" stroke-width="2" fill="none"/><path d="M123.16 184.84l-1.75.98-.5-.9 1.76-.97zM153.1 238.58l-1.76.97-.5-.9 1.75-.97z" stroke="#000" stroke-width=".05"/><path d="M332.7 185.36l-29.4 52.78" stroke="#000" stroke-width="2" fill="none"/><path d="M333.64 184.8l.42.17-.5.9-1.75-.97.54-.95zM304.2 238.6l-.54.95-1.3-.84-.42-.17.5-.9z" stroke="#000" stroke-width=".05"/><path d="M364.27 185.3l29.46 52.9" stroke="#000" stroke-width="2" fill="none"/><path d="M365.16 184.84l-1.75.98-.5-.9 1.76-.97zM395.1 238.58l-1.76.97-.5-.9 1.75-.97z" stroke="#000" stroke-width=".05"/><path d="M458 41.5h164v48H458z" stroke="#000" stroke-opacity="0" stroke-width="2" fill="#fff" fill-opacity="0"/><use xlink:href="#h" transform="matrix(1,0,0,1,463,46.5) translate(60.112962962963024 24.377777777777773)"/><path d="M458 109.25h164v48H458z" stroke="#000" stroke-opacity="0" stroke-width="2" fill="#fff" fill-opacity="0"/><use xlink:href="#i" transform="matrix(1,0,0,1,463,114.25) translate(40.76790123456796 24.377777777777773)"/><path d="M458 177.25h164v48H458z" stroke="#000" stroke-opacity="0" stroke-width="2" fill="#fff" fill-opacity="0"/><use xlink:href="#j" transform="matrix(1,0,0,1,463,182.25) translate(28.742592592592658 24.377777777777773)"/><path d="M458 245.25h164v48H458z" stroke="#000" stroke-opacity="0" stroke-width="2" fill="#fff" fill-opacity="0"/><use xlink:href="#k" transform="matrix(1,0,0,1,463,250.25) translate(18.36049382716058 24.377777777777773)"/><path d="M650 41.5h279v48H650z" stroke="#000" stroke-opacity="0" stroke-width="2" fill="#fff" fill-opacity="0"/><use xlink:href="#l" transform="matrix(1,0,0,1,655,46.5) translate(0 24.377777777777773)"/><use xlink:href="#m" transform="matrix(1,0,0,1,655,46.5) translate(29.876543209876523 24.377777777777773)"/><use xlink:href="#n" transform="matrix(1,0,0,1,655,46.5) translate(59.753086419753046 24.377777777777773)"/><use xlink:href="#o" transform="matrix(1,0,0,1,655,46.5) translate(89.62962962962956 24.377777777777773)"/><use xlink:href="#p" transform="matrix(1,0,0,1,655,46.5) translate(119.50617283950609 24.377777777777773)"/><use xlink:href="#q" transform="matrix(1,0,0,1,655,46.5) translate(149.38271604938262 24.377777777777773)"/><use xlink:href="#r" transform="matrix(1,0,0,1,655,46.5) translate(179.25925925925915 24.377777777777773)"/><path d="M650 109.5h279v48H650z" stroke="#000" stroke-opacity="0" stroke-width="2" fill="#fff" fill-opacity="0"/><g><use xlink:href="#s" transform="matrix(1,0,0,1,655,114.5) translate(0 24.377777777777773)"/><use xlink:href="#m" transform="matrix(1,0,0,1,655,114.5) translate(29.876543209876523 24.377777777777773)"/><use xlink:href="#t" transform="matrix(1,0,0,1,655,114.5) translate(59.753086419753046 24.377777777777773)"/><use xlink:href="#n" transform="matrix(1,0,0,1,655,114.5) translate(89.62962962962956 24.377777777777773)"/><use xlink:href="#q" transform="matrix(1,0,0,1,655,114.5) translate(119.50617283950609 24.377777777777773)"/><use xlink:href="#p" transform="matrix(1,0,0,1,655,114.5) translate(149.38271604938262 24.377777777777773)"/><use xlink:href="#r" transform="matrix(1,0,0,1,655,114.5) translate(179.25925925925915 24.377777777777773)"/></g><path d="M650 177.5h279v48H650z" stroke="#000" stroke-opacity="0" stroke-width="2" fill="#fff" fill-opacity="0"/><g><use xlink:href="#l" transform="matrix(1,0,0,1,655,182.5) translate(0 24.377777777777773)"/><use xlink:href="#n" transform="matrix(1,0,0,1,655,182.5) translate(29.876543209876523 24.377777777777773)"/><use xlink:href="#m" transform="matrix(1,0,0,1,655,182.5) translate(59.753086419753046 24.377777777777773)"/><use xlink:href="#p" transform="matrix(1,0,0,1,655,182.5) translate(89.62962962962956 24.377777777777773)"/><use xlink:href="#u" transform="matrix(1,0,0,1,655,182.5) translate(119.50617283950609 24.377777777777773)"/><use xlink:href="#q" transform="matrix(1,0,0,1,655,182.5) translate(149.38271604938262 24.377777777777773)"/><use xlink:href="#v" transform="matrix(1,0,0,1,655,182.5) translate(179.25925925925915 24.377777777777773)"/></g><path d="M650 245.5h279v48H650z" stroke="#000" stroke-opacity="0" stroke-width="2" fill="#fff" fill-opacity="0"/><g><use xlink:href="#s" transform="matrix(1,0,0,1,655,250.5) translate(0 24.377777777777773)"/><use xlink:href="#m" transform="matrix(1,0,0,1,655,250.5) translate(29.876543209876523 24.377777777777773)"/><use xlink:href="#q" transform="matrix(1,0,0,1,655,250.5) translate(59.753086419753046 24.377777777777773)"/><use xlink:href="#t" transform="matrix(1,0,0,1,655,250.5) translate(89.62962962962956 24.377777777777773)"/><use xlink:href="#n" transform="matrix(1,0,0,1,655,250.5) translate(119.50617283950609 24.377777777777773)"/><use xlink:href="#p" transform="matrix(1,0,0,1,655,250.5) translate(149.38271604938262 24.377777777777773)"/><use xlink:href="#r" transform="matrix(1,0,0,1,655,250.5) translate(179.25925925925915 24.377777777777773)"/></g><defs><path d="M54-142c48-35 137-8 131 61C196 18 31 33 14-55l32-4c7 23 22 37 52 37 35-1 51-22 54-58 4-55-73-65-99-34H22l8-134h141v27H59" id="w"/><use transform="matrix(0.08703703703703697,0,0,0.08703703703703697,0,0)" xlink:href="#w" id="a"/><path d="M126-127c33 6 58 20 58 59 0 88-139 92-164 29-3-8-5-16-6-25l32-3c6 27 21 44 54 44 32 0 52-15 52-46 0-38-36-46-79-43v-28c39 1 72-4 72-42 0-27-17-43-46-43-28 0-47 15-49 41l-32-3c6-42 35-63 81-64 48-1 79 21 79 65 0 36-21 52-52 59" id="x"/><use transform="matrix(0.08703703703703697,0,0,0.08703703703703697,0,0)" xlink:href="#x" id="b"/><path d="M134-131c28 9 52 24 51 62-1 50-34 73-85 73S17-19 16-69c0-36 21-54 49-61-75-25-45-126 34-121 46 3 78 18 79 63 0 33-17 51-44 57zm-34-11c31 1 46-15 46-44 0-28-17-43-47-42-29 0-46 13-45 42 1 28 16 44 46 44zm1 122c35 0 51-18 51-52 0-30-18-46-53-46-33 0-51 17-51 47 0 34 19 51 53 51" id="y"/><use transform="matrix(0.08703703703703697,0,0,0.08703703703703697,0,0)" xlink:href="#y" id="c"/><path d="M27 0v-27h64v-190l-56 39v-29l58-41h29v221h61V0H27" id="z"/><use transform="matrix(0.08703703703703697,0,0,0.08703703703703697,0,0)" xlink:href="#z" id="d"/><path d="M155-56V0h-30v-56H8v-25l114-167h33v167h35v25h-35zm-30-156c-27 46-58 90-88 131h88v-131" id="A"/><use transform="matrix(0.08703703703703697,0,0,0.08703703703703697,0,0)" xlink:href="#A" id="e"/><path d="M64 0c3-98 48-159 88-221H18v-27h164v26C143-157 98-101 97 0H64" id="B"/><use transform="matrix(0.08703703703703697,0,0,0.08703703703703697,0,0)" xlink:href="#B" id="f"/><path d="M99-251c64 0 84 50 84 122C183-37 130 33 47-8c-14-7-20-23-25-40l30-5c6 39 69 39 84 7 9-19 16-44 16-74-10 22-31 35-62 35-49 0-73-33-73-83 0-54 28-83 82-83zm-1 141c31-1 51-18 51-49 0-36-14-67-51-67-34 0-49 23-49 58 0 34 15 58 49 58" id="C"/><use transform="matrix(0.08703703703703697,0,0,0.08703703703703697,0,0)" xlink:href="#C" id="g"/><path d="M33 0v-248h34V0H33" id="D"/><path d="M117-194c89-4 53 116 60 194h-32v-121c0-31-8-49-39-48C34-167 62-67 57 0H25l-1-190h30c1 10-1 24 2 32 11-22 29-35 61-36" id="E"/><path d="M16-82v-28h88v28H16" id="F"/><path d="M100-194c62-1 85 37 85 99 1 63-27 99-86 99S16-35 15-95c0-66 28-99 85-99zM99-20c44 1 53-31 53-75 0-43-8-75-51-75s-53 32-53 75 10 74 51 75" id="G"/><path d="M114-163C36-179 61-72 57 0H25l-1-190h30c1 12-1 29 2 39 6-27 23-49 58-41v29" id="H"/><path d="M85-194c31 0 48 13 60 33l-1-100h32l1 261h-30c-2-10 0-23-3-31C134-8 116 4 85 4 32 4 16-35 15-94c0-66 23-100 70-100zm9 24c-40 0-46 34-46 75 0 40 6 74 45 74 42 0 51-32 51-76 0-42-9-74-50-73" id="I"/><path d="M100-194c63 0 86 42 84 106H49c0 40 14 67 53 68 26 1 43-12 49-29l28 8c-11 28-37 45-77 45C44 4 14-33 15-96c1-61 26-98 85-98zm52 81c6-60-76-77-97-28-3 7-6 17-6 28h103" id="J"/><g id="h"><use transform="matrix(0.0746913580246913,0,0,0.0746913580246913,0,0)" xlink:href="#D"/><use transform="matrix(0.0746913580246913,0,0,0.0746913580246913,7.469135802469131,0)" xlink:href="#E"/><use transform="matrix(0.0746913580246913,0,0,0.0746913580246913,22.40740740740739,0)" xlink:href="#F"/><use transform="matrix(0.0746913580246913,0,0,0.0746913580246913,31.295679012345655,0)" xlink:href="#G"/><use transform="matrix(0.0746913580246913,0,0,0.0746913580246913,46.23395061728392,0)" xlink:href="#H"/><use transform="matrix(0.0746913580246913,0,0,0.0746913580246913,55.12222222222217,0)" xlink:href="#I"/><use transform="matrix(0.0746913580246913,0,0,0.0746913580246913,70.06049382716044,0)" xlink:href="#J"/><use transform="matrix(0.0746913580246913,0,0,0.0746913580246913,84.99876543209871,0)" xlink:href="#H"/></g><path d="M30-248c87 1 191-15 191 75 0 78-77 80-158 76V0H30v-248zm33 125c57 0 124 11 124-50 0-59-68-47-124-48v98" id="K"/><g id="i"><use transform="matrix(0.0746913580246913,0,0,0.0746913580246913,0,0)" xlink:href="#K"/><use transform="matrix(0.0746913580246913,0,0,0.0746913580246913,17.925925925925913,0)" xlink:href="#H"/><use transform="matrix(0.0746913580246913,0,0,0.0746913580246913,26.814197530864178,0)" xlink:href="#J"/><use transform="matrix(0.0746913580246913,0,0,0.0746913580246913,41.752469135802436,0)" xlink:href="#F"/><use transform="matrix(0.0746913580246913,0,0,0.0746913580246913,50.64074074074071,0)" xlink:href="#G"/><use transform="matrix(0.0746913580246913,0,0,0.0746913580246913,65.57901234567898,0)" xlink:href="#H"/><use transform="matrix(0.0746913580246913,0,0,0.0746913580246913,74.46728395061724,0)" xlink:href="#I"/><use transform="matrix(0.0746913580246913,0,0,0.0746913580246913,89.40555555555551,0)" xlink:href="#J"/><use transform="matrix(0.0746913580246913,0,0,0.0746913580246913,104.34382716049377,0)" xlink:href="#H"/></g><path d="M135-143c-3-34-86-38-87 0 15 53 115 12 119 90S17 21 10-45l28-5c4 36 97 45 98 0-10-56-113-15-118-90-4-57 82-63 122-42 12 7 21 19 24 35" id="L"/><path d="M59-47c-2 24 18 29 38 22v24C64 9 27 4 27-40v-127H5v-23h24l9-43h21v43h35v23H59v120" id="M"/><g id="j"><use transform="matrix(0.0746913580246913,0,0,0.0746913580246913,0,0)" xlink:href="#K"/><use transform="matrix(0.0746913580246913,0,0,0.0746913580246913,17.925925925925913,0)" xlink:href="#G"/><use transform="matrix(0.0746913580246913,0,0,0.0746913580246913,32.864197530864175,0)" xlink:href="#L"/><use transform="matrix(0.0746913580246913,0,0,0.0746913580246913,46.30864197530861,0)" xlink:href="#M"/><use transform="matrix(0.0746913580246913,0,0,0.0746913580246913,53.777777777777736,0)" xlink:href="#F"/><use transform="matrix(0.0746913580246913,0,0,0.0746913580246913,62.66604938271601,0)" xlink:href="#G"/><use transform="matrix(0.0746913580246913,0,0,0.0746913580246913,77.60432098765428,0)" xlink:href="#H"/><use transform="matrix(0.0746913580246913,0,0,0.0746913580246913,86.49259259259254,0)" xlink:href="#I"/><use transform="matrix(0.0746913580246913,0,0,0.0746913580246913,101.43086419753081,0)" xlink:href="#J"/><use transform="matrix(0.0746913580246913,0,0,0.0746913580246913,116.36913580246907,0)" xlink:href="#H"/></g><path d="M30 0v-248h33v221h125V0H30" id="N"/><path d="M108 0H70L1-190h34L89-25l56-165h34" id="O"/><path d="M24 0v-261h32V0H24" id="P"/><g id="k"><use transform="matrix(0.0746913580246913,0,0,0.0746913580246913,0,0)" xlink:href="#N"/><use transform="matrix(0.0746913580246913,0,0,0.0746913580246913,14.938271604938262,0)" xlink:href="#J"/><use transform="matrix(0.0746913580246913,0,0,0.0746913580246913,29.876543209876523,0)" xlink:href="#O"/><use transform="matrix(0.0746913580246913,0,0,0.0746913580246913,43.32098765432096,0)" xlink:href="#J"/><use transform="matrix(0.0746913580246913,0,0,0.0746913580246913,58.259259259259224,0)" xlink:href="#P"/><use transform="matrix(0.0746913580246913,0,0,0.0746913580246913,64.15987654320983,0)" xlink:href="#F"/><use transform="matrix(0.0746913580246913,0,0,0.0746913580246913,73.0481481481481,0)" xlink:href="#G"/><use transform="matrix(0.0746913580246913,0,0,0.0746913580246913,87.98641975308637,0)" xlink:href="#H"/><use transform="matrix(0.0746913580246913,0,0,0.0746913580246913,96.87469135802463,0)" xlink:href="#I"/><use transform="matrix(0.0746913580246913,0,0,0.0746913580246913,111.8129629629629,0)" xlink:href="#J"/><use transform="matrix(0.0746913580246913,0,0,0.0746913580246913,126.75123456790116,0)" xlink:href="#H"/></g><use transform="matrix(0.0746913580246913,0,0,0.0746913580246913,0,0)" xlink:href="#z" id="l"/><use transform="matrix(0.0746913580246913,0,0,0.0746913580246913,0,0)" xlink:href="#x" id="m"/><use transform="matrix(0.0746913580246913,0,0,0.0746913580246913,0,0)" xlink:href="#A" id="n"/><use transform="matrix(0.0746913580246913,0,0,0.0746913580246913,0,0)" xlink:href="#w" id="o"/><use transform="matrix(0.0746913580246913,0,0,0.0746913580246913,0,0)" xlink:href="#B" id="p"/><use transform="matrix(0.0746913580246913,0,0,0.0746913580246913,0,0)" xlink:href="#y" id="q"/><use transform="matrix(0.0746913580246913,0,0,0.0746913580246913,0,0)" xlink:href="#C" id="r"/><use transform="matrix(0.0746913580246913,0,0,0.0746913580246913,0,0)" xlink:href="#w" id="s"/><use transform="matrix(0.0746913580246913,0,0,0.0746913580246913,0,0)" xlink:href="#z" id="t"/><use transform="matrix(0.0746913580246913,0,0,0.0746913580246913,0,0)" xlink:href="#C" id="u"/><use transform="matrix(0.0746913580246913,0,0,0.0746913580246913,0,0)" xlink:href="#w" id="v"/></defs></g></svg>