<svg xmlns="http://www.w3.org/2000/svg" xmlns:xlink="http://www.w3.org/1999/xlink" xmlns:lucid="lucid" width="467" height="280"><g transform="translate(8.117081389846362 8.366990798725737)" lucid:page-tab-id="0_0"><path d="M0 0h1760v1360H0z" fill="#fff"/><path d="M255.88 42.13c0 16.85-13.65 30.5-30.5 30.5-16.84 0-30.5-13.65-30.5-30.5 0-16.84 13.66-30.5 30.5-30.5 16.85 0 30.5 13.66 30.5 30.5z" stroke="#000" stroke-width="2" fill="#fff"/><use xlink:href="#a" transform="matrix(1,0,0,1,199.88291861015364,16.633009201274263) translate(16.796296296296305 34.766666666666666)"/><path d="M133.88 131.63c0 16.85-13.65 30.5-30.5 30.5-16.84 0-30.5-13.65-30.5-30.5 0-16.84 13.66-30.5 30.5-30.5 16.85 0 30.5 13.66 30.5 30.5z" stroke="#000" stroke-width="2" fill="#fff"/><use xlink:href="#b" transform="matrix(1,0,0,1,77.88291861015364,106.13300920127426) translate(16.796296296296305 34.766666666666666)"/><path d="M377.88 131.63c0 16.85-13.65 30.5-30.5 30.5-16.84 0-30.5-13.65-30.5-30.5 0-16.84 13.66-30.5 30.5-30.5 16.85 0 30.5 13.66 30.5 30.5z" stroke="#000" stroke-width="2" fill="#fff"/><use xlink:href="#c" transform="matrix(1,0,0,1,321.88291861015364,106.13300920127426) translate(16.796296296296305 34.766666666666666)"/><path d="M316.88 221.13c0 16.85-13.65 30.5-30.5 30.5-16.84 0-30.5-13.65-30.5-30.5 0-16.84 13.66-30.5 30.5-30.5 16.85 0 30.5 13.66 30.5 30.5z" stroke="#000" stroke-width="2" fill="#fff"/><use xlink:href="#d" transform="matrix(1,0,0,1,260.88291861015364,195.63300920127426) translate(16.796296296296305 34.766666666666666)"/><path d="M438.88 221.13c0 16.85-13.65 30.5-30.5 30.5-16.84 0-30.5-13.65-30.5-30.5 0-16.84 13.66-30.5 30.5-30.5 16.85 0 30.5 13.66 30.5 30.5z" stroke="#000" stroke-width="2" fill="#fff"/><use xlink:href="#e" transform="matrix(1,0,0,1,382.88291861015364,195.63300920127426) translate(16.796296296296305 34.766666666666666)"/><path d="M199.24 61.3l-69.72 51.16" stroke="#000" stroke-width="2" fill="none"/><path d="M200.67 61.5l-.86.63-1.17-1.6.8-.6zM130.13 113.25l-.8.58-1.23-1.57.85-.62z" stroke="#000" stroke-width=".05"/><path d="M251.55 61.33l69.66 51.1" stroke="#000" stroke-width="2" fill="none"/><path d="M252.16 60.54l-1.18 1.6-.82-.6.2-.2.93-1.44zM322.6 112.2l-.2.24-.92 1.43-.88-.64 1.18-1.62z" stroke="#000" stroke-width=".05"/><path d="M329.13 158.4l-24.5 35.95" stroke="#000" stroke-width="2" fill="none"/><path d="M330.53 158.13l-.6.87-1.64-1.13.55-.82zM305.48 194.9l-.57.82-1.67-1.1.6-.85z" stroke="#000" stroke-width=".05"/><path d="M365.67 158.47l24.42 35.83" stroke="#000" stroke-width="2" fill="none"/><path d="M366.5 157.93l-1.64 1.12-.6-.87.55-.3 1.1-.86zM391.5 194.58l-.55.3-1.08.86-.62-.9 1.65-1.13z" stroke="#000" stroke-width=".05"/><path d="M194.88 221.13c0 16.85-13.65 30.5-30.5 30.5-16.84 0-30.5-13.65-30.5-30.5 0-16.84 13.66-30.5 30.5-30.5 16.85 0 30.5 13.66 30.5 30.5z" stroke="#000" stroke-width="2" fill="#fff"/><use xlink:href="#f" transform="matrix(1,0,0,1,138.88291861015364,195.63300920127426) translate(16.796296296296305 34.766666666666666)"/><path d="M72.88 221.13c0 16.85-13.65 30.5-30.5 30.5-16.84 0-30.5-13.65-30.5-30.5 0-16.84 13.66-30.5 30.5-30.5 16.85 0 30.5 13.66 30.5 30.5z" stroke="#000" stroke-width="2" fill="#fff"/><use xlink:href="#g" transform="matrix(1,0,0,1,16.882918610153638,195.63300920127426) translate(16.796296296296305 34.766666666666666)"/><path d="M85.13 158.4l-24.5 35.95" stroke="#000" stroke-width="2" fill="none"/><path d="M86.53 158.13l-.6.87-1.64-1.13.55-.82zM61.48 194.9l-.57.82-1.67-1.1.6-.85z" stroke="#000" stroke-width=".05"/><path d="M121.67 158.47l24.42 35.83" stroke="#000" stroke-width="2" fill="none"/><path d="M122.5 157.93l-1.64 1.12-.6-.87.55-.3 1.1-.86zM147.5 194.58l-.55.3-1.08.86-.62-.9 1.65-1.13z" stroke="#000" stroke-width=".05"/><defs><path d="M155-56V0h-30v-56H8v-25l114-167h33v167h35v25h-35zm-30-156c-27 46-58 90-88 131h88v-131" id="h"/><use transform="matrix(0.08703703703703697,0,0,0.08703703703703697,0,0)" xlink:href="#h" id="a"/><path d="M101-251c82-7 93 87 43 132L82-64C71-53 59-42 53-27h129V0H18c2-99 128-94 128-182 0-28-16-43-45-43s-46 15-49 41l-32-3c6-41 34-60 81-64" id="i"/><use transform="matrix(0.08703703703703697,0,0,0.08703703703703697,0,0)" xlink:href="#i" id="b"/><path d="M110-160c48 1 74 30 74 79 0 53-28 85-80 85-65 0-83-55-86-122-5-90 50-162 133-122 14 7 22 21 27 39l-31 6c-5-40-67-38-82-6-9 19-15 44-15 74 11-20 30-34 60-33zm-7 138c34 0 49-23 49-58s-16-56-50-56c-29 0-50 16-49 49 1 36 15 65 50 65" id="j"/><use transform="matrix(0.08703703703703697,0,0,0.08703703703703697,0,0)" xlink:href="#j" id="c"/><path d="M54-142c48-35 137-8 131 61C196 18 31 33 14-55l32-4c7 23 22 37 52 37 35-1 51-22 54-58 4-55-73-65-99-34H22l8-134h141v27H59" id="k"/><use transform="matrix(0.08703703703703697,0,0,0.08703703703703697,0,0)" xlink:href="#k" id="d"/><path d="M64 0c3-98 48-159 88-221H18v-27h164v26C143-157 98-101 97 0H64" id="l"/><use transform="matrix(0.08703703703703697,0,0,0.08703703703703697,0,0)" xlink:href="#l" id="e"/><path d="M126-127c33 6 58 20 58 59 0 88-139 92-164 29-3-8-5-16-6-25l32-3c6 27 21 44 54 44 32 0 52-15 52-46 0-38-36-46-79-43v-28c39 1 72-4 72-42 0-27-17-43-46-43-28 0-47 15-49 41l-32-3c6-42 35-63 81-64 48-1 79 21 79 65 0 36-21 52-52 59" id="m"/><use transform="matrix(0.08703703703703697,0,0,0.08703703703703697,0,0)" xlink:href="#m" id="f"/><path d="M27 0v-27h64v-190l-56 39v-29l58-41h29v221h61V0H27" id="n"/><use transform="matrix(0.08703703703703697,0,0,0.08703703703703697,0,0)" xlink:href="#n" id="g"/></defs></g></svg>