<svg xmlns="http://www.w3.org/2000/svg" xmlns:xlink="http://www.w3.org/1999/xlink" xmlns:lucid="lucid" width="740" height="580"><g transform="translate(-120 -100)" lucid:page-tab-id="0_0"><path d="M0 0h1870.4v1323.2H0z" fill="#fff"/><path d="M500 160c0 22.1-17.9 40-40 40s-40-17.9-40-40 17.9-40 40-40 40 17.9 40 40z" stroke="#333" stroke-width="3" fill="#fff"/><use xlink:href="#a" transform="matrix(1,0,0,1,425,125) translate(24.511172839506173 43.347222222222214)"/><path d="M740 160c0 22.1-17.9 40-40 40s-40-17.9-40-40 17.9-40 40-40 40 17.9 40 40z" stroke="#333" stroke-width="3" fill="#fff"/><use xlink:href="#b" transform="matrix(1,0,0,1,665,125) translate(24.511172839506173 43.347222222222214)"/><path d="M460 380c0 22.1-17.9 40-40 40s-40-17.9-40-40 17.9-40 40-40 40 17.9 40 40z" stroke="#333" stroke-width="3" fill="#fff"/><use xlink:href="#c" transform="matrix(1,0,0,1,385,345) translate(24.511172839506173 43.347222222222214)"/><path d="M620 340c0 22.1-17.9 40-40 40s-40-17.9-40-40 17.9-40 40-40 40 17.9 40 40z" stroke="#333" stroke-width="3" fill="#fff"/><use xlink:href="#d" transform="matrix(1,0,0,1,545,305) translate(24.511172839506173 43.347222222222214)"/><path d="M840 340c0 22.1-17.9 40-40 40s-40-17.9-40-40 17.9-40 40-40 40 17.9 40 40z" stroke="#333" stroke-width="3" fill="#fff"/><use xlink:href="#e" transform="matrix(1,0,0,1,765,305) translate(24.511172839506173 43.347222222222214)"/><path d="M640 620c0 22.1-17.9 40-40 40s-40-17.9-40-40 17.9-40 40-40 40 17.9 40 40z" stroke="#333" stroke-width="3" fill="#fff"/><use xlink:href="#f" transform="matrix(1,0,0,1,565,585) translate(24.511172839506173 43.347222222222214)"/><path d="M400 500c0 22.1-17.9 40-40 40s-40-17.9-40-40 17.9-40 40-40 40 17.9 40 40z" stroke="#333" stroke-width="3" fill="#fff"/><use xlink:href="#g" transform="matrix(1,0,0,1,325,465) translate(24.511172839506173 43.347222222222214)"/><path d="M220 580c0 22.1-17.9 40-40 40s-40-17.9-40-40 17.9-40 40-40 40 17.9 40 40z" stroke="#333" stroke-width="3" fill="#fff"/><use xlink:href="#h" transform="matrix(1,0,0,1,145,545) translate(24.511172839506173 43.347222222222214)"/><path d="M436.46 195.3L203.54 544.7" stroke="#333" stroke-width="2" fill="none"/><path d="M437.86 195l-.58.9-1.67-1.12.57-.83M204.4 545.22l-.57.83-1.7-1.06.6-.9" fill="#333"/><path d="M452.4 201.75l-24.8 136.5" stroke="#333" stroke-width="2" fill="none"/><path d="M453.57 200.95l-.18 1-1.98-.36.2-1.02M428.58 338.4l-.2 1.02-1.95-.37.18-1" fill="#333"/><path d="M461.17 369.7l77.66-19.4" stroke="#333" stroke-width="2" fill="none"/><path d="M461.44 370.67l-1 .25-.5-1.94 1-.25M540.06 351.02l-1 .25-.5-1.94 1-.25" fill="#333"/><path d="M556.44 304.67l-72.88-109.34" stroke="#333" stroke-width="2" fill="none"/><path d="M557.82 304.93l-.2.12-1.43 1.04-.6-.9 1.66-1.1M484.4 194.8l-1.66 1.1-.56-.83.2-.12 1.43-1.04" fill="#333"/><path d="M502.5 160h155" stroke="#333" stroke-width="2" fill="none"/><path d="M502.53 161h-1.1l.07-.98-.03-1.02h1.06M658.5 159.98l.03 1.02h-1.06v-2h1.1" fill="#333"/><path d="M497.55 179.88l264.9 140.24" stroke="#333" stroke-width="2" fill="none"/><path d="M498.04 179l-.94 1.77-.92-.48.27-.43.64-1.37M763.82 319.7l-.27.43-.64 1.37-.94-.5.94-1.77" fill="#333"/><path d="M622.5 340h135" stroke="#333" stroke-width="2" fill="none"/><path d="M622.53 341h-1.1l.07-.98-.03-1.02h1.06M758.5 339.98l.03 1.02h-1.06v-2h1.1" fill="#333"/><path d="M775.3 374.58L624.7 585.42" stroke="#333" stroke-width="2" fill="none"/><path d="M775.74 373.68l1 .62-.64.88-1.63-1.16.62-.87M625.53 585.98l-.62.87-.64-.53-1-.62.64-.88" fill="#333"/><path d="M583.03 382.4l13.94 195.2" stroke="#333" stroke-width="2" fill="none"/><path d="M584.03 382.35l-2 .14-.07-1.07 1.04-.03.95-.13M598.04 578.57l-1.04.03-.95.13-.08-1.08 2-.14" fill="#333"/><path d="M562.04 601.02l-164.08-82.04" stroke="#333" stroke-width="2" fill="none"/><path d="M563.35 600.56l-.84 1.8-.93-.46.9-1.8M398.43 518.1l-.9 1.8-.88-.46.84-1.8" fill="#333"/><path d="M321.2 517.24l-102.4 45.52" stroke="#333" stroke-width="2" fill="none"/><path d="M322.5 517.77l-.92.4-.8-1.83.96-.43M219.23 563.66l-.97.43-.75-1.87.92-.4" fill="#333"/><path d="M222.25 584.02l335.5 31.96" stroke="#333" stroke-width="2" fill="none"/><path d="M222.37 583.03l-.2 2-.97-.1.12-2M558.8 615.07l-.12 2-1.05-.1.2-2" fill="#333"/><defs><path fill="#333" d="M101-251c68 0 85 55 85 127S166 4 100 4C33 4 14-52 14-124c0-73 17-127 87-127zm-1 229c47 0 54-49 54-102s-4-102-53-102c-51 0-55 48-55 102 0 53 5 102 54 102" id="i"/><use transform="matrix(0.10493827160493824,0,0,0.10493827160493824,0,0)" xlink:href="#i" id="a"/><path fill="#333" d="M101-251c82-7 93 87 43 132L82-64C71-53 59-42 53-27h129V0H18c2-99 128-94 128-182 0-28-16-43-45-43s-46 15-49 41l-32-3c6-41 34-60 81-64" id="j"/><use transform="matrix(0.10493827160493824,0,0,0.10493827160493824,0,0)" xlink:href="#j" id="b"/><path fill="#333" d="M27 0v-27h64v-190l-56 39v-29l58-41h29v221h61V0H27" id="k"/><use transform="matrix(0.10493827160493824,0,0,0.10493827160493824,0,0)" xlink:href="#k" id="c"/><path fill="#333" d="M64 0c3-98 48-159 88-221H18v-27h164v26C143-157 98-101 97 0H64" id="l"/><use transform="matrix(0.10493827160493824,0,0,0.10493827160493824,0,0)" xlink:href="#l" id="d"/><path fill="#333" d="M110-160c48 1 74 30 74 79 0 53-28 85-80 85-65 0-83-55-86-122-5-90 50-162 133-122 14 7 22 21 27 39l-31 6c-5-40-67-38-82-6-9 19-15 44-15 74 11-20 30-34 60-33zm-7 138c34 0 49-23 49-58s-16-56-50-56c-29 0-50 16-49 49 1 36 15 65 50 65" id="m"/><use transform="matrix(0.10493827160493824,0,0,0.10493827160493824,0,0)" xlink:href="#m" id="e"/><path fill="#333" d="M155-56V0h-30v-56H8v-25l114-167h33v167h35v25h-35zm-30-156c-27 46-58 90-88 131h88v-131" id="n"/><use transform="matrix(0.10493827160493824,0,0,0.10493827160493824,0,0)" xlink:href="#n" id="f"/><path fill="#333" d="M126-127c33 6 58 20 58 59 0 88-139 92-164 29-3-8-5-16-6-25l32-3c6 27 21 44 54 44 32 0 52-15 52-46 0-38-36-46-79-43v-28c39 1 72-4 72-42 0-27-17-43-46-43-28 0-47 15-49 41l-32-3c6-42 35-63 81-64 48-1 79 21 79 65 0 36-21 52-52 59" id="o"/><use transform="matrix(0.10493827160493824,0,0,0.10493827160493824,0,0)" xlink:href="#o" id="g"/><path fill="#333" d="M54-142c48-35 137-8 131 61C196 18 31 33 14-55l32-4c7 23 22 37 52 37 35-1 51-22 54-58 4-55-73-65-99-34H22l8-134h141v27H59" id="p"/><use transform="matrix(0.10493827160493824,0,0,0.10493827160493824,0,0)" xlink:href="#p" id="h"/></defs></g></svg>