<svg xmlns="http://www.w3.org/2000/svg" xmlns:xlink="http://www.w3.org/1999/xlink" xmlns:lucid="lucid" width="880" height="520"><g transform="translate(0 0)" lucid:page-tab-id="0_0"><path d="M0 0h1870.4v1323.2H0z" fill="#fff"/><path d="M120 246.8c0 27.6-22.4 50-50 50s-50-22.4-50-50c0-27.63 22.4-50 50-50s50 22.37 50 50z" stroke="#333" stroke-width="3" fill="#fff"/><use xlink:href="#a" transform="matrix(1,0,0,1,25,201.78517263001584) translate(43.20987654320987 27.09027777777778)"/><use xlink:href="#b" transform="matrix(1,0,0,1,25,201.78517263001584) translate(9.811728395061735 51.09027777777777)"/><path d="M440 450c0 27.6-22.4 50-50 50s-50-22.4-50-50 22.4-50 50-50 50 22.4 50 50z" stroke="#333" stroke-width="3" fill="#fff"/><use xlink:href="#c" transform="matrix(1,0,0,1,345,405) translate(43.20987654320987 35.52777777777778)"/><use xlink:href="#d" transform="matrix(1,0,0,1,345,405) translate(6.580246913580261 50.638888888888886)"/><path d="M280 246.8c0 27.6-22.4 50-50 50s-50-22.4-50-50c0-27.63 22.4-50 50-50s50 22.37 50 50z" stroke="#333" stroke-width="3" fill="#fff"/><use xlink:href="#a" transform="matrix(1,0,0,1,185,201.78517263001584) translate(43.20987654320987 24.27777777777778)"/><use xlink:href="#e" transform="matrix(1,0,0,1,185,201.78517263001584) translate(12.456790123456805 53.6111111111111)"/><path d="M600 70c0 27.6-22.4 50-50 50s-50-22.4-50-50 22.4-50 50-50 50 22.4 50 50z" stroke="#333" stroke-width="3" fill="#fff"/><use xlink:href="#c" transform="matrix(1,0,0,1,505,25) translate(43.20987654320987 29.90277777777778)"/><use xlink:href="#f" transform="matrix(1,0,0,1,505,25) translate(5.148148148148167 52.12499999999999)"/><path d="M120 70c0 27.6-22.4 50-50 50S20 97.6 20 70s22.4-50 50-50 50 22.4 50 50z" stroke="#333" stroke-width="3" fill="#fff"/><use xlink:href="#c" transform="matrix(1,0,0,1,25,25) translate(43.20987654320987 27.09027777777778)"/><use xlink:href="#g" transform="matrix(1,0,0,1,25,25) translate(10.432098765432116 52.86805555555554)"/><path d="M860 146.8c0 27.6-22.4 50-50 50s-50-22.4-50-50c0-27.63 22.4-50 50-50s50 22.37 50 50z" stroke="#333" stroke-width="3" fill="#fff"/><use xlink:href="#a" transform="matrix(1,0,0,1,765,101.78517263001584) translate(43.20987654320987 32.71527777777778)"/><use xlink:href="#h" transform="matrix(1,0,0,1,765,101.78517263001584) translate(8.209876543209909 51.38194444444443)"/><path d="M860 346.8c0 27.6-22.4 50-50 50s-50-22.4-50-50c0-27.63 22.4-50 50-50s50 22.37 50 50z" stroke="#333" stroke-width="3" fill="#fff"/><use xlink:href="#a" transform="matrix(1,0,0,1,765,301.78517263001584) translate(43.20987654320987 32.71527777777778)"/><use xlink:href="#i" transform="matrix(1,0,0,1,765,301.78517263001584) translate(4.938271604938308 51.38194444444443)"/><path d="M122.5 246.8h55" stroke="#333" stroke-width="2" fill="none"/><path d="M122.53 247.8h-1.08l.05-1-.03-1h1.06zM178.5 246.77l.03 1.02h-1.06v-2h1.08z" fill="#333"/><path d="M262.47 288.03l95.06 120.72" stroke="#333" stroke-width="2" fill="none"/><path d="M263.28 287.43l-1.58 1.24-.66-.84.95-.68.62-.55zM358.96 408.96l-.95.67-.62.56-.66-.85 1.58-1.23z" fill="#333"/><path d="M410.38 401.6l119.24-283.2" stroke="#333" stroke-width="2" fill="none"/><path d="M411.3 401.97l-.4 1-.86-.43-1-.36.43-1zM529.96 117.46l1 .36-.43 1-1.84-.8.4-.98z" fill="#333"/><path d="M114.28 274.9l231.44 146.98" stroke="#333" stroke-width="2" fill="none"/><path d="M114.83 274.07l-1.07 1.7-.85-.55 1.06-1.7zM347.1 421.57l-1.06 1.7-.87-.56 1.07-1.68z" fill="#333"/><path d="M275.9 221.42L504.1 95.36" stroke="#333" stroke-width="2" fill="none"/><path d="M276.42 222.28l-.9.5-.98-1.74.9-.5zM505.46 95.75l-.9.5-.98-1.75.9-.5z" fill="#333"/><path d="M70 194.28V122.5" stroke="#333" stroke-width="2" fill="none"/><path d="M71 195.33l-1-.05-1 .04v-1.06h2zM70 121.5l1-.03v1.06h-2v-1.08z" fill="#333"/><path d="M122.5 70h375" stroke="#333" stroke-width="2" fill="none"/><path d="M122.53 71h-1.08l.05-1-.03-1h1.06zM498.5 70l.03 1h-1.06v-2h1.08z" fill="#333"/><path d="M656.92 270.24l106.16 53.1" stroke="#333" stroke-width="2" fill="none"/><path d="M657.4 269.36l-.9 1.8-.9-.46.86-1.8zM764.4 322.87l-.86 1.8-.93-.46.9-1.78z" fill="#333"/><path d="M810 294.28v-95" stroke="#333" stroke-width="2" fill="none"/><path d="M811 295.33l-1-.05-1 .04v-1.06h2zM810 198.3l1-.05v1.06h-2v-1.06z" fill="#333"/><path d="M656.96 223.3l106.08-53.04" stroke="#333" stroke-width="2" fill="none"/><path d="M657.43 224.2l-.96.47-.54-1.2-.34-.6.93-.47zM764.07 170.1l.34.6-.93.47-.9-1.8.96-.47z" fill="#333"/><path d="M660 246.8c0 27.6-22.4 50-50 50s-50-22.4-50-50c0-27.63 22.4-50 50-50s50 22.37 50 50z" stroke="#333" stroke-width="3" fill="#fff"/><use xlink:href="#a" transform="matrix(1,0,0,1,565,201.78517263001584) translate(43.20987654320987 29.90277777777778)"/><use xlink:href="#j" transform="matrix(1,0,0,1,565,201.78517263001584) translate(9.518518518518533 52.12499999999999)"/><path d="M428.53 414.4L571.47 282.4" stroke="#333" stroke-width="2" fill="none"/><path d="M429.23 415.13l-.77.7-1.32-1.5.73-.67zM572.86 282.45l-.73.68-1.36-1.47.77-.7z" fill="#333"/><path d="M440 246.8c0 27.6-22.4 50-50 50s-50-22.4-50-50c0-27.63 22.4-50 50-50s50 22.37 50 50z" stroke="#333" stroke-width="3" fill="#fff"/><g><use xlink:href="#a" transform="matrix(1,0,0,1,345,201.78517263001584) translate(43.20987654320987 35.52777777777778)"/><use xlink:href="#k" transform="matrix(1,0,0,1,345,201.78517263001584) translate(7.987654320987673 50.63888888888888)"/></g><path d="M282.5 246.8h55" stroke="#333" stroke-width="2" fill="none"/><path d="M282.53 247.8h-1.08l.05-1-.03-1h1.06zM338.5 246.77l.03 1.02h-1.06v-2h1.08z" fill="#333"/><path d="M390 299.3v98.2" stroke="#333" stroke-width="2" fill="none"/><path d="M390 298.3l1-.05v1.06h-2v-1.06zM391 398.55l-1-.05-1 .03v-1.06h2z" fill="#333"/><defs><path fill="#fff" d="M141-36C126-15 110 5 73 4 37 3 15-17 15-53c-1-64 63-63 125-63 3-35-9-54-41-54-24 1-41 7-42 31l-33-3c5-37 33-52 76-52 45 0 72 20 72 64v82c-1 20 7 32 28 27v20c-31 9-61-2-59-35zM48-53c0 20 12 33 32 33 41-3 63-29 60-74-43 2-92-5-92 41" id="l"/><path fill="#fff" d="M135-143c-3-34-86-38-87 0 15 53 115 12 119 90S17 21 10-45l28-5c4 36 97 45 98 0-10-56-113-15-118-90-4-57 82-63 122-42 12 7 21 19 24 35" id="m"/><path fill="#fff" d="M85-194c31 0 48 13 60 33l-1-100h32l1 261h-30c-2-10 0-23-3-31C134-8 116 4 85 4 32 4 16-35 15-94c0-66 23-100 70-100zm9 24c-40 0-46 34-46 75 0 40 6 74 45 74 42 0 51-32 51-76 0-42-9-74-50-73" id="n"/><g id="a"><use transform="matrix(0.00617283950617284,0,0,0.00617283950617284,0,0)" xlink:href="#l"/><use transform="matrix(0.00617283950617284,0,0,0.00617283950617284,1.234567901234568,0)" xlink:href="#m"/><use transform="matrix(0.00617283950617284,0,0,0.00617283950617284,2.345679012345679,0)" xlink:href="#n"/></g><path fill="#333" d="M197 0v-115H63V0H30v-248h33v105h134v-105h34V0h-34" id="o"/><path fill="#333" d="M141-36C126-15 110 5 73 4 37 3 15-17 15-53c-1-64 63-63 125-63 3-35-9-54-41-54-24 1-41 7-42 31l-33-3c5-37 33-52 76-52 45 0 72 20 72 64v82c-1 20 7 32 28 27v20c-31 9-61-2-59-35zM48-53c0 20 12 33 32 33 41-3 63-29 60-74-43 2-92-5-92 41" id="p"/><path fill="#333" d="M114-163C36-179 61-72 57 0H25l-1-190h30c1 12-1 29 2 39 6-27 23-49 58-41v29" id="q"/><path fill="#333" d="M179-190L93 31C79 59 56 82 12 73V49c39 6 53-20 64-50L1-190h34L92-34l54-156h33" id="r"/><g id="b"><use transform="matrix(0.0802469135802469,0,0,0.0802469135802469,0,0)" xlink:href="#o"/><use transform="matrix(0.0802469135802469,0,0,0.0802469135802469,20.783950617283946,0)" xlink:href="#p"/><use transform="matrix(0.0802469135802469,0,0,0.0802469135802469,36.83333333333333,0)" xlink:href="#q"/><use transform="matrix(0.0802469135802469,0,0,0.0802469135802469,46.38271604938271,0)" xlink:href="#q"/><use transform="matrix(0.0802469135802469,0,0,0.0802469135802469,55.93209876543209,0)" xlink:href="#r"/></g><g id="c"><use transform="matrix(0.00617283950617284,0,0,0.00617283950617284,0,0)" xlink:href="#l"/><use transform="matrix(0.00617283950617284,0,0,0.00617283950617284,1.234567901234568,0)" xlink:href="#m"/><use transform="matrix(0.00617283950617284,0,0,0.00617283950617284,2.345679012345679,0)" xlink:href="#n"/></g><path fill="#333" d="M100-194c63 0 86 42 84 106H49c0 40 14 67 53 68 26 1 43-12 49-29l28 8c-11 28-37 45-77 45C44 4 14-33 15-96c1-61 26-98 85-98zm52 81c6-60-76-77-97-28-3 7-6 17-6 28h103" id="s"/><path fill="#333" d="M210-169c-67 3-38 105-44 169h-31v-121c0-29-5-50-35-48C34-165 62-65 56 0H25l-1-190h30c1 10-1 24 2 32 10-44 99-50 107 0 11-21 27-35 58-36 85-2 47 119 55 194h-31v-121c0-29-5-49-35-48" id="t"/><path fill="#333" d="M24-231v-30h32v30H24zM24 0v-190h32V0H24" id="u"/><path fill="#333" d="M100-194c62-1 85 37 85 99 1 63-27 99-86 99S16-35 15-95c0-66 28-99 85-99zM99-20c44 1 53-31 53-75 0-43-8-75-51-75s-53 32-53 75 10 74 51 75" id="v"/><path fill="#333" d="M117-194c89-4 53 116 60 194h-32v-121c0-31-8-49-39-48C34-167 62-67 57 0H25l-1-190h30c1 10-1 24 2 32 11-22 29-35 61-36" id="w"/><g id="d"><use transform="matrix(0.0493827160493827,0,0,0.0493827160493827,0,0)" xlink:href="#o"/><use transform="matrix(0.0493827160493827,0,0,0.0493827160493827,12.79012345679012,0)" xlink:href="#s"/><use transform="matrix(0.0493827160493827,0,0,0.0493827160493827,22.666666666666657,0)" xlink:href="#q"/><use transform="matrix(0.0493827160493827,0,0,0.0493827160493827,28.5432098765432,0)" xlink:href="#t"/><use transform="matrix(0.0493827160493827,0,0,0.0493827160493827,43.308641975308625,0)" xlink:href="#u"/><use transform="matrix(0.0493827160493827,0,0,0.0493827160493827,47.20987654320986,0)" xlink:href="#v"/><use transform="matrix(0.0493827160493827,0,0,0.0493827160493827,57.0864197530864,0)" xlink:href="#w"/><use transform="matrix(0.0493827160493827,0,0,0.0493827160493827,66.96296296296293,0)" xlink:href="#s"/></g><path fill="#333" d="M233-177c-1 41-23 64-60 70L243 0h-38l-65-103H63V0H30v-248c88 3 205-21 203 71zM63-129c60-2 137 13 137-47 0-61-80-42-137-45v92" id="x"/><g id="e"><use transform="matrix(0.0987654320987654,0,0,0.0987654320987654,0,0)" xlink:href="#x"/><use transform="matrix(0.0987654320987654,0,0,0.0987654320987654,25.58024691358024,0)" xlink:href="#v"/><use transform="matrix(0.0987654320987654,0,0,0.0987654320987654,45.333333333333314,0)" xlink:href="#w"/></g><path fill="#333" d="M190 0L58-211 59 0H30v-248h39L202-35l-2-213h31V0h-41" id="y"/><path fill="#333" d="M108 0H70L1-190h34L89-25l56-165h34" id="z"/><path fill="#333" d="M24 0v-261h32V0H24" id="A"/><g id="f"><use transform="matrix(0.07407407407407404,0,0,0.07407407407407404,0,0)" xlink:href="#y"/><use transform="matrix(0.07407407407407404,0,0,0.07407407407407404,19.185185185185176,0)" xlink:href="#s"/><use transform="matrix(0.07407407407407404,0,0,0.07407407407407404,33.999999999999986,0)" xlink:href="#z"/><use transform="matrix(0.07407407407407404,0,0,0.07407407407407404,47.333333333333314,0)" xlink:href="#u"/><use transform="matrix(0.07407407407407404,0,0,0.07407407407407404,53.18518518518516,0)" xlink:href="#A"/><use transform="matrix(0.07407407407407404,0,0,0.07407407407407404,59.03703703703701,0)" xlink:href="#A"/><use transform="matrix(0.07407407407407404,0,0,0.07407407407407404,64.88888888888886,0)" xlink:href="#s"/></g><path fill="#333" d="M30 0v-248h33v221h125V0H30" id="B"/><path fill="#333" d="M84 4C-5 8 30-112 23-190h32v120c0 31 7 50 39 49 72-2 45-101 50-169h31l1 190h-30c-1-10 1-25-2-33-11 22-28 36-60 37" id="C"/><g id="g"><use transform="matrix(0.0864197530864197,0,0,0.0864197530864197,0,0)" xlink:href="#B"/><use transform="matrix(0.0864197530864197,0,0,0.0864197530864197,17.283950617283942,0)" xlink:href="#C"/><use transform="matrix(0.0864197530864197,0,0,0.0864197530864197,34.567901234567884,0)" xlink:href="#w"/><use transform="matrix(0.0864197530864197,0,0,0.0864197530864197,51.851851851851826,0)" xlink:href="#p"/></g><path fill="#333" d="M137 0h-34L2-248h35l83 218 83-218h36" id="D"/><path fill="#333" d="M96-169c-40 0-48 33-48 73s9 75 48 75c24 0 41-14 43-38l32 2c-6 37-31 61-74 61-59 0-76-41-82-99-10-93 101-131 147-64 4 7 5 14 7 22l-32 3c-4-21-16-35-41-35" id="E"/><path fill="#333" d="M59-47c-2 24 18 29 38 22v24C64 9 27 4 27-40v-127H5v-23h24l9-43h21v43h35v23H59v120" id="F"/><g id="h"><use transform="matrix(0.06172839506172834,0,0,0.06172839506172834,0,0)" xlink:href="#D"/><use transform="matrix(0.06172839506172834,0,0,0.06172839506172834,14.382716049382704,0)" xlink:href="#u"/><use transform="matrix(0.06172839506172834,0,0,0.06172839506172834,19.259259259259245,0)" xlink:href="#w"/><use transform="matrix(0.06172839506172834,0,0,0.06172839506172834,31.60493827160492,0)" xlink:href="#E"/><use transform="matrix(0.06172839506172834,0,0,0.06172839506172834,42.716049382716015,0)" xlink:href="#s"/><use transform="matrix(0.06172839506172834,0,0,0.06172839506172834,55.061728395061685,0)" xlink:href="#w"/><use transform="matrix(0.06172839506172834,0,0,0.06172839506172834,67.40740740740735,0)" xlink:href="#F"/></g><path fill="#333" d="M143 4C61 4 22-44 18-125c-5-107 100-154 193-111 17 8 29 25 37 43l-32 9c-13-25-37-40-76-40-61 0-88 39-88 99 0 61 29 100 91 101 35 0 62-11 79-27v-45h-74v-28h105v86C228-13 192 4 143 4" id="G"/><path fill="#333" d="M177-190C167-65 218 103 67 71c-23-6-38-20-44-43l32-5c15 47 100 32 89-28v-30C133-14 115 1 83 1 29 1 15-40 15-95c0-56 16-97 71-98 29-1 48 16 59 35 1-10 0-23 2-32h30zM94-22c36 0 50-32 50-73 0-42-14-75-50-75-39 0-46 34-46 75s6 73 46 73" id="H"/><g id="i"><use transform="matrix(0.06172839506172834,0,0,0.06172839506172834,0,0)" xlink:href="#G"/><use transform="matrix(0.06172839506172834,0,0,0.06172839506172834,17.283950617283935,0)" xlink:href="#q"/><use transform="matrix(0.06172839506172834,0,0,0.06172839506172834,24.62962962962961,0)" xlink:href="#s"/><use transform="matrix(0.06172839506172834,0,0,0.06172839506172834,36.975308641975275,0)" xlink:href="#H"/><use transform="matrix(0.06172839506172834,0,0,0.06172839506172834,49.320987654320945,0)" xlink:href="#v"/><use transform="matrix(0.06172839506172834,0,0,0.06172839506172834,61.666666666666615,0)" xlink:href="#q"/><use transform="matrix(0.06172839506172834,0,0,0.06172839506172834,69.01234567901228,0)" xlink:href="#r"/></g><path fill="#333" d="M30-248c118-7 216 8 213 122C240-48 200 0 122 0H30v-248zM63-27c89 8 146-16 146-99s-60-101-146-95v194" id="I"/><g id="j"><use transform="matrix(0.07407407407407404,0,0,0.07407407407407404,0,0)" xlink:href="#I"/><use transform="matrix(0.07407407407407404,0,0,0.07407407407407404,19.185185185185176,0)" xlink:href="#q"/><use transform="matrix(0.07407407407407404,0,0,0.07407407407407404,27.999999999999982,0)" xlink:href="#p"/><use transform="matrix(0.07407407407407404,0,0,0.07407407407407404,42.814814814814795,0)" xlink:href="#E"/><use transform="matrix(0.07407407407407404,0,0,0.07407407407407404,56.148148148148124,0)" xlink:href="#v"/></g><path fill="#333" d="M85-194c31 0 48 13 60 33l-1-100h32l1 261h-30c-2-10 0-23-3-31C134-8 116 4 85 4 32 4 16-35 15-94c0-66 23-100 70-100zm9 24c-40 0-46 34-46 75 0 40 6 74 45 74 42 0 51-32 51-76 0-42-9-74-50-73" id="J"/><g id="k"><use transform="matrix(0.049382716049382686,0,0,0.049382716049382686,0,0)" xlink:href="#B"/><use transform="matrix(0.049382716049382686,0,0,0.049382716049382686,9.876543209876537,0)" xlink:href="#p"/><use transform="matrix(0.049382716049382686,0,0,0.049382716049382686,19.753086419753075,0)" xlink:href="#z"/><use transform="matrix(0.049382716049382686,0,0,0.049382716049382686,28.641975308641957,0)" xlink:href="#s"/><use transform="matrix(0.049382716049382686,0,0,0.049382716049382686,38.5185185185185,0)" xlink:href="#w"/><use transform="matrix(0.049382716049382686,0,0,0.049382716049382686,48.395061728395035,0)" xlink:href="#J"/><use transform="matrix(0.049382716049382686,0,0,0.049382716049382686,58.27160493827157,0)" xlink:href="#s"/><use transform="matrix(0.049382716049382686,0,0,0.049382716049382686,68.14814814814811,0)" xlink:href="#q"/></g></defs></g></svg>