<svg xmlns="http://www.w3.org/2000/svg" xmlns:xlink="http://www.w3.org/1999/xlink" xmlns:lucid="lucid" width="620" height="532"><g transform="translate(0 11)" lucid:page-tab-id="0_0"><path d="M0 0h1870.4v1323.2H0z" fill="#fff"/><path d="M20 21h160v40H20z" stroke="#333" stroke-width="2" fill="#fff"/><use xlink:href="#a" transform="matrix(1,0,0,1,25,26) translate(44.37037037037038 23.208333333333325)"/><use xlink:href="#b" transform="matrix(1,0,0,1,25,26) translate(90.81481481481481 23.208333333333325)"/><path d="M20 61h160v40H20z" stroke="#333" stroke-width="2" fill="#fff"/><use xlink:href="#c" transform="matrix(1,0,0,1,25,66) translate(40.259259259259274 23.208333333333325)"/><path d="M20 101h160v40H20z" stroke="#333" stroke-width="2" fill="#fff"/><use xlink:href="#d" transform="matrix(1,0,0,1,25,106) translate(38.703703703703724 23.208333333333325)"/><path d="M280 21h40v40h-40zM280 61h40v40h-40zM280 101h40v40h-40zM280 141h40v40h-40z" stroke="#333" stroke-width="2" fill="#fff"/><path d="M420 21h120v40H420z" stroke="#000" stroke-opacity="0" stroke-width="2" fill="#fff" fill-opacity="0"/><use xlink:href="#e" transform="matrix(1,0,0,1,425,26) translate(0 21.430555555555543)"/><path d="M420 81h120v40H420z" stroke="#000" stroke-opacity="0" stroke-width="2" fill="#fff" fill-opacity="0"/><use xlink:href="#f" transform="matrix(1,0,0,1,425,86) translate(0 21.430555555555543)"/><path d="M420 141h140v40H420z" stroke="#000" stroke-opacity="0" stroke-width="2" fill="#fff" fill-opacity="0"/><use xlink:href="#g" transform="matrix(1,0,0,1,425,146) translate(0 21.430555555555543)"/><path d="M420 201h140v40H420z" stroke="#000" stroke-opacity="0" stroke-width="2" fill="#fff" fill-opacity="0"/><use xlink:href="#h" transform="matrix(1,0,0,1,425,206) translate(0 21.430555555555543)"/><path d="M300.14 80.98l101.6 16.97M300.17 81l-1.02-.18" stroke="#333" stroke-width="2" fill="none"/><path d="M416.8 100.47l-14.83 2.22 1.53-9.15z" stroke="#333" stroke-width="2" fill="#333"/><path d="M300.7 121.26l101.75 33.9M300.73 121.27l-.97-.32" stroke="#333" stroke-width="2" fill="none"/><path d="M416.93 159.98l-15-.1 2.93-8.8z" stroke="#333" stroke-width="2" fill="#333"/><path d="M300.05 161.22l103.4 51.53M300.07 161.23l-.92-.46" stroke="#333" stroke-width="2" fill="none"/><path d="M417.1 219.56l-14.83-2.22 4.13-8.3z" stroke="#333" stroke-width="2" fill="#333"/><path d="M300.76 41H401.5M300.78 41h-1.02" stroke="#333" stroke-width="2" fill="none"/><path d="M416.76 41l-14.26 4.63v-9.27z" stroke="#333" stroke-width="2" fill="#333"/><path d="M160.65 80.88l101.9-52.42M160.67 80.87l-.9.47" stroke="#333" stroke-width="2" fill="none"/><path d="M276.12 21.48l-10.56 10.65-4.24-8.25z" stroke="#333" stroke-width="2" fill="#333"/><path d="M280 281h40v40h-40zM280 321h40v40h-40zM280 361h40v40h-40zM280 401h40v40h-40z" stroke="#333" stroke-width="2" fill="#fff"/><path d="M161.4 121.77l106.56 143.38M161.42 121.8l-.6-.83" stroke="#333" stroke-width="2" fill="none"/><path d="M277.07 277.4l-12.23-8.68 7.44-5.53z" stroke="#333" stroke-width="2" fill="#333"/><path d="M380 281h40v40h-40z" stroke="#333" stroke-width="2" fill="#fff"/><use xlink:href="#i" transform="matrix(1,0,0,1,385,286) translate(7.592592592592596 23.208333333333325)"/><path d="M420 281h40v40h-40z" stroke="#333" stroke-width="2" fill="#fff"/><path d="M301 301h59.5M301.03 301H300" stroke="#333" stroke-width="2" fill="none"/><path d="M375.76 301l-14.26 4.64v-9.28z" stroke="#333" stroke-width="2" fill="#333"/><path d="M520 281h40v40h-40z" stroke="#333" stroke-width="2" fill="#fff"/><use xlink:href="#j" transform="matrix(1,0,0,1,525,286) translate(7.592592592592596 23.208333333333325)"/><path d="M560 281h40v40h-40z" stroke="#333" stroke-width="2" fill="#fff"/><use xlink:href="#k" transform="matrix(1,0,0,1,565,286) translate(-1.9999999999999716 19.166666666666664)"/><path d="M441 301h59.5M441.03 301H440" stroke="#333" stroke-width="2" fill="none"/><path d="M515.76 301l-14.26 4.64v-9.28z" stroke="#333" stroke-width="2" fill="#333"/><path d="M380 341h40v40h-40z" stroke="#333" stroke-width="2" fill="#fff"/><use xlink:href="#l" transform="matrix(1,0,0,1,385,346) translate(7.592592592592596 23.208333333333325)"/><path d="M420 341h40v40h-40z" stroke="#333" stroke-width="2" fill="#fff"/><use xlink:href="#k" transform="matrix(1,0,0,1,425,346) translate(-1.9999999999999716 19.166666666666664)"/><path d="M300.97 341.25l60.1 15.2M301 341.25l-1-.25" stroke="#333" stroke-width="2" fill="none"/><path d="M375.86 360.2l-14.96 1 2.27-9z" stroke="#333" stroke-width="2" fill="#333"/><path d="M380 401h40v40h-40z" stroke="#333" stroke-width="2" fill="#fff"/><use xlink:href="#l" transform="matrix(1,0,0,1,385,406) translate(7.592592592592596 23.208333333333325)"/><path d="M420 401h40v40h-40z" stroke="#333" stroke-width="2" fill="#fff"/><path d="M300.9 380.97l61.63 31.6M300.9 380.98l-.9-.47" stroke="#333" stroke-width="2" fill="none"/><path d="M376.12 419.52l-14.8-2.38 4.22-8.25z" stroke="#333" stroke-width="2" fill="#333"/><path d="M520 401h40v40h-40z" stroke="#333" stroke-width="2" fill="#fff"/><use xlink:href="#m" transform="matrix(1,0,0,1,525,406) translate(7.592592592592596 23.208333333333325)"/><path d="M560 401h40v40h-40z" stroke="#333" stroke-width="2" fill="#fff"/><use xlink:href="#k" transform="matrix(1,0,0,1,565,406) translate(-1.9999999999999716 19.166666666666664)"/><path d="M441 421h59.5M441.03 421H440" stroke="#333" stroke-width="2" fill="none"/><path d="M515.76 421l-14.26 4.64v-9.28z" stroke="#333" stroke-width="2" fill="#333"/><path d="M379.5 461h40v40h-40z" stroke="#333" stroke-width="2" fill="#fff"/><use xlink:href="#j" transform="matrix(1,0,0,1,384.5,466) translate(7.592592592592596 23.208333333333325)"/><path d="M419.5 461h40v40h-40z" stroke="#333" stroke-width="2" fill="#fff"/><use xlink:href="#k" transform="matrix(1,0,0,1,424.5,466) translate(-1.9999999999999716 19.166666666666664)"/><path d="M300.7 421.5l63.1 48.26M300.7 421.5l-.8-.62" stroke="#333" stroke-width="2" fill="none"/><path d="M375.93 479.03l-14.15-4.98 5.63-7.36z" stroke="#333" stroke-width="2" fill="#333"/><path d="M240 141h40v40h-40z" stroke="#000" stroke-opacity="0" stroke-width="2" fill="#fff" fill-opacity="0"/><use xlink:href="#n" transform="matrix(1,0,0,1,245,146) translate(16.8888888888889 21.874999999999986)"/><path d="M240 101h40v40h-40z" stroke="#000" stroke-opacity="0" stroke-width="2" fill="#fff" fill-opacity="0"/><use xlink:href="#o" transform="matrix(1,0,0,1,244.99999999999994,106) translate(16.8888888888889 21.874999999999986)"/><path d="M240 61h40v40h-40z" stroke="#000" stroke-opacity="0" stroke-width="2" fill="#fff" fill-opacity="0"/><use xlink:href="#p" transform="matrix(1,0,0,1,244.99999999999994,66) translate(16.8888888888889 21.874999999999986)"/><path d="M240 21h40v40h-40z" stroke="#000" stroke-opacity="0" stroke-width="2" fill="#fff" fill-opacity="0"/><use xlink:href="#q" transform="matrix(1,0,0,1,244.99999999999994,26) translate(16.8888888888889 21.874999999999986)"/><path d="M240 401h40v40h-40z" stroke="#000" stroke-opacity="0" stroke-width="2" fill="#fff" fill-opacity="0"/><use xlink:href="#n" transform="matrix(1,0,0,1,244.99999999999994,406) translate(16.8888888888889 21.874999999999986)"/><path d="M240 361h40v40h-40z" stroke="#000" stroke-opacity="0" stroke-width="2" fill="#fff" fill-opacity="0"/><use xlink:href="#o" transform="matrix(1,0,0,1,244.9999999999999,366) translate(16.8888888888889 21.874999999999986)"/><path d="M240 321h40v40h-40z" stroke="#000" stroke-opacity="0" stroke-width="2" fill="#fff" fill-opacity="0"/><use xlink:href="#p" transform="matrix(1,0,0,1,244.9999999999999,326) translate(16.8888888888889 21.874999999999986)"/><path d="M240 281h40v40h-40z" stroke="#000" stroke-opacity="0" stroke-width="2" fill="#fff" fill-opacity="0"/><use xlink:href="#q" transform="matrix(1,0,0,1,244.9999999999999,286) translate(16.8888888888889 21.874999999999986)"/><defs><path fill="#333" d="M117-194c89-4 53 116 60 194h-32v-121c0-31-8-49-39-48C34-167 62-67 57 0H25l-1-190h30c1 10-1 24 2 32 11-22 29-35 61-36" id="r"/><path fill="#333" d="M137 0h-34L2-248h35l83 218 83-218h36" id="s"/><path fill="#333" d="M33-154v-36h34v36H33zM33 0v-36h34V0H33" id="t"/><g id="a"><use transform="matrix(0.07407407407407404,0,0,0.07407407407407404,0,0)" xlink:href="#r"/><use transform="matrix(0.07407407407407404,0,0,0.07407407407407404,14.814814814814808,0)" xlink:href="#s"/><use transform="matrix(0.07407407407407404,0,0,0.07407407407407404,31.62962962962962,0)" xlink:href="#t"/></g><path fill="#333" d="M155-56V0h-30v-56H8v-25l114-167h33v167h35v25h-35zm-30-156c-27 46-58 90-88 131h88v-131" id="u"/><use transform="matrix(0.07407407407407404,0,0,0.07407407407407404,0,0)" xlink:href="#u" id="b"/><path fill="#333" d="M24 0v-261h32V0H24" id="v"/><path fill="#333" d="M141-36C126-15 110 5 73 4 37 3 15-17 15-53c-1-64 63-63 125-63 3-35-9-54-41-54-24 1-41 7-42 31l-33-3c5-37 33-52 76-52 45 0 72 20 72 64v82c-1 20 7 32 28 27v20c-31 9-61-2-59-35zM48-53c0 20 12 33 32 33 41-3 63-29 60-74-43 2-92-5-92 41" id="w"/><path fill="#333" d="M115-194c53 0 69 39 70 98 0 66-23 100-70 100C84 3 66-7 56-30L54 0H23l1-261h32v101c10-23 28-34 59-34zm-8 174c40 0 45-34 45-75 0-40-5-75-45-74-42 0-51 32-51 76 0 43 10 73 51 73" id="x"/><path fill="#333" d="M100-194c63 0 86 42 84 106H49c0 40 14 67 53 68 26 1 43-12 49-29l28 8c-11 28-37 45-77 45C44 4 14-33 15-96c1-61 26-98 85-98zm52 81c6-60-76-77-97-28-3 7-6 17-6 28h103" id="y"/><path fill="#333" d="M135-143c-3-34-86-38-87 0 15 53 115 12 119 90S17 21 10-45l28-5c4 36 97 45 98 0-10-56-113-15-118-90-4-57 82-63 122-42 12 7 21 19 24 35" id="z"/><g id="c"><use transform="matrix(0.07407407407407404,0,0,0.07407407407407404,0,0)" xlink:href="#v"/><use transform="matrix(0.07407407407407404,0,0,0.07407407407407404,5.851851851851849,0)" xlink:href="#w"/><use transform="matrix(0.07407407407407404,0,0,0.07407407407407404,20.666666666666657,0)" xlink:href="#x"/><use transform="matrix(0.07407407407407404,0,0,0.07407407407407404,35.48148148148147,0)" xlink:href="#y"/><use transform="matrix(0.07407407407407404,0,0,0.07407407407407404,50.296296296296276,0)" xlink:href="#v"/><use transform="matrix(0.07407407407407404,0,0,0.07407407407407404,56.148148148148124,0)" xlink:href="#z"/></g><path fill="#333" d="M85-194c31 0 48 13 60 33l-1-100h32l1 261h-30c-2-10 0-23-3-31C134-8 116 4 85 4 32 4 16-35 15-94c0-66 23-100 70-100zm9 24c-40 0-46 34-46 75 0 40 6 74 45 74 42 0 51-32 51-76 0-42-9-74-50-73" id="A"/><path fill="#333" d="M177-190C167-65 218 103 67 71c-23-6-38-20-44-43l32-5c15 47 100 32 89-28v-30C133-14 115 1 83 1 29 1 15-40 15-95c0-56 16-97 71-98 29-1 48 16 59 35 1-10 0-23 2-32h30zM94-22c36 0 50-32 50-73 0-42-14-75-50-75-39 0-46 34-46 75s6 73 46 73" id="B"/><g id="d"><use transform="matrix(0.07407407407407404,0,0,0.07407407407407404,0,0)" xlink:href="#y"/><use transform="matrix(0.07407407407407404,0,0,0.07407407407407404,14.814814814814808,0)" xlink:href="#A"/><use transform="matrix(0.07407407407407404,0,0,0.07407407407407404,29.629629629629616,0)" xlink:href="#B"/><use transform="matrix(0.07407407407407404,0,0,0.07407407407407404,44.44444444444443,0)" xlink:href="#y"/><use transform="matrix(0.07407407407407404,0,0,0.07407407407407404,59.25925925925923,0)" xlink:href="#z"/></g><path fill="#333" d="M109-170H84l-4-78h32zm-65 0H19l-4-78h33" id="C"/><path fill="#333" d="M197 0v-115H63V0H30v-248h33v105h134v-105h34V0h-34" id="D"/><path fill="#333" d="M114-163C36-179 61-72 57 0H25l-1-190h30c1 12-1 29 2 39 6-27 23-49 58-41v29" id="E"/><path fill="#333" d="M179-190L93 31C79 59 56 82 12 73V49c39 6 53-20 64-50L1-190h34L92-34l54-156h33" id="F"/><g id="e"><use transform="matrix(0.06790123456790119,0,0,0.06790123456790119,0,0)" xlink:href="#C"/><use transform="matrix(0.06790123456790119,0,0,0.06790123456790119,8.62345679012345,0)" xlink:href="#D"/><use transform="matrix(0.06790123456790119,0,0,0.06790123456790119,26.20987654320986,0)" xlink:href="#w"/><use transform="matrix(0.06790123456790119,0,0,0.06790123456790119,39.7901234567901,0)" xlink:href="#E"/><use transform="matrix(0.06790123456790119,0,0,0.06790123456790119,47.87037037037034,0)" xlink:href="#E"/><use transform="matrix(0.06790123456790119,0,0,0.06790123456790119,55.95061728395058,0)" xlink:href="#F"/><use transform="matrix(0.06790123456790119,0,0,0.06790123456790119,68.17283950617279,0)" xlink:href="#C"/></g><path fill="#333" d="M233-177c-1 41-23 64-60 70L243 0h-38l-65-103H63V0H30v-248c88 3 205-21 203 71zM63-129c60-2 137 13 137-47 0-61-80-42-137-45v92" id="G"/><path fill="#333" d="M100-194c62-1 85 37 85 99 1 63-27 99-86 99S16-35 15-95c0-66 28-99 85-99zM99-20c44 1 53-31 53-75 0-43-8-75-51-75s-53 32-53 75 10 74 51 75" id="H"/><g id="f"><use transform="matrix(0.06790123456790119,0,0,0.06790123456790119,0,0)" xlink:href="#C"/><use transform="matrix(0.06790123456790119,0,0,0.06790123456790119,8.62345679012345,0)" xlink:href="#G"/><use transform="matrix(0.06790123456790119,0,0,0.06790123456790119,26.20987654320986,0)" xlink:href="#H"/><use transform="matrix(0.06790123456790119,0,0,0.06790123456790119,39.7901234567901,0)" xlink:href="#r"/><use transform="matrix(0.06790123456790119,0,0,0.06790123456790119,53.37037037037033,0)" xlink:href="#C"/></g><path fill="#333" d="M210-169c-67 3-38 105-44 169h-31v-121c0-29-5-50-35-48C34-165 62-65 56 0H25l-1-190h30c1 10-1 24 2 32 10-44 99-50 107 0 11-21 27-35 58-36 85-2 47 119 55 194h-31v-121c0-29-5-49-35-48" id="I"/><path fill="#333" d="M24-231v-30h32v30H24zM24 0v-190h32V0H24" id="J"/><g id="g"><use transform="matrix(0.06790123456790119,0,0,0.06790123456790119,0,0)" xlink:href="#C"/><use transform="matrix(0.06790123456790119,0,0,0.06790123456790119,8.62345679012345,0)" xlink:href="#D"/><use transform="matrix(0.06790123456790119,0,0,0.06790123456790119,26.20987654320986,0)" xlink:href="#y"/><use transform="matrix(0.06790123456790119,0,0,0.06790123456790119,39.7901234567901,0)" xlink:href="#E"/><use transform="matrix(0.06790123456790119,0,0,0.06790123456790119,47.87037037037034,0)" xlink:href="#I"/><use transform="matrix(0.06790123456790119,0,0,0.06790123456790119,68.17283950617279,0)" xlink:href="#J"/><use transform="matrix(0.06790123456790119,0,0,0.06790123456790119,73.53703703703698,0)" xlink:href="#H"/><use transform="matrix(0.06790123456790119,0,0,0.06790123456790119,87.11728395061722,0)" xlink:href="#r"/><use transform="matrix(0.06790123456790119,0,0,0.06790123456790119,100.69753086419746,0)" xlink:href="#y"/><use transform="matrix(0.06790123456790119,0,0,0.06790123456790119,114.2777777777777,0)" xlink:href="#C"/></g><path fill="#333" d="M30-248c118-7 216 8 213 122C240-48 200 0 122 0H30v-248zM63-27c89 8 146-16 146-99s-60-101-146-95v194" id="K"/><path fill="#333" d="M96-169c-40 0-48 33-48 73s9 75 48 75c24 0 41-14 43-38l32 2c-6 37-31 61-74 61-59 0-76-41-82-99-10-93 101-131 147-64 4 7 5 14 7 22l-32 3c-4-21-16-35-41-35" id="L"/><g id="h"><use transform="matrix(0.06790123456790119,0,0,0.06790123456790119,0,0)" xlink:href="#C"/><use transform="matrix(0.06790123456790119,0,0,0.06790123456790119,8.62345679012345,0)" xlink:href="#K"/><use transform="matrix(0.06790123456790119,0,0,0.06790123456790119,26.20987654320986,0)" xlink:href="#E"/><use transform="matrix(0.06790123456790119,0,0,0.06790123456790119,34.2901234567901,0)" xlink:href="#w"/><use transform="matrix(0.06790123456790119,0,0,0.06790123456790119,47.87037037037034,0)" xlink:href="#L"/><use transform="matrix(0.06790123456790119,0,0,0.06790123456790119,60.09259259259255,0)" xlink:href="#H"/><use transform="matrix(0.06790123456790119,0,0,0.06790123456790119,73.67283950617279,0)" xlink:href="#C"/></g><path fill="#333" d="M27 0v-27h64v-190l-56 39v-29l58-41h29v221h61V0H27" id="M"/><use transform="matrix(0.07407407407407404,0,0,0.07407407407407404,0,0)" xlink:href="#M" id="i"/><path fill="#333" d="M101-251c82-7 93 87 43 132L82-64C71-53 59-42 53-27h129V0H18c2-99 128-94 128-182 0-28-16-43-45-43s-46 15-49 41l-32-3c6-41 34-60 81-64" id="N"/><use transform="matrix(0.07407407407407404,0,0,0.07407407407407404,0,0)" xlink:href="#N" id="j"/><path fill="#333" d="M190 0L58-211 59 0H30v-248h39L202-35l-2-213h31V0h-41" id="O"/><path fill="#333" d="M232-93c-1 65-40 97-104 97C67 4 28-28 28-90v-158h33c8 89-33 224 67 224 102 0 64-133 71-224h33v155" id="P"/><path fill="#333" d="M30 0v-248h33v221h125V0H30" id="Q"/><g id="k"><use transform="matrix(0.03703703703703697,0,0,0.03703703703703697,0,0)" xlink:href="#O"/><use transform="matrix(0.03703703703703697,0,0,0.03703703703703697,9.592592592592576,0)" xlink:href="#P"/><use transform="matrix(0.03703703703703697,0,0,0.03703703703703697,19.18518518518515,0)" xlink:href="#Q"/><use transform="matrix(0.03703703703703697,0,0,0.03703703703703697,26.592592592592545,0)" xlink:href="#Q"/></g><path fill="#333" d="M101-251c68 0 85 55 85 127S166 4 100 4C33 4 14-52 14-124c0-73 17-127 87-127zm-1 229c47 0 54-49 54-102s-4-102-53-102c-51 0-55 48-55 102 0 53 5 102 54 102" id="R"/><use transform="matrix(0.07407407407407404,0,0,0.07407407407407404,0,0)" xlink:href="#R" id="l"/><path fill="#333" d="M126-127c33 6 58 20 58 59 0 88-139 92-164 29-3-8-5-16-6-25l32-3c6 27 21 44 54 44 32 0 52-15 52-46 0-38-36-46-79-43v-28c39 1 72-4 72-42 0-27-17-43-46-43-28 0-47 15-49 41l-32-3c6-42 35-63 81-64 48-1 79 21 79 65 0 36-21 52-52 59" id="S"/><use transform="matrix(0.07407407407407404,0,0,0.07407407407407404,0,0)" xlink:href="#S" id="m"/><path fill="#ccc" d="M126-127c33 6 58 20 58 59 0 88-139 92-164 29-3-8-5-16-6-25l32-3c6 27 21 44 54 44 32 0 52-15 52-46 0-38-36-46-79-43v-28c39 1 72-4 72-42 0-27-17-43-46-43-28 0-47 15-49 41l-32-3c6-42 35-63 81-64 48-1 79 21 79 65 0 36-21 52-52 59" id="T"/><use transform="matrix(0.055555555555555504,0,0,0.055555555555555504,0,0)" xlink:href="#T" id="n"/><path fill="#ccc" d="M101-251c82-7 93 87 43 132L82-64C71-53 59-42 53-27h129V0H18c2-99 128-94 128-182 0-28-16-43-45-43s-46 15-49 41l-32-3c6-41 34-60 81-64" id="U"/><use transform="matrix(0.055555555555555504,0,0,0.055555555555555504,0,0)" xlink:href="#U" id="o"/><path fill="#ccc" d="M27 0v-27h64v-190l-56 39v-29l58-41h29v221h61V0H27" id="V"/><use transform="matrix(0.055555555555555504,0,0,0.055555555555555504,0,0)" xlink:href="#V" id="p"/><path fill="#ccc" d="M101-251c68 0 85 55 85 127S166 4 100 4C33 4 14-52 14-124c0-73 17-127 87-127zm-1 229c47 0 54-49 54-102s-4-102-53-102c-51 0-55 48-55 102 0 53 5 102 54 102" id="W"/><use transform="matrix(0.055555555555555504,0,0,0.055555555555555504,0,0)" xlink:href="#W" id="q"/></defs></g></svg>