<svg xmlns="http://www.w3.org/2000/svg" xmlns:xlink="http://www.w3.org/1999/xlink" xmlns:lucid="lucid" width="842" height="505.8"><g transform="translate(-18 -0.733179781632316)" lucid:page-tab-id="0_0"><path d="M0 0h1870.4v1323.2H0z" fill="#fff"/><path d="M40 20.73h240v46H40z" fill="none"/><use xlink:href="#a" transform="matrix(1,0,0,1,40,20.733179781632316) translate(0 34.46666666666667)"/><path d="M40 66.73h100V140H40z" stroke="#000" stroke-width="5" fill="#99d5ca"/><use xlink:href="#b" transform="matrix(1,0,0,1,45,71.73333333333343) translate(45 9.511111111111077)"/><use xlink:href="#c" transform="matrix(1,0,0,1,45,71.73333333333343) translate(33.827160493827165 44.44444444444437)"/><path d="M140 66.73h100V140H140z" stroke="#000" stroke-width="5" fill="#99d5ca"/><use xlink:href="#b" transform="matrix(1,0,0,1,145,71.73333333333343) translate(45 9.511111111111077)"/><use xlink:href="#d" transform="matrix(1,0,0,1,145,71.73333333333343) translate(33.827160493827165 44.44444444444437)"/><path d="M240 66.73h100V140H240z" stroke="#000" stroke-width="5" fill="#99d5ca"/><use xlink:href="#b" transform="matrix(1,0,0,1,245,71.73333333333343) translate(45 9.511111111111077)"/><use xlink:href="#e" transform="matrix(1,0,0,1,245,71.73333333333343) translate(33.827160493827165 44.44444444444437)"/><path d="M340 66.73h100V140H340z" stroke="#000" stroke-width="5" fill="#99d5ca"/><use xlink:href="#b" transform="matrix(1,0,0,1,345,71.73333333333343) translate(45 9.511111111111077)"/><use xlink:href="#f" transform="matrix(1,0,0,1,345,71.73333333333343) translate(33.827160493827165 44.44444444444437)"/><path d="M440 66.73h100V140H440z" stroke="#000" stroke-width="5" fill="#99d5ca"/><use xlink:href="#b" transform="matrix(1,0,0,1,445,71.73333333333343) translate(45 9.511111111111077)"/><use xlink:href="#g" transform="matrix(1,0,0,1,445,71.73333333333343) translate(33.827160493827165 44.44444444444437)"/><path d="M540 66.73h100V140H540z" stroke="#000" stroke-width="5" fill="#99d5ca"/><use xlink:href="#b" transform="matrix(1,0,0,1,545,71.73333333333343) translate(45 9.511111111111077)"/><use xlink:href="#h" transform="matrix(1,0,0,1,545,71.73333333333343) translate(33.827160493827165 44.44444444444437)"/><path d="M640 66.73h100V140H640z" stroke="#000" stroke-width="5" fill="#99d5ca"/><use xlink:href="#b" transform="matrix(1,0,0,1,645,71.73333333333343) translate(45 9.511111111111077)"/><use xlink:href="#e" transform="matrix(1,0,0,1,645,71.73333333333343) translate(33.827160493827165 44.44444444444437)"/><path d="M740 66.73h100V140H740z" stroke="#000" stroke-width="5" fill="#99d5ca"/><use xlink:href="#b" transform="matrix(1,0,0,1,745,71.73333333333343) translate(45 9.511111111111077)"/><use xlink:href="#i" transform="matrix(1,0,0,1,745,71.73333333333343) translate(33.827160493827165 44.44444444444437)"/><path d="M40 266.73h260V340H40z" stroke="#000" stroke-width="5" fill="#b2d6ef"/><use xlink:href="#j" transform="matrix(1,0,0,1,45,271.73333333333346) translate(125 7.733333333333299)"/><use xlink:href="#k" transform="matrix(1,0,0,1,45,271.73333333333346) translate(77.06851851851854 41.7777777777777)"/><path d="M40 340h260v73.27H40z" stroke="#000" stroke-width="5" fill="#b2d6ef"/><g><use xlink:href="#j" transform="matrix(1,0,0,1,45,345) translate(125 7.733333333333299)"/><use xlink:href="#l" transform="matrix(1,0,0,1,45,345) translate(66.95709876543214 41.7777777777777)"/><use xlink:href="#m" transform="matrix(1,0,0,1,45,345) translate(160.6972222222222 41.7777777777777)"/></g><path d="M40 413.27h260v73.26H40z" stroke="#000" stroke-width="5" fill="#b2d6ef"/><g><use xlink:href="#j" transform="matrix(1,0,0,1,45,418.26666666666665) translate(125 7.733333333333299)"/><use xlink:href="#n" transform="matrix(1,0,0,1,45,418.26666666666665) translate(28.969444444444505 41.7777777777777)"/><use xlink:href="#m" transform="matrix(1,0,0,1,45,418.26666666666665) translate(198.68487654320984 41.7777777777777)"/></g><path d="M90.9 299.94l-.76-132.58M90.9 299.87v2.57" stroke="#000" stroke-width="5" fill="none"/><path d="M90.05 150.6l4.7 14.23-9.26.05z" stroke="#000" stroke-width="5"/><path d="M740 20.73h100v46H740z" fill="none"/><g><use xlink:href="#o" transform="matrix(1,0,0,1,740,20.733179781632316) translate(0 34.46666666666667)"/></g><defs><path d="M101-234c-31-9-42 10-38 44h38v23H63V0H32v-167H5v-23h27c-7-52 17-82 69-68v24" id="p"/><path d="M114-163C36-179 61-72 57 0H25l-1-190h30c1 12-1 29 2 39 6-27 23-49 58-41v29" id="q"/><path d="M100-194c62-1 85 37 85 99 1 63-27 99-86 99S16-35 15-95c0-66 28-99 85-99zM99-20c44 1 53-31 53-75 0-43-8-75-51-75s-53 32-53 75 10 74 51 75" id="r"/><path d="M117-194c89-4 53 116 60 194h-32v-121c0-31-8-49-39-48C34-167 62-67 57 0H25l-1-190h30c1 10-1 24 2 32 11-22 29-35 61-36" id="s"/><path d="M59-47c-2 24 18 29 38 22v24C64 9 27 4 27-40v-127H5v-23h24l9-43h21v43h35v23H59v120" id="t"/><g id="a"><use transform="matrix(0.08703703703703701,0,0,0.08703703703703701,0,0)" xlink:href="#p"/><use transform="matrix(0.08703703703703701,0,0,0.08703703703703701,8.7037037037037,0)" xlink:href="#q"/><use transform="matrix(0.08703703703703701,0,0,0.08703703703703701,19.061111111111103,0)" xlink:href="#r"/><use transform="matrix(0.08703703703703701,0,0,0.08703703703703701,36.46851851851851,0)" xlink:href="#s"/><use transform="matrix(0.08703703703703701,0,0,0.08703703703703701,53.87592592592591,0)" xlink:href="#t"/></g><path d="M27 0v-27h64v-190l-56 39v-29l58-41h29v221h61V0H27" id="u"/><use transform="matrix(0.11172839506172831,0,0,0.11172839506172831,0,0)" xlink:href="#u" id="c"/><path d="M155-56V0h-30v-56H8v-25l114-167h33v167h35v25h-35zm-30-156c-27 46-58 90-88 131h88v-131" id="v"/><use transform="matrix(0.11172839506172831,0,0,0.11172839506172831,0,0)" xlink:href="#v" id="d"/><path d="M54-142c48-35 137-8 131 61C196 18 31 33 14-55l32-4c7 23 22 37 52 37 35-1 51-22 54-58 4-55-73-65-99-34H22l8-134h141v27H59" id="w"/><use transform="matrix(0.11172839506172831,0,0,0.11172839506172831,0,0)" xlink:href="#w" id="e"/><path d="M99-251c64 0 84 50 84 122C183-37 130 33 47-8c-14-7-20-23-25-40l30-5c6 39 69 39 84 7 9-19 16-44 16-74-10 22-31 35-62 35-49 0-73-33-73-83 0-54 28-83 82-83zm-1 141c31-1 51-18 51-49 0-36-14-67-51-67-34 0-49 23-49 58 0 34 15 58 49 58" id="x"/><use transform="matrix(0.11172839506172831,0,0,0.11172839506172831,0,0)" xlink:href="#x" id="f"/><path d="M101-251c82-7 93 87 43 132L82-64C71-53 59-42 53-27h129V0H18c2-99 128-94 128-182 0-28-16-43-45-43s-46 15-49 41l-32-3c6-41 34-60 81-64" id="y"/><use transform="matrix(0.11172839506172831,0,0,0.11172839506172831,0,0)" xlink:href="#y" id="g"/><path d="M110-160c48 1 74 30 74 79 0 53-28 85-80 85-65 0-83-55-86-122-5-90 50-162 133-122 14 7 22 21 27 39l-31 6c-5-40-67-38-82-6-9 19-15 44-15 74 11-20 30-34 60-33zm-7 138c34 0 49-23 49-58s-16-56-50-56c-29 0-50 16-49 49 1 36 15 65 50 65" id="z"/><use transform="matrix(0.11172839506172831,0,0,0.11172839506172831,0,0)" xlink:href="#z" id="h"/><path d="M126-127c33 6 58 20 58 59 0 88-139 92-164 29-3-8-5-16-6-25l32-3c6 27 21 44 54 44 32 0 52-15 52-46 0-38-36-46-79-43v-28c39 1 72-4 72-42 0-27-17-43-46-43-28 0-47 15-49 41l-32-3c6-42 35-63 81-64 48-1 79 21 79 65 0 36-21 52-52 59" id="A"/><use transform="matrix(0.11172839506172831,0,0,0.11172839506172831,0,0)" xlink:href="#A" id="i"/><path d="M24-231v-30h32v30H24zM24 0v-190h32V0H24" id="B"/><path d="M100-194c63 0 86 42 84 106H49c0 40 14 67 53 68 26 1 43-12 49-29l28 8c-11 28-37 45-77 45C44 4 14-33 15-96c1-61 26-98 85-98zm52 81c6-60-76-77-97-28-3 7-6 17-6 28h103" id="C"/><path d="M210-169c-67 3-38 105-44 169h-31v-121c0-29-5-50-35-48C34-165 62-65 56 0H25l-1-190h30c1 10-1 24 2 32 10-44 99-50 107 0 11-21 27-35 58-36 85-2 47 119 55 194h-31v-121c0-29-5-49-35-48" id="D"/><path d="M135-143c-3-34-86-38-87 0 15 53 115 12 119 90S17 21 10-45l28-5c4 36 97 45 98 0-10-56-113-15-118-90-4-57 82-63 122-42 12 7 21 19 24 35" id="E"/><g id="k"><use transform="matrix(0.11172839506172831,0,0,0.11172839506172831,0,0)" xlink:href="#B"/><use transform="matrix(0.11172839506172831,0,0,0.11172839506172831,8.826543209876537,0)" xlink:href="#t"/><use transform="matrix(0.11172839506172831,0,0,0.11172839506172831,19.999382716049368,0)" xlink:href="#C"/><use transform="matrix(0.11172839506172831,0,0,0.11172839506172831,42.34506172839503,0)" xlink:href="#D"/><use transform="matrix(0.11172839506172831,0,0,0.11172839506172831,75.7518518518518,0)" xlink:href="#E"/></g><path d="M9 0v-24l116-142H16v-24h144v24L44-24h123V0H9" id="F"/><path d="M33-154v-36h34v36H33zM33 0v-36h34V0H33" id="G"/><g id="l"><use transform="matrix(0.11172839506172831,0,0,0.11172839506172831,0,0)" xlink:href="#E"/><use transform="matrix(0.11172839506172831,0,0,0.11172839506172831,20.111111111111097,0)" xlink:href="#B"/><use transform="matrix(0.11172839506172831,0,0,0.11172839506172831,28.937654320987633,0)" xlink:href="#F"/><use transform="matrix(0.11172839506172831,0,0,0.11172839506172831,49.04876543209873,0)" xlink:href="#C"/><use transform="matrix(0.11172839506172831,0,0,0.11172839506172831,71.39444444444439,0)" xlink:href="#G"/></g><path d="M134-131c28 9 52 24 51 62-1 50-34 73-85 73S17-19 16-69c0-36 21-54 49-61-75-25-45-126 34-121 46 3 78 18 79 63 0 33-17 51-44 57zm-34-11c31 1 46-15 46-44 0-28-17-43-47-42-29 0-46 13-45 42 1 28 16 44 46 44zm1 122c35 0 51-18 51-52 0-30-18-46-53-46-33 0-51 17-51 47 0 34 19 51 53 51" id="H"/><use transform="matrix(0.11172839506172831,0,0,0.11172839506172831,0,0)" xlink:href="#H" id="m"/><path d="M96-169c-40 0-48 33-48 73s9 75 48 75c24 0 41-14 43-38l32 2c-6 37-31 61-74 61-59 0-76-41-82-99-10-93 101-131 147-64 4 7 5 14 7 22l-32 3c-4-21-16-35-41-35" id="I"/><path d="M141-36C126-15 110 5 73 4 37 3 15-17 15-53c-1-64 63-63 125-63 3-35-9-54-41-54-24 1-41 7-42 31l-33-3c5-37 33-52 76-52 45 0 72 20 72 64v82c-1 20 7 32 28 27v20c-31 9-61-2-59-35zM48-53c0 20 12 33 32 33 41-3 63-29 60-74-43 2-92-5-92 41" id="J"/><path d="M115-194c55 1 70 41 70 98S169 2 115 4C84 4 66-9 55-30l1 105H24l-1-265h31l2 30c10-21 28-34 59-34zm-8 174c40 0 45-34 45-75s-6-73-45-74c-42 0-51 32-51 76 0 43 10 73 51 73" id="K"/><path d="M179-190L93 31C79 59 56 82 12 73V49c39 6 53-20 64-50L1-190h34L92-34l54-156h33" id="L"/><g id="n"><use transform="matrix(0.11172839506172831,0,0,0.11172839506172831,0,0)" xlink:href="#I"/><use transform="matrix(0.11172839506172831,0,0,0.11172839506172831,20.111111111111097,0)" xlink:href="#J"/><use transform="matrix(0.11172839506172831,0,0,0.11172839506172831,42.456790123456756,0)" xlink:href="#K"/><use transform="matrix(0.11172839506172831,0,0,0.11172839506172831,64.80246913580243,0)" xlink:href="#J"/><use transform="matrix(0.11172839506172831,0,0,0.11172839506172831,87.1481481481481,0)" xlink:href="#I"/><use transform="matrix(0.11172839506172831,0,0,0.11172839506172831,107.2592592592592,0)" xlink:href="#B"/><use transform="matrix(0.11172839506172831,0,0,0.11172839506172831,116.08580246913574,0)" xlink:href="#t"/><use transform="matrix(0.11172839506172831,0,0,0.11172839506172831,127.25864197530858,0)" xlink:href="#L"/><use transform="matrix(0.11172839506172831,0,0,0.11172839506172831,147.36975308641965,0)" xlink:href="#G"/></g><path d="M115-194c53 0 69 39 70 98 0 66-23 100-70 100C84 3 66-7 56-30L54 0H23l1-261h32v101c10-23 28-34 59-34zm-8 174c40 0 45-34 45-75 0-40-5-75-45-74-42 0-51 32-51 76 0 43 10 73 51 73" id="M"/><path d="M143 0L79-87 56-68V0H24v-261h32v163l83-92h37l-77 82L181 0h-38" id="N"/><g id="o"><use transform="matrix(0.08703703703703701,0,0,0.08703703703703701,0,0)" xlink:href="#M"/><use transform="matrix(0.08703703703703701,0,0,0.08703703703703701,17.4074074074074,0)" xlink:href="#J"/><use transform="matrix(0.08703703703703701,0,0,0.08703703703703701,34.8148148148148,0)" xlink:href="#I"/><use transform="matrix(0.08703703703703701,0,0,0.08703703703703701,50.48148148148147,0)" xlink:href="#N"/></g></defs></g></svg>