<svg xmlns="http://www.w3.org/2000/svg" xmlns:xlink="http://www.w3.org/1999/xlink" xmlns:lucid="lucid" width="1006.85" height="460"><g transform="translate(2 0)" lucid:page-tab-id="0_0"><path d="M0 0h1870.4v1323.2H0z" fill="#fff"/><path d="M300 260h240v60H300z" stroke="#000" stroke-width="5" fill="#b2d6ef"/><use xlink:href="#a" transform="matrix(1,0,0,1,305,265) translate(115 6.858333333333306)"/><use xlink:href="#b" transform="matrix(1,0,0,1,305,265) translate(75.24691358024694 37.34722222222217)"/><path d="M300 320h240v60H300z" stroke="#000" stroke-width="5" fill="#b2d6ef"/><use xlink:href="#a" transform="matrix(1,0,0,1,305,325) translate(115 6.858333333333306)"/><use xlink:href="#c" transform="matrix(1,0,0,1,305,325) translate(92.24135802469137 37.34722222222217)"/><path d="M300 380h240v60H300z" stroke="#000" stroke-width="5" fill="#b2d6ef"/><use xlink:href="#a" transform="matrix(1,0,0,1,305,385) translate(115 6.858333333333306)"/><use xlink:href="#d" transform="matrix(1,0,0,1,305,385) translate(63.370679012345704 37.34722222222217)"/><use xlink:href="#e" transform="matrix(1,0,0,1,305,385) translate(146.75277777777777 37.34722222222217)"/><path d="M20 20h240v40H20z" fill="none"/><use xlink:href="#f" transform="matrix(1,0,0,1,20,20) translate(0 28.622222222222213)"/><path d="M20 60h100v80H20z" stroke="#000" stroke-width="5" fill="#99d5ca"/><use xlink:href="#g" transform="matrix(1,0,0,1,25,65) translate(45 11.663888888888877)"/><use xlink:href="#h" transform="matrix(1,0,0,1,25,65) translate(33.827160493827165 47.48611111111107)"/><path d="M120 60h100v80H120z" stroke="#000" stroke-width="5" fill="#99d5ca"/><path d="M180 100c0 5.52-4.48 10-10 10s-10-4.48-10-10 4.48-10 10-10 10 4.48 10 10z" stroke="#000" stroke-width="5"/><path d="M185.02 100h107.62" stroke="#000" stroke-width="5" fill="none"/><path d="M185.1 102.5h-2.97l.4-2.46-.34-2.53h2.9z"/><path d="M309.4 100l-14.26 4.64v-9.27z" stroke="#000" stroke-width="5"/><path d="M320 60h100v80H320z" stroke="#000" stroke-width="5" fill="#99d5ca"/><use xlink:href="#g" transform="matrix(1,0,0,1,325,65) translate(45 11.663888888888877)"/><use xlink:href="#i" transform="matrix(1,0,0,1,325,65) translate(33.827160493827165 47.48611111111107)"/><path d="M420 60h100v80H420z" stroke="#000" stroke-width="5" fill="#99d5ca"/><path d="M480 100c0 5.52-4.48 10-10 10s-10-4.48-10-10 4.48-10 10-10 10 4.48 10 10z" stroke="#000" stroke-width="5"/><path d="M485.02 100h107.62" stroke="#000" stroke-width="5" fill="none"/><path d="M485.1 102.5h-2.97l.4-2.46-.34-2.53h2.9z"/><path d="M609.4 100l-14.26 4.64v-9.27z" stroke="#000" stroke-width="5"/><path d="M620 60h100v80H620z" stroke="#000" stroke-width="5" fill="#99d5ca"/><use xlink:href="#g" transform="matrix(1,0,0,1,625,65) translate(45 11.663888888888877)"/><use xlink:href="#j" transform="matrix(1,0,0,1,625,65) translate(33.827160493827165 47.48611111111107)"/><path d="M720 60h100v80H720z" stroke="#000" stroke-width="5" fill="#99d5ca"/><path d="M780 100c0 5.52-4.48 10-10 10s-10-4.48-10-10 4.48-10 10-10 10 4.48 10 10z" stroke="#000" stroke-width="5"/><path d="M785.02 100h107.62" stroke="#000" stroke-width="5" fill="none"/><path d="M785.1 102.5h-2.97l.4-2.46-.34-2.53h2.9z"/><path d="M909.4 100l-14.26 4.64v-9.27z" stroke="#000" stroke-width="5"/><path d="M922.54 79.9l19.9 19.87L962.3 79.9l2.67 2.64-19.9 19.9 19.9 19.87-2.66 2.67-19.87-19.9-19.9 19.9-2.64-2.66 19.87-19.87-19.88-19.9z" stroke="#000" stroke-width="5" fill="#fff"/><path d="M620 20h240v40H620z" fill="none"/><use xlink:href="#k" transform="matrix(1,0,0,1,620,20) translate(0 28.622222222222213)"/><path d="M329.5 289.28l-23.13-.47-21.05-1.3-17.6-1.84-14.98-2.2-12.9-2.45-11.2-2.62-9.88-2.75-8.76-2.84-7.83-2.92-7.05-2.96-6.4-3-5.8-3.05-5.35-3.08-4.9-3.13-4.55-3.15-4.22-3.2-3.92-3.25-3.67-3.3-3.43-3.37-3.23-3.44-3.04-3.52-2.87-3.6-2.7-3.73-2.55-3.84-2.4-3.98-2.3-4.14-2.13-4.3-2-4.53-1.9-4.73-1.73-5-1.6-5.32-1.45-5.65-1.28-6.04-1.1-6.5-.36-2.77M329.43 289.28l2.57.05" stroke="#000" stroke-width="5" fill="none"/><path d="M119.18 150.57l5.53 13.95-9.24.58z" stroke="#000" stroke-width="5"/><path d="M509.17 350.65l15.5-.1 15.72-.74 13.84-1.24 12.33-1.64L577.6 345l9.97-2.2 9.05-2.38 8.27-2.55 7.58-2.7 7.02-2.83 6.5-2.94 6.07-3.06 5.67-3.17 5.33-3.27 5.03-3.4 4.75-3.5 4.5-3.6 4.3-3.76 4.1-3.9 3.92-4.05 3.75-4.23 3.6-4.42 3.47-4.62 3.33-4.87 3.2-5.14 3.1-5.44 2.98-5.8 2.88-6.2 2.75-6.67 2.63-7.2 2.5-7.87 2.35-8.64 2.2-9.6 1.97-10.8 1.74-12.35 1.43-14.46.67-12.06M509.24 350.65l-2.57.02" stroke="#000" stroke-width="5" fill="none"/><path d="M714.63 150.6l4.26 14.37-9.27-.24z" stroke="#000" stroke-width="5"/><defs><path d="M106-169C34-169 62-67 57 0H25v-261h32l-1 103c12-21 28-36 61-36 89 0 53 116 60 194h-32v-121c2-32-8-49-39-48" id="l"/><path d="M100-194c63 0 86 42 84 106H49c0 40 14 67 53 68 26 1 43-12 49-29l28 8c-11 28-37 45-77 45C44 4 14-33 15-96c1-61 26-98 85-98zm52 81c6-60-76-77-97-28-3 7-6 17-6 28h103" id="m"/><path d="M141-36C126-15 110 5 73 4 37 3 15-17 15-53c-1-64 63-63 125-63 3-35-9-54-41-54-24 1-41 7-42 31l-33-3c5-37 33-52 76-52 45 0 72 20 72 64v82c-1 20 7 32 28 27v20c-31 9-61-2-59-35zM48-53c0 20 12 33 32 33 41-3 63-29 60-74-43 2-92-5-92 41" id="n"/><path d="M85-194c31 0 48 13 60 33l-1-100h32l1 261h-30c-2-10 0-23-3-31C134-8 116 4 85 4 32 4 16-35 15-94c0-66 23-100 70-100zm9 24c-40 0-46 34-46 75 0 40 6 74 45 74 42 0 51-32 51-76 0-42-9-74-50-73" id="o"/><g id="b"><use transform="matrix(0.09938271604938267,0,0,0.09938271604938267,0,0)" xlink:href="#l"/><use transform="matrix(0.09938271604938267,0,0,0.09938271604938267,19.876543209876534,0)" xlink:href="#m"/><use transform="matrix(0.09938271604938267,0,0,0.09938271604938267,39.75308641975307,0)" xlink:href="#n"/><use transform="matrix(0.09938271604938267,0,0,0.09938271604938267,59.629629629629605,0)" xlink:href="#o"/></g><path d="M59-47c-2 24 18 29 38 22v24C64 9 27 4 27-40v-127H5v-23h24l9-43h21v43h35v23H59v120" id="p"/><path d="M24-231v-30h32v30H24zM24 0v-190h32V0H24" id="q"/><path d="M24 0v-261h32V0H24" id="r"/><g id="c"><use transform="matrix(0.09938271604938267,0,0,0.09938271604938267,0,0)" xlink:href="#p"/><use transform="matrix(0.09938271604938267,0,0,0.09938271604938267,9.938271604938267,0)" xlink:href="#n"/><use transform="matrix(0.09938271604938267,0,0,0.09938271604938267,29.814814814814802,0)" xlink:href="#q"/><use transform="matrix(0.09938271604938267,0,0,0.09938271604938267,37.66604938271603,0)" xlink:href="#r"/></g><path d="M135-143c-3-34-86-38-87 0 15 53 115 12 119 90S17 21 10-45l28-5c4 36 97 45 98 0-10-56-113-15-118-90-4-57 82-63 122-42 12 7 21 19 24 35" id="s"/><path d="M9 0v-24l116-142H16v-24h144v24L44-24h123V0H9" id="t"/><path d="M33-154v-36h34v36H33zM33 0v-36h34V0H33" id="u"/><g id="d"><use transform="matrix(0.09938271604938267,0,0,0.09938271604938267,0,0)" xlink:href="#s"/><use transform="matrix(0.09938271604938267,0,0,0.09938271604938267,17.888888888888882,0)" xlink:href="#q"/><use transform="matrix(0.09938271604938267,0,0,0.09938271604938267,25.74012345679012,0)" xlink:href="#t"/><use transform="matrix(0.09938271604938267,0,0,0.09938271604938267,43.629012345679,0)" xlink:href="#m"/><use transform="matrix(0.09938271604938267,0,0,0.09938271604938267,63.50555555555553,0)" xlink:href="#u"/></g><path d="M126-127c33 6 58 20 58 59 0 88-139 92-164 29-3-8-5-16-6-25l32-3c6 27 21 44 54 44 32 0 52-15 52-46 0-38-36-46-79-43v-28c39 1 72-4 72-42 0-27-17-43-46-43-28 0-47 15-49 41l-32-3c6-42 35-63 81-64 48-1 79 21 79 65 0 36-21 52-52 59" id="v"/><use transform="matrix(0.09938271604938267,0,0,0.09938271604938267,0,0)" xlink:href="#v" id="e"/><path d="M101-234c-31-9-42 10-38 44h38v23H63V0H32v-167H5v-23h27c-7-52 17-82 69-68v24" id="w"/><path d="M114-163C36-179 61-72 57 0H25l-1-190h30c1 12-1 29 2 39 6-27 23-49 58-41v29" id="x"/><path d="M100-194c62-1 85 37 85 99 1 63-27 99-86 99S16-35 15-95c0-66 28-99 85-99zM99-20c44 1 53-31 53-75 0-43-8-75-51-75s-53 32-53 75 10 74 51 75" id="y"/><path d="M117-194c89-4 53 116 60 194h-32v-121c0-31-8-49-39-48C34-167 62-67 57 0H25l-1-190h30c1 10-1 24 2 32 11-22 29-35 61-36" id="z"/><g id="f"><use transform="matrix(0.09938271604938267,0,0,0.09938271604938267,0,0)" xlink:href="#w"/><use transform="matrix(0.09938271604938267,0,0,0.09938271604938267,9.938271604938267,0)" xlink:href="#x"/><use transform="matrix(0.09938271604938267,0,0,0.09938271604938267,21.764814814814805,0)" xlink:href="#y"/><use transform="matrix(0.09938271604938267,0,0,0.09938271604938267,41.64135802469134,0)" xlink:href="#z"/><use transform="matrix(0.09938271604938267,0,0,0.09938271604938267,61.51790123456787,0)" xlink:href="#p"/></g><use transform="matrix(0.11172839506172831,0,0,0.11172839506172831,0,0)" xlink:href="#v" id="h"/><path d="M27 0v-27h64v-190l-56 39v-29l58-41h29v221h61V0H27" id="A"/><use transform="matrix(0.11172839506172831,0,0,0.11172839506172831,0,0)" xlink:href="#A" id="i"/><path d="M155-56V0h-30v-56H8v-25l114-167h33v167h35v25h-35zm-30-156c-27 46-58 90-88 131h88v-131" id="B"/><use transform="matrix(0.11172839506172831,0,0,0.11172839506172831,0,0)" xlink:href="#B" id="j"/><path d="M115-194c53 0 69 39 70 98 0 66-23 100-70 100C84 3 66-7 56-30L54 0H23l1-261h32v101c10-23 28-34 59-34zm-8 174c40 0 45-34 45-75 0-40-5-75-45-74-42 0-51 32-51 76 0 43 10 73 51 73" id="C"/><path d="M96-169c-40 0-48 33-48 73s9 75 48 75c24 0 41-14 43-38l32 2c-6 37-31 61-74 61-59 0-76-41-82-99-10-93 101-131 147-64 4 7 5 14 7 22l-32 3c-4-21-16-35-41-35" id="D"/><path d="M143 0L79-87 56-68V0H24v-261h32v163l83-92h37l-77 82L181 0h-38" id="E"/><g id="k"><use transform="matrix(0.09938271604938267,0,0,0.09938271604938267,0,0)" xlink:href="#C"/><use transform="matrix(0.09938271604938267,0,0,0.09938271604938267,19.876543209876534,0)" xlink:href="#n"/><use transform="matrix(0.09938271604938267,0,0,0.09938271604938267,39.75308641975307,0)" xlink:href="#D"/><use transform="matrix(0.09938271604938267,0,0,0.09938271604938267,57.64197530864195,0)" xlink:href="#E"/></g></defs></g></svg>