<svg xmlns="http://www.w3.org/2000/svg" xmlns:xlink="http://www.w3.org/1999/xlink" xmlns:lucid="lucid" width="648" height="385.2"><g transform="translate(0 0)" lucid:page-tab-id="0_0"><path d="M0 0h1760v1360H0z" fill="#fff"/><path d="M20 30c0-5.52 4.48-10 10-10h80c5.52 0 10 4.48 10 10v86.8c0 5.52-4.48 10-10 10H30c-5.52 0-10-4.48-10-10z" stroke="#000" stroke-width="2" fill="#99d2f2"/><use xlink:href="#a" transform="matrix(1,0,0,1,25,25) translate(45 17.16666666666667)"/><use xlink:href="#b" transform="matrix(1,0,0,1,25,25) translate(18.18580246913581 40.54444444444444)"/><use xlink:href="#c" transform="matrix(1,0,0,1,25,25) translate(18.89537037037038 72.8111111111111)"/><path d="M160 164.4c0-5.52 4.48-10 10-10h80c5.52 0 10 4.48 10 10v54.53c0 5.53-4.48 10-10 10h-80c-5.52 0-10-4.47-10-10z" stroke="#000" stroke-width="2" fill="#5abaa7"/><use xlink:href="#a" transform="matrix(1,0,0,1,165,159.39999999999998) translate(45 17.3)"/><use xlink:href="#d" transform="matrix(1,0,0,1,165,159.39999999999998) translate(18.89537037037038 40.67777777777776)"/><path d="M273 164.4c0-5.52 4.48-10 10-10h80c5.52 0 10 4.48 10 10v54.53c0 5.53-4.48 10-10 10h-80c-5.52 0-10-4.47-10-10z" stroke="#000" stroke-width="2" fill="#5abaa7"/><use xlink:href="#a" transform="matrix(1,0,0,1,278,159.39999999999998) translate(45 17.3)"/><use xlink:href="#d" transform="matrix(1,0,0,1,278,159.39999999999998) translate(18.89537037037038 40.67777777777776)"/><path d="M386 164.4c0-5.52 4.48-10 10-10h80c5.52 0 10 4.48 10 10v54.53c0 5.53-4.48 10-10 10h-80c-5.52 0-10-4.47-10-10z" stroke="#000" stroke-width="2" fill="#5abaa7"/><use xlink:href="#a" transform="matrix(1,0,0,1,391,159.39999999999998) translate(45 17.3)"/><use xlink:href="#d" transform="matrix(1,0,0,1,391,159.39999999999998) translate(18.89537037037038 40.67777777777776)"/><path d="M528 268.4c0-5.52 4.48-10 10-10h80c5.52 0 10 4.48 10 10v86.8c0 5.52-4.48 10-10 10h-80c-5.52 0-10-4.48-10-10z" stroke="#000" stroke-width="2" fill="#92d050"/><use xlink:href="#a" transform="matrix(1,0,0,1,533,263.4) translate(45 17.16666666666667)"/><use xlink:href="#e" transform="matrix(1,0,0,1,533,263.4) translate(18.97006172839507 40.54444444444444)"/><use xlink:href="#c" transform="matrix(1,0,0,1,533,263.4) translate(18.89537037037038 72.8111111111111)"/><path d="M69.03 134.4l.2 6.32.54 5.94.77 4.95.93 4.2 1.05 3.65 1.15 3.2 1.22 2.85 1.3 2.57 1.37 2.34 1.45 2.17 1.54 2 1.64 1.88 1.76 1.77 1.88 1.68 2.05 1.6 2.23 1.54 2.47 1.48 2.77 1.43 3.15 1.4 3.62 1.32 4.27 1.26 5.17 1.2 6.46 1.06 8.5.85 3.97.15M69.03 134.43L69 133.4" stroke="#000" stroke-width="2" fill="none"/><path d="M145.76 193.36l-14.3 4.48.1-9.27z" stroke="#000" stroke-width="2"/><path d="M499 191.43l17.82.6 11.05 1.1 7.83 1.28 6 1.38 4.83 1.42 4 1.46 3.38 1.48 2.93 1.5 2.56 1.52 2.26 1.56 2.03 1.6 1.84 1.62 1.68 1.7 1.54 1.74 1.4 1.83 1.32 1.95 1.2 2.05 1.13 2.2 1.03 2.36.93 2.6.83 2.83.7 3.15.4 2.6M499.03 191.44l-1.03-.04" stroke="#000" stroke-width="2" fill="none"/><path d="M577.95 248.17l-4.86-14.2 9.26-.14z" stroke="#000" stroke-width="2"/><path d="M140 114.4h90v40h-90z" stroke="#000" stroke-opacity="0" stroke-width="2" fill="#fff" fill-opacity="0"/><use xlink:href="#f" transform="matrix(1,0,0,1,145,119.4) translate(15.061728395061746 19.488888888888887)"/><path d="M396 114.4h124v40H396z" stroke="#000" stroke-opacity="0" stroke-width="2" fill="#fff" fill-opacity="0"/><g><use xlink:href="#g" transform="matrix(1,0,0,1,401,119.4) translate(30.87716049382718 19.488888888888887)"/></g><path d="M54 196.4h100v40H54z" stroke="#000" stroke-opacity="0" stroke-width="2" fill="#fff" fill-opacity="0"/><g><use xlink:href="#h" transform="matrix(1,0,0,1,59.000000000000014,201.39999999999998) translate(0.11111111111114269 19.488888888888887)"/></g><path d="M491 152.8h100v40H491z" stroke="#000" stroke-opacity="0" stroke-width="2" fill="#fff" fill-opacity="0"/><g><use xlink:href="#i" transform="matrix(1,0,0,1,496,157.79999999999995) translate(-0.48117283950613654 19.488888888888887)"/></g><defs><path d="M190 0L58-211 59 0H30v-248h39L202-35l-2-213h31V0h-41" id="j"/><path d="M100-194c63 0 86 42 84 106H49c0 40 14 67 53 68 26 1 43-12 49-29l28 8c-11 28-37 45-77 45C44 4 14-33 15-96c1-61 26-98 85-98zm52 81c6-60-76-77-97-28-3 7-6 17-6 28h103" id="k"/><path d="M206 0h-36l-40-164L89 0H53L-1-190h32L70-26l43-164h34l41 164 42-164h31" id="l"/><g id="b"><use transform="matrix(0.07469135802469133,0,0,0.07469135802469133,0,0)" xlink:href="#j"/><use transform="matrix(0.07469135802469133,0,0,0.07469135802469133,19.345061728395056,0)" xlink:href="#k"/><use transform="matrix(0.07469135802469133,0,0,0.07469135802469133,34.283333333333324,0)" xlink:href="#l"/></g><path d="M33 0v-248h34V0H33" id="m"/><path d="M59-47c-2 24 18 29 38 22v24C64 9 27 4 27-40v-127H5v-23h24l9-43h21v43h35v23H59v120" id="n"/><path d="M210-169c-67 3-38 105-44 169h-31v-121c0-29-5-50-35-48C34-165 62-65 56 0H25l-1-190h30c1 10-1 24 2 32 10-44 99-50 107 0 11-21 27-35 58-36 85-2 47 119 55 194h-31v-121c0-29-5-49-35-48" id="o"/><g id="c"><use transform="matrix(0.07469135802469133,0,0,0.07469135802469133,0,0)" xlink:href="#m"/><use transform="matrix(0.07469135802469133,0,0,0.07469135802469133,7.4691358024691334,0)" xlink:href="#n"/><use transform="matrix(0.07469135802469133,0,0,0.07469135802469133,14.938271604938267,0)" xlink:href="#k"/><use transform="matrix(0.07469135802469133,0,0,0.07469135802469133,29.876543209876534,0)" xlink:href="#o"/></g><g id="d"><use transform="matrix(0.07469135802469133,0,0,0.07469135802469133,0,0)" xlink:href="#m"/><use transform="matrix(0.07469135802469133,0,0,0.07469135802469133,7.4691358024691334,0)" xlink:href="#n"/><use transform="matrix(0.07469135802469133,0,0,0.07469135802469133,14.938271604938267,0)" xlink:href="#k"/><use transform="matrix(0.07469135802469133,0,0,0.07469135802469133,29.876543209876534,0)" xlink:href="#o"/></g><path d="M63-220v92h138v28H63V0H30v-248h175v28H63" id="p"/><path d="M24-231v-30h32v30H24zM24 0v-190h32V0H24" id="q"/><path d="M114-163C36-179 61-72 57 0H25l-1-190h30c1 12-1 29 2 39 6-27 23-49 58-41v29" id="r"/><path d="M135-143c-3-34-86-38-87 0 15 53 115 12 119 90S17 21 10-45l28-5c4 36 97 45 98 0-10-56-113-15-118-90-4-57 82-63 122-42 12 7 21 19 24 35" id="s"/><g id="e"><use transform="matrix(0.07469135802469133,0,0,0.07469135802469133,0,0)" xlink:href="#p"/><use transform="matrix(0.07469135802469133,0,0,0.07469135802469133,16.3574074074074,0)" xlink:href="#q"/><use transform="matrix(0.07469135802469133,0,0,0.07469135802469133,22.258024691358017,0)" xlink:href="#r"/><use transform="matrix(0.07469135802469133,0,0,0.07469135802469133,31.146296296296285,0)" xlink:href="#s"/><use transform="matrix(0.07469135802469133,0,0,0.07469135802469133,44.59074074074073,0)" xlink:href="#n"/></g><path d="M160-131c35 5 61 23 61 61C221 17 115-2 30 0v-248c76 3 177-17 177 60 0 33-19 50-47 57zm-97-11c50-1 110 9 110-42 0-47-63-36-110-37v79zm0 115c55-2 124 14 124-45 0-56-70-42-124-44v89" id="t"/><path d="M141-36C126-15 110 5 73 4 37 3 15-17 15-53c-1-64 63-63 125-63 3-35-9-54-41-54-24 1-41 7-42 31l-33-3c5-37 33-52 76-52 45 0 72 20 72 64v82c-1 20 7 32 28 27v20c-31 9-61-2-59-35zM48-53c0 20 12 33 32 33 41-3 63-29 60-74-43 2-92-5-92 41" id="u"/><path d="M96-169c-40 0-48 33-48 73s9 75 48 75c24 0 41-14 43-38l32 2c-6 37-31 61-74 61-59 0-76-41-82-99-10-93 101-131 147-64 4 7 5 14 7 22l-32 3c-4-21-16-35-41-35" id="v"/><path d="M143 0L79-87 56-68V0H24v-261h32v163l83-92h37l-77 82L181 0h-38" id="w"/><g id="f"><use transform="matrix(0.06234567901234563,0,0,0.06234567901234563,0,0)" xlink:href="#t"/><use transform="matrix(0.06234567901234563,0,0,0.06234567901234563,14.962962962962951,0)" xlink:href="#u"/><use transform="matrix(0.06234567901234563,0,0,0.06234567901234563,27.43209876543208,0)" xlink:href="#v"/><use transform="matrix(0.06234567901234563,0,0,0.06234567901234563,38.654320987654295,0)" xlink:href="#w"/></g><path d="M100-194c62-1 85 37 85 99 1 63-27 99-86 99S16-35 15-95c0-66 28-99 85-99zM99-20c44 1 53-31 53-75 0-43-8-75-51-75s-53 32-53 75 10 74 51 75" id="x"/><path d="M117-194c89-4 53 116 60 194h-32v-121c0-31-8-49-39-48C34-167 62-67 57 0H25l-1-190h30c1 10-1 24 2 32 11-22 29-35 61-36" id="y"/><g id="g"><use transform="matrix(0.06234567901234563,0,0,0.06234567901234563,0,0)" xlink:href="#p"/><use transform="matrix(0.06234567901234563,0,0,0.06234567901234563,13.653703703703693,0)" xlink:href="#r"/><use transform="matrix(0.06234567901234563,0,0,0.06234567901234563,21.072839506172823,0)" xlink:href="#x"/><use transform="matrix(0.06234567901234563,0,0,0.06234567901234563,33.54197530864195,0)" xlink:href="#y"/><use transform="matrix(0.06234567901234563,0,0,0.06234567901234563,46.01111111111108,0)" xlink:href="#n"/></g><path d="M30 0v-248h187v28H63v79h144v27H63v87h162V0H30" id="z"/><path d="M145-31C134-9 116 4 85 4 32 4 16-35 15-94c0-59 17-99 70-100 32-1 48 14 60 33 0-11-1-24 2-32h30l-1 268h-32zM93-21c41 0 51-33 51-76s-8-73-50-73c-40 0-46 35-46 75s5 74 45 74" id="A"/><path d="M84 4C-5 8 30-112 23-190h32v120c0 31 7 50 39 49 72-2 45-101 50-169h31l1 190h-30c-1-10 1-25-2-33-11 22-28 36-60 37" id="B"/><g id="h"><use transform="matrix(0.06234567901234563,0,0,0.06234567901234563,0,0)" xlink:href="#z"/><use transform="matrix(0.06234567901234563,0,0,0.06234567901234563,14.962962962962951,0)" xlink:href="#y"/><use transform="matrix(0.06234567901234563,0,0,0.06234567901234563,27.43209876543208,0)" xlink:href="#A"/><use transform="matrix(0.06234567901234563,0,0,0.06234567901234563,39.901234567901206,0)" xlink:href="#B"/><use transform="matrix(0.06234567901234563,0,0,0.06234567901234563,52.37037037037033,0)" xlink:href="#k"/><use transform="matrix(0.06234567901234563,0,0,0.06234567901234563,64.83950617283946,0)" xlink:href="#B"/><use transform="matrix(0.06234567901234563,0,0,0.06234567901234563,77.30864197530859,0)" xlink:href="#k"/></g><path d="M30-248c118-7 216 8 213 122C240-48 200 0 122 0H30v-248zM63-27c89 8 146-16 146-99s-60-101-146-95v194" id="C"/><g id="i"><use transform="matrix(0.06234567901234563,0,0,0.06234567901234563,0,0)" xlink:href="#C"/><use transform="matrix(0.06234567901234563,0,0,0.06234567901234563,16.14753086419752,0)" xlink:href="#k"/><use transform="matrix(0.06234567901234563,0,0,0.06234567901234563,28.616666666666646,0)" xlink:href="#A"/><use transform="matrix(0.06234567901234563,0,0,0.06234567901234563,41.08580246913577,0)" xlink:href="#B"/><use transform="matrix(0.06234567901234563,0,0,0.06234567901234563,53.5549382716049,0)" xlink:href="#k"/><use transform="matrix(0.06234567901234563,0,0,0.06234567901234563,66.02407407407402,0)" xlink:href="#B"/><use transform="matrix(0.06234567901234563,0,0,0.06234567901234563,78.49320987654315,0)" xlink:href="#k"/></g></defs></g></svg>