<svg xmlns="http://www.w3.org/2000/svg" xmlns:xlink="http://www.w3.org/1999/xlink" xmlns:lucid="lucid" width="460" height="269"><g transform="translate(0 0)" lucid:page-tab-id="0_0"><path d="M0 0h1760v1360H0z" fill="#fff"/><path d="M100 229h260v32.6H100z" stroke="#000" stroke-opacity="0" stroke-width="2" fill="#fff" fill-opacity="0"/><use xlink:href="#a" transform="matrix(1,0,0,1,105,234) translate(7.739197530864288 16.177777777777766)"/><use xlink:href="#b" transform="matrix(1,0,0,1,105,234) translate(88.51574074074077 16.177777777777766)"/><use xlink:href="#c" transform="matrix(1,0,0,1,105,234) translate(163.67499999999998 16.177777777777766)"/><use xlink:href="#d" transform="matrix(1,0,0,1,105,234) translate(191.7614197530864 16.177777777777766)"/><path d="M160 20h140v61.47H160z" stroke="#000" stroke-width="2" fill="#fff"/><use xlink:href="#e" transform="matrix(1,0,0,1,165,25) translate(65 2.2222222222222356)"/><use xlink:href="#f" transform="matrix(1,0,0,1,165,25) translate(25.67901234567905 19.377777777777773)"/><use xlink:href="#g" transform="matrix(1,0,0,1,165,25) translate(43.289197530864215 43.644444444444424)"/><path d="M20 160h140v61.47H20z" stroke="#000" stroke-width="2" fill="#fff"/><use xlink:href="#h" transform="matrix(1,0,0,1,25,165) translate(65 2.2222222222222356)"/><use xlink:href="#i" transform="matrix(1,0,0,1,25,165) translate(25.67901234567905 19.377777777777773)"/><use xlink:href="#j" transform="matrix(1,0,0,1,25,165) translate(40.64907407407409 43.644444444444424)"/><path d="M300 160h140v61.47H300z" stroke="#000" stroke-width="2" fill="#fff"/><use xlink:href="#h" transform="matrix(1,0,0,1,305,165) translate(65 2.2222222222222356)"/><use xlink:href="#k" transform="matrix(1,0,0,1,305,165) translate(25.67901234567905 19.377777777777773)"/><use xlink:href="#l" transform="matrix(1,0,0,1,305,165) translate(38.82345679012348 43.644444444444424)"/><path d="M196.2 83.05L90.8 158.42" stroke="#000" stroke-width="2" fill="none"/><path d="M196.75 83.88l-1-1.4h2.97zM91.26 159h-2.98l1.97-1.4z"/><path d="M266.83 83.06L369.2 158.4" stroke="#000" stroke-width="2" fill="none"/><path d="M266.26 83.88l-1.92-1.4h2.96zM371.7 159h-2.97l1.04-1.4z"/><defs><path d="M233-177c-1 41-23 64-60 70L243 0h-38l-65-103H63V0H30v-248c88 3 205-21 203 71zM63-129c60-2 137 13 137-47 0-61-80-42-137-45v92" id="m"/><path d="M100-194c63 0 86 42 84 106H49c0 40 14 67 53 68 26 1 43-12 49-29l28 8c-11 28-37 45-77 45C44 4 14-33 15-96c1-61 26-98 85-98zm52 81c6-60-76-77-97-28-3 7-6 17-6 28h103" id="n"/><path d="M96-169c-40 0-48 33-48 73s9 75 48 75c24 0 41-14 43-38l32 2c-6 37-31 61-74 61-59 0-76-41-82-99-10-93 101-131 147-64 4 7 5 14 7 22l-32 3c-4-21-16-35-41-35" id="o"/><path d="M100-194c62-1 85 37 85 99 1 63-27 99-86 99S16-35 15-95c0-66 28-99 85-99zM99-20c44 1 53-31 53-75 0-43-8-75-51-75s-53 32-53 75 10 74 51 75" id="p"/><path d="M114-163C36-179 61-72 57 0H25l-1-190h30c1 12-1 29 2 39 6-27 23-49 58-41v29" id="q"/><path d="M85-194c31 0 48 13 60 33l-1-100h32l1 261h-30c-2-10 0-23-3-31C134-8 116 4 85 4 32 4 16-35 15-94c0-66 23-100 70-100zm9 24c-40 0-46 34-46 75 0 40 6 74 45 74 42 0 51-32 51-76 0-42-9-74-50-73" id="r"/><path d="M135-143c-3-34-86-38-87 0 15 53 115 12 119 90S17 21 10-45l28-5c4 36 97 45 98 0-10-56-113-15-118-90-4-57 82-63 122-42 12 7 21 19 24 35" id="s"/><g id="a"><use transform="matrix(0.0561728395061728,0,0,0.0561728395061728,0,0)" xlink:href="#m"/><use transform="matrix(0.0561728395061728,0,0,0.0561728395061728,14.548765432098755,0)" xlink:href="#n"/><use transform="matrix(0.0561728395061728,0,0,0.0561728395061728,25.783333333333314,0)" xlink:href="#o"/><use transform="matrix(0.0561728395061728,0,0,0.0561728395061728,35.89444444444442,0)" xlink:href="#p"/><use transform="matrix(0.0561728395061728,0,0,0.0561728395061728,47.12901234567897,0)" xlink:href="#q"/><use transform="matrix(0.0561728395061728,0,0,0.0561728395061728,53.81358024691354,0)" xlink:href="#r"/><use transform="matrix(0.0561728395061728,0,0,0.0561728395061728,65.0481481481481,0)" xlink:href="#s"/></g><g id="b"><use transform="matrix(0.0561728395061728,0,0,0.0561728395061728,0,0)" xlink:href="#p"/><use transform="matrix(0.0561728395061728,0,0,0.0561728395061728,11.23456790123456,0)" xlink:href="#q"/><use transform="matrix(0.0561728395061728,0,0,0.0561728395061728,17.91913580246912,0)" xlink:href="#r"/><use transform="matrix(0.0561728395061728,0,0,0.0561728395061728,29.153703703703684,0)" xlink:href="#n"/><use transform="matrix(0.0561728395061728,0,0,0.0561728395061728,40.38827160493824,0)" xlink:href="#q"/><use transform="matrix(0.0561728395061728,0,0,0.0561728395061728,47.072839506172805,0)" xlink:href="#n"/><use transform="matrix(0.0561728395061728,0,0,0.0561728395061728,58.30740740740737,0)" xlink:href="#r"/></g><path d="M117-194c89-4 53 116 60 194h-32v-121c0-31-8-49-39-48C34-167 62-67 57 0H25l-1-190h30c1 10-1 24 2 32 11-22 29-35 61-36" id="t"/><g id="c"><use transform="matrix(0.0561728395061728,0,0,0.0561728395061728,0,0)" xlink:href="#p"/><use transform="matrix(0.0561728395061728,0,0,0.0561728395061728,11.23456790123456,0)" xlink:href="#t"/></g><path d="M141-36C126-15 110 5 73 4 37 3 15-17 15-53c-1-64 63-63 125-63 3-35-9-54-41-54-24 1-41 7-42 31l-33-3c5-37 33-52 76-52 45 0 72 20 72 64v82c-1 20 7 32 28 27v20c-31 9-61-2-59-35zM48-53c0 20 12 33 32 33 41-3 63-29 60-74-43 2-92-5-92 41" id="u"/><path d="M210-169c-67 3-38 105-44 169h-31v-121c0-29-5-50-35-48C34-165 62-65 56 0H25l-1-190h30c1 10-1 24 2 32 10-44 99-50 107 0 11-21 27-35 58-36 85-2 47 119 55 194h-31v-121c0-29-5-49-35-48" id="v"/><g id="d"><use transform="matrix(0.0561728395061728,0,0,0.0561728395061728,0,0)" xlink:href="#t"/><use transform="matrix(0.0561728395061728,0,0,0.0561728395061728,11.23456790123456,0)" xlink:href="#u"/><use transform="matrix(0.0561728395061728,0,0,0.0561728395061728,22.46913580246912,0)" xlink:href="#v"/><use transform="matrix(0.0561728395061728,0,0,0.0561728395061728,39.264814814814784,0)" xlink:href="#n"/></g><path d="M54-142c48-35 137-8 131 61C196 18 31 33 14-55l32-4c7 23 22 37 52 37 35-1 51-22 54-58 4-55-73-65-99-34H22l8-134h141v27H59" id="w"/><path d="M101-251c82-7 93 87 43 132L82-64C71-53 59-42 53-27h129V0H18c2-99 128-94 128-182 0-28-16-43-45-43s-46 15-49 41l-32-3c6-41 34-60 81-64" id="x"/><path d="M101-251c68 0 85 55 85 127S166 4 100 4C33 4 14-52 14-124c0-73 17-127 87-127zm-1 229c47 0 54-49 54-102s-4-102-53-102c-51 0-55 48-55 102 0 53 5 102 54 102" id="y"/><g id="f"><use transform="matrix(0.0561728395061728,0,0,0.0561728395061728,0,0)" xlink:href="#w"/><use transform="matrix(0.0561728395061728,0,0,0.0561728395061728,11.23456790123456,0)" xlink:href="#x"/><use transform="matrix(0.0561728395061728,0,0,0.0561728395061728,22.46913580246912,0)" xlink:href="#y"/><use transform="matrix(0.0561728395061728,0,0,0.0561728395061728,33.70370370370368,0)" xlink:href="#w"/><use transform="matrix(0.0561728395061728,0,0,0.0561728395061728,44.93827160493824,0)" xlink:href="#x"/><use transform="matrix(0.0561728395061728,0,0,0.0561728395061728,56.17283950617279,0)" xlink:href="#y"/><use transform="matrix(0.0561728395061728,0,0,0.0561728395061728,67.40740740740735,0)" xlink:href="#w"/></g><path d="M109-170H84l-4-78h32zm-65 0H19l-4-78h33" id="z"/><path d="M185-189c-5-48-123-54-124 2 14 75 158 14 163 119 3 78-121 87-175 55-17-10-28-26-33-46l33-7c5 56 141 63 141-1 0-78-155-14-162-118-5-82 145-84 179-34 5 7 8 16 11 25" id="A"/><path d="M24-231v-30h32v30H24zM24 0v-190h32V0H24" id="B"/><g id="g"><use transform="matrix(0.0561728395061728,0,0,0.0561728395061728,0,0)" xlink:href="#z"/><use transform="matrix(0.0561728395061728,0,0,0.0561728395061728,7.133950617283945,0)" xlink:href="#A"/><use transform="matrix(0.0561728395061728,0,0,0.0561728395061728,20.615432098765417,0)" xlink:href="#u"/><use transform="matrix(0.0561728395061728,0,0,0.0561728395061728,31.849999999999977,0)" xlink:href="#B"/><use transform="matrix(0.0561728395061728,0,0,0.0561728395061728,36.28765432098763,0)" xlink:href="#z"/></g><path d="M27 0v-27h64v-190l-56 39v-29l58-41h29v221h61V0H27" id="C"/><path d="M99-251c64 0 84 50 84 122C183-37 130 33 47-8c-14-7-20-23-25-40l30-5c6 39 69 39 84 7 9-19 16-44 16-74-10 22-31 35-62 35-49 0-73-33-73-83 0-54 28-83 82-83zm-1 141c31-1 51-18 51-49 0-36-14-67-51-67-34 0-49 23-49 58 0 34 15 58 49 58" id="D"/><path d="M134-131c28 9 52 24 51 62-1 50-34 73-85 73S17-19 16-69c0-36 21-54 49-61-75-25-45-126 34-121 46 3 78 18 79 63 0 33-17 51-44 57zm-34-11c31 1 46-15 46-44 0-28-17-43-47-42-29 0-46 13-45 42 1 28 16 44 46 44zm1 122c35 0 51-18 51-52 0-30-18-46-53-46-33 0-51 17-51 47 0 34 19 51 53 51" id="E"/><path d="M64 0c3-98 48-159 88-221H18v-27h164v26C143-157 98-101 97 0H64" id="F"/><g id="i"><use transform="matrix(0.0561728395061728,0,0,0.0561728395061728,0,0)" xlink:href="#w"/><use transform="matrix(0.0561728395061728,0,0,0.0561728395061728,11.23456790123456,0)" xlink:href="#C"/><use transform="matrix(0.0561728395061728,0,0,0.0561728395061728,22.46913580246912,0)" xlink:href="#D"/><use transform="matrix(0.0561728395061728,0,0,0.0561728395061728,33.70370370370368,0)" xlink:href="#C"/><use transform="matrix(0.0561728395061728,0,0,0.0561728395061728,44.93827160493824,0)" xlink:href="#E"/><use transform="matrix(0.0561728395061728,0,0,0.0561728395061728,56.17283950617279,0)" xlink:href="#C"/><use transform="matrix(0.0561728395061728,0,0,0.0561728395061728,67.40740740740735,0)" xlink:href="#F"/></g><path d="M205 0l-28-72H64L36 0H1l101-248h38L239 0h-34zm-38-99l-47-123c-12 45-31 82-46 123h93" id="G"/><path d="M108 0H70L1-190h34L89-25l56-165h34" id="H"/><g id="j"><use transform="matrix(0.0561728395061728,0,0,0.0561728395061728,0,0)" xlink:href="#z"/><use transform="matrix(0.0561728395061728,0,0,0.0561728395061728,7.133950617283945,0)" xlink:href="#G"/><use transform="matrix(0.0561728395061728,0,0,0.0561728395061728,20.222222222222207,0)" xlink:href="#H"/><use transform="matrix(0.0561728395061728,0,0,0.0561728395061728,30.33333333333331,0)" xlink:href="#u"/><use transform="matrix(0.0561728395061728,0,0,0.0561728395061728,41.56790123456787,0)" xlink:href="#z"/></g><g id="k"><use transform="matrix(0.0561728395061728,0,0,0.0561728395061728,0,0)" xlink:href="#w"/><use transform="matrix(0.0561728395061728,0,0,0.0561728395061728,11.23456790123456,0)" xlink:href="#C"/><use transform="matrix(0.0561728395061728,0,0,0.0561728395061728,22.46913580246912,0)" xlink:href="#w"/><use transform="matrix(0.0561728395061728,0,0,0.0561728395061728,33.70370370370368,0)" xlink:href="#C"/><use transform="matrix(0.0561728395061728,0,0,0.0561728395061728,44.93827160493824,0)" xlink:href="#w"/><use transform="matrix(0.0561728395061728,0,0,0.0561728395061728,56.17283950617279,0)" xlink:href="#C"/><use transform="matrix(0.0561728395061728,0,0,0.0561728395061728,67.40740740740735,0)" xlink:href="#w"/></g><path d="M127-220V0H93v-220H8v-28h204v28h-85" id="I"/><g id="l"><use transform="matrix(0.0561728395061728,0,0,0.0561728395061728,0,0)" xlink:href="#z"/><use transform="matrix(0.0561728395061728,0,0,0.0561728395061728,7.133950617283945,0)" xlink:href="#I"/><use transform="matrix(0.0561728395061728,0,0,0.0561728395061728,17.188888888888876,0)" xlink:href="#p"/><use transform="matrix(0.0561728395061728,0,0,0.0561728395061728,28.423456790123435,0)" xlink:href="#v"/><use transform="matrix(0.0561728395061728,0,0,0.0561728395061728,45.2191358024691,0)" xlink:href="#z"/></g></defs></g></svg>