<svg xmlns="http://www.w3.org/2000/svg" xmlns:xlink="http://www.w3.org/1999/xlink" xmlns:lucid="lucid" width="716" height="569"><g transform="translate(-51 0)" lucid:page-tab-id="0_0"><path d="M0 0h1760v1360H0z" fill="#fff"/><path d="M580 51.47c0 16.57-13.43 30-30 30s-30-13.43-30-30 13.43-30 30-30 30 13.43 30 30zM690 181.47c0 16.57-13.43 30-30 30s-30-13.43-30-30 13.43-30 30-30 30 13.43 30 30zM135 181.47c0 16.57-13.43 30-30 30s-30-13.43-30-30 13.43-30 30-30 30 13.43 30 30z" stroke="#000" stroke-width="2" fill="#fff"/><path d="M40 356.4h240V380H40z" stroke="#000" stroke-opacity="0" stroke-width="2" fill="#fff" fill-opacity="0"/><use xlink:href="#a" transform="matrix(1,0,0,1,45,361.39999999999975) translate(48.23858024691364 16.177777777777766)"/><use xlink:href="#b" transform="matrix(1,0,0,1,45,361.39999999999975) translate(127.89166666666667 16.177777777777766)"/><use xlink:href="#c" transform="matrix(1,0,0,1,45,361.39999999999975) translate(155.97808641975305 16.177777777777766)"/><path d="M280 463.47h140v61.46H280z" stroke="#000" stroke-width="2" fill="#fff"/><use xlink:href="#d" transform="matrix(1,0,0,1,285,468.4666666666666) translate(65 2.2222222222222356)"/><use xlink:href="#e" transform="matrix(1,0,0,1,285,468.4666666666666) translate(25.67901234567905 19.377777777777773)"/><use xlink:href="#f" transform="matrix(1,0,0,1,285,468.4666666666666) translate(43.289197530864215 43.644444444444424)"/><path d="M440 463.47h140v61.46H440z" stroke="#000" stroke-width="2" fill="#fff"/><use xlink:href="#d" transform="matrix(1,0,0,1,445,468.4666666666666) translate(65 2.2222222222222356)"/><use xlink:href="#g" transform="matrix(1,0,0,1,445,468.4666666666666) translate(25.67901234567905 19.377777777777773)"/><use xlink:href="#h" transform="matrix(1,0,0,1,445,468.4666666666666) translate(38.82345679012348 43.644444444444424)"/><path d="M600 463.47h140v61.46H600z" stroke="#000" stroke-width="2" fill="#fff"/><use xlink:href="#d" transform="matrix(1,0,0,1,605,468.4666666666666) translate(65 2.2222222222222356)"/><use xlink:href="#i" transform="matrix(1,0,0,1,605,468.4666666666666) translate(25.67901234567905 19.377777777777773)"/><use xlink:href="#j" transform="matrix(1,0,0,1,605,468.4666666666666) translate(40.64907407407409 43.644444444444424)"/><path d="M659.1 183.54l-2.76 5.18m-3.7 6.9l-5.53 10.36m-3.68 6.9l-5.53 10.36m-3.7 6.9l-5.54 10.35m-3.7 6.9l-5.52 10.35m-3.7 6.9L610.22 275m-3.68 6.9l-5.54 10.37m-3.7 6.9l-5.52 10.36m-3.7 6.9l-5.53 10.35m-3.7 6.9l-5.52 10.36m-3.68 6.9l-5.54 10.36m-3.7 6.9l-5.52 10.36m-3.7 6.9l-5.53 10.36m-3.7 6.9l-5.53 10.36m-3.7 6.9l-5.52 10.35m-3.7 6.9l-2.76 5.18M659.08 183.6l.97-1.82" stroke="#ccc" stroke-width="4" fill="none"/><path d="M513.05 456.76L515.7 442l8.16 4.36z" stroke="#ccc" stroke-width="4" fill="#ccc"/><path d="M470 181.47c0 16.57-13.43 30-30 30s-30-13.43-30-30 13.43-30 30-30 30 13.43 30 30z" stroke="#000" stroke-width="2" fill="#fff"/><path d="M529.37 75.84l-68.74 81.25" stroke="#000" stroke-width="2" fill="none"/><path d="M530.75 75.76l-.63.75-1.53-1.28.7-.82zM461.4 157.72l-.7.82-1.45-1.37.63-.74z"/><path d="M570.63 75.84l68.74 81.25" stroke="#000" stroke-width="2" fill="none"/><path d="M571.4 75.22l-1.52 1.3-.7-.83 1.6-1.23zM640.8 157.24l-1.58 1.22-.63-.74 1.52-1.3z"/><path d="M245 51.47c0 16.57-13.43 30-30 30s-30-13.43-30-30 13.43-30 30-30 30 13.43 30 30z" stroke="#000" stroke-width="2" fill="#fff"/><path d="M194.37 75.84l-68.74 81.25" stroke="#000" stroke-width="2" fill="none"/><path d="M195.75 75.76l-.63.75-1.53-1.28.7-.82zM126.4 157.72l-.7.82-1.45-1.37.63-.74z"/><path d="M200 311.47c0 16.57-13.43 30-30 30s-30-13.43-30-30 13.43-30 30-30 30 13.43 30 30z" stroke="#000" stroke-width="2" fill="#fff"/><path d="M119.27 210l36.46 72.92" stroke="#000" stroke-width="2" fill="none"/><path d="M120.18 209.58l-1.8.9-.44-.9 1.77-.93zM157.06 283.35l-1.77.94-.48-.95 1.8-.9z"/><path d="M215.14 52.6l1.92 5.8m2.55 7.78l3.84 11.65M226 85.6l3.83 11.64m2.56 7.76l3.82 11.65m2.55 7.77l3.84 11.65m2.56 7.76l3.83 11.65m2.55 7.77l3.83 11.65m2.56 7.76l3.83 11.65m2.56 7.78l3.83 11.64m2.55 7.77l3.85 11.64m2.55 7.76l3.83 11.65m2.56 7.77l3.82 11.65m2.56 7.76l3.83 11.65m2.56 7.77l3.84 11.64m2.55 7.76l3.83 11.65m2.56 7.77l3.83 11.65m2.56 7.77l3.83 11.64m2.55 7.76l3.85 11.65m2.55 7.77l3.83 11.64m2.56 7.77l3.82 11.65m2.56 7.76l1.9 5.83M215.16 52.64l-.65-1.95" stroke="#ccc" stroke-width="4" fill="none"/><path d="M347.98 456.32l-8.86-12.1 8.8-2.9z" stroke="#ccc" stroke-width="4" fill="#ccc"/><path d="M105.88 182.44l5.03 3.48m6.7 4.65l10.07 6.97m6.7 4.64l10.06 6.97m6.7 4.64l10.05 6.96m6.7 4.64l10.06 6.97m6.7 4.65l10.06 6.96m6.7 4.65l10.06 6.97m6.7 4.64l10.05 6.97m6.72 4.65l10.05 6.97m6.7 4.64l10.06 6.97m6.7 4.65l10.06 6.96m6.7 4.65l10.05 6.96m6.7 4.64l10.05 6.97m6.7 4.64l10.06 6.98m6.7 4.64l10.06 6.97m6.7 4.64l10.06 6.96m6.7 4.65l10.05 6.97m6.7 4.64l10.06 6.97m6.7 4.64l10.05 6.97m6.7 4.64l10.06 6.97m6.7 4.65l10.06 6.96m6.7 4.65l10.06 6.98m6.7 4.64l10.06 6.97m6.7 4.63l5.03 3.5M105.93 182.47l-1.7-1.17" stroke="#ccc" stroke-width="4" fill="none"/><path d="M504.68 458.78l-14.37-4.3 5.3-7.63z" stroke="#ccc" stroke-width="4" fill="#ccc"/><path d="M171.95 311.97l5.7 1.73m7.63 2.3l11.43 3.46m7.63 2.3l11.43 3.45m7.63 2.3l11.42 3.47m7.62 2.3l11.43 3.46m7.62 2.3l11.42 3.45m7.62 2.3l11.43 3.46m7.62 2.3L311 354m7.62 2.3l11.43 3.45m7.62 2.3l11.43 3.46m7.62 2.3l11.43 3.47m7.62 2.3l11.43 3.45m7.62 2.3l11.43 3.46m7.62 2.3l11.43 3.46m7.62 2.3l11.43 3.45m7.62 2.3l11.43 3.45m7.62 2.3l11.44 3.46m7.6 2.3l11.44 3.46m7.62 2.3l11.43 3.46m7.6 2.3l11.44 3.46m7.62 2.3l11.43 3.45m7.6 2.3l11.44 3.46m7.62 2.3l11.43 3.45m7.62 2.3l11.43 3.45m7.62 2.3l11.43 3.46m7.62 2.3l5.7 1.73M172 312l-1.97-.6" stroke="#ccc" stroke-width="4" fill="none"/><path d="M663.8 460.6l-15 .3 2.7-8.87z" stroke="#ccc" stroke-width="4" fill="#ccc"/><path d="M549.32 53.5l-2.58 5.3m-3.44 7.07l-5.17 10.6m-3.44 7.06l-5.17 10.6m-3.45 7.06l-5.16 10.58m-3.44 7.07l-5.17 10.6m-3.43 7.06l-5.17 10.6m-3.44 7.07l-5.16 10.6m-3.45 7.06l-5.16 10.6m-3.45 7.06l-5.17 10.58m-3.44 7.07l-5.17 10.6m-3.44 7.06l-5.16 10.6m-3.45 7.07l-5.16 10.6m-3.44 7.06l-5.17 10.6m-3.44 7.06l-5.15 10.58m-3.45 7.07l-5.16 10.6m-3.44 7.06l-5.17 10.6m-3.44 7.07l-5.18 10.6m-3.44 7.06l-5.16 10.6m-3.45 7.06l-5.16 10.58m-3.43 7.07l-5.17 10.6m-3.44 7.06L374.6 412m-3.45 7.07l-5.16 10.6m-3.46 7.06l-2.58 5.3M549.3 53.55l.9-1.84" stroke="#ccc" stroke-width="4" fill="none"/><path d="M352.84 456.65l2.08-14.86 8.33 4.06z" stroke="#ccc" stroke-width="4" fill="#ccc"/><path d="M441.22 183.2l3.78 4.62m5.05 6.16l7.56 9.23m5.06 6.17l7.56 9.24m5.05 6.16l7.56 9.24m5.05 6.15l7.56 9.24m5.05 6.15l7.55 9.23m5.05 6.16l7.56 9.24m5.05 6.15l7.57 9.24m5.05 6.16l7.56 9.23m5.05 6.16l7.56 9.23m5.04 6.16l7.56 9.25m5.05 6.15l7.56 9.24m5.06 6.16l7.56 9.23m5.05 6.16l7.56 9.22m5.05 6.16l7.56 9.24m5.05 6.15l7.55 9.24m5.05 6.17l7.56 9.23m5.05 6.16l3.8 4.62M441.25 183.24l-1.3-1.6" stroke="#ccc" stroke-width="4" fill="none"/><path d="M665.9 457.46l-12.63-8.1 7.17-5.87z" stroke="#ccc" stroke-width="4" fill="#ccc"/><path d="M390 524.93h240v28.4H390z" stroke="#000" stroke-opacity="0" stroke-width="2" fill="#fff" fill-opacity="0"/><g><use xlink:href="#k" transform="matrix(1,0,0,1,395,529.9333333333332) translate(42.05956790123463 16.177777777777766)"/><use xlink:href="#l" transform="matrix(1,0,0,1,395,529.9333333333332) translate(64.52870370370374 16.177777777777766)"/><use xlink:href="#m" transform="matrix(1,0,0,1,395,529.9333333333332) translate(115.08425925925926 16.177777777777766)"/></g><path d="M430 356.4h240V380H430z" stroke="#000" stroke-opacity="0" stroke-width="2" fill="#fff" fill-opacity="0"/><g><use xlink:href="#a" transform="matrix(1,0,0,1,435,361.39999999999975) translate(35.88055555555562 16.177777777777766)"/><use xlink:href="#b" transform="matrix(1,0,0,1,435,361.39999999999975) translate(115.53364197530864 16.177777777777766)"/><use xlink:href="#n" transform="matrix(1,0,0,1,435,361.39999999999975) translate(143.62006172839503 16.177777777777766)"/></g><defs><path d="M140-251c81 0 123 46 123 126C263-46 219 4 140 4 59 4 17-45 17-125s42-126 123-126zm0 227c63 0 89-41 89-101s-29-99-89-99c-61 0-89 39-89 99S79-25 140-24" id="o"/><path d="M114-163C36-179 61-72 57 0H25l-1-190h30c1 12-1 29 2 39 6-27 23-49 58-41v29" id="p"/><path d="M85-194c31 0 48 13 60 33l-1-100h32l1 261h-30c-2-10 0-23-3-31C134-8 116 4 85 4 32 4 16-35 15-94c0-66 23-100 70-100zm9 24c-40 0-46 34-46 75 0 40 6 74 45 74 42 0 51-32 51-76 0-42-9-74-50-73" id="q"/><path d="M100-194c63 0 86 42 84 106H49c0 40 14 67 53 68 26 1 43-12 49-29l28 8c-11 28-37 45-77 45C44 4 14-33 15-96c1-61 26-98 85-98zm52 81c6-60-76-77-97-28-3 7-6 17-6 28h103" id="r"/><g id="a"><use transform="matrix(0.0561728395061728,0,0,0.0561728395061728,0,0)" xlink:href="#o"/><use transform="matrix(0.0561728395061728,0,0,0.0561728395061728,15.728395061728385,0)" xlink:href="#p"/><use transform="matrix(0.0561728395061728,0,0,0.0561728395061728,22.412962962962947,0)" xlink:href="#q"/><use transform="matrix(0.0561728395061728,0,0,0.0561728395061728,33.647530864197506,0)" xlink:href="#r"/><use transform="matrix(0.0561728395061728,0,0,0.0561728395061728,44.88209876543206,0)" xlink:href="#p"/><use transform="matrix(0.0561728395061728,0,0,0.0561728395061728,51.56666666666663,0)" xlink:href="#r"/><use transform="matrix(0.0561728395061728,0,0,0.0561728395061728,62.80123456790119,0)" xlink:href="#q"/></g><path d="M100-194c62-1 85 37 85 99 1 63-27 99-86 99S16-35 15-95c0-66 28-99 85-99zM99-20c44 1 53-31 53-75 0-43-8-75-51-75s-53 32-53 75 10 74 51 75" id="s"/><path d="M117-194c89-4 53 116 60 194h-32v-121c0-31-8-49-39-48C34-167 62-67 57 0H25l-1-190h30c1 10-1 24 2 32 11-22 29-35 61-36" id="t"/><g id="b"><use transform="matrix(0.0561728395061728,0,0,0.0561728395061728,0,0)" xlink:href="#s"/><use transform="matrix(0.0561728395061728,0,0,0.0561728395061728,11.23456790123456,0)" xlink:href="#t"/></g><path d="M9 0v-24l116-142H16v-24h144v24L44-24h123V0H9" id="u"/><path d="M24-231v-30h32v30H24zM24 0v-190h32V0H24" id="v"/><g id="c"><use transform="matrix(0.0561728395061728,0,0,0.0561728395061728,0,0)" xlink:href="#u"/><use transform="matrix(0.0561728395061728,0,0,0.0561728395061728,10.111111111111104,0)" xlink:href="#v"/><use transform="matrix(0.0561728395061728,0,0,0.0561728395061728,14.548765432098755,0)" xlink:href="#q"/></g><path d="M54-142c48-35 137-8 131 61C196 18 31 33 14-55l32-4c7 23 22 37 52 37 35-1 51-22 54-58 4-55-73-65-99-34H22l8-134h141v27H59" id="w"/><path d="M101-251c82-7 93 87 43 132L82-64C71-53 59-42 53-27h129V0H18c2-99 128-94 128-182 0-28-16-43-45-43s-46 15-49 41l-32-3c6-41 34-60 81-64" id="x"/><path d="M101-251c68 0 85 55 85 127S166 4 100 4C33 4 14-52 14-124c0-73 17-127 87-127zm-1 229c47 0 54-49 54-102s-4-102-53-102c-51 0-55 48-55 102 0 53 5 102 54 102" id="y"/><g id="e"><use transform="matrix(0.0561728395061728,0,0,0.0561728395061728,0,0)" xlink:href="#w"/><use transform="matrix(0.0561728395061728,0,0,0.0561728395061728,11.23456790123456,0)" xlink:href="#x"/><use transform="matrix(0.0561728395061728,0,0,0.0561728395061728,22.46913580246912,0)" xlink:href="#y"/><use transform="matrix(0.0561728395061728,0,0,0.0561728395061728,33.70370370370368,0)" xlink:href="#w"/><use transform="matrix(0.0561728395061728,0,0,0.0561728395061728,44.93827160493824,0)" xlink:href="#x"/><use transform="matrix(0.0561728395061728,0,0,0.0561728395061728,56.17283950617279,0)" xlink:href="#y"/><use transform="matrix(0.0561728395061728,0,0,0.0561728395061728,67.40740740740735,0)" xlink:href="#w"/></g><path d="M109-170H84l-4-78h32zm-65 0H19l-4-78h33" id="z"/><path d="M185-189c-5-48-123-54-124 2 14 75 158 14 163 119 3 78-121 87-175 55-17-10-28-26-33-46l33-7c5 56 141 63 141-1 0-78-155-14-162-118-5-82 145-84 179-34 5 7 8 16 11 25" id="A"/><path d="M141-36C126-15 110 5 73 4 37 3 15-17 15-53c-1-64 63-63 125-63 3-35-9-54-41-54-24 1-41 7-42 31l-33-3c5-37 33-52 76-52 45 0 72 20 72 64v82c-1 20 7 32 28 27v20c-31 9-61-2-59-35zM48-53c0 20 12 33 32 33 41-3 63-29 60-74-43 2-92-5-92 41" id="B"/><g id="f"><use transform="matrix(0.0561728395061728,0,0,0.0561728395061728,0,0)" xlink:href="#z"/><use transform="matrix(0.0561728395061728,0,0,0.0561728395061728,7.133950617283945,0)" xlink:href="#A"/><use transform="matrix(0.0561728395061728,0,0,0.0561728395061728,20.615432098765417,0)" xlink:href="#B"/><use transform="matrix(0.0561728395061728,0,0,0.0561728395061728,31.849999999999977,0)" xlink:href="#v"/><use transform="matrix(0.0561728395061728,0,0,0.0561728395061728,36.28765432098763,0)" xlink:href="#z"/></g><path d="M27 0v-27h64v-190l-56 39v-29l58-41h29v221h61V0H27" id="C"/><g id="g"><use transform="matrix(0.0561728395061728,0,0,0.0561728395061728,0,0)" xlink:href="#w"/><use transform="matrix(0.0561728395061728,0,0,0.0561728395061728,11.23456790123456,0)" xlink:href="#C"/><use transform="matrix(0.0561728395061728,0,0,0.0561728395061728,22.46913580246912,0)" xlink:href="#w"/><use transform="matrix(0.0561728395061728,0,0,0.0561728395061728,33.70370370370368,0)" xlink:href="#C"/><use transform="matrix(0.0561728395061728,0,0,0.0561728395061728,44.93827160493824,0)" xlink:href="#w"/><use transform="matrix(0.0561728395061728,0,0,0.0561728395061728,56.17283950617279,0)" xlink:href="#C"/><use transform="matrix(0.0561728395061728,0,0,0.0561728395061728,67.40740740740735,0)" xlink:href="#w"/></g><path d="M127-220V0H93v-220H8v-28h204v28h-85" id="D"/><path d="M210-169c-67 3-38 105-44 169h-31v-121c0-29-5-50-35-48C34-165 62-65 56 0H25l-1-190h30c1 10-1 24 2 32 10-44 99-50 107 0 11-21 27-35 58-36 85-2 47 119 55 194h-31v-121c0-29-5-49-35-48" id="E"/><g id="h"><use transform="matrix(0.0561728395061728,0,0,0.0561728395061728,0,0)" xlink:href="#z"/><use transform="matrix(0.0561728395061728,0,0,0.0561728395061728,7.133950617283945,0)" xlink:href="#D"/><use transform="matrix(0.0561728395061728,0,0,0.0561728395061728,17.188888888888876,0)" xlink:href="#s"/><use transform="matrix(0.0561728395061728,0,0,0.0561728395061728,28.423456790123435,0)" xlink:href="#E"/><use transform="matrix(0.0561728395061728,0,0,0.0561728395061728,45.2191358024691,0)" xlink:href="#z"/></g><path d="M99-251c64 0 84 50 84 122C183-37 130 33 47-8c-14-7-20-23-25-40l30-5c6 39 69 39 84 7 9-19 16-44 16-74-10 22-31 35-62 35-49 0-73-33-73-83 0-54 28-83 82-83zm-1 141c31-1 51-18 51-49 0-36-14-67-51-67-34 0-49 23-49 58 0 34 15 58 49 58" id="F"/><path d="M134-131c28 9 52 24 51 62-1 50-34 73-85 73S17-19 16-69c0-36 21-54 49-61-75-25-45-126 34-121 46 3 78 18 79 63 0 33-17 51-44 57zm-34-11c31 1 46-15 46-44 0-28-17-43-47-42-29 0-46 13-45 42 1 28 16 44 46 44zm1 122c35 0 51-18 51-52 0-30-18-46-53-46-33 0-51 17-51 47 0 34 19 51 53 51" id="G"/><path d="M64 0c3-98 48-159 88-221H18v-27h164v26C143-157 98-101 97 0H64" id="H"/><g id="i"><use transform="matrix(0.0561728395061728,0,0,0.0561728395061728,0,0)" xlink:href="#w"/><use transform="matrix(0.0561728395061728,0,0,0.0561728395061728,11.23456790123456,0)" xlink:href="#C"/><use transform="matrix(0.0561728395061728,0,0,0.0561728395061728,22.46913580246912,0)" xlink:href="#F"/><use transform="matrix(0.0561728395061728,0,0,0.0561728395061728,33.70370370370368,0)" xlink:href="#C"/><use transform="matrix(0.0561728395061728,0,0,0.0561728395061728,44.93827160493824,0)" xlink:href="#G"/><use transform="matrix(0.0561728395061728,0,0,0.0561728395061728,56.17283950617279,0)" xlink:href="#C"/><use transform="matrix(0.0561728395061728,0,0,0.0561728395061728,67.40740740740735,0)" xlink:href="#H"/></g><path d="M205 0l-28-72H64L36 0H1l101-248h38L239 0h-34zm-38-99l-47-123c-12 45-31 82-46 123h93" id="I"/><path d="M108 0H70L1-190h34L89-25l56-165h34" id="J"/><g id="j"><use transform="matrix(0.0561728395061728,0,0,0.0561728395061728,0,0)" xlink:href="#z"/><use transform="matrix(0.0561728395061728,0,0,0.0561728395061728,7.133950617283945,0)" xlink:href="#I"/><use transform="matrix(0.0561728395061728,0,0,0.0561728395061728,20.222222222222207,0)" xlink:href="#J"/><use transform="matrix(0.0561728395061728,0,0,0.0561728395061728,30.33333333333331,0)" xlink:href="#B"/><use transform="matrix(0.0561728395061728,0,0,0.0561728395061728,41.56790123456787,0)" xlink:href="#z"/></g><path d="M33 0v-248h34V0H33" id="K"/><g id="k"><use transform="matrix(0.0561728395061728,0,0,0.0561728395061728,0,0)" xlink:href="#K"/><use transform="matrix(0.0561728395061728,0,0,0.0561728395061728,5.61728395061728,0)" xlink:href="#t"/></g><path d="M106-169C34-169 62-67 57 0H25v-261h32l-1 103c12-21 28-36 61-36 89 0 53 116 60 194h-32v-121c2-32-8-49-39-48" id="L"/><path d="M115-194c55 1 70 41 70 98S169 2 115 4C84 4 66-9 55-30l1 105H24l-1-265h31l2 30c10-21 28-34 59-34zm-8 174c40 0 45-34 45-75s-6-73-45-74c-42 0-51 32-51 76 0 43 10 73 51 73" id="M"/><g id="l"><use transform="matrix(0.0561728395061728,0,0,0.0561728395061728,0,0)" xlink:href="#L"/><use transform="matrix(0.0561728395061728,0,0,0.0561728395061728,11.23456790123456,0)" xlink:href="#r"/><use transform="matrix(0.0561728395061728,0,0,0.0561728395061728,22.46913580246912,0)" xlink:href="#B"/><use transform="matrix(0.0561728395061728,0,0,0.0561728395061728,33.70370370370368,0)" xlink:href="#M"/></g><path d="M179-190L93 31C79 59 56 82 12 73V49c39 6 53-20 64-50L1-190h34L92-34l54-156h33" id="N"/><g id="m"><use transform="matrix(0.0561728395061728,0,0,0.0561728395061728,0,0)" xlink:href="#E"/><use transform="matrix(0.0561728395061728,0,0,0.0561728395061728,16.795679012345666,0)" xlink:href="#r"/><use transform="matrix(0.0561728395061728,0,0,0.0561728395061728,28.030246913580225,0)" xlink:href="#E"/><use transform="matrix(0.0561728395061728,0,0,0.0561728395061728,44.82592592592589,0)" xlink:href="#s"/><use transform="matrix(0.0561728395061728,0,0,0.0561728395061728,56.06049382716044,0)" xlink:href="#p"/><use transform="matrix(0.0561728395061728,0,0,0.0561728395061728,62.74506172839501,0)" xlink:href="#N"/></g><g id="n"><use transform="matrix(0.0561728395061728,0,0,0.0561728395061728,0,0)" xlink:href="#t"/><use transform="matrix(0.0561728395061728,0,0,0.0561728395061728,11.23456790123456,0)" xlink:href="#B"/><use transform="matrix(0.0561728395061728,0,0,0.0561728395061728,22.46913580246912,0)" xlink:href="#E"/><use transform="matrix(0.0561728395061728,0,0,0.0561728395061728,39.264814814814784,0)" xlink:href="#r"/></g></defs></g></svg>