<svg xmlns="http://www.w3.org/2000/svg" xmlns:xlink="http://www.w3.org/1999/xlink" xmlns:lucid="lucid" width="780" height="396"><g transform="translate(0 0)" lucid:page-tab-id="0_0"><path d="M0 0h1760v1360H0z" fill="#fff"/><path d="M480 20h140v61.47H480z" stroke="#000" stroke-width="2" fill="#fff"/><use xlink:href="#a" transform="matrix(1,0,0,1,485,25) translate(65 2.2222222222222356)"/><use xlink:href="#b" transform="matrix(1,0,0,1,485,25) translate(25.67901234567905 19.377777777777773)"/><use xlink:href="#c" transform="matrix(1,0,0,1,485,25) translate(43.289197530864215 43.644444444444424)"/><path d="M340 152.13h140v61.47H340z" stroke="#000" stroke-width="2" fill="#fff"/><use xlink:href="#d" transform="matrix(1,0,0,1,345,157.13333333333327) translate(65 2.2222222222222356)"/><use xlink:href="#e" transform="matrix(1,0,0,1,345,157.13333333333327) translate(25.67901234567905 19.377777777777773)"/><use xlink:href="#f" transform="matrix(1,0,0,1,345,157.13333333333327) translate(40.64907407407409 43.644444444444424)"/><path d="M620 152.13h140v61.47H620z" stroke="#000" stroke-width="2" fill="#fff"/><use xlink:href="#a" transform="matrix(1,0,0,1,625,157.13333333333327) translate(65 2.2222222222222356)"/><use xlink:href="#g" transform="matrix(1,0,0,1,625,157.13333333333327) translate(25.67901234567905 19.377777777777773)"/><use xlink:href="#h" transform="matrix(1,0,0,1,625,157.13333333333327) translate(38.82345679012348 43.644444444444424)"/><path d="M511.17 83.03l-100.34 67.54" stroke="#000" stroke-width="2" fill="none"/><path d="M511.7 83.87l-.94-1.4h3.03zM411.24 151.13h-3.03l2.1-1.4z"/><path d="M590.82 83.03l98.36 67.54" stroke="#000" stroke-width="2" fill="none"/><path d="M590.28 83.87l-2.05-1.4h3zM691.77 151.13h-3l.95-1.4z"/><path d="M160 20h140v61.47H160z" stroke="#000" stroke-width="2" fill="#fff"/><use xlink:href="#d" transform="matrix(1,0,0,1,165,25) translate(65 2.2222222222222356)"/><use xlink:href="#i" transform="matrix(1,0,0,1,165,25) translate(25.67901234567905 19.377777777777773)"/><use xlink:href="#j" transform="matrix(1,0,0,1,165,25) translate(43.289197530864215 43.644444444444424)"/><path d="M20 152.13h140v61.47H20z" stroke="#000" stroke-width="2" fill="#fff"/><use xlink:href="#d" transform="matrix(1,0,0,1,25,157.13333333333327) translate(65 2.2222222222222356)"/><use xlink:href="#k" transform="matrix(1,0,0,1,25,157.13333333333327) translate(25.67901234567905 19.377777777777773)"/><use xlink:href="#l" transform="matrix(1,0,0,1,25,157.13333333333327) translate(38.82345679012348 43.644444444444424)"/><path d="M120 284.27h140v61.46H120z" stroke="#000" stroke-width="2" fill="#fff"/><use xlink:href="#d" transform="matrix(1,0,0,1,125,289.26666666666654) translate(65 2.2222222222222356)"/><use xlink:href="#e" transform="matrix(1,0,0,1,125,289.26666666666654) translate(25.67901234567905 19.377777777777773)"/><use xlink:href="#m" transform="matrix(1,0,0,1,125,289.26666666666654) translate(40.64907407407409 43.644444444444424)"/><path d="M188.93 83.03l-98.1 67.54" stroke="#000" stroke-width="2" fill="none"/><path d="M189.47 83.87l-.96-1.4h3.02zM91.25 151.13h-3l2.03-1.4z"/><path d="M128.9 215.34l60.43 67.18" stroke="#000" stroke-width="2" fill="none"/><path d="M129.67 214.7l-1.5 1.33-1.28-1.43h2.68zM191.34 283.27h-2.68l-.1-.1 1.5-1.33z"/><path d="M40 356.4h240V380H40z" stroke="#000" stroke-opacity="0" stroke-width="2" fill="#fff" fill-opacity="0"/><g><use xlink:href="#n" transform="matrix(1,0,0,1,45,361.39999999999975) translate(48.23858024691364 16.177777777777766)"/><use xlink:href="#o" transform="matrix(1,0,0,1,45,361.39999999999975) translate(127.89166666666667 16.177777777777766)"/><use xlink:href="#p" transform="matrix(1,0,0,1,45,361.39999999999975) translate(155.97808641975305 16.177777777777766)"/></g><path d="M430 356.4h240V380H430z" stroke="#000" stroke-opacity="0" stroke-width="2" fill="#fff" fill-opacity="0"/><g><use xlink:href="#n" transform="matrix(1,0,0,1,435,361.39999999999975) translate(35.88055555555562 16.177777777777766)"/><use xlink:href="#o" transform="matrix(1,0,0,1,435,361.39999999999975) translate(115.53364197530864 16.177777777777766)"/><use xlink:href="#q" transform="matrix(1,0,0,1,435,361.39999999999975) translate(143.62006172839503 16.177777777777766)"/></g><defs><path d="M54-142c48-35 137-8 131 61C196 18 31 33 14-55l32-4c7 23 22 37 52 37 35-1 51-22 54-58 4-55-73-65-99-34H22l8-134h141v27H59" id="r"/><path d="M101-251c82-7 93 87 43 132L82-64C71-53 59-42 53-27h129V0H18c2-99 128-94 128-182 0-28-16-43-45-43s-46 15-49 41l-32-3c6-41 34-60 81-64" id="s"/><path d="M101-251c68 0 85 55 85 127S166 4 100 4C33 4 14-52 14-124c0-73 17-127 87-127zm-1 229c47 0 54-49 54-102s-4-102-53-102c-51 0-55 48-55 102 0 53 5 102 54 102" id="t"/><g id="b"><use transform="matrix(0.0561728395061728,0,0,0.0561728395061728,0,0)" xlink:href="#r"/><use transform="matrix(0.0561728395061728,0,0,0.0561728395061728,11.23456790123456,0)" xlink:href="#s"/><use transform="matrix(0.0561728395061728,0,0,0.0561728395061728,22.46913580246912,0)" xlink:href="#t"/><use transform="matrix(0.0561728395061728,0,0,0.0561728395061728,33.70370370370368,0)" xlink:href="#r"/><use transform="matrix(0.0561728395061728,0,0,0.0561728395061728,44.93827160493824,0)" xlink:href="#s"/><use transform="matrix(0.0561728395061728,0,0,0.0561728395061728,56.17283950617279,0)" xlink:href="#t"/><use transform="matrix(0.0561728395061728,0,0,0.0561728395061728,67.40740740740735,0)" xlink:href="#r"/></g><path d="M109-170H84l-4-78h32zm-65 0H19l-4-78h33" id="u"/><path d="M185-189c-5-48-123-54-124 2 14 75 158 14 163 119 3 78-121 87-175 55-17-10-28-26-33-46l33-7c5 56 141 63 141-1 0-78-155-14-162-118-5-82 145-84 179-34 5 7 8 16 11 25" id="v"/><path d="M141-36C126-15 110 5 73 4 37 3 15-17 15-53c-1-64 63-63 125-63 3-35-9-54-41-54-24 1-41 7-42 31l-33-3c5-37 33-52 76-52 45 0 72 20 72 64v82c-1 20 7 32 28 27v20c-31 9-61-2-59-35zM48-53c0 20 12 33 32 33 41-3 63-29 60-74-43 2-92-5-92 41" id="w"/><path d="M24-231v-30h32v30H24zM24 0v-190h32V0H24" id="x"/><g id="c"><use transform="matrix(0.0561728395061728,0,0,0.0561728395061728,0,0)" xlink:href="#u"/><use transform="matrix(0.0561728395061728,0,0,0.0561728395061728,7.133950617283945,0)" xlink:href="#v"/><use transform="matrix(0.0561728395061728,0,0,0.0561728395061728,20.615432098765417,0)" xlink:href="#w"/><use transform="matrix(0.0561728395061728,0,0,0.0561728395061728,31.849999999999977,0)" xlink:href="#x"/><use transform="matrix(0.0561728395061728,0,0,0.0561728395061728,36.28765432098763,0)" xlink:href="#u"/></g><path d="M27 0v-27h64v-190l-56 39v-29l58-41h29v221h61V0H27" id="y"/><path d="M99-251c64 0 84 50 84 122C183-37 130 33 47-8c-14-7-20-23-25-40l30-5c6 39 69 39 84 7 9-19 16-44 16-74-10 22-31 35-62 35-49 0-73-33-73-83 0-54 28-83 82-83zm-1 141c31-1 51-18 51-49 0-36-14-67-51-67-34 0-49 23-49 58 0 34 15 58 49 58" id="z"/><path d="M134-131c28 9 52 24 51 62-1 50-34 73-85 73S17-19 16-69c0-36 21-54 49-61-75-25-45-126 34-121 46 3 78 18 79 63 0 33-17 51-44 57zm-34-11c31 1 46-15 46-44 0-28-17-43-47-42-29 0-46 13-45 42 1 28 16 44 46 44zm1 122c35 0 51-18 51-52 0-30-18-46-53-46-33 0-51 17-51 47 0 34 19 51 53 51" id="A"/><path d="M64 0c3-98 48-159 88-221H18v-27h164v26C143-157 98-101 97 0H64" id="B"/><g id="e"><use transform="matrix(0.0561728395061728,0,0,0.0561728395061728,0,0)" xlink:href="#r"/><use transform="matrix(0.0561728395061728,0,0,0.0561728395061728,11.23456790123456,0)" xlink:href="#y"/><use transform="matrix(0.0561728395061728,0,0,0.0561728395061728,22.46913580246912,0)" xlink:href="#z"/><use transform="matrix(0.0561728395061728,0,0,0.0561728395061728,33.70370370370368,0)" xlink:href="#y"/><use transform="matrix(0.0561728395061728,0,0,0.0561728395061728,44.93827160493824,0)" xlink:href="#A"/><use transform="matrix(0.0561728395061728,0,0,0.0561728395061728,56.17283950617279,0)" xlink:href="#y"/><use transform="matrix(0.0561728395061728,0,0,0.0561728395061728,67.40740740740735,0)" xlink:href="#B"/></g><path d="M205 0l-28-72H64L36 0H1l101-248h38L239 0h-34zm-38-99l-47-123c-12 45-31 82-46 123h93" id="C"/><path d="M108 0H70L1-190h34L89-25l56-165h34" id="D"/><g id="f"><use transform="matrix(0.0561728395061728,0,0,0.0561728395061728,0,0)" xlink:href="#u"/><use transform="matrix(0.0561728395061728,0,0,0.0561728395061728,7.133950617283945,0)" xlink:href="#C"/><use transform="matrix(0.0561728395061728,0,0,0.0561728395061728,20.222222222222207,0)" xlink:href="#D"/><use transform="matrix(0.0561728395061728,0,0,0.0561728395061728,30.33333333333331,0)" xlink:href="#w"/><use transform="matrix(0.0561728395061728,0,0,0.0561728395061728,41.56790123456787,0)" xlink:href="#u"/></g><g id="g"><use transform="matrix(0.0561728395061728,0,0,0.0561728395061728,0,0)" xlink:href="#r"/><use transform="matrix(0.0561728395061728,0,0,0.0561728395061728,11.23456790123456,0)" xlink:href="#y"/><use transform="matrix(0.0561728395061728,0,0,0.0561728395061728,22.46913580246912,0)" xlink:href="#r"/><use transform="matrix(0.0561728395061728,0,0,0.0561728395061728,33.70370370370368,0)" xlink:href="#y"/><use transform="matrix(0.0561728395061728,0,0,0.0561728395061728,44.93827160493824,0)" xlink:href="#r"/><use transform="matrix(0.0561728395061728,0,0,0.0561728395061728,56.17283950617279,0)" xlink:href="#y"/><use transform="matrix(0.0561728395061728,0,0,0.0561728395061728,67.40740740740735,0)" xlink:href="#r"/></g><path d="M127-220V0H93v-220H8v-28h204v28h-85" id="E"/><path d="M100-194c62-1 85 37 85 99 1 63-27 99-86 99S16-35 15-95c0-66 28-99 85-99zM99-20c44 1 53-31 53-75 0-43-8-75-51-75s-53 32-53 75 10 74 51 75" id="F"/><path d="M210-169c-67 3-38 105-44 169h-31v-121c0-29-5-50-35-48C34-165 62-65 56 0H25l-1-190h30c1 10-1 24 2 32 10-44 99-50 107 0 11-21 27-35 58-36 85-2 47 119 55 194h-31v-121c0-29-5-49-35-48" id="G"/><g id="h"><use transform="matrix(0.0561728395061728,0,0,0.0561728395061728,0,0)" xlink:href="#u"/><use transform="matrix(0.0561728395061728,0,0,0.0561728395061728,7.133950617283945,0)" xlink:href="#E"/><use transform="matrix(0.0561728395061728,0,0,0.0561728395061728,17.188888888888876,0)" xlink:href="#F"/><use transform="matrix(0.0561728395061728,0,0,0.0561728395061728,28.423456790123435,0)" xlink:href="#G"/><use transform="matrix(0.0561728395061728,0,0,0.0561728395061728,45.2191358024691,0)" xlink:href="#u"/></g><g id="i"><use transform="matrix(0.0561728395061728,0,0,0.0561728395061728,0,0)" xlink:href="#r"/><use transform="matrix(0.0561728395061728,0,0,0.0561728395061728,11.23456790123456,0)" xlink:href="#s"/><use transform="matrix(0.0561728395061728,0,0,0.0561728395061728,22.46913580246912,0)" xlink:href="#t"/><use transform="matrix(0.0561728395061728,0,0,0.0561728395061728,33.70370370370368,0)" xlink:href="#r"/><use transform="matrix(0.0561728395061728,0,0,0.0561728395061728,44.93827160493824,0)" xlink:href="#s"/><use transform="matrix(0.0561728395061728,0,0,0.0561728395061728,56.17283950617279,0)" xlink:href="#t"/><use transform="matrix(0.0561728395061728,0,0,0.0561728395061728,67.40740740740735,0)" xlink:href="#r"/></g><g id="j"><use transform="matrix(0.0561728395061728,0,0,0.0561728395061728,0,0)" xlink:href="#u"/><use transform="matrix(0.0561728395061728,0,0,0.0561728395061728,7.133950617283945,0)" xlink:href="#v"/><use transform="matrix(0.0561728395061728,0,0,0.0561728395061728,20.615432098765417,0)" xlink:href="#w"/><use transform="matrix(0.0561728395061728,0,0,0.0561728395061728,31.849999999999977,0)" xlink:href="#x"/><use transform="matrix(0.0561728395061728,0,0,0.0561728395061728,36.28765432098763,0)" xlink:href="#u"/></g><g id="k"><use transform="matrix(0.0561728395061728,0,0,0.0561728395061728,0,0)" xlink:href="#r"/><use transform="matrix(0.0561728395061728,0,0,0.0561728395061728,11.23456790123456,0)" xlink:href="#y"/><use transform="matrix(0.0561728395061728,0,0,0.0561728395061728,22.46913580246912,0)" xlink:href="#r"/><use transform="matrix(0.0561728395061728,0,0,0.0561728395061728,33.70370370370368,0)" xlink:href="#y"/><use transform="matrix(0.0561728395061728,0,0,0.0561728395061728,44.93827160493824,0)" xlink:href="#r"/><use transform="matrix(0.0561728395061728,0,0,0.0561728395061728,56.17283950617279,0)" xlink:href="#y"/><use transform="matrix(0.0561728395061728,0,0,0.0561728395061728,67.40740740740735,0)" xlink:href="#r"/></g><g id="l"><use transform="matrix(0.0561728395061728,0,0,0.0561728395061728,0,0)" xlink:href="#u"/><use transform="matrix(0.0561728395061728,0,0,0.0561728395061728,7.133950617283945,0)" xlink:href="#E"/><use transform="matrix(0.0561728395061728,0,0,0.0561728395061728,17.188888888888876,0)" xlink:href="#F"/><use transform="matrix(0.0561728395061728,0,0,0.0561728395061728,28.423456790123435,0)" xlink:href="#G"/><use transform="matrix(0.0561728395061728,0,0,0.0561728395061728,45.2191358024691,0)" xlink:href="#u"/></g><g id="m"><use transform="matrix(0.0561728395061728,0,0,0.0561728395061728,0,0)" xlink:href="#u"/><use transform="matrix(0.0561728395061728,0,0,0.0561728395061728,7.133950617283945,0)" xlink:href="#C"/><use transform="matrix(0.0561728395061728,0,0,0.0561728395061728,20.222222222222207,0)" xlink:href="#D"/><use transform="matrix(0.0561728395061728,0,0,0.0561728395061728,30.33333333333331,0)" xlink:href="#w"/><use transform="matrix(0.0561728395061728,0,0,0.0561728395061728,41.56790123456787,0)" xlink:href="#u"/></g><path d="M140-251c81 0 123 46 123 126C263-46 219 4 140 4 59 4 17-45 17-125s42-126 123-126zm0 227c63 0 89-41 89-101s-29-99-89-99c-61 0-89 39-89 99S79-25 140-24" id="H"/><path d="M114-163C36-179 61-72 57 0H25l-1-190h30c1 12-1 29 2 39 6-27 23-49 58-41v29" id="I"/><path d="M85-194c31 0 48 13 60 33l-1-100h32l1 261h-30c-2-10 0-23-3-31C134-8 116 4 85 4 32 4 16-35 15-94c0-66 23-100 70-100zm9 24c-40 0-46 34-46 75 0 40 6 74 45 74 42 0 51-32 51-76 0-42-9-74-50-73" id="J"/><path d="M100-194c63 0 86 42 84 106H49c0 40 14 67 53 68 26 1 43-12 49-29l28 8c-11 28-37 45-77 45C44 4 14-33 15-96c1-61 26-98 85-98zm52 81c6-60-76-77-97-28-3 7-6 17-6 28h103" id="K"/><g id="n"><use transform="matrix(0.0561728395061728,0,0,0.0561728395061728,0,0)" xlink:href="#H"/><use transform="matrix(0.0561728395061728,0,0,0.0561728395061728,15.728395061728385,0)" xlink:href="#I"/><use transform="matrix(0.0561728395061728,0,0,0.0561728395061728,22.412962962962947,0)" xlink:href="#J"/><use transform="matrix(0.0561728395061728,0,0,0.0561728395061728,33.647530864197506,0)" xlink:href="#K"/><use transform="matrix(0.0561728395061728,0,0,0.0561728395061728,44.88209876543206,0)" xlink:href="#I"/><use transform="matrix(0.0561728395061728,0,0,0.0561728395061728,51.56666666666663,0)" xlink:href="#K"/><use transform="matrix(0.0561728395061728,0,0,0.0561728395061728,62.80123456790119,0)" xlink:href="#J"/></g><path d="M117-194c89-4 53 116 60 194h-32v-121c0-31-8-49-39-48C34-167 62-67 57 0H25l-1-190h30c1 10-1 24 2 32 11-22 29-35 61-36" id="L"/><g id="o"><use transform="matrix(0.0561728395061728,0,0,0.0561728395061728,0,0)" xlink:href="#F"/><use transform="matrix(0.0561728395061728,0,0,0.0561728395061728,11.23456790123456,0)" xlink:href="#L"/></g><path d="M9 0v-24l116-142H16v-24h144v24L44-24h123V0H9" id="M"/><g id="p"><use transform="matrix(0.0561728395061728,0,0,0.0561728395061728,0,0)" xlink:href="#M"/><use transform="matrix(0.0561728395061728,0,0,0.0561728395061728,10.111111111111104,0)" xlink:href="#x"/><use transform="matrix(0.0561728395061728,0,0,0.0561728395061728,14.548765432098755,0)" xlink:href="#J"/></g><g id="q"><use transform="matrix(0.0561728395061728,0,0,0.0561728395061728,0,0)" xlink:href="#L"/><use transform="matrix(0.0561728395061728,0,0,0.0561728395061728,11.23456790123456,0)" xlink:href="#w"/><use transform="matrix(0.0561728395061728,0,0,0.0561728395061728,22.46913580246912,0)" xlink:href="#G"/><use transform="matrix(0.0561728395061728,0,0,0.0561728395061728,39.264814814814784,0)" xlink:href="#K"/></g></defs></g></svg>