<svg xmlns="http://www.w3.org/2000/svg" xmlns:xlink="http://www.w3.org/1999/xlink" xmlns:lucid="lucid" width="180" height="101.47"><g transform="translate(-20 -20)" lucid:page-tab-id="0_0"><path d="M0 0h1760v1360H0z" fill="#fff"/><path d="M40 40h140v61.47H40z" stroke="#000" stroke-width="2" fill="#fff"/><use xlink:href="#a" transform="matrix(1,0,0,1,45,45) translate(65 2.2222222222222356)"/><use xlink:href="#b" transform="matrix(1,0,0,1,45,45) translate(25.67901234567905 19.377777777777773)"/><use xlink:href="#c" transform="matrix(1,0,0,1,45,45) translate(38.82345679012348 43.644444444444424)"/><defs><path d="M54-142c48-35 137-8 131 61C196 18 31 33 14-55l32-4c7 23 22 37 52 37 35-1 51-22 54-58 4-55-73-65-99-34H22l8-134h141v27H59" id="d"/><path d="M126-127c33 6 58 20 58 59 0 88-139 92-164 29-3-8-5-16-6-25l32-3c6 27 21 44 54 44 32 0 52-15 52-46 0-38-36-46-79-43v-28c39 1 72-4 72-42 0-27-17-43-46-43-28 0-47 15-49 41l-32-3c6-42 35-63 81-64 48-1 79 21 79 65 0 36-21 52-52 59" id="e"/><path d="M155-56V0h-30v-56H8v-25l114-167h33v167h35v25h-35zm-30-156c-27 46-58 90-88 131h88v-131" id="f"/><g id="b"><use transform="matrix(0.0561728395061728,0,0,0.0561728395061728,0,0)" xlink:href="#d"/><use transform="matrix(0.0561728395061728,0,0,0.0561728395061728,11.23456790123456,0)" xlink:href="#e"/><use transform="matrix(0.0561728395061728,0,0,0.0561728395061728,22.46913580246912,0)" xlink:href="#f"/><use transform="matrix(0.0561728395061728,0,0,0.0561728395061728,33.70370370370368,0)" xlink:href="#d"/><use transform="matrix(0.0561728395061728,0,0,0.0561728395061728,44.93827160493824,0)" xlink:href="#e"/><use transform="matrix(0.0561728395061728,0,0,0.0561728395061728,56.17283950617279,0)" xlink:href="#f"/><use transform="matrix(0.0561728395061728,0,0,0.0561728395061728,67.40740740740735,0)" xlink:href="#d"/></g><path d="M109-170H84l-4-78h32zm-65 0H19l-4-78h33" id="g"/><path d="M127-220V0H93v-220H8v-28h204v28h-85" id="h"/><path d="M100-194c62-1 85 37 85 99 1 63-27 99-86 99S16-35 15-95c0-66 28-99 85-99zM99-20c44 1 53-31 53-75 0-43-8-75-51-75s-53 32-53 75 10 74 51 75" id="i"/><path d="M210-169c-67 3-38 105-44 169h-31v-121c0-29-5-50-35-48C34-165 62-65 56 0H25l-1-190h30c1 10-1 24 2 32 10-44 99-50 107 0 11-21 27-35 58-36 85-2 47 119 55 194h-31v-121c0-29-5-49-35-48" id="j"/><g id="c"><use transform="matrix(0.0561728395061728,0,0,0.0561728395061728,0,0)" xlink:href="#g"/><use transform="matrix(0.0561728395061728,0,0,0.0561728395061728,7.133950617283945,0)" xlink:href="#h"/><use transform="matrix(0.0561728395061728,0,0,0.0561728395061728,17.188888888888876,0)" xlink:href="#i"/><use transform="matrix(0.0561728395061728,0,0,0.0561728395061728,28.423456790123435,0)" xlink:href="#j"/><use transform="matrix(0.0561728395061728,0,0,0.0561728395061728,45.2191358024691,0)" xlink:href="#g"/></g></defs></g></svg>