<svg xmlns="http://www.w3.org/2000/svg" xmlns:xlink="http://www.w3.org/1999/xlink" xmlns:lucid="lucid" width="520.82" height="300"><g transform="translate(20 20)" lucid:page-tab-id="0_0"><path d="M0 0h1760v1360H0z" fill="#fff"/><path d="M120 0h240v60H120z" stroke="#000" stroke-opacity="0" stroke-width="2" fill="#fff" fill-opacity="0"/><use xlink:href="#a" transform="matrix(1,0,0,1,125,5) translate(77.8351851851852 31.266666666666666)"/><path d="M20 100h240v60H20z" stroke="#000" stroke-opacity="0" stroke-width="2" fill-opacity="0"/><use xlink:href="#b" transform="matrix(1,0,0,1,25,105) translate(83.05740740740742 31.266666666666666)"/><path d="M220 100h240v60H220z" stroke="#000" stroke-opacity="0" stroke-width="2" fill="#fff" fill-opacity="0"/><use xlink:href="#c" transform="matrix(1,0,0,1,225,105) translate(83.05740740740742 31.266666666666666)"/><path d="M140 200h240v60H140z" stroke="#000" stroke-opacity="0" stroke-width="2" fill="#fff" fill-opacity="0"/><use xlink:href="#d" transform="matrix(1,0,0,1,145,205) translate(79.61944444444445 31.266666666666666)"/><path d="M380 200h100v60H380z" stroke="#000" stroke-opacity="0" stroke-width="2" fill="#fff" fill-opacity="0"/><use xlink:href="#e" transform="matrix(1,0,0,1,385,205) translate(-5.176851851851836 31.266666666666666)"/><path d="M0 200h100v60H0z" stroke="#000" stroke-opacity="0" stroke-width="2" fill="#fff" fill-opacity="0"/><use xlink:href="#f" transform="matrix(1,0,0,1,5,205) translate(12.18703703703705 31.266666666666666)"/><path d="M154.7 99.3l49.6-49.6" stroke="#000" stroke-width="2" fill="none"/><path d="M155.43 99.98l-.02.02h-2.8l1.42-1.43z"/><path d="M204.27 49.73L205 49M272.7 49.7l49.6 49.6M272.73 49.73L272 49" stroke="#000" stroke-width="2" fill="none"/><path d="M324.4 100h-2.8l-.03-.02 1.4-1.4z"/><path d="M108.3 148.7l-50.6 50.6M108.27 148.73l.73-.73" stroke="#000" stroke-width="2" fill="none"/><path d="M58.43 199.98l-.02.02h-2.8l1.42-1.43z"/><path d="M311.35 148.76l-43.7 50.48M311.33 148.78l.67-.78" stroke="#000" stroke-width="2" fill="none"/><path d="M268.43 199.88l-.1.12h-2.65l1.23-1.43z"/><path d="M362.7 149.7l49.6 49.6M362.73 149.73L362 149" stroke="#000" stroke-width="2" fill="none"/><path d="M414.4 200h-2.8l-.03-.02 1.4-1.4z"/><defs><path d="M109-170H84l-4-78h32zm-65 0H19l-4-78h33" id="g"/><path d="M85-194c31 0 48 13 60 33l-1-100h32l1 261h-30c-2-10 0-23-3-31C134-8 116 4 85 4 32 4 16-35 15-94c0-66 23-100 70-100zm9 24c-40 0-46 34-46 75 0 40 6 74 45 74 42 0 51-32 51-76 0-42-9-74-50-73" id="h"/><path d="M100-194c62-1 85 37 85 99 1 63-27 99-86 99S16-35 15-95c0-66 28-99 85-99zM99-20c44 1 53-31 53-75 0-43-8-75-51-75s-53 32-53 75 10 74 51 75" id="i"/><path d="M177-190C167-65 218 103 67 71c-23-6-38-20-44-43l32-5c15 47 100 32 89-28v-30C133-14 115 1 83 1 29 1 15-40 15-95c0-56 16-97 71-98 29-1 48 16 59 35 1-10 0-23 2-32h30zM94-22c36 0 50-32 50-73 0-42-14-75-50-75-39 0-46 34-46 75s6 73 46 73" id="j"/><g id="a"><use transform="matrix(0.08703703703703701,0,0,0.08703703703703701,0,0)" xlink:href="#g"/><use transform="matrix(0.08703703703703701,0,0,0.08703703703703701,11.0537037037037,0)" xlink:href="#h"/><use transform="matrix(0.08703703703703701,0,0,0.08703703703703701,28.4611111111111,0)" xlink:href="#i"/><use transform="matrix(0.08703703703703701,0,0,0.08703703703703701,45.86851851851849,0)" xlink:href="#j"/><use transform="matrix(0.08703703703703701,0,0,0.08703703703703701,63.275925925925904,0)" xlink:href="#g"/></g><path d="M96-169c-40 0-48 33-48 73s9 75 48 75c24 0 41-14 43-38l32 2c-6 37-31 61-74 61-59 0-76-41-82-99-10-93 101-131 147-64 4 7 5 14 7 22l-32 3c-4-21-16-35-41-35" id="k"/><path d="M141-36C126-15 110 5 73 4 37 3 15-17 15-53c-1-64 63-63 125-63 3-35-9-54-41-54-24 1-41 7-42 31l-33-3c5-37 33-52 76-52 45 0 72 20 72 64v82c-1 20 7 32 28 27v20c-31 9-61-2-59-35zM48-53c0 20 12 33 32 33 41-3 63-29 60-74-43 2-92-5-92 41" id="l"/><path d="M59-47c-2 24 18 29 38 22v24C64 9 27 4 27-40v-127H5v-23h24l9-43h21v43h35v23H59v120" id="m"/><g id="b"><use transform="matrix(0.08703703703703701,0,0,0.08703703703703701,0,0)" xlink:href="#g"/><use transform="matrix(0.08703703703703701,0,0,0.08703703703703701,11.0537037037037,0)" xlink:href="#k"/><use transform="matrix(0.08703703703703701,0,0,0.08703703703703701,26.72037037037036,0)" xlink:href="#l"/><use transform="matrix(0.08703703703703701,0,0,0.08703703703703701,44.127777777777766,0)" xlink:href="#m"/><use transform="matrix(0.08703703703703701,0,0,0.08703703703703701,52.83148148148147,0)" xlink:href="#g"/></g><path d="M101-234c-31-9-42 10-38 44h38v23H63V0H32v-167H5v-23h27c-7-52 17-82 69-68v24" id="n"/><path d="M141 0L90-78 38 0H4l68-98-65-92h35l48 74 47-74h35l-64 92 68 98h-35" id="o"/><g id="c"><use transform="matrix(0.08703703703703701,0,0,0.08703703703703701,0,0)" xlink:href="#g"/><use transform="matrix(0.08703703703703701,0,0,0.08703703703703701,11.0537037037037,0)" xlink:href="#n"/><use transform="matrix(0.08703703703703701,0,0,0.08703703703703701,19.7574074074074,0)" xlink:href="#i"/><use transform="matrix(0.08703703703703701,0,0,0.08703703703703701,37.164814814814804,0)" xlink:href="#o"/><use transform="matrix(0.08703703703703701,0,0,0.08703703703703701,52.83148148148147,0)" xlink:href="#g"/></g><path d="M24-231v-30h32v30H24zM24 0v-190h32V0H24" id="p"/><path d="M135-143c-3-34-86-38-87 0 15 53 115 12 119 90S17 21 10-45l28-5c4 36 97 45 98 0-10-56-113-15-118-90-4-57 82-63 122-42 12 7 21 19 24 35" id="q"/><path d="M106-169C34-169 62-67 57 0H25v-261h32l-1 103c12-21 28-36 61-36 89 0 53 116 60 194h-32v-121c2-32-8-49-39-48" id="r"/><g id="d"><use transform="matrix(0.08703703703703701,0,0,0.08703703703703701,0,0)" xlink:href="#g"/><use transform="matrix(0.08703703703703701,0,0,0.08703703703703701,11.0537037037037,0)" xlink:href="#n"/><use transform="matrix(0.08703703703703701,0,0,0.08703703703703701,19.7574074074074,0)" xlink:href="#p"/><use transform="matrix(0.08703703703703701,0,0,0.08703703703703701,26.63333333333332,0)" xlink:href="#q"/><use transform="matrix(0.08703703703703701,0,0,0.08703703703703701,42.29999999999998,0)" xlink:href="#r"/><use transform="matrix(0.08703703703703701,0,0,0.08703703703703701,59.70740740740739,0)" xlink:href="#g"/></g><path d="M114-163C36-179 61-72 57 0H25l-1-190h30c1 12-1 29 2 39 6-27 23-49 58-41v29" id="s"/><path d="M100-194c63 0 86 42 84 106H49c0 40 14 67 53 68 26 1 43-12 49-29l28 8c-11 28-37 45-77 45C44 4 14-33 15-96c1-61 26-98 85-98zm52 81c6-60-76-77-97-28-3 7-6 17-6 28h103" id="t"/><g id="e"><use transform="matrix(0.08703703703703701,0,0,0.08703703703703701,0,0)" xlink:href="#g"/><use transform="matrix(0.08703703703703701,0,0,0.08703703703703701,11.0537037037037,0)" xlink:href="#r"/><use transform="matrix(0.08703703703703701,0,0,0.08703703703703701,28.4611111111111,0)" xlink:href="#i"/><use transform="matrix(0.08703703703703701,0,0,0.08703703703703701,45.86851851851849,0)" xlink:href="#s"/><use transform="matrix(0.08703703703703701,0,0,0.08703703703703701,56.22592592592591,0)" xlink:href="#q"/><use transform="matrix(0.08703703703703701,0,0,0.08703703703703701,71.89259259259256,0)" xlink:href="#t"/><use transform="matrix(0.08703703703703701,0,0,0.08703703703703701,89.29999999999997,0)" xlink:href="#g"/></g><path d="M115-194c53 0 69 39 70 98 0 66-23 100-70 100C84 3 66-7 56-30L54 0H23l1-261h32v101c10-23 28-34 59-34zm-8 174c40 0 45-34 45-75 0-40-5-75-45-74-42 0-51 32-51 76 0 43 10 73 51 73" id="u"/><g id="f"><use transform="matrix(0.08703703703703701,0,0,0.08703703703703701,0,0)" xlink:href="#g"/><use transform="matrix(0.08703703703703701,0,0,0.08703703703703701,11.0537037037037,0)" xlink:href="#u"/><use transform="matrix(0.08703703703703701,0,0,0.08703703703703701,28.4611111111111,0)" xlink:href="#l"/><use transform="matrix(0.08703703703703701,0,0,0.08703703703703701,45.86851851851849,0)" xlink:href="#m"/><use transform="matrix(0.08703703703703701,0,0,0.08703703703703701,54.57222222222221,0)" xlink:href="#g"/></g></defs></g></svg>