<svg xmlns="http://www.w3.org/2000/svg" xmlns:xlink="http://www.w3.org/1999/xlink" xmlns:lucid="lucid" width="382" height="102"><g transform="translate(1 1)" lucid:page-tab-id="0_0"><path d="M0 0h1760v1360H0z" fill="#fff"/><path d="M300 20h60v60h-60z" fill="#fff"/><path d="M311.25 20h7.5m7.5 0h7.5m7.5 0h7.5m7.5 0H360v3.75m0 7.5v7.5m0 7.5v7.5m0 7.5v7.5m0 7.5V80h-3.75m-7.5 0h-7.5m-7.5 0h-7.5m-7.5 0h-7.5m-7.5 0H300v-3.75m0-7.5v-7.5m0-7.5v-7.5m0-7.5v-7.5m0-7.5V20h3.75" stroke="#000" stroke-width="2" fill="none"/><use xlink:href="#a" transform="matrix(1,0,0,1,305,25) translate(16.2962962962963 34.766666666666666)"/><path d="M60 20h60v60H60z" stroke="#000" stroke-width="2" fill="#fff"/><use xlink:href="#b" transform="matrix(1,0,0,1,64.99999999999999,25) translate(16.2962962962963 34.766666666666666)"/><path d="M120 20h60v60h-60z" stroke="#000" stroke-width="2" fill="#fff"/><use xlink:href="#c" transform="matrix(1,0,0,1,125,25) translate(16.2962962962963 34.766666666666666)"/><path d="M180 20h60v60h-60z" stroke="#000" stroke-width="2" fill="#fff"/><use xlink:href="#d" transform="matrix(1,0,0,1,185,25) translate(16.2962962962963 34.766666666666666)"/><path d="M240 20h60v60h-60z" stroke="#000" stroke-width="2" fill="#fff"/><use xlink:href="#e" transform="matrix(1,0,0,1,245,25) translate(16.2962962962963 34.766666666666666)"/><path d="M20 20h40v60H20z" stroke="#000" stroke-opacity="0" stroke-width="2" fill="#fff" fill-opacity="0"/><use xlink:href="#f" transform="matrix(1,0,0,1,25,25) translate(-0.005555555555545766 30.93333333333333)"/><defs><path d="M134-131c28 9 52 24 51 62-1 50-34 73-85 73S17-19 16-69c0-36 21-54 49-61-75-25-45-126 34-121 46 3 78 18 79 63 0 33-17 51-44 57zm-34-11c31 1 46-15 46-44 0-28-17-43-47-42-29 0-46 13-45 42 1 28 16 44 46 44zm1 122c35 0 51-18 51-52 0-30-18-46-53-46-33 0-51 17-51 47 0 34 19 51 53 51" id="g"/><use transform="matrix(0.087037037037037,0,0,0.087037037037037,0,0)" xlink:href="#g" id="a"/><path d="M101-251c82-7 93 87 43 132L82-64C71-53 59-42 53-27h129V0H18c2-99 128-94 128-182 0-28-16-43-45-43s-46 15-49 41l-32-3c6-41 34-60 81-64" id="h"/><use transform="matrix(0.087037037037037,0,0,0.087037037037037,0,0)" xlink:href="#h" id="b"/><path d="M54-142c48-35 137-8 131 61C196 18 31 33 14-55l32-4c7 23 22 37 52 37 35-1 51-22 54-58 4-55-73-65-99-34H22l8-134h141v27H59" id="i"/><use transform="matrix(0.087037037037037,0,0,0.087037037037037,0,0)" xlink:href="#i" id="c"/><path d="M110-160c48 1 74 30 74 79 0 53-28 85-80 85-65 0-83-55-86-122-5-90 50-162 133-122 14 7 22 21 27 39l-31 6c-5-40-67-38-82-6-9 19-15 44-15 74 11-20 30-34 60-33zm-7 138c34 0 49-23 49-58s-16-56-50-56c-29 0-50 16-49 49 1 36 15 65 50 65" id="j"/><use transform="matrix(0.087037037037037,0,0,0.087037037037037,0,0)" xlink:href="#j" id="d"/><path d="M64 0c3-98 48-159 88-221H18v-27h164v26C143-157 98-101 97 0H64" id="k"/><use transform="matrix(0.087037037037037,0,0,0.087037037037037,0,0)" xlink:href="#k" id="e"/><path d="M141-36C126-15 110 5 73 4 37 3 15-17 15-53c-1-64 63-63 125-63 3-35-9-54-41-54-24 1-41 7-42 31l-33-3c5-37 33-52 76-52 45 0 72 20 72 64v82c-1 20 7 32 28 27v20c-31 9-61-2-59-35zM48-53c0 20 12 33 32 33 41-3 63-29 60-74-43 2-92-5-92 41" id="l"/><path d="M114-163C36-179 61-72 57 0H25l-1-190h30c1 12-1 29 2 39 6-27 23-49 58-41v29" id="m"/><g id="f"><use transform="matrix(0.06851851851851848,0,0,0.06851851851851848,0,0)" xlink:href="#l"/><use transform="matrix(0.06851851851851848,0,0,0.06851851851851848,13.703703703703695,0)" xlink:href="#m"/><use transform="matrix(0.06851851851851848,0,0,0.06851851851851848,21.857407407407393,0)" xlink:href="#m"/></g></defs></g></svg>