<svg xmlns="http://www.w3.org/2000/svg" xmlns:xlink="http://www.w3.org/1999/xlink" xmlns:lucid="lucid" width="722" height="102"><g transform="translate(1 1)" lucid:page-tab-id="0_0"><path d="M0 0h1760v1360H0z" fill="#fff"/><path d="M300 20h60v60h-60z" fill="#fff"/><path d="M311.25 20h7.5m7.5 0h7.5m7.5 0h7.5m7.5 0H360v3.75m0 7.5v7.5m0 7.5v7.5m0 7.5v7.5m0 7.5V80h-3.75m-7.5 0h-7.5m-7.5 0h-7.5m-7.5 0h-7.5m-7.5 0H300v-3.75m0-7.5v-7.5m0-7.5v-7.5m0-7.5v-7.5m0-7.5V20h3.75" stroke="#000" stroke-width="2" fill="none"/><path d="M60 20h60v60H60z" stroke="#000" stroke-width="2" fill="#fff"/><use xlink:href="#a" transform="matrix(1,0,0,1,64.99999999999999,25) translate(16.2962962962963 34.766666666666666)"/><path d="M120 20h60v60h-60z" stroke="#000" stroke-width="2" fill="#fff"/><use xlink:href="#b" transform="matrix(1,0,0,1,125,25) translate(16.2962962962963 34.766666666666666)"/><path d="M180 20h60v60h-60z" stroke="#000" stroke-width="2" fill="#fff"/><use xlink:href="#c" transform="matrix(1,0,0,1,185,25) translate(16.2962962962963 34.766666666666666)"/><path d="M240 20h60v60h-60z" stroke="#000" stroke-width="2" fill="#fff"/><use xlink:href="#d" transform="matrix(1,0,0,1,245,25) translate(16.2962962962963 34.766666666666666)"/><path d="M20 20h40v60H20z" stroke="#000" stroke-opacity="0" stroke-width="2" fill="#fff" fill-opacity="0"/><use xlink:href="#e" transform="matrix(1,0,0,1,25,25) translate(-0.005555555555545766 30.93333333333333)"/><path d="M400 20h60v60h-60z" stroke="#000" stroke-opacity="0" stroke-width="2" fill="#fff" fill-opacity="0"/><use xlink:href="#f" transform="matrix(1,0,0,1,405,25) translate(3.108333333333345 30.93333333333333)"/><path d="M460 20h60v60h-60z" stroke="#000" stroke-width="2" fill="#fff"/><use xlink:href="#g" transform="matrix(1,0,0,1,464.99999999999994,25) translate(16.2962962962963 34.766666666666666)"/><path d="M560 20h80v60h-80z" stroke="#000" stroke-opacity="0" stroke-width="2" fill="#fff" fill-opacity="0"/><use xlink:href="#h" transform="matrix(1,0,0,1,565,25) translate(5.571296296296314 30.93333333333333)"/><path d="M640 20h60v60h-60z" stroke="#000" stroke-width="2" fill="#fff"/><use xlink:href="#i" transform="matrix(1,0,0,1,645,25) translate(16.2962962962963 34.766666666666666)"/><defs><path d="M101-251c82-7 93 87 43 132L82-64C71-53 59-42 53-27h129V0H18c2-99 128-94 128-182 0-28-16-43-45-43s-46 15-49 41l-32-3c6-41 34-60 81-64" id="j"/><use transform="matrix(0.087037037037037,0,0,0.087037037037037,0,0)" xlink:href="#j" id="a"/><path d="M54-142c48-35 137-8 131 61C196 18 31 33 14-55l32-4c7 23 22 37 52 37 35-1 51-22 54-58 4-55-73-65-99-34H22l8-134h141v27H59" id="k"/><use transform="matrix(0.087037037037037,0,0,0.087037037037037,0,0)" xlink:href="#k" id="b"/><path d="M64 0c3-98 48-159 88-221H18v-27h164v26C143-157 98-101 97 0H64" id="l"/><use transform="matrix(0.087037037037037,0,0,0.087037037037037,0,0)" xlink:href="#l" id="c"/><path d="M134-131c28 9 52 24 51 62-1 50-34 73-85 73S17-19 16-69c0-36 21-54 49-61-75-25-45-126 34-121 46 3 78 18 79 63 0 33-17 51-44 57zm-34-11c31 1 46-15 46-44 0-28-17-43-47-42-29 0-46 13-45 42 1 28 16 44 46 44zm1 122c35 0 51-18 51-52 0-30-18-46-53-46-33 0-51 17-51 47 0 34 19 51 53 51" id="m"/><use transform="matrix(0.087037037037037,0,0,0.087037037037037,0,0)" xlink:href="#m" id="d"/><path d="M141-36C126-15 110 5 73 4 37 3 15-17 15-53c-1-64 63-63 125-63 3-35-9-54-41-54-24 1-41 7-42 31l-33-3c5-37 33-52 76-52 45 0 72 20 72 64v82c-1 20 7 32 28 27v20c-31 9-61-2-59-35zM48-53c0 20 12 33 32 33 41-3 63-29 60-74-43 2-92-5-92 41" id="n"/><path d="M114-163C36-179 61-72 57 0H25l-1-190h30c1 12-1 29 2 39 6-27 23-49 58-41v29" id="o"/><g id="e"><use transform="matrix(0.06851851851851848,0,0,0.06851851851851848,0,0)" xlink:href="#n"/><use transform="matrix(0.06851851851851848,0,0,0.06851851851851848,13.703703703703695,0)" xlink:href="#o"/><use transform="matrix(0.06851851851851848,0,0,0.06851851851851848,21.857407407407393,0)" xlink:href="#o"/></g><path d="M135-143c-3-34-86-38-87 0 15 53 115 12 119 90S17 21 10-45l28-5c4 36 97 45 98 0-10-56-113-15-118-90-4-57 82-63 122-42 12 7 21 19 24 35" id="p"/><path d="M24-231v-30h32v30H24zM24 0v-190h32V0H24" id="q"/><path d="M9 0v-24l116-142H16v-24h144v24L44-24h123V0H9" id="r"/><path d="M100-194c63 0 86 42 84 106H49c0 40 14 67 53 68 26 1 43-12 49-29l28 8c-11 28-37 45-77 45C44 4 14-33 15-96c1-61 26-98 85-98zm52 81c6-60-76-77-97-28-3 7-6 17-6 28h103" id="s"/><g id="f"><use transform="matrix(0.06851851851851848,0,0,0.06851851851851848,0,0)" xlink:href="#p"/><use transform="matrix(0.06851851851851848,0,0,0.06851851851851848,12.333333333333327,0)" xlink:href="#q"/><use transform="matrix(0.06851851851851848,0,0,0.06851851851851848,17.746296296296286,0)" xlink:href="#r"/><use transform="matrix(0.06851851851851848,0,0,0.06851851851851848,30.079629629629615,0)" xlink:href="#s"/></g><path d="M155-56V0h-30v-56H8v-25l114-167h33v167h35v25h-35zm-30-156c-27 46-58 90-88 131h88v-131" id="t"/><use transform="matrix(0.087037037037037,0,0,0.087037037037037,0,0)" xlink:href="#t" id="g"/><path d="M108 0H70L1-190h34L89-25l56-165h34" id="u"/><path d="M24 0v-261h32V0H24" id="v"/><path d="M84 4C-5 8 30-112 23-190h32v120c0 31 7 50 39 49 72-2 45-101 50-169h31l1 190h-30c-1-10 1-25-2-33-11 22-28 36-60 37" id="w"/><g id="h"><use transform="matrix(0.06851851851851848,0,0,0.06851851851851848,0,0)" xlink:href="#u"/><use transform="matrix(0.06851851851851848,0,0,0.06851851851851848,12.333333333333327,0)" xlink:href="#n"/><use transform="matrix(0.06851851851851848,0,0,0.06851851851851848,26.037037037037027,0)" xlink:href="#v"/><use transform="matrix(0.06851851851851848,0,0,0.06851851851851848,31.44999999999998,0)" xlink:href="#w"/><use transform="matrix(0.06851851851851848,0,0,0.06851851851851848,45.15370370370368,0)" xlink:href="#s"/></g><path d="M110-160c48 1 74 30 74 79 0 53-28 85-80 85-65 0-83-55-86-122-5-90 50-162 133-122 14 7 22 21 27 39l-31 6c-5-40-67-38-82-6-9 19-15 44-15 74 11-20 30-34 60-33zm-7 138c34 0 49-23 49-58s-16-56-50-56c-29 0-50 16-49 49 1 36 15 65 50 65" id="x"/><use transform="matrix(0.087037037037037,0,0,0.087037037037037,0,0)" xlink:href="#x" id="i"/></defs></g></svg>