<svg xmlns="http://www.w3.org/2000/svg" xmlns:xlink="http://www.w3.org/1999/xlink" xmlns:lucid="lucid" width="614" height="460"><g transform="translate(7.105427357601002e-15 0)" lucid:page-tab-id="0_0"><path d="M0 0h1760v1360H0z" fill="#fff"/><path d="M400 170c0 16.57-13.43 30-30 30s-30-13.43-30-30 13.43-30 30-30 30 13.43 30 30z" stroke="#000" stroke-width="2" fill="#fff"/><use xlink:href="#a" transform="matrix(1,0,0,1,345,145) translate(16.796296296296298 31.766666666666666)"/><path d="M320 290c0 16.57-13.43 30-30 30s-30-13.43-30-30 13.43-30 30-30 30 13.43 30 30z" stroke="#000" stroke-width="2" fill="#fff"/><use xlink:href="#b" transform="matrix(1,0,0,1,265,265) translate(16.796296296296298 31.766666666666666)"/><path d="M400 410c0 16.57-13.43 30-30 30s-30-13.43-30-30 13.43-30 30-30 30 13.43 30 30z" stroke="#000" stroke-width="2" fill="#fff"/><use xlink:href="#c" transform="matrix(1,0,0,1,345,385) translate(16.796296296296298 31.766666666666666)"/><path d="M480 290c0 16.57-13.43 30-30 30s-30-13.43-30-30 13.43-30 30-30 30 13.43 30 30z" stroke="#000" stroke-width="2" fill="#fff"/><use xlink:href="#d" transform="matrix(1,0,0,1,425,265) translate(9.2675925925926 31.766666666666666)"/><path d="M560 410c0 16.57-13.43 30-30 30s-30-13.43-30-30 13.43-30 30-30 30 13.43 30 30z" stroke="#000" stroke-width="2" fill="#fff"/><use xlink:href="#e" transform="matrix(1,0,0,1,505,385) translate(8.092592592592599 31.766666666666666)"/><path d="M352.3 196.54l-44.6 66.92" stroke="#000" stroke-width="2" fill="none"/><path d="M353.7 196.26l-.58.86-1.66-1.1.57-.86zM308.54 264l-.57.84-1.66-1.1.58-.86z"/><path d="M387.73 196.6l44.54 66.8" stroke="#000" stroke-width="2" fill="none"/><path d="M388.58 196.06l-1.67 1.1-.56-.85.4-.2 1.23-.95zM433.66 263.7l-.4.2-1.23.95-.6-.9 1.66-1.12z"/><path d="M467.73 316.6l44.54 66.8" stroke="#000" stroke-width="2" fill="none"/><path d="M468.58 316.06l-1.67 1.1-.56-.85.4-.2 1.23-.95zM513.66 383.7l-.4.2-1.23.95-.6-.9 1.66-1.12z"/><path d="M320 50c0 16.57-13.43 30-30 30s-30-13.43-30-30 13.43-30 30-30 30 13.43 30 30z" stroke="#000" stroke-width="2" fill="#fff"/><use xlink:href="#f" transform="matrix(1,0,0,1,265,25) translate(16.796296296296298 31.766666666666666)"/><path d="M240 170c0 16.57-13.43 30-30 30s-30-13.43-30-30 13.43-30 30-30 30 13.43 30 30z" stroke="#c92d39" stroke-width="2" fill="#fff"/><use xlink:href="#g" transform="matrix(1,0,0,1,185,145) translate(16.796296296296298 31.766666666666666)"/><path d="M160 290c0 16.57-13.43 30-30 30s-30-13.43-30-30 13.43-30 30-30 30 13.43 30 30z" stroke="#000" stroke-width="2" fill="#fff"/><use xlink:href="#h" transform="matrix(1,0,0,1,105,265) translate(16.796296296296298 31.766666666666666)"/><path d="M272.3 76.54l-44.6 66.92" stroke="#000" stroke-width="2" fill="none"/><path d="M273.7 76.26l-.58.86-1.66-1.1.57-.86zM228.54 144l-.57.84-1.66-1.1.58-.86z"/><path d="M307.73 76.6l44.54 66.8" stroke="#000" stroke-width="2" fill="none"/><path d="M308.58 76.06l-1.67 1.1-.56-.85.4-.2 1.23-.95zM353.66 143.7l-.4.2-1.23.95-.6-.9 1.66-1.12z"/><path d="M192.3 196.54l-44.6 66.92" stroke="#000" stroke-width="2" fill="none"/><path d="M193.7 196.26l-.58.86-1.66-1.1.57-.86zM148.54 264l-.57.84-1.66-1.1.58-.86z"/><path d="M235 140h40v60h-40z" fill="none"/><use xlink:href="#i" transform="matrix(1,0,0,1,235,140) translate(13.765432098765437 34.48888888888889)"/><path d="M395 140h40v60h-40z" fill="none"/><use xlink:href="#i" transform="matrix(1,0,0,1,395,140) translate(13.765432098765437 34.48888888888889)"/><path d="M155 260h40v60h-40z" fill="none"/><use xlink:href="#j" transform="matrix(1,0,0,1,155,260) translate(13.765432098765437 34.48888888888889)"/><path d="M315 260h40v60h-40z" fill="none"/><use xlink:href="#k" transform="matrix(1,0,0,1,315,260) translate(13.765432098765437 34.48888888888889)"/><path d="M475 260h40v60h-40z" fill="none"/><use xlink:href="#j" transform="matrix(1,0,0,1,475,260) translate(13.765432098765437 34.48888888888889)"/><path d="M395 380h40v60h-40z" fill="none"/><use xlink:href="#k" transform="matrix(1,0,0,1,395,380) translate(13.765432098765437 34.48888888888889)"/><path d="M554 380h40v60h-40z" fill="none"/><use xlink:href="#k" transform="matrix(1,0,0,1,554,380) translate(13.765432098765437 34.48888888888889)"/><path d="M80 410c0 16.57-13.43 30-30 30s-30-13.43-30-30 13.43-30 30-30 30 13.43 30 30z" stroke="#000" stroke-width="2" fill="#fff"/><use xlink:href="#l" transform="matrix(1,0,0,1,24.999999999999993,385) translate(16.796296296296298 31.766666666666666)"/><path d="M75 380h40v60H75z" fill="none"/><use xlink:href="#k" transform="matrix(1,0,0,1,75,380) translate(13.765432098765437 34.48888888888889)"/><path d="M112.3 316.54l-44.6 66.92" stroke="#000" stroke-width="2" fill="none"/><path d="M113.7 316.26l-.58.86-1.66-1.1.57-.86zM68.54 384l-.57.84-1.66-1.1.58-.86z"/><path d="M432.3 316.54l-44.6 66.92" stroke="#000" stroke-width="2" fill="none"/><path d="M433.7 316.26l-.58.86-1.66-1.1.57-.86zM388.54 384l-.57.84-1.66-1.1.58-.86z"/><defs><path d="M110-160c48 1 74 30 74 79 0 53-28 85-80 85-65 0-83-55-86-122-5-90 50-162 133-122 14 7 22 21 27 39l-31 6c-5-40-67-38-82-6-9 19-15 44-15 74 11-20 30-34 60-33zm-7 138c34 0 49-23 49-58s-16-56-50-56c-29 0-50 16-49 49 1 36 15 65 50 65" id="m"/><use transform="matrix(0.08703703703703701,0,0,0.08703703703703701,0,0)" xlink:href="#m" id="a"/><path d="M54-142c48-35 137-8 131 61C196 18 31 33 14-55l32-4c7 23 22 37 52 37 35-1 51-22 54-58 4-55-73-65-99-34H22l8-134h141v27H59" id="n"/><use transform="matrix(0.08703703703703701,0,0,0.08703703703703701,0,0)" xlink:href="#n" id="b"/><path d="M134-131c28 9 52 24 51 62-1 50-34 73-85 73S17-19 16-69c0-36 21-54 49-61-75-25-45-126 34-121 46 3 78 18 79 63 0 33-17 51-44 57zm-34-11c31 1 46-15 46-44 0-28-17-43-47-42-29 0-46 13-45 42 1 28 16 44 46 44zm1 122c35 0 51-18 51-52 0-30-18-46-53-46-33 0-51 17-51 47 0 34 19 51 53 51" id="o"/><use transform="matrix(0.08703703703703701,0,0,0.08703703703703701,0,0)" xlink:href="#o" id="c"/><path d="M27 0v-27h64v-190l-56 39v-29l58-41h29v221h61V0H27" id="p"/><g id="d"><use transform="matrix(0.08703703703703701,0,0,0.08703703703703701,0,0)" xlink:href="#p"/><use transform="matrix(0.08703703703703701,0,0,0.08703703703703701,15.057407407407403,0)" xlink:href="#p"/></g><path d="M155-56V0h-30v-56H8v-25l114-167h33v167h35v25h-35zm-30-156c-27 46-58 90-88 131h88v-131" id="q"/><g id="e"><use transform="matrix(0.08703703703703701,0,0,0.08703703703703701,0,0)" xlink:href="#p"/><use transform="matrix(0.08703703703703701,0,0,0.08703703703703701,17.4074074074074,0)" xlink:href="#q"/></g><use transform="matrix(0.08703703703703701,0,0,0.08703703703703701,0,0)" xlink:href="#q" id="f"/><path d="M126-127c33 6 58 20 58 59 0 88-139 92-164 29-3-8-5-16-6-25l32-3c6 27 21 44 54 44 32 0 52-15 52-46 0-38-36-46-79-43v-28c39 1 72-4 72-42 0-27-17-43-46-43-28 0-47 15-49 41l-32-3c6-42 35-63 81-64 48-1 79 21 79 65 0 36-21 52-52 59" id="r"/><use transform="matrix(0.08703703703703701,0,0,0.08703703703703701,0,0)" xlink:href="#r" id="g"/><use transform="matrix(0.08703703703703701,0,0,0.08703703703703701,0,0)" xlink:href="#p" id="h"/><path fill="#c92d39" d="M101-251c82-7 93 87 43 132L82-64C71-53 59-42 53-27h129V0H18c2-99 128-94 128-182 0-28-16-43-45-43s-46 15-49 41l-32-3c6-41 34-60 81-64" id="s"/><use transform="matrix(0.06234567901234563,0,0,0.06234567901234563,0,0)" xlink:href="#s" id="i"/><path fill="#c92d39" d="M27 0v-27h64v-190l-56 39v-29l58-41h29v221h61V0H27" id="t"/><use transform="matrix(0.06234567901234563,0,0,0.06234567901234563,0,0)" xlink:href="#t" id="j"/><path fill="#c92d39" d="M101-251c68 0 85 55 85 127S166 4 100 4C33 4 14-52 14-124c0-73 17-127 87-127zm-1 229c47 0 54-49 54-102s-4-102-53-102c-51 0-55 48-55 102 0 53 5 102 54 102" id="u"/><use transform="matrix(0.06234567901234563,0,0,0.06234567901234563,0,0)" xlink:href="#u" id="k"/><path d="M101-251c68 0 85 55 85 127S166 4 100 4C33 4 14-52 14-124c0-73 17-127 87-127zm-1 229c47 0 54-49 54-102s-4-102-53-102c-51 0-55 48-55 102 0 53 5 102 54 102" id="v"/><use transform="matrix(0.08703703703703701,0,0,0.08703703703703701,0,0)" xlink:href="#v" id="l"/></defs></g></svg>