<svg xmlns="http://www.w3.org/2000/svg" xmlns:xlink="http://www.w3.org/1999/xlink" xmlns:lucid="lucid" width="874.12" height="1416.62"><g transform="translate(12.117081389846362 10.366990798725737)" lucid:page-tab-id="0_0"><path d="M0 0h1760v2656H0z" fill="#fff"/><path d="M189.88 40.13c0 16.85-13.65 30.5-30.5 30.5-16.84 0-30.5-13.65-30.5-30.5 0-16.84 13.66-30.5 30.5-30.5 16.85 0 30.5 13.66 30.5 30.5z" stroke="#000" stroke-width="2" fill="#fff"/><use xlink:href="#a" transform="matrix(1,0,0,1,133.88291861015364,14.633009201274263) translate(16.796296296296305 34.766666666666666)"/><path d="M68.88 129.63c0 16.85-13.65 30.5-30.5 30.5-16.84 0-30.5-13.65-30.5-30.5 0-16.84 13.66-30.5 30.5-30.5 16.85 0 30.5 13.66 30.5 30.5z" stroke="#000" stroke-width="2" fill="#fff"/><use xlink:href="#b" transform="matrix(1,0,0,1,12.882918610153638,104.13300920127426) translate(16.796296296296305 34.766666666666666)"/><path d="M310.88 129.63c0 16.85-13.65 30.5-30.5 30.5-16.84 0-30.5-13.65-30.5-30.5 0-16.84 13.66-30.5 30.5-30.5 16.85 0 30.5 13.66 30.5 30.5z" stroke="#000" stroke-width="2" fill="#fff"/><use xlink:href="#c" transform="matrix(1,0,0,1,254.88291861015364,104.13300920127426) translate(16.796296296296305 34.766666666666666)"/><path d="M231.88 219.13c0 16.85-13.65 30.5-30.5 30.5-16.84 0-30.5-13.65-30.5-30.5 0-16.84 13.66-30.5 30.5-30.5 16.85 0 30.5 13.66 30.5 30.5z" stroke="#000" stroke-width="2" fill="#fff"/><use xlink:href="#d" transform="matrix(1,0,0,1,175.88291861015364,193.63300920127426) translate(16.796296296296305 34.766666666666666)"/><path d="M389.88 219.13c0 16.85-13.65 30.5-30.5 30.5-16.84 0-30.5-13.65-30.5-30.5 0-16.84 13.66-30.5 30.5-30.5 16.85 0 30.5 13.66 30.5 30.5z" stroke="#000" stroke-width="2" fill="#fff"/><use xlink:href="#e" transform="matrix(1,0,0,1,333.88291861015364,193.63300920127426) translate(16.796296296296305 34.766666666666666)"/><path d="M133.32 59.4l-68.88 50.96" stroke="#000" stroke-width="2" fill="none"/><path d="M134.75 59.6l-.85.63-1.2-1.6.8-.6zM65.06 111.15l-.8.6-1.24-1.58.85-.63z" stroke="#000" stroke-width=".05"/><path d="M185.48 59.44l68.8 50.9" stroke="#000" stroke-width="2" fill="none"/><path d="M186.1 58.65l-1.2 1.6-.82-.6.3-.32.84-1.33zM255.7 110.12l-.3.32-.86 1.32-.87-.64 1.2-1.6z" stroke="#000" stroke-width=".05"/><path d="M258.94 153.92l-36.12 40.92" stroke="#000" stroke-width="2" fill="none"/><path d="M260.34 153.85l-.67.76-1.5-1.32.7-.78zM223.6 195.48l-.7.78-1.48-1.34.67-.76z" stroke="#000" stroke-width=".05"/><path d="M301.85 153.96l36.06 40.85" stroke="#000" stroke-width="2" fill="none"/><path d="M302.62 153.3l-1.5 1.34-.7-.8 1.46-1.18.08-.1zM339.36 194.94l-1.47 1.16-.1.1-.65-.75 1.5-1.32z" stroke="#000" stroke-width=".05"/><path d="M310.88 308.63c0 16.85-13.65 30.5-30.5 30.5-16.84 0-30.5-13.65-30.5-30.5 0-16.84 13.66-30.5 30.5-30.5 16.85 0 30.5 13.66 30.5 30.5z" stroke="#000" stroke-width="2" fill="#fff"/><use xlink:href="#f" transform="matrix(1,0,0,1,254.88291861015364,283.13300920127426) translate(16.796296296296305 34.766666666666666)"/><path d="M222.85 243.46l36.06 40.85" stroke="#000" stroke-width="2" fill="none"/><path d="M223.62 242.8l-1.5 1.34-.7-.8 1.46-1.18.08-.1zM260.36 284.44l-1.47 1.16-.1.1-.65-.75 1.5-1.32z" stroke="#000" stroke-width=".05"/><path d="M192.38 766.75c0 16.84-13.65 30.5-30.5 30.5-16.84 0-30.5-13.66-30.5-30.5s13.66-30.5 30.5-30.5c16.85 0 30.5 13.66 30.5 30.5z" stroke="#000" stroke-width="2" fill="#fff"/><use xlink:href="#a" transform="matrix(1,0,0,1,136.38291861015364,741.25) translate(16.796296296296305 34.766666666666666)"/><path d="M71.38 856.25c0 16.84-13.65 30.5-30.5 30.5-16.84 0-30.5-13.66-30.5-30.5s13.66-30.5 30.5-30.5c16.85 0 30.5 13.66 30.5 30.5z" stroke="#000" stroke-width="2" fill="#fff"/><use xlink:href="#b" transform="matrix(1,0,0,1,15.382918610153638,830.75) translate(16.796296296296305 34.766666666666666)"/><path d="M313.38 856.25c0 16.84-13.65 30.5-30.5 30.5-16.84 0-30.5-13.66-30.5-30.5s13.66-30.5 30.5-30.5c16.85 0 30.5 13.66 30.5 30.5z" stroke="#000" stroke-width="2" fill="#fff"/><use xlink:href="#f" transform="matrix(1,0,0,1,257.38291861015364,830.75) translate(16.796296296296305 34.766666666666666)"/><path d="M234.38 945.75c0 16.84-13.65 30.5-30.5 30.5-16.84 0-30.5-13.66-30.5-30.5s13.66-30.5 30.5-30.5c16.85 0 30.5 13.66 30.5 30.5z" stroke="#000" stroke-width="2" fill="#fff"/><use xlink:href="#d" transform="matrix(1,0,0,1,178.38291861015364,920.25) translate(16.796296296296305 34.766666666666666)"/><path d="M392.38 945.75c0 16.84-13.65 30.5-30.5 30.5-16.84 0-30.5-13.66-30.5-30.5s13.66-30.5 30.5-30.5c16.85 0 30.5 13.66 30.5 30.5z" stroke="#000" stroke-width="2" fill="#fff"/><use xlink:href="#c" transform="matrix(1,0,0,1,336.38291861015364,920.25) translate(16.796296296296305 34.766666666666666)"/><path d="M135.82 786.03l-68.88 50.94" stroke="#000" stroke-width="2" fill="none"/><path d="M137.25 786.22l-.85.63-1.2-1.6.8-.6zM67.56 837.76l-.8.6-1.24-1.58.85-.63z" stroke="#000" stroke-width=".05"/><path d="M187.98 786.06l68.8 50.88" stroke="#000" stroke-width="2" fill="none"/><path d="M188.6 785.27l-1.2 1.6-.82-.6.3-.33.84-1.32zM258.2 836.74l-.3.32-.86 1.32-.87-.65 1.2-1.6z" stroke="#000" stroke-width=".05"/><path d="M261.44 880.54l-36.12 40.92" stroke="#000" stroke-width="2" fill="none"/><path d="M262.84 880.46l-.67.76-1.5-1.32.7-.78zM226.1 922.1l-.7.78-1.48-1.34.67-.76z" stroke="#000" stroke-width=".05"/><path d="M304.35 880.57l36.06 40.86" stroke="#000" stroke-width="2" fill="none"/><path d="M305.12 879.93l-1.5 1.32-.7-.8 1.46-1.17.08-.1zM341.86 921.55l-1.47 1.17-.1.1-.65-.75 1.5-1.32z" stroke="#000" stroke-width=".05"/><path d="M642 407.75c0 16.84-13.66 30.5-30.5 30.5S581 424.6 581 407.75s13.66-30.5 30.5-30.5 30.5 13.66 30.5 30.5z" stroke="#000" stroke-width="2" fill="#fff"/><use xlink:href="#a" transform="matrix(1,0,0,1,586,382.25) translate(16.796296296296305 34.766666666666666)"/><path d="M521 497.25c0 16.84-13.66 30.5-30.5 30.5S460 514.1 460 497.25s13.66-30.5 30.5-30.5 30.5 13.66 30.5 30.5z" stroke="#000" stroke-width="2" fill="#fff"/><use xlink:href="#b" transform="matrix(1,0,0,1,465,471.75) translate(16.796296296296305 34.766666666666666)"/><path d="M763 497.25c0 16.84-13.66 30.5-30.5 30.5S702 514.1 702 497.25s13.66-30.5 30.5-30.5 30.5 13.66 30.5 30.5z" stroke="#000" stroke-width="2" fill="#fff"/><use xlink:href="#c" transform="matrix(1,0,0,1,707,471.75) translate(16.796296296296305 34.766666666666666)"/><path d="M684 586.75c0 16.84-13.66 30.5-30.5 30.5S623 603.6 623 586.75s13.66-30.5 30.5-30.5 30.5 13.66 30.5 30.5z" stroke="#000" stroke-width="2" fill="#fff"/><use xlink:href="#f" transform="matrix(1,0,0,1,628,561.25) translate(16.796296296296305 34.766666666666666)"/><path d="M842 586.75c0 16.84-13.66 30.5-30.5 30.5S781 603.6 781 586.75s13.66-30.5 30.5-30.5 30.5 13.66 30.5 30.5z" stroke="#000" stroke-width="2" fill="#fff"/><use xlink:href="#e" transform="matrix(1,0,0,1,786,561.25) translate(16.796296296296305 34.766666666666666)"/><path d="M585.44 427.03l-68.88 50.94" stroke="#000" stroke-width="2" fill="none"/><path d="M586.86 427.22l-.85.63-1.18-1.6.8-.6zM517.18 478.76l-.8.6-1.24-1.58.85-.63z" stroke="#000" stroke-width=".05"/><path d="M637.6 427.06l68.8 50.88" stroke="#000" stroke-width="2" fill="none"/><path d="M638.2 426.27l-1.17 1.6-.83-.6.28-.33.86-1.32zM707.8 477.74l-.28.32-.86 1.32-.87-.65 1.17-1.6z" stroke="#000" stroke-width=".05"/><path d="M711.06 521.54l-36.12 40.92" stroke="#000" stroke-width="2" fill="none"/><path d="M712.46 521.46l-.67.76-1.5-1.32.68-.78zM675.7 563.1l-.68.78-1.48-1.34.67-.76z" stroke="#000" stroke-width=".05"/><path d="M753.97 521.57l36.06 40.86" stroke="#000" stroke-width="2" fill="none"/><path d="M754.74 520.93l-1.5 1.32-.72-.8 1.47-1.17.08-.1zM791.48 562.55l-1.47 1.17-.08.1-.66-.75 1.5-1.32z" stroke="#000" stroke-width=".05"/><path d="M632.06 611.04l-36.12 40.92" stroke="#000" stroke-width="2" fill="none"/><path d="M633.46 610.96l-.67.76-1.5-1.32.68-.78zM596.7 652.6l-.68.78-1.48-1.34.67-.76z" stroke="#000" stroke-width=".05"/><path d="M605 676.25c0 16.84-13.66 30.5-30.5 30.5S544 693.1 544 676.25s13.66-30.5 30.5-30.5 30.5 13.66 30.5 30.5z" stroke="#000" stroke-width="2" fill="#fff"/><use xlink:href="#d" transform="matrix(1,0,0,1,549,650.75) translate(16.796296296296305 34.766666666666666)"/><path d="M466.38 1035.25c0 16.84-13.65 30.5-30.5 30.5-16.84 0-30.5-13.66-30.5-30.5s13.66-30.5 30.5-30.5c16.85 0 30.5 13.66 30.5 30.5z" stroke="#000" stroke-width="2" fill="#fff"/><use xlink:href="#e" transform="matrix(1,0,0,1,410.38291861015364,1009.75) translate(16.796296296296305 34.766666666666666)"/><path d="M382.53 970.72l32.7 39.56" stroke="#000" stroke-width="2" fill="none"/><path d="M383.32 970.1l-1.54 1.28-.67-.8 1.58-1.25zM416.66 1010.43l-1.57 1.24-.65-.78 1.54-1.28z" stroke="#000" stroke-width=".05"/><path d="M642 1176.75c0 16.84-13.66 30.5-30.5 30.5s-30.5-13.66-30.5-30.5 13.66-30.5 30.5-30.5 30.5 13.66 30.5 30.5z" stroke="#000" stroke-width="2" fill="#fff"/><use xlink:href="#f" transform="matrix(1,0,0,1,586,1151.25) translate(16.796296296296305 34.766666666666666)"/><path d="M521 1266.25c0 16.84-13.66 30.5-30.5 30.5s-30.5-13.66-30.5-30.5 13.66-30.5 30.5-30.5 30.5 13.66 30.5 30.5z" stroke="#000" stroke-width="2" fill="#fff"/><use xlink:href="#a" transform="matrix(1,0,0,1,465,1240.75) translate(16.796296296296305 34.766666666666666)"/><path d="M763 1266.25c0 16.84-13.66 30.5-30.5 30.5s-30.5-13.66-30.5-30.5 13.66-30.5 30.5-30.5 30.5 13.66 30.5 30.5z" stroke="#000" stroke-width="2" fill="#fff"/><use xlink:href="#c" transform="matrix(1,0,0,1,707,1240.75) translate(16.796296296296305 34.766666666666666)"/><path d="M842 1355.75c0 16.84-13.66 30.5-30.5 30.5s-30.5-13.66-30.5-30.5 13.66-30.5 30.5-30.5 30.5 13.66 30.5 30.5z" stroke="#000" stroke-width="2" fill="#fff"/><use xlink:href="#e" transform="matrix(1,0,0,1,786,1330.25) translate(16.796296296296305 34.766666666666666)"/><path d="M585.44 1196.03l-68.88 50.94" stroke="#000" stroke-width="2" fill="none"/><path d="M586.86 1196.22l-.85.63-1.18-1.6.8-.6zM517.18 1247.76l-.8.6-1.24-1.58.85-.63z" stroke="#000" stroke-width=".05"/><path d="M637.6 1196.06l68.8 50.88" stroke="#000" stroke-width="2" fill="none"/><path d="M638.2 1195.27l-1.17 1.6-.83-.6.28-.33.86-1.32zM707.8 1246.74l-.28.32-.86 1.32-.87-.65 1.17-1.6z" stroke="#000" stroke-width=".05"/><path d="M753.97 1290.57l36.06 40.86" stroke="#000" stroke-width="2" fill="none"/><path d="M754.74 1289.93l-1.5 1.32-.72-.8 1.47-1.17.08-.1zM791.48 1331.55l-1.47 1.17-.08.1-.66-.75 1.5-1.32z" stroke="#000" stroke-width=".05"/><path d="M442 1355.75c0 16.84-13.66 30.5-30.5 30.5s-30.5-13.66-30.5-30.5 13.66-30.5 30.5-30.5 30.5 13.66 30.5 30.5z" stroke="#000" stroke-width="2" fill="#fff"/><use xlink:href="#b" transform="matrix(1,0,0,1,386,1330.25) translate(16.796296296296305 34.766666666666666)"/><path d="M600 1355.75c0 16.84-13.66 30.5-30.5 30.5s-30.5-13.66-30.5-30.5 13.66-30.5 30.5-30.5 30.5 13.66 30.5 30.5z" stroke="#000" stroke-width="2" fill="#fff"/><use xlink:href="#d" transform="matrix(1,0,0,1,544,1330.25) translate(16.796296296296305 34.766666666666666)"/><path d="M469.06 1290.54l-36.12 40.92" stroke="#000" stroke-width="2" fill="none"/><path d="M470.46 1290.46l-.67.76-1.5-1.32.68-.78zM433.7 1332.1l-.68.78-1.48-1.34.67-.76z" stroke="#000" stroke-width=".05"/><path d="M511.97 1290.57l36.06 40.86" stroke="#000" stroke-width="2" fill="none"/><path d="M512.74 1289.93l-1.5 1.32-.72-.8 1.47-1.17.08-.1zM549.48 1331.55l-1.47 1.17-.08.1-.66-.75 1.5-1.32z" stroke="#000" stroke-width=".05"/><path d="M376.52 304.1l83.58 63.76 10.3-13.52 29.1 52.37-58.2-14.2 10.3-13.5-83.57-63.76z" stroke="#979ea8" stroke-width="2" fill="#979ea8"/><path d="M418 294.13h156v45H418z" stroke="#000" stroke-opacity="0" stroke-width="2" fill="#fff" fill-opacity="0"/><use xlink:href="#g" transform="matrix(1,0,0,1,423,299.13300920127426) translate(4.482098765432141 21.988888888888887)"/><use xlink:href="#h" transform="matrix(1,0,0,1,423,299.13300920127426) translate(68.01234567901234 21.988888888888887)"/><use xlink:href="#i" transform="matrix(1,0,0,1,423,299.13300920127426) translate(104.11049382716047 21.988888888888887)"/><use xlink:href="#j" transform="matrix(1,0,0,1,423,299.13300920127426) translate(129.04876543209872 21.988888888888887)"/><path d="M478.92 670.2l-82.94 64.6 10.45 13.4-58.05 14.8 28.56-52.66 10.44 13.4 82.94-64.58z" stroke="#979ea8" stroke-width="2" fill="#979ea8"/><path d="M252.38 644.32H424v63.86H252.38z" stroke="#000" stroke-opacity="0" stroke-width="2" fill="#fff" fill-opacity="0"/><use xlink:href="#g" transform="matrix(1,0,0,1,257.38291861015364,649.3166666666667) translate(5.655246913580299 31.488888888888887)"/><use xlink:href="#k" transform="matrix(1,0,0,1,257.38291861015364,649.3166666666667) translate(69.1854938271605 31.488888888888887)"/><use xlink:href="#i" transform="matrix(1,0,0,1,257.38291861015364,649.3166666666667) translate(118.93734567901231 31.488888888888887)"/><use xlink:href="#l" transform="matrix(1,0,0,1,257.38291861015364,649.3166666666667) translate(143.87561728395056 31.488888888888887)"/><g><path d="M359.45 1079.27l83.58 63.75 10.3-13.52 29.1 52.37-58.2-14.2 10.3-13.52-83.57-63.75z" stroke="#979ea8" stroke-width="2" fill="#979ea8"/></g><path d="M226.8 1119.3h156v45h-156z" stroke="#000" stroke-opacity="0" stroke-width="2" fill="#fff" fill-opacity="0"/><g><use xlink:href="#g" transform="matrix(1,0,0,1,231.7890831944814,1124.2910717816444) translate(4.482098765432141 21.988888888888887)"/><use xlink:href="#h" transform="matrix(1,0,0,1,231.7890831944814,1124.2910717816444) translate(68.01234567901234 21.988888888888887)"/><use xlink:href="#i" transform="matrix(1,0,0,1,231.7890831944814,1124.2910717816444) translate(104.11049382716047 21.988888888888887)"/><use xlink:href="#m" transform="matrix(1,0,0,1,231.7890831944814,1124.2910717816444) translate(129.04876543209872 21.988888888888887)"/></g><defs><path d="M54-142c48-35 137-8 131 61C196 18 31 33 14-55l32-4c7 23 22 37 52 37 35-1 51-22 54-58 4-55-73-65-99-34H22l8-134h141v27H59" id="n"/><use transform="matrix(0.08703703703703697,0,0,0.08703703703703697,0,0)" xlink:href="#n" id="a"/><path d="M101-251c82-7 93 87 43 132L82-64C71-53 59-42 53-27h129V0H18c2-99 128-94 128-182 0-28-16-43-45-43s-46 15-49 41l-32-3c6-41 34-60 81-64" id="o"/><use transform="matrix(0.08703703703703697,0,0,0.08703703703703697,0,0)" xlink:href="#o" id="b"/><path d="M134-131c28 9 52 24 51 62-1 50-34 73-85 73S17-19 16-69c0-36 21-54 49-61-75-25-45-126 34-121 46 3 78 18 79 63 0 33-17 51-44 57zm-34-11c31 1 46-15 46-44 0-28-17-43-47-42-29 0-46 13-45 42 1 28 16 44 46 44zm1 122c35 0 51-18 51-52 0-30-18-46-53-46-33 0-51 17-51 47 0 34 19 51 53 51" id="p"/><use transform="matrix(0.08703703703703697,0,0,0.08703703703703697,0,0)" xlink:href="#p" id="c"/><path d="M110-160c48 1 74 30 74 79 0 53-28 85-80 85-65 0-83-55-86-122-5-90 50-162 133-122 14 7 22 21 27 39l-31 6c-5-40-67-38-82-6-9 19-15 44-15 74 11-20 30-34 60-33zm-7 138c34 0 49-23 49-58s-16-56-50-56c-29 0-50 16-49 49 1 36 15 65 50 65" id="q"/><use transform="matrix(0.08703703703703697,0,0,0.08703703703703697,0,0)" xlink:href="#q" id="d"/><path d="M99-251c64 0 84 50 84 122C183-37 130 33 47-8c-14-7-20-23-25-40l30-5c6 39 69 39 84 7 9-19 16-44 16-74-10 22-31 35-62 35-49 0-73-33-73-83 0-54 28-83 82-83zm-1 141c31-1 51-18 51-49 0-36-14-67-51-67-34 0-49 23-49 58 0 34 15 58 49 58" id="r"/><use transform="matrix(0.08703703703703697,0,0,0.08703703703703697,0,0)" xlink:href="#r" id="e"/><path d="M64 0c3-98 48-159 88-221H18v-27h164v26C143-157 98-101 97 0H64" id="s"/><use transform="matrix(0.08703703703703697,0,0,0.08703703703703697,0,0)" xlink:href="#s" id="f"/><path fill="#6f7681" d="M66-151c12-25 30-51 66-40l-6 26C45-176 58-65 38 0H6l36-190h30" id="t"/><path fill="#6f7681" d="M30-147c31-64 166-65 159 27C183-49 158 1 86 4 9 8 1-88 30-147zM88-20c53 0 68-48 68-100 0-31-11-51-44-50-52 1-68 46-68 97 0 32 13 53 44 53" id="u"/><path fill="#6f7681" d="M51-54c-9 22 5 41 31 30L79-1C43 14 10-4 19-52l22-115H19l5-23h22l19-43h21l-9 43h35l-4 23H73" id="v"/><path fill="#6f7681" d="M165-48c-4 18 1 34 23 27l-3 20c-29 8-62 0-52-35h-2C116-14 99 4 63 4 30 4 8-16 8-49c0-68 71-67 138-67 10-26 0-56-31-54-26 1-42 9-47 31l-32-5c8-67 160-71 144 15-5 28-9 54-15 81zM42-50c3 52 80 24 89-6 7-12 7-24 11-38-47 1-103-4-100 44" id="w"/><path fill="#6f7681" d="M111-194c62-3 86 47 72 106H45c-7 38 6 69 45 68 27-1 43-14 53-32l24 11C152-15 129 4 87 4 38 3 12-23 12-71c0-70 32-119 99-123zm44 81c14-66-71-72-95-28-4 8-8 17-11 28h106" id="x"/><g id="g"><use transform="matrix(0.06234567901234563,0,0,0.06234567901234563,0,0)" xlink:href="#t"/><use transform="matrix(0.06234567901234563,0,0,0.06234567901234563,7.41913580246913,0)" xlink:href="#u"/><use transform="matrix(0.06234567901234563,0,0,0.06234567901234563,19.888271604938257,0)" xlink:href="#v"/><use transform="matrix(0.06234567901234563,0,0,0.06234567901234563,26.12283950617282,0)" xlink:href="#w"/><use transform="matrix(0.06234567901234563,0,0,0.06234567901234563,38.59197530864195,0)" xlink:href="#v"/><use transform="matrix(0.06234567901234563,0,0,0.06234567901234563,44.82654320987651,0)" xlink:href="#x"/></g><path fill="#6f7681" d="M6 0l50-261h32L37 0H6" id="y"/><path fill="#6f7681" d="M76-167L44 0H12l33-167H18l4-23h27c3-47 25-81 82-69l-4 24c-35-8-44 15-46 45h37l-5 23H76" id="z"/><g id="h"><use transform="matrix(0.06234567901234563,0,0,0.06234567901234563,0,0)" xlink:href="#y"/><use transform="matrix(0.06234567901234563,0,0,0.06234567901234563,4.925308641975305,0)" xlink:href="#x"/><use transform="matrix(0.06234567901234563,0,0,0.06234567901234563,17.39444444444443,0)" xlink:href="#z"/><use transform="matrix(0.06234567901234563,0,0,0.06234567901234563,23.629012345678994,0)" xlink:href="#v"/></g><g id="i"><use transform="matrix(0.06234567901234563,0,0,0.06234567901234563,0,0)" xlink:href="#w"/><use transform="matrix(0.06234567901234563,0,0,0.06234567901234563,12.469135802469127,0)" xlink:href="#v"/></g><path fill="#6f7681" d="M184-94c-4 58-33 98-90 98-50 0-74-35-74-86 0-94 36-181 136-167 24 3 39 21 44 47l-29 6c-8-40-68-34-87-5-13 20-24 43-30 73 28-51 135-39 130 34zm-73-42c-35 2-61 22-60 62 1 30 14 52 44 52 38 0 55-31 56-70 1-26-14-46-40-44" id="A"/><use transform="matrix(0.06234567901234563,0,0,0.06234567901234563,0,0)" xlink:href="#A" id="j"/><path fill="#6f7681" d="M50-231l6-30h32l-6 30H50zM6 0l37-190h31L37 0H6" id="B"/><path fill="#6f7681" d="M103-194c29 0 47 14 56 36 2-11 5-23 8-32h30L160-5C157 61 82 97 21 62 9 55 4 45 1 30l28-7c7 42 83 31 92-3 4-16 9-38 13-55-13 20-29 36-62 36-40 0-60-25-60-64 0-71 23-131 91-131zm4 24c-53 0-58 54-61 104-2 27 10 44 36 44 49 0 65-50 67-102 1-29-15-46-42-46" id="C"/><path fill="#6f7681" d="M67-158c15-20 31-36 64-36 94 0 33 127 27 194h-32l25-140c3-38-53-32-70-12C52-117 51-51 37 0H6l51-261h31" id="D"/><g id="k"><use transform="matrix(0.06234567901234563,0,0,0.06234567901234563,0,0)" xlink:href="#t"/><use transform="matrix(0.06234567901234563,0,0,0.06234567901234563,7.41913580246913,0)" xlink:href="#B"/><use transform="matrix(0.06234567901234563,0,0,0.06234567901234563,12.344444444444434,0)" xlink:href="#C"/><use transform="matrix(0.06234567901234563,0,0,0.06234567901234563,24.81358024691356,0)" xlink:href="#D"/><use transform="matrix(0.06234567901234563,0,0,0.06234567901234563,37.282716049382685,0)" xlink:href="#v"/></g><path fill="#6f7681" d="M39-185c1-48 36-66 85-66 42 0 74 18 74 59 0 38-25 57-56 64 23 7 40 22 40 52 0 55-39 80-94 80C40 4 10-17 9-63c-1-44 31-60 63-71-20-7-33-25-33-51zm31 3c0 26 17 39 46 39 34 0 48-18 49-48 0-25-18-36-45-36-32 0-50 15-50 45zm79 105c0-29-19-41-50-41-37 0-57 20-57 55 0 29 19 42 49 42 36 0 58-19 58-56" id="E"/><use transform="matrix(0.06234567901234563,0,0,0.06234567901234563,0,0)" xlink:href="#E" id="l"/><path fill="#6f7681" d="M151-85c6-55-69-56-94-29H26l34-134h141l-5 27H84l-20 79c41-34 127-11 121 53C199 13 30 38 8-54l29-8C52 0 159-13 151-85" id="F"/><use transform="matrix(0.06234567901234563,0,0,0.06234567901234563,0,0)" xlink:href="#F" id="m"/></defs></g></svg>