<svg xmlns="http://www.w3.org/2000/svg" xmlns:xlink="http://www.w3.org/1999/xlink" xmlns:lucid="lucid" width="524" height="369.5"><g transform="translate(11.117081389846362 7.3669907987257375)" lucid:page-tab-id="0_0"><path d="M0 0h1760v1360H0z" fill="#fff"/><path d="M310.88 43.13c0 16.85-13.65 30.5-30.5 30.5-16.84 0-30.5-13.65-30.5-30.5 0-16.84 13.66-30.5 30.5-30.5 16.85 0 30.5 13.66 30.5 30.5z" stroke="#000" stroke-width="2" fill="#fff"/><use xlink:href="#a" transform="matrix(1,0,0,1,254.88291861015364,17.633009201274263) translate(16.796296296296305 34.766666666666666)"/><path d="M189.88 132.63c0 16.85-13.65 30.5-30.5 30.5-16.84 0-30.5-13.65-30.5-30.5 0-16.84 13.66-30.5 30.5-30.5 16.85 0 30.5 13.66 30.5 30.5z" stroke="#000" stroke-width="2" fill="#fff"/><use xlink:href="#b" transform="matrix(1,0,0,1,133.88291861015364,107.13300920127426) translate(16.796296296296305 34.766666666666666)"/><path d="M431.88 132.63c0 16.85-13.65 30.5-30.5 30.5-16.84 0-30.5-13.65-30.5-30.5 0-16.84 13.66-30.5 30.5-30.5 16.85 0 30.5 13.66 30.5 30.5z" stroke="#000" stroke-width="2" fill="#fff"/><use xlink:href="#c" transform="matrix(1,0,0,1,375.88291861015364,107.13300920127426) translate(8.092592592592606 34.766666666666666)"/><path d="M130.88 222.13c0 16.85-13.65 30.5-30.5 30.5-16.84 0-30.5-13.65-30.5-30.5 0-16.84 13.66-30.5 30.5-30.5 16.85 0 30.5 13.66 30.5 30.5z" stroke="#000" stroke-width="2" fill="#fff"/><use xlink:href="#d" transform="matrix(1,0,0,1,74.88291861015364,196.63300920127426) translate(16.796296296296305 34.766666666666666)"/><path d="M250.88 222.13c0 16.85-13.65 30.5-30.5 30.5-16.84 0-30.5-13.65-30.5-30.5 0-16.84 13.66-30.5 30.5-30.5 16.85 0 30.5 13.66 30.5 30.5z" stroke="#000" stroke-width="2" fill="#fff"/><use xlink:href="#e" transform="matrix(1,0,0,1,194.88291861015364,196.63300920127426) translate(16.796296296296305 34.766666666666666)"/><path d="M370.88 222.13c0 16.85-13.65 30.5-30.5 30.5-16.84 0-30.5-13.65-30.5-30.5 0-16.84 13.66-30.5 30.5-30.5 16.85 0 30.5 13.66 30.5 30.5z" stroke="#000" stroke-width="2" fill="#fff"/><use xlink:href="#f" transform="matrix(1,0,0,1,314.88291861015364,196.63300920127426) translate(16.796296296296305 34.766666666666666)"/><path d="M492.88 222.13c0 16.85-13.65 30.5-30.5 30.5-16.84 0-30.5-13.65-30.5-30.5 0-16.84 13.66-30.5 30.5-30.5 16.85 0 30.5 13.66 30.5 30.5z" stroke="#000" stroke-width="2" fill="#fff"/><use xlink:href="#g" transform="matrix(1,0,0,1,436.88291861015364,196.63300920127426) translate(8.092592592592606 34.766666666666666)"/><path d="M254.32 62.4l-68.88 50.96" stroke="#000" stroke-width="2" fill="none"/><path d="M255.75 62.6l-.85.63-1.2-1.6.8-.6zM186.06 114.15l-.8.6-1.24-1.58.85-.63z" stroke="#000" stroke-width=".05"/><path d="M306.48 62.44l68.8 50.9" stroke="#000" stroke-width="2" fill="none"/><path d="M307.1 61.65l-1.2 1.6-.82-.6.3-.32.84-1.33zM376.7 113.12l-.3.32-.86 1.32-.87-.64 1.2-1.6z" stroke="#000" stroke-width=".05"/><path d="M141.55 159.7l-23.33 35.38" stroke="#000" stroke-width="2" fill="none"/><path d="M142.94 159.4l-.57.86-1.67-1.1.56-.85zM119.07 195.6l-.56.86-1.67-1.1.57-.85z" stroke="#000" stroke-width=".05"/><path d="M177.67 159.47l24.42 35.83" stroke="#000" stroke-width="2" fill="none"/><path d="M178.5 158.93l-1.64 1.12-.6-.87.55-.3 1.1-.86zM203.5 195.58l-.55.3-1.08.86-.62-.9 1.65-1.13z" stroke="#000" stroke-width=".05"/><path d="M383.13 159.4l-24.5 35.95" stroke="#000" stroke-width="2" fill="none"/><path d="M384.53 159.13l-.6.87-1.64-1.13.55-.82zM359.48 195.9l-.57.82-1.67-1.1.6-.85z" stroke="#000" stroke-width=".05"/><path d="M419.67 159.47l24.42 35.83" stroke="#000" stroke-width="2" fill="none"/><path d="M420.5 158.93l-1.64 1.12-.6-.87.55-.3 1.1-.86zM445.5 195.58l-.55.3-1.08.86-.62-.9 1.65-1.13z" stroke="#000" stroke-width=".05"/><path d="M189.88 311.63c0 16.85-13.65 30.5-30.5 30.5-16.84 0-30.5-13.65-30.5-30.5 0-16.84 13.66-30.5 30.5-30.5 16.85 0 30.5 13.66 30.5 30.5z" stroke="#000" stroke-width="2" fill="#fff"/><use xlink:href="#h" transform="matrix(1,0,0,1,133.88291861015364,286.13300920127426) translate(16.796296296296305 34.766666666666666)"/><path d="M69.88 311.63c0 16.85-13.65 30.5-30.5 30.5-16.84 0-30.5-13.65-30.5-30.5 0-16.84 13.66-30.5 30.5-30.5 16.85 0 30.5 13.66 30.5 30.5z" stroke="#000" stroke-width="2" fill="#fff"/><use xlink:href="#i" transform="matrix(1,0,0,1,13.882918610153638,286.13300920127426) translate(16.796296296296305 34.766666666666666)"/><path d="M118.27 249.27l23.23 35.23" stroke="#000" stroke-width="2" fill="none"/><path d="M119.12 248.74l-1.67 1.1-.6-.92.96-.54.72-.56zM142.92 284.85l-.97.54-.7.54-.6-.9 1.67-1.1z" stroke="#000" stroke-width=".05"/><path d="M57.64 284.85l24.5-35.94" stroke="#000" stroke-width="2" fill="none"/><path d="M58.48 285.4l-.57.82-1.67-1.1.6-.85zM83.53 248.63l-.6.87-1.64-1.13.55-.82z" stroke="#000" stroke-width=".05"/><defs><path d="M134-131c28 9 52 24 51 62-1 50-34 73-85 73S17-19 16-69c0-36 21-54 49-61-75-25-45-126 34-121 46 3 78 18 79 63 0 33-17 51-44 57zm-34-11c31 1 46-15 46-44 0-28-17-43-47-42-29 0-46 13-45 42 1 28 16 44 46 44zm1 122c35 0 51-18 51-52 0-30-18-46-53-46-33 0-51 17-51 47 0 34 19 51 53 51" id="j"/><use transform="matrix(0.08703703703703697,0,0,0.08703703703703697,0,0)" xlink:href="#j" id="a"/><path d="M110-160c48 1 74 30 74 79 0 53-28 85-80 85-65 0-83-55-86-122-5-90 50-162 133-122 14 7 22 21 27 39l-31 6c-5-40-67-38-82-6-9 19-15 44-15 74 11-20 30-34 60-33zm-7 138c34 0 49-23 49-58s-16-56-50-56c-29 0-50 16-49 49 1 36 15 65 50 65" id="k"/><use transform="matrix(0.08703703703703697,0,0,0.08703703703703697,0,0)" xlink:href="#k" id="b"/><path d="M27 0v-27h64v-190l-56 39v-29l58-41h29v221h61V0H27" id="l"/><path d="M101-251c68 0 85 55 85 127S166 4 100 4C33 4 14-52 14-124c0-73 17-127 87-127zm-1 229c47 0 54-49 54-102s-4-102-53-102c-51 0-55 48-55 102 0 53 5 102 54 102" id="m"/><g id="c"><use transform="matrix(0.08703703703703697,0,0,0.08703703703703697,0,0)" xlink:href="#l"/><use transform="matrix(0.08703703703703697,0,0,0.08703703703703697,17.407407407407394,0)" xlink:href="#m"/></g><path d="M126-127c33 6 58 20 58 59 0 88-139 92-164 29-3-8-5-16-6-25l32-3c6 27 21 44 54 44 32 0 52-15 52-46 0-38-36-46-79-43v-28c39 1 72-4 72-42 0-27-17-43-46-43-28 0-47 15-49 41l-32-3c6-42 35-63 81-64 48-1 79 21 79 65 0 36-21 52-52 59" id="n"/><use transform="matrix(0.08703703703703697,0,0,0.08703703703703697,0,0)" xlink:href="#n" id="d"/><path d="M64 0c3-98 48-159 88-221H18v-27h164v26C143-157 98-101 97 0H64" id="o"/><use transform="matrix(0.08703703703703697,0,0,0.08703703703703697,0,0)" xlink:href="#o" id="e"/><path d="M99-251c64 0 84 50 84 122C183-37 130 33 47-8c-14-7-20-23-25-40l30-5c6 39 69 39 84 7 9-19 16-44 16-74-10 22-31 35-62 35-49 0-73-33-73-83 0-54 28-83 82-83zm-1 141c31-1 51-18 51-49 0-36-14-67-51-67-34 0-49 23-49 58 0 34 15 58 49 58" id="p"/><use transform="matrix(0.08703703703703697,0,0,0.08703703703703697,0,0)" xlink:href="#p" id="f"/><path d="M101-251c82-7 93 87 43 132L82-64C71-53 59-42 53-27h129V0H18c2-99 128-94 128-182 0-28-16-43-45-43s-46 15-49 41l-32-3c6-41 34-60 81-64" id="q"/><g id="g"><use transform="matrix(0.08703703703703697,0,0,0.08703703703703697,0,0)" xlink:href="#l"/><use transform="matrix(0.08703703703703697,0,0,0.08703703703703697,17.407407407407394,0)" xlink:href="#q"/></g><path d="M155-56V0h-30v-56H8v-25l114-167h33v167h35v25h-35zm-30-156c-27 46-58 90-88 131h88v-131" id="r"/><use transform="matrix(0.08703703703703697,0,0,0.08703703703703697,0,0)" xlink:href="#r" id="h"/><use transform="matrix(0.08703703703703697,0,0,0.08703703703703697,0,0)" xlink:href="#l" id="i"/></defs></g></svg>