<svg xmlns="http://www.w3.org/2000/svg" xmlns:xlink="http://www.w3.org/1999/xlink" xmlns:lucid="lucid" width="418" height="296"><g transform="translate(0 0)" lucid:page-tab-id="0_0"><path d="M0 0h1760v1360H0z" fill="#fff"/><path d="M200 50c0 16.57-13.43 30-30 30s-30-13.43-30-30 13.43-30 30-30 30 13.43 30 30z" stroke="#000" stroke-width="2" fill="#fff"/><use xlink:href="#a" transform="matrix(1,0,0,1,145,25) translate(16.296296296296305 34.766666666666666)"/><path d="M80 150c0 16.57-13.43 30-30 30s-30-13.43-30-30 13.43-30 30-30 30 13.43 30 30z" stroke="#000" stroke-width="2" fill="#fff"/><use xlink:href="#b" transform="matrix(1,0,0,1,25,125) translate(16.296296296296305 34.766666666666666)"/><path d="M320 150c0 16.57-13.43 30-30 30s-30-13.43-30-30 13.43-30 30-30 30 13.43 30 30z" stroke="#000" stroke-width="2" fill="#fff"/><use xlink:href="#c" transform="matrix(1,0,0,1,265,125) translate(16.296296296296305 34.766666666666666)"/><path d="M240 250c0 16.57-13.43 30-30 30s-30-13.43-30-30 13.43-30 30-30 30 13.43 30 30z" stroke="#000" stroke-width="2" fill="#fff"/><use xlink:href="#d" transform="matrix(1,0,0,1,185,225) translate(16.296296296296305 34.766666666666666)"/><path d="M400 250c0 16.57-13.43 30-30 30s-30-13.43-30-30 13.43-30 30-30 30 13.43 30 30z" stroke="#000" stroke-width="2" fill="#fff"/><use xlink:href="#e" transform="matrix(1,0,0,1,345,225) translate(16.296296296296305 34.766666666666666)"/><path d="M145.48 70.44l-70.96 59.12" stroke="#000" stroke-width="2" fill="none"/><path d="M146.85 70.6l-.75.62-1.28-1.54.82-.68zM75.18 130.32l-.82.68-1.2-1.6.74-.62z" stroke="#000" stroke-width=".05"/><path d="M194.54 70.45l70.92 59.1" stroke="#000" stroke-width="2" fill="none"/><path d="M195.2 69.7l-1.28 1.53-.83-.7 1.28-1.37.06-.1zM266.9 129.46l-1.28 1.38-.06.1-.76-.64 1.28-1.53z" stroke="#000" stroke-width=".05"/><path d="M270.02 174.97l-40.04 50.06" stroke="#000" stroke-width="2" fill="none"/><path d="M270.84 174.38l.62.4-.67.84-1.58-1.25.7-.86zM230.78 225.63l-.7.86-.92-.88-.62-.4.68-.84z" stroke="#000" stroke-width=".05"/><path d="M309.93 174.9l40.14 50.2" stroke="#000" stroke-width="2" fill="none"/><path d="M310.73 174.3l-1.56 1.26-.66-.82 1.6-1.22zM351.5 225.26l-1.6 1.22-.63-.8 1.56-1.24z" stroke="#000" stroke-width=".05"/><defs><path d="M54-142c48-35 137-8 131 61C196 18 31 33 14-55l32-4c7 23 22 37 52 37 35-1 51-22 54-58 4-55-73-65-99-34H22l8-134h141v27H59" id="f"/><use transform="matrix(0.08703703703703697,0,0,0.08703703703703697,0,0)" xlink:href="#f" id="a"/><path d="M101-251c82-7 93 87 43 132L82-64C71-53 59-42 53-27h129V0H18c2-99 128-94 128-182 0-28-16-43-45-43s-46 15-49 41l-32-3c6-41 34-60 81-64" id="g"/><use transform="matrix(0.08703703703703697,0,0,0.08703703703703697,0,0)" xlink:href="#g" id="b"/><path d="M134-131c28 9 52 24 51 62-1 50-34 73-85 73S17-19 16-69c0-36 21-54 49-61-75-25-45-126 34-121 46 3 78 18 79 63 0 33-17 51-44 57zm-34-11c31 1 46-15 46-44 0-28-17-43-47-42-29 0-46 13-45 42 1 28 16 44 46 44zm1 122c35 0 51-18 51-52 0-30-18-46-53-46-33 0-51 17-51 47 0 34 19 51 53 51" id="h"/><use transform="matrix(0.08703703703703697,0,0,0.08703703703703697,0,0)" xlink:href="#h" id="c"/><path d="M110-160c48 1 74 30 74 79 0 53-28 85-80 85-65 0-83-55-86-122-5-90 50-162 133-122 14 7 22 21 27 39l-31 6c-5-40-67-38-82-6-9 19-15 44-15 74 11-20 30-34 60-33zm-7 138c34 0 49-23 49-58s-16-56-50-56c-29 0-50 16-49 49 1 36 15 65 50 65" id="i"/><use transform="matrix(0.08703703703703697,0,0,0.08703703703703697,0,0)" xlink:href="#i" id="d"/><path d="M99-251c64 0 84 50 84 122C183-37 130 33 47-8c-14-7-20-23-25-40l30-5c6 39 69 39 84 7 9-19 16-44 16-74-10 22-31 35-62 35-49 0-73-33-73-83 0-54 28-83 82-83zm-1 141c31-1 51-18 51-49 0-36-14-67-51-67-34 0-49 23-49 58 0 34 15 58 49 58" id="j"/><use transform="matrix(0.08703703703703697,0,0,0.08703703703703697,0,0)" xlink:href="#j" id="e"/></defs></g></svg>