<svg xmlns="http://www.w3.org/2000/svg" xmlns:xlink="http://www.w3.org/1999/xlink" xmlns:lucid="lucid" width="681.5" height="542"><g transform="translate(0.00004999999843136038 1.0000000000000036)" lucid:page-tab-id="0_0"><path d="M0 0h1760v1360H0z" fill="#fff"/><path d="M300 32a12 12 0 0 1 12-12h55a12 12 0 0 1 12 12v56a12 12 0 0 1-12 12h-55a12 12 0 0 1-12-12z" stroke="#000" stroke-width="2" fill="#fff"/><path d="M300 60h79" stroke="#000" stroke-width="2" fill="none"/><path d="M300.03 61H299v-2h1.03zM380 61h-1.03v-2H380z" stroke="#000" stroke-width=".05"/><path d="M319 20h40v40h-40z" stroke="#000" stroke-opacity="0" stroke-width="2" fill="#fff" fill-opacity="0"/><use xlink:href="#a" transform="matrix(1,0,0,1,324.0000499999966,24.999999999999996) translate(0.1314814814814902 24.733333333333324)"/><path d="M319 60h40v40h-40z" stroke="#000" stroke-opacity="0" stroke-width="2" fill="#fff" fill-opacity="0"/><use xlink:href="#b" transform="matrix(1,0,0,1,324.0000499999966,65) translate(8.148148148148152 24.733333333333324)"/><path d="M102 172a12 12 0 0 1 12-12h55a12 12 0 0 1 12 12v56a12 12 0 0 1-12 12h-55a12 12 0 0 1-12-12z" stroke="#000" stroke-width="2" fill="#fff"/><path d="M102 200h79" stroke="#000" stroke-width="2" fill="none"/><path d="M102.03 201H101v-2h1.03zM182 201h-1.03v-2H182z" stroke="#000" stroke-width=".05"/><path d="M121 160h40v40h-40z" stroke="#000" stroke-opacity="0" stroke-width="2" fill="#fff" fill-opacity="0"/><use xlink:href="#c" transform="matrix(1,0,0,1,125.99995000000163,165) translate(-0.5537037037036967 24.733333333333324)"/><path d="M121 200h40v40h-40z" stroke="#000" stroke-opacity="0" stroke-width="2" fill="#fff" fill-opacity="0"/><use xlink:href="#d" transform="matrix(1,0,0,1,125.99995000000163,205) translate(8.148148148148152 24.733333333333324)"/><path d="M300.74 96.24l-158.8 63.4" stroke="#000" stroke-width="2" fill="none"/><path d="M301.48 95.64l.88 1.03-1.27.5-.75-1.85.75-.3zM142.1 160h-3.8l3.28-1.3z" stroke="#000" stroke-width=".05"/><path d="M501.5 172a12 12 0 0 1 12-12h55a12 12 0 0 1 12 12v56a12 12 0 0 1-12 12h-55a12 12 0 0 1-12-12z" stroke="#000" stroke-width="2" fill="#fff"/><path d="M501.5 200h79" stroke="#000" stroke-width="2" fill="none"/><path d="M501.53 201h-1.03v-2h1.03zM581.5 201h-1.03v-2h1.03z" stroke="#000" stroke-width=".05"/><path d="M520.5 160h40v40h-40z" stroke="#000" stroke-opacity="0" stroke-width="2" fill="#fff" fill-opacity="0"/><use xlink:href="#e" transform="matrix(1,0,0,1,525.5000249999975,165) translate(0.1314814814814902 24.733333333333324)"/><path d="M520.5 200h40v40h-40z" stroke="#000" stroke-opacity="0" stroke-width="2" fill="#fff" fill-opacity="0"/><use xlink:href="#f" transform="matrix(1,0,0,1,525.5000249999975,205) translate(8.148148148148152 24.733333333333324)"/><path d="M378.55 95.85l161.02 63.78" stroke="#000" stroke-width="2" fill="none"/><path d="M378.94 94.93l-.74 1.86-1.24-.5.56-.66.63-1.03zM543.2 160h-3.8l.5-1.3z" stroke="#000" stroke-width=".05"/><path d="M421.5 312a12 12 0 0 1 12-12h55a12 12 0 0 1 12 12v56a12 12 0 0 1-12 12h-55a12 12 0 0 1-12-12z" stroke="#000" stroke-width="2" fill="#fff"/><path d="M421.5 340h79" stroke="#000" stroke-width="2" fill="none"/><path d="M421.53 341h-1.03v-2h1.03zM501.5 341h-1.03v-2h1.03z" stroke="#000" stroke-width=".05"/><path d="M440.5 300h40v40h-40z" stroke="#000" stroke-opacity="0" stroke-width="2" fill="#fff" fill-opacity="0"/><use xlink:href="#g" transform="matrix(1,0,0,1,445.50002499999744,305) translate(-0.5537037037036967 24.733333333333324)"/><path d="M440.5 340h40v40h-40z" stroke="#000" stroke-opacity="0" stroke-width="2" fill="#fff" fill-opacity="0"/><use xlink:href="#b" transform="matrix(1,0,0,1,445.50002499999744,345) translate(8.148148148148152 24.733333333333324)"/><path d="M504 238.23l-41.48 60.94" stroke="#000" stroke-width="2" fill="none"/><path d="M504.3 237.2l1 .86-.5.75-1.65-1.1.7-1.04zM463.36 299.7l-.2.3h-2.42l.96-1.4z" stroke="#000" stroke-width=".05"/><path d="M182 312a12 12 0 0 1 12-12h55a12 12 0 0 1 12 12v56a12 12 0 0 1-12 12h-55a12 12 0 0 1-12-12z" stroke="#000" stroke-width="2" fill="#fff"/><path d="M182 340h79" stroke="#000" stroke-width="2" fill="none"/><path d="M182.03 341H181v-2h1.03zM262 341h-1.03v-2H262z" stroke="#000" stroke-width=".05"/><path d="M201 300h40v40h-40z" stroke="#000" stroke-opacity="0" stroke-width="2" fill="#fff" fill-opacity="0"/><use xlink:href="#h" transform="matrix(1,0,0,1,205.99995000000163,305) translate(-0.5537037037036967 24.733333333333324)"/><path d="M201 340h40v40h-40z" stroke="#000" stroke-opacity="0" stroke-width="2" fill="#fff" fill-opacity="0"/><use xlink:href="#i" transform="matrix(1,0,0,1,205.99995000000163,345) translate(8.148148148148152 24.733333333333324)"/><path d="M177.94 238.72l41.96 60.46" stroke="#000" stroke-width="2" fill="none"/><path d="M178.78 238.17l-1.65 1.14-.53-.76.04-.02 1.5-1.28zM221.7 300h-2.44l-.2-.27 1.65-1.14z" stroke="#000" stroke-width=".05"/><path d="M21 312a12 12 0 0 1 12-12h55a12 12 0 0 1 12 12v56a12 12 0 0 1-12 12H33a12 12 0 0 1-12-12z" stroke="#000" stroke-width="2" fill="#fff"/><path d="M21 340h79" stroke="#000" stroke-width="2" fill="none"/><path d="M21.03 341H20v-2h1.03zM101 341h-1.03v-2H101z" stroke="#000" stroke-width=".05"/><path d="M40 300h40v40H40z" stroke="#000" stroke-opacity="0" stroke-width="2" fill="#fff" fill-opacity="0"/><use xlink:href="#j" transform="matrix(1,0,0,1,45.00000000000003,305) translate(-0.5537037037036967 24.733333333333324)"/><path d="M40 340h40v40H40z" stroke="#000" stroke-opacity="0" stroke-width="2" fill="#fff" fill-opacity="0"/><use xlink:href="#f" transform="matrix(1,0,0,1,45.00000000000003,345) translate(8.148148148148152 24.733333333333324)"/><path d="M105.2 238.84L61.1 298.2" stroke="#000" stroke-width="2" fill="none"/><path d="M106.36 238.52l.22.14-.6.8-1.6-1.2.66-.87zM61.9 298.77l-.15.23h-2.5l1.06-1.42z" stroke="#000" stroke-width=".05"/><path d="M242 452a12 12 0 0 1 12-12h55a12 12 0 0 1 12 12v56a12 12 0 0 1-12 12h-55a12 12 0 0 1-12-12z" stroke="#000" stroke-width="2" fill="#fff"/><path d="M242 480h79" stroke="#000" stroke-width="2" fill="none"/><path d="M242.03 481H241v-2h1.03zM322 481h-1.03v-2H322z" stroke="#000" stroke-width=".05"/><path d="M261 440h40v40h-40z" stroke="#000" stroke-opacity="0" stroke-width="2" fill="#fff" fill-opacity="0"/><use xlink:href="#k" transform="matrix(1,0,0,1,265.9999500000016,445) translate(3.591666666666672 24.733333333333324)"/><path d="M261 480h40v40h-40z" stroke="#000" stroke-opacity="0" stroke-width="2" fill="#fff" fill-opacity="0"/><use xlink:href="#l" transform="matrix(1,0,0,1,265.9999500000016,485) translate(8.148148148148152 24.733333333333324)"/><path d="M257.86 378.7l20.58 59.36" stroke="#000" stroke-width="2" fill="none"/><path d="M258.8 378.4l-1.88.66-.2-.6 1.47-1.26.13-.17zM279.82 439h-2.1l-.24-.64 1.9-.66z" stroke="#000" stroke-width=".05"/><path d="M361 452a12 12 0 0 1 12-12h55a12 12 0 0 1 12 12v56a12 12 0 0 1-12 12h-55a12 12 0 0 1-12-12z" stroke="#000" stroke-width="2" fill="#fff"/><path d="M361 480h79" stroke="#000" stroke-width="2" fill="none"/><path d="M361.03 481H360v-2h1.03zM441 481h-1.03v-2H441z" stroke="#000" stroke-width=".05"/><path d="M380 440h40v40h-40z" stroke="#000" stroke-opacity="0" stroke-width="2" fill="#fff" fill-opacity="0"/><use xlink:href="#m" transform="matrix(1,0,0,1,384.9999999999999,445) translate(-0.5537037037036967 24.733333333333324)"/><path d="M380 480h40v40h-40z" stroke="#000" stroke-opacity="0" stroke-width="2" fill="#fff" fill-opacity="0"/><use xlink:href="#l" transform="matrix(1,0,0,1,384.9999999999999,485) translate(8.148148148148152 24.733333333333324)"/><path d="M425.4 379.4l-25 59.68" stroke="#000" stroke-width="2" fill="none"/><path d="M425.86 378.52l.8.5-.34.78-1.85-.78.52-1.24zM401.32 439.44l-.24.56h-2.16l.55-1.33z" stroke="#000" stroke-width=".05"/><path d="M482 452a12 12 0 0 1 12-12h55a12 12 0 0 1 12 12v56a12 12 0 0 1-12 12h-55a12 12 0 0 1-12-12z" stroke="#000" stroke-width="2" fill="#fff"/><path d="M482 480h79" stroke="#000" stroke-width="2" fill="none"/><path d="M482.03 481H481v-2h1.03zM562 481h-1.03v-2H562z" stroke="#000" stroke-width=".05"/><path d="M501 440h40v40h-40z" stroke="#000" stroke-opacity="0" stroke-width="2" fill="#fff" fill-opacity="0"/><use xlink:href="#n" transform="matrix(1,0,0,1,505.9999500000017,445) translate(2.221296296296302 24.733333333333324)"/><path d="M501 480h40v40h-40z" stroke="#000" stroke-opacity="0" stroke-width="2" fill="#fff" fill-opacity="0"/><use xlink:href="#l" transform="matrix(1,0,0,1,505.9999500000017,485) translate(8.148148148148152 24.733333333333324)"/><path d="M496.5 379.46l22.27 59.6" stroke="#000" stroke-width="2" fill="none"/><path d="M497.44 379.13l-1.88.7-.3-.78.88-.53.8-.7zM520.2 440h-2.14l-.23-.6 1.87-.7z" stroke="#000" stroke-width=".05"/><path d="M581.5 312a12 12 0 0 1 12-12h55a12 12 0 0 1 12 12v56a12 12 0 0 1-12 12h-55a12 12 0 0 1-12-12z" stroke="#000" stroke-width="2" fill="#fff"/><path d="M581.5 340h79" stroke="#000" stroke-width="2" fill="none"/><path d="M581.53 341h-1.03v-2h1.03zM661.5 341h-1.03v-2h1.03z" stroke="#000" stroke-width=".05"/><path d="M600.5 300h40v40h-40z" stroke="#000" stroke-opacity="0" stroke-width="2" fill="#fff" fill-opacity="0"/><use xlink:href="#o" transform="matrix(1,0,0,1,605.5000249999978,305) translate(2.872222222222229 24.733333333333324)"/><path d="M600.5 340h40v40h-40z" stroke="#000" stroke-opacity="0" stroke-width="2" fill="#fff" fill-opacity="0"/><use xlink:href="#l" transform="matrix(1,0,0,1,605.5000249999978,345) translate(8.148148148148152 24.733333333333324)"/><path d="M578.26 238.02l41.68 61.15" stroke="#000" stroke-width="2" fill="none"/><path d="M579.1 237.48l-1.65 1.13-.52-.75.77-.66.67-.8zM621.7 300h-2.4l-.2-.28 1.65-1.13z" stroke="#000" stroke-width=".05"/><path d="M81 452a12 12 0 0 1 12-12h55a12 12 0 0 1 12 12v56a12 12 0 0 1-12 12H93a12 12 0 0 1-12-12z" stroke="#000" stroke-width="2" fill="#fff"/><path d="M81 480h79" stroke="#000" stroke-width="2" fill="none"/><path d="M81.03 481H80v-2h1.03zM161 481h-1.03v-2H161z" stroke="#000" stroke-width=".05"/><path d="M100 440h40v40h-40z" stroke="#000" stroke-opacity="0" stroke-width="2" fill="#fff" fill-opacity="0"/><use xlink:href="#p" transform="matrix(1,0,0,1,104.99999999999844,445) translate(-0.5537037037036967 24.733333333333324)"/><path d="M100 480h40v40h-40z" stroke="#000" stroke-opacity="0" stroke-width="2" fill="#fff" fill-opacity="0"/><use xlink:href="#i" transform="matrix(1,0,0,1,104.99999999999844,485) translate(8.148148148148152 24.733333333333324)"/><path d="M96 379.45l23.63 59.62" stroke="#000" stroke-width="2" fill="none"/><path d="M96.95 379.1l-1.86.74-.32-.8.86-.52.8-.7zM121.08 440h-2.16l-.23-.58 1.85-.74z" stroke="#000" stroke-width=".05"/><defs><path d="M109-170H84l-4-78h32zm-65 0H19l-4-78h33" id="q"/><path d="M143 0L79-87 56-68V0H24v-261h32v163l83-92h37l-77 82L181 0h-38" id="r"/><g id="a"><use transform="matrix(0.06851851851851848,0,0,0.06851851851851848,0,0)" xlink:href="#q"/><use transform="matrix(0.06851851851851848,0,0,0.06851851851851848,8.701851851851847,0)" xlink:href="#r"/><use transform="matrix(0.06851851851851848,0,0,0.06851851851851848,21.035185185185174,0)" xlink:href="#q"/></g><path d="M27 0v-27h64v-190l-56 39v-29l58-41h29v221h61V0H27" id="s"/><use transform="matrix(0.06851851851851848,0,0,0.06851851851851848,0,0)" xlink:href="#s" id="b"/><path d="M100-194c63 0 86 42 84 106H49c0 40 14 67 53 68 26 1 43-12 49-29l28 8c-11 28-37 45-77 45C44 4 14-33 15-96c1-61 26-98 85-98zm52 81c6-60-76-77-97-28-3 7-6 17-6 28h103" id="t"/><g id="c"><use transform="matrix(0.06851851851851848,0,0,0.06851851851851848,0,0)" xlink:href="#q"/><use transform="matrix(0.06851851851851848,0,0,0.06851851851851848,8.701851851851847,0)" xlink:href="#t"/><use transform="matrix(0.06851851851851848,0,0,0.06851851851851848,22.40555555555554,0)" xlink:href="#q"/></g><path d="M54-142c48-35 137-8 131 61C196 18 31 33 14-55l32-4c7 23 22 37 52 37 35-1 51-22 54-58 4-55-73-65-99-34H22l8-134h141v27H59" id="u"/><use transform="matrix(0.06851851851851848,0,0,0.06851851851851848,0,0)" xlink:href="#u" id="d"/><path d="M135-143c-3-34-86-38-87 0 15 53 115 12 119 90S17 21 10-45l28-5c4 36 97 45 98 0-10-56-113-15-118-90-4-57 82-63 122-42 12 7 21 19 24 35" id="v"/><g id="e"><use transform="matrix(0.06851851851851848,0,0,0.06851851851851848,0,0)" xlink:href="#q"/><use transform="matrix(0.06851851851851848,0,0,0.06851851851851848,8.701851851851847,0)" xlink:href="#v"/><use transform="matrix(0.06851851851851848,0,0,0.06851851851851848,21.035185185185174,0)" xlink:href="#q"/></g><path d="M155-56V0h-30v-56H8v-25l114-167h33v167h35v25h-35zm-30-156c-27 46-58 90-88 131h88v-131" id="w"/><use transform="matrix(0.06851851851851848,0,0,0.06851851851851848,0,0)" xlink:href="#w" id="f"/><path d="M100-194c62-1 85 37 85 99 1 63-27 99-86 99S16-35 15-95c0-66 28-99 85-99zM99-20c44 1 53-31 53-75 0-43-8-75-51-75s-53 32-53 75 10 74 51 75" id="x"/><g id="g"><use transform="matrix(0.06851851851851848,0,0,0.06851851851851848,0,0)" xlink:href="#q"/><use transform="matrix(0.06851851851851848,0,0,0.06851851851851848,8.701851851851847,0)" xlink:href="#x"/><use transform="matrix(0.06851851851851848,0,0,0.06851851851851848,22.40555555555554,0)" xlink:href="#q"/></g><path d="M106-169C34-169 62-67 57 0H25v-261h32l-1 103c12-21 28-36 61-36 89 0 53 116 60 194h-32v-121c2-32-8-49-39-48" id="y"/><g id="h"><use transform="matrix(0.06851851851851848,0,0,0.06851851851851848,0,0)" xlink:href="#q"/><use transform="matrix(0.06851851851851848,0,0,0.06851851851851848,8.701851851851847,0)" xlink:href="#y"/><use transform="matrix(0.06851851851851848,0,0,0.06851851851851848,22.40555555555554,0)" xlink:href="#q"/></g><path d="M101-251c82-7 93 87 43 132L82-64C71-53 59-42 53-27h129V0H18c2-99 128-94 128-182 0-28-16-43-45-43s-46 15-49 41l-32-3c6-41 34-60 81-64" id="z"/><use transform="matrix(0.06851851851851848,0,0,0.06851851851851848,0,0)" xlink:href="#z" id="i"/><path d="M141-36C126-15 110 5 73 4 37 3 15-17 15-53c-1-64 63-63 125-63 3-35-9-54-41-54-24 1-41 7-42 31l-33-3c5-37 33-52 76-52 45 0 72 20 72 64v82c-1 20 7 32 28 27v20c-31 9-61-2-59-35zM48-53c0 20 12 33 32 33 41-3 63-29 60-74-43 2-92-5-92 41" id="A"/><g id="j"><use transform="matrix(0.06851851851851848,0,0,0.06851851851851848,0,0)" xlink:href="#q"/><use transform="matrix(0.06851851851851848,0,0,0.06851851851851848,8.701851851851847,0)" xlink:href="#A"/><use transform="matrix(0.06851851851851848,0,0,0.06851851851851848,22.40555555555554,0)" xlink:href="#q"/></g><path d="M24-231v-30h32v30H24zM24 0v-190h32V0H24" id="B"/><g id="k"><use transform="matrix(0.06851851851851848,0,0,0.06851851851851848,0,0)" xlink:href="#q"/><use transform="matrix(0.06851851851851848,0,0,0.06851851851851848,8.701851851851847,0)" xlink:href="#B"/><use transform="matrix(0.06851851851851848,0,0,0.06851851851851848,14.114814814814807,0)" xlink:href="#q"/></g><path d="M126-127c33 6 58 20 58 59 0 88-139 92-164 29-3-8-5-16-6-25l32-3c6 27 21 44 54 44 32 0 52-15 52-46 0-38-36-46-79-43v-28c39 1 72-4 72-42 0-27-17-43-46-43-28 0-47 15-49 41l-32-3c6-42 35-63 81-64 48-1 79 21 79 65 0 36-21 52-52 59" id="C"/><use transform="matrix(0.06851851851851848,0,0,0.06851851851851848,0,0)" xlink:href="#C" id="l"/><path d="M117-194c89-4 53 116 60 194h-32v-121c0-31-8-49-39-48C34-167 62-67 57 0H25l-1-190h30c1 10-1 24 2 32 11-22 29-35 61-36" id="D"/><g id="m"><use transform="matrix(0.06851851851851848,0,0,0.06851851851851848,0,0)" xlink:href="#q"/><use transform="matrix(0.06851851851851848,0,0,0.06851851851851848,8.701851851851847,0)" xlink:href="#D"/><use transform="matrix(0.06851851851851848,0,0,0.06851851851851848,22.40555555555554,0)" xlink:href="#q"/></g><path d="M114-163C36-179 61-72 57 0H25l-1-190h30c1 12-1 29 2 39 6-27 23-49 58-41v29" id="E"/><g id="n"><use transform="matrix(0.06851851851851848,0,0,0.06851851851851848,0,0)" xlink:href="#q"/><use transform="matrix(0.06851851851851848,0,0,0.06851851851851848,8.701851851851847,0)" xlink:href="#E"/><use transform="matrix(0.06851851851851848,0,0,0.06851851851851848,16.855555555555547,0)" xlink:href="#q"/></g><path d="M59-47c-2 24 18 29 38 22v24C64 9 27 4 27-40v-127H5v-23h24l9-43h21v43h35v23H59v120" id="F"/><g id="o"><use transform="matrix(0.06851851851851848,0,0,0.06851851851851848,0,0)" xlink:href="#q"/><use transform="matrix(0.06851851851851848,0,0,0.06851851851851848,8.701851851851847,0)" xlink:href="#F"/><use transform="matrix(0.06851851851851848,0,0,0.06851851851851848,15.553703703703695,0)" xlink:href="#q"/></g><path d="M85-194c31 0 48 13 60 33l-1-100h32l1 261h-30c-2-10 0-23-3-31C134-8 116 4 85 4 32 4 16-35 15-94c0-66 23-100 70-100zm9 24c-40 0-46 34-46 75 0 40 6 74 45 74 42 0 51-32 51-76 0-42-9-74-50-73" id="G"/><g id="p"><use transform="matrix(0.06851851851851848,0,0,0.06851851851851848,0,0)" xlink:href="#q"/><use transform="matrix(0.06851851851851848,0,0,0.06851851851851848,8.701851851851847,0)" xlink:href="#G"/><use transform="matrix(0.06851851851851848,0,0,0.06851851851851848,22.40555555555554,0)" xlink:href="#q"/></g></defs></g></svg>