<svg xmlns="http://www.w3.org/2000/svg" xmlns:xlink="http://www.w3.org/1999/xlink" xmlns:lucid="lucid" width="582" height="505"><g transform="translate(0.9999999999999929 1)" lucid:page-tab-id="0_0"><path d="M0 0h1760v1360H0z" fill="#fff"/><path d="M80 250.5c0 16.3-13.43 29.5-30 29.5s-30-13.2-30-29.5S33.43 221 50 221s30 13.2 30 29.5z" stroke="#333" stroke-width="2" fill="#fff"/><use xlink:href="#a" transform="matrix(1,0,0,1,25.000000000000007,226.00000000000003) translate(12.3888888888889 17.999999999999986)"/><use xlink:href="#b" transform="matrix(1,0,0,1,25.000000000000007,226.00000000000003) translate(7.277777777777793 41.999999999999964)"/><path d="M380 351.5c0 16.85-13.43 30.5-30 30.5s-30-13.65-30-30.5 13.43-30.5 30-30.5 30 13.65 30 30.5z" stroke="#333" stroke-width="2" fill="#fff"/><use xlink:href="#c" transform="matrix(1,0,0,1,325,326) translate(12.944444444444455 19.000000000000007)"/><use xlink:href="#d" transform="matrix(1,0,0,1,325,326) translate(12.833333333333343 42.999999999999986)"/><path d="M200 250.5c0 16.85-13.43 30.5-30 30.5s-30-13.65-30-30.5c0-16.84 13.43-30.5 30-30.5s30 13.66 30 30.5z" stroke="#333" stroke-width="2" fill="#fff"/><use xlink:href="#e" transform="matrix(1,0,0,1,145,225) translate(15.166666666666675 19.000000000000007)"/><use xlink:href="#f" transform="matrix(1,0,0,1,145,225) translate(12.833333333333343 42.999999999999986)"/><path d="M440 452.5c0 16.85-13.43 30.5-30 30.5s-30-13.65-30-30.5 13.43-30.5 30-30.5 30 13.65 30 30.5z" stroke="#333" stroke-width="2" fill="#fff"/><use xlink:href="#g" transform="matrix(1,0,0,1,385,427.00000000000006) translate(9.638888888888902 19.000000000000007)"/><use xlink:href="#h" transform="matrix(1,0,0,1,385,427.00000000000006) translate(12.833333333333343 42.999999999999986)"/><path d="M560 452.5c0 16.85-13.43 30.5-30 30.5s-30-13.65-30-30.5 13.43-30.5 30-30.5 30 13.65 30 30.5z" stroke="#333" stroke-width="2" fill="#fff"/><use xlink:href="#i" transform="matrix(1,0,0,1,505,427.00000000000006) translate(12.3888888888889 19.000000000000007)"/><use xlink:href="#j" transform="matrix(1,0,0,1,505,427.00000000000006) translate(12.833333333333343 42.999999999999986)"/><path d="M320 250.5c0 16.85-13.43 30.5-30 30.5s-30-13.65-30-30.5c0-16.84 13.43-30.5 30-30.5s30 13.66 30 30.5z" stroke="#333" stroke-width="2" fill="#fff"/><use xlink:href="#k" transform="matrix(1,0,0,1,265,225) translate(12.3888888888889 19.000000000000007)"/><use xlink:href="#l" transform="matrix(1,0,0,1,265,225) translate(12.833333333333343 42.999999999999986)"/><path d="M500 351.5c0 16.85-13.43 30.5-30 30.5s-30-13.65-30-30.5 13.43-30.5 30-30.5 30 13.65 30 30.5z" stroke="#333" stroke-width="2" fill="#fff"/><use xlink:href="#m" transform="matrix(1,0,0,1,445,326) translate(12.833333333333343 30.999999999999996)"/><path d="M453.5 379.25l-27 45.5" stroke="#000" stroke-width="2" fill="none"/><path d="M454.87 378.94l-.5.84-1.73-1.02.54-.9zM427.36 425.24l-.54.9-1.7-1.07.52-.85z" stroke="#000" stroke-width=".05"/><path d="M486.5 379.27l27 45.46" stroke="#000" stroke-width="2" fill="none"/><path d="M487.37 378.78l-1.72 1.03-.54-.9 1.76-.97zM514.9 425.1l-1.76.97-.5-.85 1.7-1.03z" stroke="#000" stroke-width=".05"/><path d="M440 250.5c0 16.85-13.43 30.5-30 30.5s-30-13.65-30-30.5c0-16.84 13.43-30.5 30-30.5s30 13.66 30 30.5z" stroke="#333" stroke-width="2" fill="#fff"/><use xlink:href="#n" transform="matrix(1,0,0,1,385,225) translate(12.833333333333343 30.999999999999996)"/><path d="M393.5 278.25l-27 45.5" stroke="#000" stroke-width="2" fill="none"/><path d="M394.87 277.94l-.5.84-1.73-1.02.54-.9zM367.36 324.24l-.54.9-1.7-1.07.52-.85z" stroke="#000" stroke-width=".05"/><path d="M426.5 278.27l27 45.46" stroke="#000" stroke-width="2" fill="none"/><path d="M427.37 277.78l-1.72 1.03-.54-.9 1.76-.97zM454.9 324.1l-1.76.97-.5-.85 1.7-1.03z" stroke="#000" stroke-width=".05"/><path d="M380 150.5c0 16.84-13.43 30.5-30 30.5s-30-13.66-30-30.5 13.43-30.5 30-30.5 30 13.66 30 30.5z" stroke="#333" stroke-width="2" fill="#fff"/><use xlink:href="#o" transform="matrix(1,0,0,1,325,125.00000000000003) translate(7.277777777777793 30.999999999999996)"/><path d="M333.4 178.18l-26.8 44.64" stroke="#000" stroke-width="2" fill="none"/><path d="M334.75 177.86l-.5.85-1.73-1.02.55-.9zM307.48 223.32l-.55.9-1.68-1.08.5-.85z" stroke="#000" stroke-width=".05"/><path d="M366.62 178.2l26.76 44.6" stroke="#000" stroke-width="2" fill="none"/><path d="M367.5 177.7l-1.72 1.04-.55-.9 1.73-.97h.02zM394.77 223.17l-1.73.96h-.02l-.5-.84 1.7-1.04z" stroke="#000" stroke-width=".05"/><path d="M140 149.5c0 16.3-13.43 29.5-30 29.5s-30-13.2-30-29.5S93.43 120 110 120s30 13.2 30 29.5z" stroke="#333" stroke-width="2" fill="#fff"/><use xlink:href="#p" transform="matrix(1,0,0,1,85,125) translate(7.277777777777793 29.499999999999996)"/><path d="M93.87 176.66l-27.74 46.69" stroke="#000" stroke-width="2" fill="none"/><path d="M94.97 176.2l.27.1-.52.9-1.72-1.03.54-.93zM67 223.83l-.54.93-1.43-.95-.27-.1.52-.9z" stroke="#000" stroke-width=".05"/><path d="M126.1 176.62l27.4 46.1" stroke="#000" stroke-width="2" fill="none"/><path d="M126.98 176.13l-1.7 1.03-.56-.93 1.77-.94zM154.9 223.1l-1.76.97-.5-.85 1.7-1.03z" stroke="#000" stroke-width=".05"/><path d="M260 49.5c0 16.3-13.43 29.5-30 29.5s-30-13.2-30-29.5S213.43 20 230 20s30 13.2 30 29.5z" stroke="#333" stroke-width="2" fill="#fff"/><use xlink:href="#q" transform="matrix(1,0,0,1,205,25) translate(7.277777777777793 29.499999999999996)"/><path d="M205.62 69.82l-71.24 59.36" stroke="#000" stroke-width="2" fill="none"/><path d="M206.88 69.82l.14.13-.78.65-1.28-1.53.82-.68zM135.04 129.93l-.82.7-1.1-1.45-.14-.13.78-.65z" stroke="#000" stroke-width=".05"/><path d="M254.26 69.92l71.14 59.88" stroke="#000" stroke-width="2" fill="none"/><path d="M254.92 69.17l-1.3 1.53-.8-.7 1.35-1.46zM326.84 129.7l-1.28 1.4-.05.1-.76-.65 1.3-1.53z" stroke="#000" stroke-width=".05"/><defs><path fill="#333" d="M109-170H84l-4-78h32zm-65 0H19l-4-78h33" id="r"/><path fill="#333" d="M100-194c63 0 86 42 84 106H49c0 40 14 67 53 68 26 1 43-12 49-29l28 8c-11 28-37 45-77 45C44 4 14-33 15-96c1-61 26-98 85-98zm52 81c6-60-76-77-97-28-3 7-6 17-6 28h103" id="s"/><g id="a"><use transform="matrix(0.055555555555555504,0,0,0.055555555555555504,0,0)" xlink:href="#r"/><use transform="matrix(0.055555555555555504,0,0,0.055555555555555504,7.055555555555549,0)" xlink:href="#s"/><use transform="matrix(0.055555555555555504,0,0,0.055555555555555504,18.16666666666665,0)" xlink:href="#r"/></g><path fill="#333" d="M87 75C49 33 22-17 22-94c0-76 28-126 65-167h31c-38 41-64 92-64 168S80 34 118 75H87" id="t"/><path fill="#333" d="M27 0v-27h64v-190l-56 39v-29l58-41h29v221h61V0H27" id="u"/><path fill="#333" d="M101-251c68 0 85 55 85 127S166 4 100 4C33 4 14-52 14-124c0-73 17-127 87-127zm-1 229c47 0 54-49 54-102s-4-102-53-102c-51 0-55 48-55 102 0 53 5 102 54 102" id="v"/><path fill="#333" d="M33-261c38 41 65 92 65 168S71 34 33 75H2C39 34 66-17 66-93S39-220 2-261h31" id="w"/><g id="b"><use transform="matrix(0.055555555555555504,0,0,0.055555555555555504,0,0)" xlink:href="#t"/><use transform="matrix(0.055555555555555504,0,0,0.055555555555555504,6.611111111111105,0)" xlink:href="#u"/><use transform="matrix(0.055555555555555504,0,0,0.055555555555555504,17.722222222222207,0)" xlink:href="#v"/><use transform="matrix(0.055555555555555504,0,0,0.055555555555555504,28.833333333333307,0)" xlink:href="#w"/></g><path fill="#333" d="M135-143c-3-34-86-38-87 0 15 53 115 12 119 90S17 21 10-45l28-5c4 36 97 45 98 0-10-56-113-15-118-90-4-57 82-63 122-42 12 7 21 19 24 35" id="x"/><g id="c"><use transform="matrix(0.055555555555555504,0,0,0.055555555555555504,0,0)" xlink:href="#r"/><use transform="matrix(0.055555555555555504,0,0,0.055555555555555504,7.055555555555549,0)" xlink:href="#x"/><use transform="matrix(0.055555555555555504,0,0,0.055555555555555504,17.05555555555554,0)" xlink:href="#r"/></g><path fill="#333" d="M126-127c33 6 58 20 58 59 0 88-139 92-164 29-3-8-5-16-6-25l32-3c6 27 21 44 54 44 32 0 52-15 52-46 0-38-36-46-79-43v-28c39 1 72-4 72-42 0-27-17-43-46-43-28 0-47 15-49 41l-32-3c6-42 35-63 81-64 48-1 79 21 79 65 0 36-21 52-52 59" id="y"/><g id="d"><use transform="matrix(0.055555555555555504,0,0,0.055555555555555504,0,0)" xlink:href="#t"/><use transform="matrix(0.055555555555555504,0,0,0.055555555555555504,6.611111111111105,0)" xlink:href="#y"/><use transform="matrix(0.055555555555555504,0,0,0.055555555555555504,17.722222222222207,0)" xlink:href="#w"/></g><path fill="#333" d="M59-47c-2 24 18 29 38 22v24C64 9 27 4 27-40v-127H5v-23h24l9-43h21v43h35v23H59v120" id="z"/><g id="e"><use transform="matrix(0.055555555555555504,0,0,0.055555555555555504,0,0)" xlink:href="#r"/><use transform="matrix(0.055555555555555504,0,0,0.055555555555555504,7.055555555555549,0)" xlink:href="#z"/><use transform="matrix(0.055555555555555504,0,0,0.055555555555555504,12.6111111111111,0)" xlink:href="#r"/></g><path fill="#333" d="M134-131c28 9 52 24 51 62-1 50-34 73-85 73S17-19 16-69c0-36 21-54 49-61-75-25-45-126 34-121 46 3 78 18 79 63 0 33-17 51-44 57zm-34-11c31 1 46-15 46-44 0-28-17-43-47-42-29 0-46 13-45 42 1 28 16 44 46 44zm1 122c35 0 51-18 51-52 0-30-18-46-53-46-33 0-51 17-51 47 0 34 19 51 53 51" id="A"/><g id="f"><use transform="matrix(0.055555555555555504,0,0,0.055555555555555504,0,0)" xlink:href="#t"/><use transform="matrix(0.055555555555555504,0,0,0.055555555555555504,6.611111111111105,0)" xlink:href="#A"/><use transform="matrix(0.055555555555555504,0,0,0.055555555555555504,17.722222222222207,0)" xlink:href="#w"/></g><path fill="#333" d="M210-169c-67 3-38 105-44 169h-31v-121c0-29-5-50-35-48C34-165 62-65 56 0H25l-1-190h30c1 10-1 24 2 32 10-44 99-50 107 0 11-21 27-35 58-36 85-2 47 119 55 194h-31v-121c0-29-5-49-35-48" id="B"/><g id="g"><use transform="matrix(0.055555555555555504,0,0,0.055555555555555504,0,0)" xlink:href="#r"/><use transform="matrix(0.055555555555555504,0,0,0.055555555555555504,7.055555555555549,0)" xlink:href="#B"/><use transform="matrix(0.055555555555555504,0,0,0.055555555555555504,23.666666666666647,0)" xlink:href="#r"/></g><g id="h"><use transform="matrix(0.055555555555555504,0,0,0.055555555555555504,0,0)" xlink:href="#t"/><use transform="matrix(0.055555555555555504,0,0,0.055555555555555504,6.611111111111105,0)" xlink:href="#u"/><use transform="matrix(0.055555555555555504,0,0,0.055555555555555504,17.722222222222207,0)" xlink:href="#w"/></g><path fill="#333" d="M106-169C34-169 62-67 57 0H25v-261h32l-1 103c12-21 28-36 61-36 89 0 53 116 60 194h-32v-121c2-32-8-49-39-48" id="C"/><g id="i"><use transform="matrix(0.055555555555555504,0,0,0.055555555555555504,0,0)" xlink:href="#r"/><use transform="matrix(0.055555555555555504,0,0,0.055555555555555504,7.055555555555549,0)" xlink:href="#C"/><use transform="matrix(0.055555555555555504,0,0,0.055555555555555504,18.16666666666665,0)" xlink:href="#r"/></g><path fill="#333" d="M101-251c82-7 93 87 43 132L82-64C71-53 59-42 53-27h129V0H18c2-99 128-94 128-182 0-28-16-43-45-43s-46 15-49 41l-32-3c6-41 34-60 81-64" id="D"/><g id="j"><use transform="matrix(0.055555555555555504,0,0,0.055555555555555504,0,0)" xlink:href="#t"/><use transform="matrix(0.055555555555555504,0,0,0.055555555555555504,6.611111111111105,0)" xlink:href="#D"/><use transform="matrix(0.055555555555555504,0,0,0.055555555555555504,17.722222222222207,0)" xlink:href="#w"/></g><path fill="#333" d="M141-36C126-15 110 5 73 4 37 3 15-17 15-53c-1-64 63-63 125-63 3-35-9-54-41-54-24 1-41 7-42 31l-33-3c5-37 33-52 76-52 45 0 72 20 72 64v82c-1 20 7 32 28 27v20c-31 9-61-2-59-35zM48-53c0 20 12 33 32 33 41-3 63-29 60-74-43 2-92-5-92 41" id="E"/><g id="k"><use transform="matrix(0.055555555555555504,0,0,0.055555555555555504,0,0)" xlink:href="#r"/><use transform="matrix(0.055555555555555504,0,0,0.055555555555555504,7.055555555555549,0)" xlink:href="#E"/><use transform="matrix(0.055555555555555504,0,0,0.055555555555555504,18.16666666666665,0)" xlink:href="#r"/></g><path fill="#333" d="M64 0c3-98 48-159 88-221H18v-27h164v26C143-157 98-101 97 0H64" id="F"/><g id="l"><use transform="matrix(0.055555555555555504,0,0,0.055555555555555504,0,0)" xlink:href="#t"/><use transform="matrix(0.055555555555555504,0,0,0.055555555555555504,6.611111111111105,0)" xlink:href="#F"/><use transform="matrix(0.055555555555555504,0,0,0.055555555555555504,17.722222222222207,0)" xlink:href="#w"/></g><g id="m"><use transform="matrix(0.055555555555555504,0,0,0.055555555555555504,0,0)" xlink:href="#t"/><use transform="matrix(0.055555555555555504,0,0,0.055555555555555504,6.611111111111105,0)" xlink:href="#y"/><use transform="matrix(0.055555555555555504,0,0,0.055555555555555504,17.722222222222207,0)" xlink:href="#w"/></g><path fill="#333" d="M110-160c48 1 74 30 74 79 0 53-28 85-80 85-65 0-83-55-86-122-5-90 50-162 133-122 14 7 22 21 27 39l-31 6c-5-40-67-38-82-6-9 19-15 44-15 74 11-20 30-34 60-33zm-7 138c34 0 49-23 49-58s-16-56-50-56c-29 0-50 16-49 49 1 36 15 65 50 65" id="G"/><g id="n"><use transform="matrix(0.055555555555555504,0,0,0.055555555555555504,0,0)" xlink:href="#t"/><use transform="matrix(0.055555555555555504,0,0,0.055555555555555504,6.611111111111105,0)" xlink:href="#G"/><use transform="matrix(0.055555555555555504,0,0,0.055555555555555504,17.722222222222207,0)" xlink:href="#w"/></g><g id="o"><use transform="matrix(0.055555555555555504,0,0,0.055555555555555504,0,0)" xlink:href="#t"/><use transform="matrix(0.055555555555555504,0,0,0.055555555555555504,6.611111111111105,0)" xlink:href="#u"/><use transform="matrix(0.055555555555555504,0,0,0.055555555555555504,17.722222222222207,0)" xlink:href="#y"/><use transform="matrix(0.055555555555555504,0,0,0.055555555555555504,28.833333333333307,0)" xlink:href="#w"/></g><g id="p"><use transform="matrix(0.055555555555555504,0,0,0.055555555555555504,0,0)" xlink:href="#t"/><use transform="matrix(0.055555555555555504,0,0,0.055555555555555504,6.611111111111105,0)" xlink:href="#u"/><use transform="matrix(0.055555555555555504,0,0,0.055555555555555504,17.722222222222207,0)" xlink:href="#A"/><use transform="matrix(0.055555555555555504,0,0,0.055555555555555504,28.833333333333307,0)" xlink:href="#w"/></g><g id="q"><use transform="matrix(0.055555555555555504,0,0,0.055555555555555504,0,0)" xlink:href="#t"/><use transform="matrix(0.055555555555555504,0,0,0.055555555555555504,6.611111111111105,0)" xlink:href="#y"/><use transform="matrix(0.055555555555555504,0,0,0.055555555555555504,17.722222222222207,0)" xlink:href="#u"/><use transform="matrix(0.055555555555555504,0,0,0.055555555555555504,28.833333333333307,0)" xlink:href="#w"/></g></defs></g></svg>