<svg xmlns="http://www.w3.org/2000/svg" xmlns:xlink="http://www.w3.org/1999/xlink" xmlns:lucid="lucid" width="702" height="103"><g transform="translate(0.9999999999999929 2.000000000000014)" lucid:page-tab-id="0_0"><path d="M0 0h1760v1360H0z" fill="#fff"/><path d="M80 49.5C80 65.8 66.57 79 50 79S20 65.8 20 49.5 33.43 20 50 20s30 13.2 30 29.5z" stroke="#333" stroke-width="2" fill="#fff"/><use xlink:href="#a" transform="matrix(1,0,0,1,25.000000000000007,24.999999999999993) translate(12.3888888888889 17.999999999999986)"/><use xlink:href="#b" transform="matrix(1,0,0,1,25.000000000000007,24.999999999999993) translate(7.277777777777793 41.999999999999964)"/><path d="M200 49.5c0 16.84-13.43 30.5-30 30.5s-30-13.66-30-30.5S153.43 19 170 19s30 13.66 30 30.5z" stroke="#333" stroke-width="2" fill="#fff"/><use xlink:href="#c" transform="matrix(1,0,0,1,145,23.999999999999986) translate(12.944444444444455 19.000000000000007)"/><use xlink:href="#d" transform="matrix(1,0,0,1,145,23.999999999999986) translate(12.833333333333343 42.999999999999986)"/><path d="M320 49.5c0 16.84-13.43 30.5-30 30.5s-30-13.66-30-30.5S273.43 19 290 19s30 13.66 30 30.5z" stroke="#333" stroke-width="2" fill="#fff"/><use xlink:href="#e" transform="matrix(1,0,0,1,265,23.99999999999999) translate(15.166666666666675 19.000000000000007)"/><use xlink:href="#f" transform="matrix(1,0,0,1,265,23.99999999999999) translate(12.833333333333343 42.999999999999986)"/><path d="M560 49.5c0 16.84-13.43 30.5-30 30.5s-30-13.66-30-30.5S513.43 19 530 19s30 13.66 30 30.5z" stroke="#333" stroke-width="2" fill="#fff"/><use xlink:href="#g" transform="matrix(1,0,0,1,505,23.99999999999999) translate(9.638888888888902 19.000000000000007)"/><use xlink:href="#h" transform="matrix(1,0,0,1,505,23.99999999999999) translate(12.833333333333343 42.999999999999986)"/><path d="M680 49.5c0 16.84-13.43 30.5-30 30.5s-30-13.66-30-30.5S633.43 19 650 19s30 13.66 30 30.5z" stroke="#333" stroke-width="2" fill="#fff"/><g><use xlink:href="#i" transform="matrix(1,0,0,1,625,23.999999999999986) translate(12.3888888888889 19.000000000000007)"/><use xlink:href="#j" transform="matrix(1,0,0,1,625,23.999999999999986) translate(12.833333333333343 42.999999999999986)"/></g><path d="M440 49.5c0 16.84-13.43 30.5-30 30.5s-30-13.66-30-30.5S393.43 19 410 19s30 13.66 30 30.5z" stroke="#333" stroke-width="2" fill="#fff"/><g><use xlink:href="#k" transform="matrix(1,0,0,1,385,23.999999999999993) translate(12.3888888888889 19.000000000000007)"/><use xlink:href="#l" transform="matrix(1,0,0,1,385,23.999999999999993) translate(12.833333333333343 42.999999999999986)"/></g><defs><path fill="#333" d="M109-170H84l-4-78h32zm-65 0H19l-4-78h33" id="m"/><path fill="#333" d="M100-194c63 0 86 42 84 106H49c0 40 14 67 53 68 26 1 43-12 49-29l28 8c-11 28-37 45-77 45C44 4 14-33 15-96c1-61 26-98 85-98zm52 81c6-60-76-77-97-28-3 7-6 17-6 28h103" id="n"/><g id="a"><use transform="matrix(0.055555555555555504,0,0,0.055555555555555504,0,0)" xlink:href="#m"/><use transform="matrix(0.055555555555555504,0,0,0.055555555555555504,7.055555555555549,0)" xlink:href="#n"/><use transform="matrix(0.055555555555555504,0,0,0.055555555555555504,18.16666666666665,0)" xlink:href="#m"/></g><path fill="#333" d="M87 75C49 33 22-17 22-94c0-76 28-126 65-167h31c-38 41-64 92-64 168S80 34 118 75H87" id="o"/><path fill="#333" d="M27 0v-27h64v-190l-56 39v-29l58-41h29v221h61V0H27" id="p"/><path fill="#333" d="M101-251c68 0 85 55 85 127S166 4 100 4C33 4 14-52 14-124c0-73 17-127 87-127zm-1 229c47 0 54-49 54-102s-4-102-53-102c-51 0-55 48-55 102 0 53 5 102 54 102" id="q"/><path fill="#333" d="M33-261c38 41 65 92 65 168S71 34 33 75H2C39 34 66-17 66-93S39-220 2-261h31" id="r"/><g id="b"><use transform="matrix(0.055555555555555504,0,0,0.055555555555555504,0,0)" xlink:href="#o"/><use transform="matrix(0.055555555555555504,0,0,0.055555555555555504,6.611111111111105,0)" xlink:href="#p"/><use transform="matrix(0.055555555555555504,0,0,0.055555555555555504,17.722222222222207,0)" xlink:href="#q"/><use transform="matrix(0.055555555555555504,0,0,0.055555555555555504,28.833333333333307,0)" xlink:href="#r"/></g><path fill="#333" d="M135-143c-3-34-86-38-87 0 15 53 115 12 119 90S17 21 10-45l28-5c4 36 97 45 98 0-10-56-113-15-118-90-4-57 82-63 122-42 12 7 21 19 24 35" id="s"/><g id="c"><use transform="matrix(0.055555555555555504,0,0,0.055555555555555504,0,0)" xlink:href="#m"/><use transform="matrix(0.055555555555555504,0,0,0.055555555555555504,7.055555555555549,0)" xlink:href="#s"/><use transform="matrix(0.055555555555555504,0,0,0.055555555555555504,17.05555555555554,0)" xlink:href="#m"/></g><path fill="#333" d="M126-127c33 6 58 20 58 59 0 88-139 92-164 29-3-8-5-16-6-25l32-3c6 27 21 44 54 44 32 0 52-15 52-46 0-38-36-46-79-43v-28c39 1 72-4 72-42 0-27-17-43-46-43-28 0-47 15-49 41l-32-3c6-42 35-63 81-64 48-1 79 21 79 65 0 36-21 52-52 59" id="t"/><g id="d"><use transform="matrix(0.055555555555555504,0,0,0.055555555555555504,0,0)" xlink:href="#o"/><use transform="matrix(0.055555555555555504,0,0,0.055555555555555504,6.611111111111105,0)" xlink:href="#t"/><use transform="matrix(0.055555555555555504,0,0,0.055555555555555504,17.722222222222207,0)" xlink:href="#r"/></g><path fill="#333" d="M59-47c-2 24 18 29 38 22v24C64 9 27 4 27-40v-127H5v-23h24l9-43h21v43h35v23H59v120" id="u"/><g id="e"><use transform="matrix(0.055555555555555504,0,0,0.055555555555555504,0,0)" xlink:href="#m"/><use transform="matrix(0.055555555555555504,0,0,0.055555555555555504,7.055555555555549,0)" xlink:href="#u"/><use transform="matrix(0.055555555555555504,0,0,0.055555555555555504,12.6111111111111,0)" xlink:href="#m"/></g><path fill="#333" d="M134-131c28 9 52 24 51 62-1 50-34 73-85 73S17-19 16-69c0-36 21-54 49-61-75-25-45-126 34-121 46 3 78 18 79 63 0 33-17 51-44 57zm-34-11c31 1 46-15 46-44 0-28-17-43-47-42-29 0-46 13-45 42 1 28 16 44 46 44zm1 122c35 0 51-18 51-52 0-30-18-46-53-46-33 0-51 17-51 47 0 34 19 51 53 51" id="v"/><g id="f"><use transform="matrix(0.055555555555555504,0,0,0.055555555555555504,0,0)" xlink:href="#o"/><use transform="matrix(0.055555555555555504,0,0,0.055555555555555504,6.611111111111105,0)" xlink:href="#v"/><use transform="matrix(0.055555555555555504,0,0,0.055555555555555504,17.722222222222207,0)" xlink:href="#r"/></g><path fill="#333" d="M210-169c-67 3-38 105-44 169h-31v-121c0-29-5-50-35-48C34-165 62-65 56 0H25l-1-190h30c1 10-1 24 2 32 10-44 99-50 107 0 11-21 27-35 58-36 85-2 47 119 55 194h-31v-121c0-29-5-49-35-48" id="w"/><g id="g"><use transform="matrix(0.055555555555555504,0,0,0.055555555555555504,0,0)" xlink:href="#m"/><use transform="matrix(0.055555555555555504,0,0,0.055555555555555504,7.055555555555549,0)" xlink:href="#w"/><use transform="matrix(0.055555555555555504,0,0,0.055555555555555504,23.666666666666647,0)" xlink:href="#m"/></g><g id="h"><use transform="matrix(0.055555555555555504,0,0,0.055555555555555504,0,0)" xlink:href="#o"/><use transform="matrix(0.055555555555555504,0,0,0.055555555555555504,6.611111111111105,0)" xlink:href="#p"/><use transform="matrix(0.055555555555555504,0,0,0.055555555555555504,17.722222222222207,0)" xlink:href="#r"/></g><path fill="#333" d="M106-169C34-169 62-67 57 0H25v-261h32l-1 103c12-21 28-36 61-36 89 0 53 116 60 194h-32v-121c2-32-8-49-39-48" id="x"/><g id="i"><use transform="matrix(0.055555555555555504,0,0,0.055555555555555504,0,0)" xlink:href="#m"/><use transform="matrix(0.055555555555555504,0,0,0.055555555555555504,7.055555555555549,0)" xlink:href="#x"/><use transform="matrix(0.055555555555555504,0,0,0.055555555555555504,18.16666666666665,0)" xlink:href="#m"/></g><path fill="#333" d="M101-251c82-7 93 87 43 132L82-64C71-53 59-42 53-27h129V0H18c2-99 128-94 128-182 0-28-16-43-45-43s-46 15-49 41l-32-3c6-41 34-60 81-64" id="y"/><g id="j"><use transform="matrix(0.055555555555555504,0,0,0.055555555555555504,0,0)" xlink:href="#o"/><use transform="matrix(0.055555555555555504,0,0,0.055555555555555504,6.611111111111105,0)" xlink:href="#y"/><use transform="matrix(0.055555555555555504,0,0,0.055555555555555504,17.722222222222207,0)" xlink:href="#r"/></g><path fill="#333" d="M141-36C126-15 110 5 73 4 37 3 15-17 15-53c-1-64 63-63 125-63 3-35-9-54-41-54-24 1-41 7-42 31l-33-3c5-37 33-52 76-52 45 0 72 20 72 64v82c-1 20 7 32 28 27v20c-31 9-61-2-59-35zM48-53c0 20 12 33 32 33 41-3 63-29 60-74-43 2-92-5-92 41" id="z"/><g id="k"><use transform="matrix(0.055555555555555504,0,0,0.055555555555555504,0,0)" xlink:href="#m"/><use transform="matrix(0.055555555555555504,0,0,0.055555555555555504,7.055555555555549,0)" xlink:href="#z"/><use transform="matrix(0.055555555555555504,0,0,0.055555555555555504,18.16666666666665,0)" xlink:href="#m"/></g><path fill="#333" d="M64 0c3-98 48-159 88-221H18v-27h164v26C143-157 98-101 97 0H64" id="A"/><g id="l"><use transform="matrix(0.055555555555555504,0,0,0.055555555555555504,0,0)" xlink:href="#o"/><use transform="matrix(0.055555555555555504,0,0,0.055555555555555504,6.611111111111105,0)" xlink:href="#A"/><use transform="matrix(0.055555555555555504,0,0,0.055555555555555504,17.722222222222207,0)" xlink:href="#r"/></g></defs></g></svg>