<svg xmlns="http://www.w3.org/2000/svg" xmlns:xlink="http://www.w3.org/1999/xlink" xmlns:lucid="lucid" width="802" height="482"><g transform="translate(1 1)" lucid:page-tab-id="0_0"><path d="M0 0h1870.4v1323.2H0z" fill="#fff"/><path d="M400 50c0 16.57-13.43 30-30 30s-30-13.43-30-30 13.43-30 30-30 30 13.43 30 30zM180 130c0 16.57-13.43 30-30 30s-30-13.43-30-30 13.43-30 30-30 30 13.43 30 30zM620 130c0 16.57-13.43 30-30 30s-30-13.43-30-30 13.43-30 30-30 30 13.43 30 30zM280 230c0 16.57-13.43 30-30 30s-30-13.43-30-30 13.43-30 30-30 30 13.43 30 30z" stroke="#333" stroke-width="2" fill="#fff"/><path d="M340 60.9l-160 58.2" stroke="#333" stroke-width="2" fill="none"/><path d="M341.26 61.52l-.94.34-.68-1.88 1-.36zM180.36 120.02l-1 .36-.62-1.9.94-.34z" stroke="#333" stroke-width=".05" fill="#333"/><use xlink:href="#a" transform="matrix(1,0,0,1,251.10970117312877,65.36762598303943) translate(0.004999999999999893 14.222222222222223)"/><path d="M127.43 152.57l-54.86 54.86" stroke="#333" stroke-width="2" fill="none"/><path d="M128.87 152.54l-.75.75-1.4-1.42.7-.7zM73.3 208.12l-.7.7-1.47-1.36.75-.75z" stroke="#333" stroke-width=".05" fill="#333"/><use xlink:href="#a" transform="matrix(1,0,0,1,86.50256848512728,158.33463080295328) translate(0.004999999999999893 14.222222222222223)"/><path d="M227.43 207.43l-54.86-54.86" stroke="#333" stroke-width="2" fill="none"/><path d="M228.82 207.4l-1.36 1.47-.75-.75 1.42-1.4zM173.3 151.88l-1.42 1.4-.7-.7 1.36-1.45z" stroke="#333" stroke-width=".05" fill="#333"/><use xlink:href="#b" transform="matrix(1,0,0,1,203.6208883049961,158.3346308029533) translate(0.004999999999999893 14.222222222222223)"/><path d="M233.57 257.38l-27.14 45.24" stroke="#333" stroke-width="2" fill="none"/><path d="M234.92 257.07l-.5.84-1.72-1 .55-.93zM207.3 303.1l-.55.93-1.67-1.1.5-.84z" stroke="#333" stroke-width=".05" fill="#333"/><use xlink:href="#a" transform="matrix(1,0,0,1,204.36348824777468,261.08485365424673) translate(0.004999999999999893 14.222222222222223)"/><path d="M266.44 257.4l27.12 45.2" stroke="#333" stroke-width="2" fill="none"/><path d="M267.3 256.9l-1.7 1.03-.56-.93 1.7-.9.06-.05zM294.96 303l-1.7.9-.06.05-.5-.85 1.7-1.03z" stroke="#333" stroke-width=".05" fill="#333"/><use xlink:href="#b" transform="matrix(1,0,0,1,285.75996854234853,261.08485365424673) translate(0.004999999999999893 14.222222222222223)"/><path d="M400.05 60.93l159.9 58.14" stroke="#333" stroke-width="2" fill="none"/><path d="M400.42 60l-.7 1.88-1.02-.38.6-1.35.13-.5zM561.3 118.5l-.6 1.35-.13.5-1-.35.7-1.88z" stroke="#333" stroke-width=".05" fill="#333"/><use xlink:href="#b" transform="matrix(1,0,0,1,479.0137556169946,65.36762598303943) translate(0.004999999999999893 14.222222222222223)"/><path d="M512.57 207.43l54.86-54.86" stroke="#333" stroke-width="2" fill="none"/><path d="M513.3 208.12l-.7.7-1.47-1.36.75-.75zM568.87 152.54l-.75.75-1.4-1.42.7-.7z" stroke="#333" stroke-width=".05" fill="#333"/><use xlink:href="#a" transform="matrix(1,0,0,1,526.5025684851273,158.33463080295334) translate(0.004999999999999893 14.222222222222223)"/><path d="M720 230c0 16.57-13.43 30-30 30s-30-13.43-30-30 13.43-30 30-30 30 13.43 30 30z" stroke="#333" stroke-width="2" fill="#fff"/><path d="M667.43 207.43l-54.86-54.86" stroke="#333" stroke-width="2" fill="none"/><path d="M668.82 207.4l-1.36 1.47-.75-.75 1.42-1.4zM613.3 151.88l-1.42 1.4-.7-.7 1.36-1.45z" stroke="#333" stroke-width=".05" fill="#333"/><use xlink:href="#b" transform="matrix(1,0,0,1,643.6208883049961,158.3346308029533) translate(0.004999999999999893 14.222222222222223)"/><path d="M673.57 257.38l-27.14 45.24" stroke="#333" stroke-width="2" fill="none"/><path d="M674.92 257.07l-.5.84-1.72-1 .55-.93zM647.3 303.1l-.55.93-1.67-1.1.5-.84z" stroke="#333" stroke-width=".05" fill="#333"/><use xlink:href="#a" transform="matrix(1,0,0,1,644.3634882477749,261.08485365424673) translate(0.004999999999999893 14.222222222222223)"/><path d="M706.44 257.4l27.12 45.2" stroke="#333" stroke-width="2" fill="none"/><path d="M707.3 256.9l-1.7 1.03-.56-.93 1.7-.9.06-.05zM734.96 303l-1.7.9-.06.05-.5-.85 1.7-1.03z" stroke="#333" stroke-width=".05" fill="#333"/><use xlink:href="#b" transform="matrix(1,0,0,1,725.7599685423487,261.08485365424673) translate(0.004999999999999893 14.222222222222223)"/><path d="M80 230c0 16.57-13.43 30-30 30s-30-13.43-30-30 13.43-30 30-30 30 13.43 30 30z" stroke="#333" stroke-width="2" fill="#fff"/><use xlink:href="#c" transform="matrix(1,0,0,1,25,205) translate(13.699444444444453 32.68055555555554)"/><path d="M220 330c0 16.57-13.43 30-30 30s-30-13.43-30-30 13.43-30 30-30 30 13.43 30 30z" stroke="#333" stroke-width="2" fill="#fff"/><use xlink:href="#d" transform="matrix(1,0,0,1,164.9999999999999,305) translate(12.98648148148149 32.68055555555554)"/><path d="M340 330c0 16.57-13.43 30-30 30s-30-13.43-30-30 13.43-30 30-30 30 13.43 30 30zM520 230c0 16.57-13.43 30-30 30s-30-13.43-30-30 13.43-30 30-30 30 13.43 30 30zM660 330c0 16.57-13.43 30-30 30s-30-13.43-30-30 13.43-30 30-30 30 13.43 30 30z" stroke="#333" stroke-width="2" fill="#fff"/><use xlink:href="#e" transform="matrix(1,0,0,1,605,305) translate(10.270432098765443 32.68055555555554)"/><path d="M780 330c0 16.57-13.43 30-30 30s-30-13.43-30-30 13.43-30 30-30 30 13.43 30 30z" stroke="#333" stroke-width="2" fill="#fff"/><use xlink:href="#f" transform="matrix(1,0,0,1,725,305) translate(9.59141975308643 32.68055555555554)"/><path d="M580 330c0 16.57-13.43 30-30 30s-30-13.43-30-30 13.43-30 30-30 30 13.43 30 30z" stroke="#333" stroke-width="2" fill="#fff"/><use xlink:href="#g" transform="matrix(1,0,0,1,525,305) translate(9.59141975308643 32.68055555555554)"/><path d="M506.44 257.4l27.12 45.2" stroke="#333" stroke-width="2" fill="none"/><path d="M507.3 256.9l-1.7 1.03-.56-.93 1.7-.9.06-.05zM534.96 303l-1.7.9-.06.05-.5-.85 1.7-1.03z" stroke="#333" stroke-width=".05" fill="#333"/><use xlink:href="#b" transform="matrix(1,0,0,1,525.7599685423487,261.08485365424673) translate(0.004999999999999893 14.222222222222223)"/><path d="M460 330c0 16.57-13.43 30-30 30s-30-13.43-30-30 13.43-30 30-30 30 13.43 30 30z" stroke="#333" stroke-width="2" fill="#fff"/><use xlink:href="#h" transform="matrix(1,0,0,1,404.99999999999994,305) translate(12.341419753086427 32.68055555555554)"/><path d="M473.57 257.38l-27.14 45.24" stroke="#333" stroke-width="2" fill="none"/><path d="M474.92 257.07l-.5.84-1.72-1 .55-.93zM447.3 303.1l-.55.93-1.67-1.1.5-.84z" stroke="#333" stroke-width=".05" fill="#333"/><use xlink:href="#a" transform="matrix(1,0,0,1,444.36348824777474,261.0848536542468) translate(0.004999999999999893 14.222222222222223)"/><path d="M280 430c0 16.57-13.43 30-30 30s-30-13.43-30-30 13.43-30 30-30 30 13.43 30 30z" stroke="#333" stroke-width="2" fill="#fff"/><use xlink:href="#i" transform="matrix(1,0,0,1,224.99999999999986,405) translate(9.59141975308643 32.68055555555554)"/><path d="M293.57 357.38l-27.14 45.24" stroke="#333" stroke-width="2" fill="none"/><path d="M294.92 357.07l-.5.84-1.72-1 .55-.93zM267.3 403.1l-.55.93-1.67-1.1.5-.84z" stroke="#333" stroke-width=".05" fill="#333"/><use xlink:href="#a" transform="matrix(1,0,0,1,264.3634882477747,361.08485365424673) translate(0.004999999999999893 14.222222222222223)"/><path d="M400 430c0 16.57-13.43 30-30 30s-30-13.43-30-30 13.43-30 30-30 30 13.43 30 30z" stroke="#333" stroke-width="2" fill="#fff"/><use xlink:href="#j" transform="matrix(1,0,0,1,345,405) translate(12.986481481481489 32.68055555555554)"/><use xlink:href="#k" transform="matrix(1,0,0,1,345,405) translate(28.40006172839506 32.68055555555554)"/><path d="M326.44 357.4l27.12 45.2" stroke="#333" stroke-width="2" fill="none"/><path d="M327.3 356.9l-1.7 1.03-.56-.93 1.7-.9.06-.05zM354.96 403l-1.7.9-.06.05-.5-.85 1.7-1.03z" stroke="#333" stroke-width=".05" fill="#333"/><use xlink:href="#b" transform="matrix(1,0,0,1,345.7599685423486,361.08485365424673) translate(0.004999999999999893 14.222222222222223)"/><defs><path fill="#333" d="M101-251c68 0 85 55 85 127S166 4 100 4C33 4 14-52 14-124c0-73 17-127 87-127zm-1 229c47 0 54-49 54-102s-4-102-53-102c-51 0-55 48-55 102 0 53 5 102 54 102" id="l"/><use transform="matrix(0.04938271604938272,0,0,0.04938271604938272,0,0)" xlink:href="#l" id="a"/><path fill="#333" d="M27 0v-27h64v-190l-56 39v-29l58-41h29v221h61V0H27" id="m"/><use transform="matrix(0.04938271604938272,0,0,0.04938271604938272,0,0)" xlink:href="#m" id="b"/><path fill="#333" d="M109-170H84l-4-78h32zm-65 0H19l-4-78h33" id="n"/><path fill="#333" d="M24-231v-30h32v30H24zM24 0v-190h32V0H24" id="o"/><g id="c"><use transform="matrix(0.06790123456790119,0,0,0.06790123456790119,0,0)" xlink:href="#n"/><use transform="matrix(0.06790123456790119,0,0,0.06790123456790119,8.62345679012345,0)" xlink:href="#o"/><use transform="matrix(0.06790123456790119,0,0,0.06790123456790119,13.987654320987644,0)" xlink:href="#n"/></g><path fill="#333" d="M59-47c-2 24 18 29 38 22v24C64 9 27 4 27-40v-127H5v-23h24l9-43h21v43h35v23H59v120" id="p"/><g id="d"><use transform="matrix(0.06790123456790119,0,0,0.06790123456790119,0,0)" xlink:href="#n"/><use transform="matrix(0.06790123456790119,0,0,0.06790123456790119,8.62345679012345,0)" xlink:href="#p"/><use transform="matrix(0.06790123456790119,0,0,0.06790123456790119,15.413580246913568,0)" xlink:href="#n"/></g><path fill="#333" d="M135-143c-3-34-86-38-87 0 15 53 115 12 119 90S17 21 10-45l28-5c4 36 97 45 98 0-10-56-113-15-118-90-4-57 82-63 122-42 12 7 21 19 24 35" id="q"/><g id="e"><use transform="matrix(0.06790123456790119,0,0,0.06790123456790119,0,0)" xlink:href="#n"/><use transform="matrix(0.06790123456790119,0,0,0.06790123456790119,8.62345679012345,0)" xlink:href="#q"/><use transform="matrix(0.06790123456790119,0,0,0.06790123456790119,20.845679012345663,0)" xlink:href="#n"/></g><path fill="#333" d="M141-36C126-15 110 5 73 4 37 3 15-17 15-53c-1-64 63-63 125-63 3-35-9-54-41-54-24 1-41 7-42 31l-33-3c5-37 33-52 76-52 45 0 72 20 72 64v82c-1 20 7 32 28 27v20c-31 9-61-2-59-35zM48-53c0 20 12 33 32 33 41-3 63-29 60-74-43 2-92-5-92 41" id="r"/><g id="f"><use transform="matrix(0.06790123456790119,0,0,0.06790123456790119,0,0)" xlink:href="#n"/><use transform="matrix(0.06790123456790119,0,0,0.06790123456790119,8.62345679012345,0)" xlink:href="#r"/><use transform="matrix(0.06790123456790119,0,0,0.06790123456790119,22.203703703703688,0)" xlink:href="#n"/></g><path fill="#333" d="M100-194c63 0 86 42 84 106H49c0 40 14 67 53 68 26 1 43-12 49-29l28 8c-11 28-37 45-77 45C44 4 14-33 15-96c1-61 26-98 85-98zm52 81c6-60-76-77-97-28-3 7-6 17-6 28h103" id="s"/><g id="g"><use transform="matrix(0.06790123456790119,0,0,0.06790123456790119,0,0)" xlink:href="#n"/><use transform="matrix(0.06790123456790119,0,0,0.06790123456790119,8.62345679012345,0)" xlink:href="#s"/><use transform="matrix(0.06790123456790119,0,0,0.06790123456790119,22.203703703703688,0)" xlink:href="#n"/></g><path fill="#333" d="M114-163C36-179 61-72 57 0H25l-1-190h30c1 12-1 29 2 39 6-27 23-49 58-41v29" id="t"/><g id="h"><use transform="matrix(0.06790123456790119,0,0,0.06790123456790119,0,0)" xlink:href="#n"/><use transform="matrix(0.06790123456790119,0,0,0.06790123456790119,8.62345679012345,0)" xlink:href="#t"/><use transform="matrix(0.06790123456790119,0,0,0.06790123456790119,16.70370370370369,0)" xlink:href="#n"/></g><path fill="#333" d="M85-194c31 0 48 13 60 33l-1-100h32l1 261h-30c-2-10 0-23-3-31C134-8 116 4 85 4 32 4 16-35 15-94c0-66 23-100 70-100zm9 24c-40 0-46 34-46 75 0 40 6 74 45 74 42 0 51-32 51-76 0-42-9-74-50-73" id="u"/><g id="i"><use transform="matrix(0.06790123456790119,0,0,0.06790123456790119,0,0)" xlink:href="#n"/><use transform="matrix(0.06790123456790119,0,0,0.06790123456790119,8.62345679012345,0)" xlink:href="#u"/><use transform="matrix(0.06790123456790119,0,0,0.06790123456790119,22.203703703703688,0)" xlink:href="#n"/></g><use transform="matrix(0.06790123456790119,0,0,0.06790123456790119,0,0)" xlink:href="#n" id="j"/><use transform="matrix(0.06790123456790119,0,0,0.06790123456790119,0,0)" xlink:href="#n" id="k"/></defs></g></svg>