<svg xmlns="http://www.w3.org/2000/svg" xmlns:xlink="http://www.w3.org/1999/xlink" xmlns:lucid="lucid" width="522" height="382"><g transform="translate(1 1)" lucid:page-tab-id="0_0"><path d="M0 0h1870.4v1323.2H0z" fill="#fff"/><path d="M260 50c0 16.57-13.43 30-30 30s-30-13.43-30-30 13.43-30 30-30 30 13.43 30 30zM140 130c0 16.57-13.43 30-30 30s-30-13.43-30-30 13.43-30 30-30 30 13.43 30 30zM380 130c0 16.57-13.43 30-30 30s-30-13.43-30-30 13.43-30 30-30 30 13.43 30 30zM200 230c0 16.57-13.43 30-30 30s-30-13.43-30-30 13.43-30 30-30 30 13.43 30 30z" stroke="#333" stroke-width="2" fill="#fff"/><path d="M203.4 67.73l-66.8 44.54" stroke="#333" stroke-width="2" fill="none"/><path d="M203.9 66.73l.95 1.24-.9.6-1.12-1.66.86-.56zM137.17 113.1l-.86.56-.2-.4-.95-1.23.9-.6z" stroke="#333" stroke-width=".05" fill="#333"/><use xlink:href="#a" transform="matrix(1,0,0,1,158.50285834449906,66.6909020584204) translate(0.004999999999999893 14.222222222222223)"/><path d="M93.57 157.38l-27.14 45.24" stroke="#333" stroke-width="2" fill="none"/><path d="M94.92 157.07l-.5.84-1.72-1.02.55-.9zM67.3 203.12l-.55.9-1.67-1.1.5-.83z" stroke="#333" stroke-width=".05" fill="#333"/><use xlink:href="#a" transform="matrix(1,0,0,1,64.36348824777482,161.08485365424676) translate(0.004999999999999893 14.222222222222223)"/><path d="M153.56 202.6l-27.12-45.2" stroke="#333" stroke-width="2" fill="none"/><path d="M154.96 203l-1.7.9-.06.05-.5-.85 1.7-1.03zM127.3 156.9l-1.7 1.03-.56-.93 1.7-.9.06-.05z" stroke="#333" stroke-width=".05" fill="#333"/><use xlink:href="#b" transform="matrix(1,0,0,1,145.75996854234867,161.08485365424676) translate(0.004999999999999893 14.222222222222223)"/><path d="M153.57 257.38l-27.14 45.24" stroke="#333" stroke-width="2" fill="none"/><path d="M154.92 257.07l-.5.84-1.72-1 .55-.93zM127.3 303.1l-.55.93-1.67-1.1.5-.84z" stroke="#333" stroke-width=".05" fill="#333"/><use xlink:href="#a" transform="matrix(1,0,0,1,124.3634882477748,261.08485365424673) translate(0.004999999999999893 14.222222222222223)"/><path d="M186.44 257.4l27.12 45.2" stroke="#333" stroke-width="2" fill="none"/><path d="M187.3 256.9l-1.7 1.03-.56-.93 1.7-.9.06-.05zM214.96 303l-1.7.9-.06.05-.5-.85 1.7-1.03z" stroke="#333" stroke-width=".05" fill="#333"/><use xlink:href="#b" transform="matrix(1,0,0,1,205.75996854234864,261.08485365424673) translate(0.004999999999999893 14.222222222222223)"/><path d="M256.54 67.7l66.92 44.6" stroke="#333" stroke-width="2" fill="none"/><path d="M257.12 66.88l-1.1 1.66-.86-.57 1.1-1.66zM324.84 112.03l-1.1 1.66-.86-.58 1.1-1.66z" stroke="#333" stroke-width=".05" fill="#333"/><use xlink:href="#b" transform="matrix(1,0,0,1,291.62059844562435,66.69090205842042) translate(0.004999999999999893 14.222222222222223)"/><path d="M306.43 202.62l27.14-45.24" stroke="#333" stroke-width="2" fill="none"/><path d="M307.3 203.12l-.55.9-1.67-1.1.5-.83zM334.92 157.07l-.5.84-1.72-1.02.55-.9z" stroke="#333" stroke-width=".05" fill="#333"/><use xlink:href="#a" transform="matrix(1,0,0,1,304.3634882477748,161.08485365424676) translate(0.004999999999999893 14.222222222222223)"/><path d="M440 230c0 16.57-13.43 30-30 30s-30-13.43-30-30 13.43-30 30-30 30 13.43 30 30z" stroke="#333" stroke-width="2" fill="#fff"/><path d="M393.56 202.6l-27.12-45.2" stroke="#333" stroke-width="2" fill="none"/><path d="M394.96 203l-1.7.9-.06.05-.5-.85 1.7-1.03zM367.3 156.9l-1.7 1.03-.56-.93 1.7-.9.06-.05z" stroke="#333" stroke-width=".05" fill="#333"/><use xlink:href="#b" transform="matrix(1,0,0,1,385.75996854234864,161.08485365424676) translate(0.004999999999999893 14.222222222222223)"/><path d="M393.57 257.38l-27.14 45.24" stroke="#333" stroke-width="2" fill="none"/><path d="M394.92 257.07l-.5.84-1.72-1 .55-.93zM367.3 303.1l-.55.93-1.67-1.1.5-.84z" stroke="#333" stroke-width=".05" fill="#333"/><use xlink:href="#a" transform="matrix(1,0,0,1,364.3634882477748,261.08485365424673) translate(0.004999999999999893 14.222222222222223)"/><path d="M426.44 257.4l27.12 45.2" stroke="#333" stroke-width="2" fill="none"/><path d="M427.3 256.9l-1.7 1.03-.56-.93 1.7-.9.06-.05zM454.96 303l-1.7.9-.06.05-.5-.85 1.7-1.03z" stroke="#333" stroke-width=".05" fill="#333"/><use xlink:href="#b" transform="matrix(1,0,0,1,445.75996854234864,261.08485365424673) translate(0.004999999999999893 14.222222222222223)"/><path d="M80 230c0 16.57-13.43 30-30 30s-30-13.43-30-30 13.43-30 30-30 30 13.43 30 30z" stroke="#333" stroke-width="2" fill="#fff"/><use xlink:href="#c" transform="matrix(1,0,0,1,25,205) translate(10.270432098765443 32.68055555555554)"/><path d="M140 330c0 16.57-13.43 30-30 30s-30-13.43-30-30 13.43-30 30-30 30 13.43 30 30z" stroke="#333" stroke-width="2" fill="#fff"/><use xlink:href="#d" transform="matrix(1,0,0,1,85,305) translate(12.98648148148149 32.68055555555554)"/><path d="M260 330c0 16.57-13.43 30-30 30s-30-13.43-30-30 13.43-30 30-30 30 13.43 30 30z" stroke="#333" stroke-width="2" fill="#fff"/><use xlink:href="#e" transform="matrix(1,0,0,1,205,305) translate(9.59141975308643 32.68055555555554)"/><path d="M320 230c0 16.57-13.43 30-30 30s-30-13.43-30-30 13.43-30 30-30 30 13.43 30 30z" stroke="#333" stroke-width="2" fill="#fff"/><use xlink:href="#f" transform="matrix(1,0,0,1,265,205) translate(12.341419753086427 32.68055555555554)"/><path d="M380 330c0 16.57-13.43 30-30 30s-30-13.43-30-30 13.43-30 30-30 30 13.43 30 30z" stroke="#333" stroke-width="2" fill="#fff"/><use xlink:href="#g" transform="matrix(1,0,0,1,325,305) translate(9.59141975308643 32.68055555555554)"/><path d="M500 330c0 16.57-13.43 30-30 30s-30-13.43-30-30 13.43-30 30-30 30 13.43 30 30z" stroke="#333" stroke-width="2" fill="#fff"/><use xlink:href="#h" transform="matrix(1,0,0,1,445,305) translate(13.699444444444453 32.68055555555554)"/><defs><path fill="#333" d="M101-251c68 0 84 54 84 127C185-50 166 4 99 4S15-52 14-124c-1-75 17-127 87-127zm-1 216c37-5 36-46 36-89s4-89-36-89c-39 0-36 45-36 89 0 43-3 85 36 89" id="i"/><use transform="matrix(0.04938271604938272,0,0,0.04938271604938272,0,0)" xlink:href="#i" id="a"/><path fill="#333" d="M23 0v-37h61v-169l-59 37v-38l62-41h46v211h57V0H23" id="j"/><use transform="matrix(0.04938271604938272,0,0,0.04938271604938272,0,0)" xlink:href="#j" id="b"/><path fill="#333" d="M109-170H84l-4-78h32zm-65 0H19l-4-78h33" id="k"/><path fill="#333" d="M135-143c-3-34-86-38-87 0 15 53 115 12 119 90S17 21 10-45l28-5c4 36 97 45 98 0-10-56-113-15-118-90-4-57 82-63 122-42 12 7 21 19 24 35" id="l"/><g id="c"><use transform="matrix(0.06790123456790119,0,0,0.06790123456790119,0,0)" xlink:href="#k"/><use transform="matrix(0.06790123456790119,0,0,0.06790123456790119,8.62345679012345,0)" xlink:href="#l"/><use transform="matrix(0.06790123456790119,0,0,0.06790123456790119,20.845679012345663,0)" xlink:href="#k"/></g><path fill="#333" d="M59-47c-2 24 18 29 38 22v24C64 9 27 4 27-40v-127H5v-23h24l9-43h21v43h35v23H59v120" id="m"/><g id="d"><use transform="matrix(0.06790123456790119,0,0,0.06790123456790119,0,0)" xlink:href="#k"/><use transform="matrix(0.06790123456790119,0,0,0.06790123456790119,8.62345679012345,0)" xlink:href="#m"/><use transform="matrix(0.06790123456790119,0,0,0.06790123456790119,15.413580246913568,0)" xlink:href="#k"/></g><path fill="#333" d="M100-194c63 0 86 42 84 106H49c0 40 14 67 53 68 26 1 43-12 49-29l28 8c-11 28-37 45-77 45C44 4 14-33 15-96c1-61 26-98 85-98zm52 81c6-60-76-77-97-28-3 7-6 17-6 28h103" id="n"/><g id="e"><use transform="matrix(0.06790123456790119,0,0,0.06790123456790119,0,0)" xlink:href="#k"/><use transform="matrix(0.06790123456790119,0,0,0.06790123456790119,8.62345679012345,0)" xlink:href="#n"/><use transform="matrix(0.06790123456790119,0,0,0.06790123456790119,22.203703703703688,0)" xlink:href="#k"/></g><path fill="#333" d="M114-163C36-179 61-72 57 0H25l-1-190h30c1 12-1 29 2 39 6-27 23-49 58-41v29" id="o"/><g id="f"><use transform="matrix(0.06790123456790119,0,0,0.06790123456790119,0,0)" xlink:href="#k"/><use transform="matrix(0.06790123456790119,0,0,0.06790123456790119,8.62345679012345,0)" xlink:href="#o"/><use transform="matrix(0.06790123456790119,0,0,0.06790123456790119,16.70370370370369,0)" xlink:href="#k"/></g><path fill="#333" d="M85-194c31 0 48 13 60 33l-1-100h32l1 261h-30c-2-10 0-23-3-31C134-8 116 4 85 4 32 4 16-35 15-94c0-66 23-100 70-100zm9 24c-40 0-46 34-46 75 0 40 6 74 45 74 42 0 51-32 51-76 0-42-9-74-50-73" id="p"/><g id="g"><use transform="matrix(0.06790123456790119,0,0,0.06790123456790119,0,0)" xlink:href="#k"/><use transform="matrix(0.06790123456790119,0,0,0.06790123456790119,8.62345679012345,0)" xlink:href="#p"/><use transform="matrix(0.06790123456790119,0,0,0.06790123456790119,22.203703703703688,0)" xlink:href="#k"/></g><path fill="#333" d="M24-231v-30h32v30H24zM24 0v-190h32V0H24" id="q"/><g id="h"><use transform="matrix(0.06790123456790119,0,0,0.06790123456790119,0,0)" xlink:href="#k"/><use transform="matrix(0.06790123456790119,0,0,0.06790123456790119,8.62345679012345,0)" xlink:href="#q"/><use transform="matrix(0.06790123456790119,0,0,0.06790123456790119,13.987654320987644,0)" xlink:href="#k"/></g></defs></g></svg>