<svg xmlns="http://www.w3.org/2000/svg" xmlns:xlink="http://www.w3.org/1999/xlink" xmlns:lucid="lucid" width="162" height="162"><g transform="translate(1 1)" lucid:page-tab-id="0_0"><path d="M0 0h1760v1360H0z" fill="#fff"/><path d="M60 40c0 11.05-8.95 20-20 20s-20-8.95-20-20 8.95-20 20-20 20 8.95 20 20z" stroke="#000" stroke-width="2" fill="#fff"/><use xlink:href="#a" transform="matrix(1,0,0,1,25,25) translate(7.000000000000007 18.599999999999998)"/><path d="M60 120c0 11.05-8.95 20-20 20s-20-8.95-20-20 8.95-20 20-20 20 8.95 20 20z" stroke="#000" stroke-width="2" fill="#fff"/><use xlink:href="#b" transform="matrix(1,0,0,1,25,105) translate(7.000000000000007 18.599999999999998)"/><path d="M40 62v36" stroke="#000" stroke-width="2" fill="none"/><path d="M39.95 61l1.05-.03v1.06h-2v-1.15zM41 99.12l-.95-.12-1.05.03v-1.06h2z" stroke="#000" stroke-width=".05"/><path d="M140 80c0 11.05-8.95 20-20 20s-20-8.95-20-20 8.95-20 20-20 20 8.95 20 20z" stroke="#000" stroke-width="2" fill="#fff"/><use xlink:href="#c" transform="matrix(1,0,0,1,105,65) translate(7.000000000000007 18.599999999999998)"/><defs><path d="M141 0L90-78 38 0H4l68-98-65-92h35l48 74 47-74h35l-64 92 68 98h-35" id="d"/><path d="M27 0v-27h64v-190l-56 39v-29l58-41h29v221h61V0H27" id="e"/><g id="a"><use transform="matrix(0.04999999999999996,0,0,0.04999999999999996,0,0)" xlink:href="#d"/><use transform="matrix(0.03499999999999997,0,0,0.03499999999999997,8.999999999999993,2.519999999999998)" xlink:href="#e"/></g><path d="M101-251c82-7 93 87 43 132L82-64C71-53 59-42 53-27h129V0H18c2-99 128-94 128-182 0-28-16-43-45-43s-46 15-49 41l-32-3c6-41 34-60 81-64" id="f"/><g id="b"><use transform="matrix(0.04999999999999996,0,0,0.04999999999999996,0,0)" xlink:href="#d"/><use transform="matrix(0.03499999999999997,0,0,0.03499999999999997,8.999999999999993,2.519999999999998)" xlink:href="#f"/></g><path d="M126-127c33 6 58 20 58 59 0 88-139 92-164 29-3-8-5-16-6-25l32-3c6 27 21 44 54 44 32 0 52-15 52-46 0-38-36-46-79-43v-28c39 1 72-4 72-42 0-27-17-43-46-43-28 0-47 15-49 41l-32-3c6-42 35-63 81-64 48-1 79 21 79 65 0 36-21 52-52 59" id="g"/><g id="c"><use transform="matrix(0.04999999999999996,0,0,0.04999999999999996,0,0)" xlink:href="#d"/><use transform="matrix(0.03499999999999997,0,0,0.03499999999999997,8.999999999999993,2.519999999999998)" xlink:href="#g"/></g></defs></g></svg>