<svg xmlns="http://www.w3.org/2000/svg" xmlns:xlink="http://www.w3.org/1999/xlink" xmlns:lucid="lucid" width="940" height="560"><g transform="translate(0 0)" lucid:page-tab-id="0_0"><path d="M0 0h1870.4v1323.2H0z" fill="#fff"/><path d="M120 370c0 27.6-22.4 50-50 50s-50-22.4-50-50 22.4-50 50-50 50 22.4 50 50z" stroke="#333" stroke-width="3" fill="#fff"/><use xlink:href="#a" transform="matrix(1,0,0,1,25,325) translate(43.20987654320987 27.09027777777778)"/><use xlink:href="#b" transform="matrix(1,0,0,1,25,325) translate(9.811728395061735 51.09027777777777)"/><path d="M480 370c0 27.6-22.4 50-50 50s-50-22.4-50-50 22.4-50 50-50 50 22.4 50 50z" stroke="#333" stroke-width="3" fill="#fff"/><use xlink:href="#c" transform="matrix(1,0,0,1,385,325) translate(43.20987654320987 35.52777777777778)"/><use xlink:href="#d" transform="matrix(1,0,0,1,385,325) translate(6.580246913580261 50.638888888888886)"/><path d="M300 250c0 27.6-22.4 50-50 50s-50-22.4-50-50 22.4-50 50-50 50 22.4 50 50z" stroke="#333" stroke-width="3" fill="#fff"/><use xlink:href="#a" transform="matrix(1,0,0,1,204.99999999999997,205) translate(43.20987654320987 24.27777777777778)"/><use xlink:href="#e" transform="matrix(1,0,0,1,204.99999999999997,205) translate(12.456790123456805 53.6111111111111)"/><path d="M300 70c0 27.6-22.4 50-50 50s-50-22.4-50-50 22.4-50 50-50 50 22.4 50 50z" stroke="#333" stroke-width="3" fill="#fff"/><use xlink:href="#c" transform="matrix(1,0,0,1,204.99999999999997,25) translate(43.20987654320987 29.90277777777778)"/><use xlink:href="#f" transform="matrix(1,0,0,1,204.99999999999997,25) translate(5.148148148148167 52.12499999999999)"/><path d="M300 490c0 27.6-22.4 50-50 50s-50-22.4-50-50 22.4-50 50-50 50 22.4 50 50z" stroke="#333" stroke-width="3" fill="#fff"/><use xlink:href="#c" transform="matrix(1,0,0,1,204.99999999999997,445) translate(43.20987654320987 27.09027777777778)"/><use xlink:href="#g" transform="matrix(1,0,0,1,204.99999999999997,445) translate(10.432098765432116 52.86805555555554)"/><path d="M640 230c0 27.6-22.4 50-50 50s-50-22.4-50-50 22.4-50 50-50 50 22.4 50 50z" stroke="#333" stroke-width="3" fill="#fff"/><use xlink:href="#a" transform="matrix(1,0,0,1,545,185) translate(43.20987654320987 29.90277777777778)"/><use xlink:href="#h" transform="matrix(1,0,0,1,545,185) translate(9.518518518518533 52.12499999999999)"/><path d="M920 230c0 27.6-22.4 50-50 50s-50-22.4-50-50 22.4-50 50-50 50 22.4 50 50z" stroke="#333" stroke-width="3" fill="#fff"/><use xlink:href="#a" transform="matrix(1,0,0,1,825,185) translate(43.20987654320987 32.71527777777778)"/><use xlink:href="#i" transform="matrix(1,0,0,1,825,185) translate(8.209876543209909 51.38194444444443)"/><path d="M780 430c0 27.6-22.4 50-50 50s-50-22.4-50-50 22.4-50 50-50 50 22.4 50 50z" stroke="#333" stroke-width="3" fill="#fff"/><use xlink:href="#a" transform="matrix(1,0,0,1,685,385) translate(43.20987654320987 32.71527777777778)"/><use xlink:href="#j" transform="matrix(1,0,0,1,685,385) translate(4.938271604938308 51.38194444444443)"/><path d="M113.66 340.9l92.68-61.8" stroke="#333" stroke-width="2" fill="none"/><path d="M114.23 341.7l-.83.57-.03-.06-1.13-1.56.88-.6zM206.63 277.8l1.13 1.56-.88.6-1.1-1.67.82-.57z" fill="#333"/><path d="M293.67 279.1l92.66 61.8" stroke="#333" stroke-width="2" fill="none"/><path d="M294.24 278.3l-1.1 1.66-.86-.57.26-.35.82-1.35zM387.72 340.6l-.26.35-.82 1.35-.88-.6 1.1-1.66z" fill="#333"/><path d="M403 325.02L277 114.98" stroke="#333" stroke-width="2" fill="none"/><path d="M404.4 325.38l-1.74 1-.52-.87 1.72-1.02zM277.86 114.5l-1.72 1.02-.53-.9 1.74-1z" fill="#333"/><path d="M223.02 114.97L96.98 325.03" stroke="#333" stroke-width="2" fill="none"/><path d="M224.38 114.64l-.52.87-1.7-1.02.52-.9zM97.85 325.52l-.53.9-1.7-1.06.52-.87z" fill="#333"/><path d="M122.5 370h255" stroke="#333" stroke-width="2" fill="none"/><path d="M122.53 371h-1.08l.05-1-.03-1h1.06zM378.5 370l.03 1h-1.06v-2h1.08z" fill="#333"/><path d="M250 197.5v-75" stroke="#333" stroke-width="2" fill="none"/><path d="M251 198.55l-1-.05-1 .03v-1.06h2zM250 121.5l1-.03v1.06h-2v-1.08z" fill="#333"/><path d="M113.67 399.1l92.66 61.8" stroke="#333" stroke-width="2" fill="none"/><path d="M114.24 398.3l-1.1 1.66-.86-.57.26-.35.82-1.35zM207.72 460.6l-.26.35-.82 1.35-.88-.6 1.1-1.66z" fill="#333"/><path d="M293.66 460.9l92.68-61.8" stroke="#333" stroke-width="2" fill="none"/><path d="M294.23 461.7l-.83.57-.03-.06-1.13-1.56.88-.6zM386.63 397.8l1.13 1.56-.88.6-1.1-1.67.82-.57z" fill="#333"/><path d="M620.07 272.96l79.86 114.08" stroke="#333" stroke-width="2" fill="none"/><path d="M620.9 272.4l-1.63 1.16-.58-.83 1.6-1.17zM701.3 387.27l-1.6 1.17-.6-.85 1.63-1.16z" fill="#333"/><path d="M760.1 387l79.8-114" stroke="#333" stroke-width="2" fill="none"/><path d="M760.93 387.56l-.6.87-1.28-.97-.35-.2.6-.85zM840.95 272.54l.35.2-.6.85-1.63-1.16.6-.87z" fill="#333"/><path d="M642.5 230h175" stroke="#333" stroke-width="2" fill="none"/><path d="M642.53 231h-1.08l.05-1-.03-1h1.06zM818.5 230l.03 1h-1.06v-2h1.08z" fill="#333"/><defs><path fill="#fff" d="M141-36C126-15 110 5 73 4 37 3 15-17 15-53c-1-64 63-63 125-63 3-35-9-54-41-54-24 1-41 7-42 31l-33-3c5-37 33-52 76-52 45 0 72 20 72 64v82c-1 20 7 32 28 27v20c-31 9-61-2-59-35zM48-53c0 20 12 33 32 33 41-3 63-29 60-74-43 2-92-5-92 41" id="k"/><path fill="#fff" d="M135-143c-3-34-86-38-87 0 15 53 115 12 119 90S17 21 10-45l28-5c4 36 97 45 98 0-10-56-113-15-118-90-4-57 82-63 122-42 12 7 21 19 24 35" id="l"/><path fill="#fff" d="M85-194c31 0 48 13 60 33l-1-100h32l1 261h-30c-2-10 0-23-3-31C134-8 116 4 85 4 32 4 16-35 15-94c0-66 23-100 70-100zm9 24c-40 0-46 34-46 75 0 40 6 74 45 74 42 0 51-32 51-76 0-42-9-74-50-73" id="m"/><g id="a"><use transform="matrix(0.00617283950617284,0,0,0.00617283950617284,0,0)" xlink:href="#k"/><use transform="matrix(0.00617283950617284,0,0,0.00617283950617284,1.234567901234568,0)" xlink:href="#l"/><use transform="matrix(0.00617283950617284,0,0,0.00617283950617284,2.345679012345679,0)" xlink:href="#m"/></g><path fill="#333" d="M197 0v-115H63V0H30v-248h33v105h134v-105h34V0h-34" id="n"/><path fill="#333" d="M141-36C126-15 110 5 73 4 37 3 15-17 15-53c-1-64 63-63 125-63 3-35-9-54-41-54-24 1-41 7-42 31l-33-3c5-37 33-52 76-52 45 0 72 20 72 64v82c-1 20 7 32 28 27v20c-31 9-61-2-59-35zM48-53c0 20 12 33 32 33 41-3 63-29 60-74-43 2-92-5-92 41" id="o"/><path fill="#333" d="M114-163C36-179 61-72 57 0H25l-1-190h30c1 12-1 29 2 39 6-27 23-49 58-41v29" id="p"/><path fill="#333" d="M179-190L93 31C79 59 56 82 12 73V49c39 6 53-20 64-50L1-190h34L92-34l54-156h33" id="q"/><g id="b"><use transform="matrix(0.0802469135802469,0,0,0.0802469135802469,0,0)" xlink:href="#n"/><use transform="matrix(0.0802469135802469,0,0,0.0802469135802469,20.783950617283946,0)" xlink:href="#o"/><use transform="matrix(0.0802469135802469,0,0,0.0802469135802469,36.83333333333333,0)" xlink:href="#p"/><use transform="matrix(0.0802469135802469,0,0,0.0802469135802469,46.38271604938271,0)" xlink:href="#p"/><use transform="matrix(0.0802469135802469,0,0,0.0802469135802469,55.93209876543209,0)" xlink:href="#q"/></g><g id="c"><use transform="matrix(0.00617283950617284,0,0,0.00617283950617284,0,0)" xlink:href="#k"/><use transform="matrix(0.00617283950617284,0,0,0.00617283950617284,1.234567901234568,0)" xlink:href="#l"/><use transform="matrix(0.00617283950617284,0,0,0.00617283950617284,2.345679012345679,0)" xlink:href="#m"/></g><path fill="#333" d="M100-194c63 0 86 42 84 106H49c0 40 14 67 53 68 26 1 43-12 49-29l28 8c-11 28-37 45-77 45C44 4 14-33 15-96c1-61 26-98 85-98zm52 81c6-60-76-77-97-28-3 7-6 17-6 28h103" id="r"/><path fill="#333" d="M210-169c-67 3-38 105-44 169h-31v-121c0-29-5-50-35-48C34-165 62-65 56 0H25l-1-190h30c1 10-1 24 2 32 10-44 99-50 107 0 11-21 27-35 58-36 85-2 47 119 55 194h-31v-121c0-29-5-49-35-48" id="s"/><path fill="#333" d="M24-231v-30h32v30H24zM24 0v-190h32V0H24" id="t"/><path fill="#333" d="M100-194c62-1 85 37 85 99 1 63-27 99-86 99S16-35 15-95c0-66 28-99 85-99zM99-20c44 1 53-31 53-75 0-43-8-75-51-75s-53 32-53 75 10 74 51 75" id="u"/><path fill="#333" d="M117-194c89-4 53 116 60 194h-32v-121c0-31-8-49-39-48C34-167 62-67 57 0H25l-1-190h30c1 10-1 24 2 32 11-22 29-35 61-36" id="v"/><g id="d"><use transform="matrix(0.0493827160493827,0,0,0.0493827160493827,0,0)" xlink:href="#n"/><use transform="matrix(0.0493827160493827,0,0,0.0493827160493827,12.79012345679012,0)" xlink:href="#r"/><use transform="matrix(0.0493827160493827,0,0,0.0493827160493827,22.666666666666657,0)" xlink:href="#p"/><use transform="matrix(0.0493827160493827,0,0,0.0493827160493827,28.5432098765432,0)" xlink:href="#s"/><use transform="matrix(0.0493827160493827,0,0,0.0493827160493827,43.308641975308625,0)" xlink:href="#t"/><use transform="matrix(0.0493827160493827,0,0,0.0493827160493827,47.20987654320986,0)" xlink:href="#u"/><use transform="matrix(0.0493827160493827,0,0,0.0493827160493827,57.0864197530864,0)" xlink:href="#v"/><use transform="matrix(0.0493827160493827,0,0,0.0493827160493827,66.96296296296293,0)" xlink:href="#r"/></g><path fill="#333" d="M233-177c-1 41-23 64-60 70L243 0h-38l-65-103H63V0H30v-248c88 3 205-21 203 71zM63-129c60-2 137 13 137-47 0-61-80-42-137-45v92" id="w"/><g id="e"><use transform="matrix(0.0987654320987654,0,0,0.0987654320987654,0,0)" xlink:href="#w"/><use transform="matrix(0.0987654320987654,0,0,0.0987654320987654,25.58024691358024,0)" xlink:href="#u"/><use transform="matrix(0.0987654320987654,0,0,0.0987654320987654,45.333333333333314,0)" xlink:href="#v"/></g><path fill="#333" d="M190 0L58-211 59 0H30v-248h39L202-35l-2-213h31V0h-41" id="x"/><path fill="#333" d="M108 0H70L1-190h34L89-25l56-165h34" id="y"/><path fill="#333" d="M24 0v-261h32V0H24" id="z"/><g id="f"><use transform="matrix(0.07407407407407404,0,0,0.07407407407407404,0,0)" xlink:href="#x"/><use transform="matrix(0.07407407407407404,0,0,0.07407407407407404,19.185185185185176,0)" xlink:href="#r"/><use transform="matrix(0.07407407407407404,0,0,0.07407407407407404,33.999999999999986,0)" xlink:href="#y"/><use transform="matrix(0.07407407407407404,0,0,0.07407407407407404,47.333333333333314,0)" xlink:href="#t"/><use transform="matrix(0.07407407407407404,0,0,0.07407407407407404,53.18518518518516,0)" xlink:href="#z"/><use transform="matrix(0.07407407407407404,0,0,0.07407407407407404,59.03703703703701,0)" xlink:href="#z"/><use transform="matrix(0.07407407407407404,0,0,0.07407407407407404,64.88888888888886,0)" xlink:href="#r"/></g><path fill="#333" d="M30 0v-248h33v221h125V0H30" id="A"/><path fill="#333" d="M84 4C-5 8 30-112 23-190h32v120c0 31 7 50 39 49 72-2 45-101 50-169h31l1 190h-30c-1-10 1-25-2-33-11 22-28 36-60 37" id="B"/><g id="g"><use transform="matrix(0.0864197530864197,0,0,0.0864197530864197,0,0)" xlink:href="#A"/><use transform="matrix(0.0864197530864197,0,0,0.0864197530864197,17.283950617283942,0)" xlink:href="#B"/><use transform="matrix(0.0864197530864197,0,0,0.0864197530864197,34.567901234567884,0)" xlink:href="#v"/><use transform="matrix(0.0864197530864197,0,0,0.0864197530864197,51.851851851851826,0)" xlink:href="#o"/></g><path fill="#333" d="M30-248c118-7 216 8 213 122C240-48 200 0 122 0H30v-248zM63-27c89 8 146-16 146-99s-60-101-146-95v194" id="C"/><path fill="#333" d="M96-169c-40 0-48 33-48 73s9 75 48 75c24 0 41-14 43-38l32 2c-6 37-31 61-74 61-59 0-76-41-82-99-10-93 101-131 147-64 4 7 5 14 7 22l-32 3c-4-21-16-35-41-35" id="D"/><g id="h"><use transform="matrix(0.07407407407407404,0,0,0.07407407407407404,0,0)" xlink:href="#C"/><use transform="matrix(0.07407407407407404,0,0,0.07407407407407404,19.185185185185176,0)" xlink:href="#p"/><use transform="matrix(0.07407407407407404,0,0,0.07407407407407404,27.999999999999982,0)" xlink:href="#o"/><use transform="matrix(0.07407407407407404,0,0,0.07407407407407404,42.814814814814795,0)" xlink:href="#D"/><use transform="matrix(0.07407407407407404,0,0,0.07407407407407404,56.148148148148124,0)" xlink:href="#u"/></g><path fill="#333" d="M137 0h-34L2-248h35l83 218 83-218h36" id="E"/><path fill="#333" d="M59-47c-2 24 18 29 38 22v24C64 9 27 4 27-40v-127H5v-23h24l9-43h21v43h35v23H59v120" id="F"/><g id="i"><use transform="matrix(0.06172839506172834,0,0,0.06172839506172834,0,0)" xlink:href="#E"/><use transform="matrix(0.06172839506172834,0,0,0.06172839506172834,14.382716049382704,0)" xlink:href="#t"/><use transform="matrix(0.06172839506172834,0,0,0.06172839506172834,19.259259259259245,0)" xlink:href="#v"/><use transform="matrix(0.06172839506172834,0,0,0.06172839506172834,31.60493827160492,0)" xlink:href="#D"/><use transform="matrix(0.06172839506172834,0,0,0.06172839506172834,42.716049382716015,0)" xlink:href="#r"/><use transform="matrix(0.06172839506172834,0,0,0.06172839506172834,55.061728395061685,0)" xlink:href="#v"/><use transform="matrix(0.06172839506172834,0,0,0.06172839506172834,67.40740740740735,0)" xlink:href="#F"/></g><path fill="#333" d="M143 4C61 4 22-44 18-125c-5-107 100-154 193-111 17 8 29 25 37 43l-32 9c-13-25-37-40-76-40-61 0-88 39-88 99 0 61 29 100 91 101 35 0 62-11 79-27v-45h-74v-28h105v86C228-13 192 4 143 4" id="G"/><path fill="#333" d="M177-190C167-65 218 103 67 71c-23-6-38-20-44-43l32-5c15 47 100 32 89-28v-30C133-14 115 1 83 1 29 1 15-40 15-95c0-56 16-97 71-98 29-1 48 16 59 35 1-10 0-23 2-32h30zM94-22c36 0 50-32 50-73 0-42-14-75-50-75-39 0-46 34-46 75s6 73 46 73" id="H"/><g id="j"><use transform="matrix(0.06172839506172834,0,0,0.06172839506172834,0,0)" xlink:href="#G"/><use transform="matrix(0.06172839506172834,0,0,0.06172839506172834,17.283950617283935,0)" xlink:href="#p"/><use transform="matrix(0.06172839506172834,0,0,0.06172839506172834,24.62962962962961,0)" xlink:href="#r"/><use transform="matrix(0.06172839506172834,0,0,0.06172839506172834,36.975308641975275,0)" xlink:href="#H"/><use transform="matrix(0.06172839506172834,0,0,0.06172839506172834,49.320987654320945,0)" xlink:href="#u"/><use transform="matrix(0.06172839506172834,0,0,0.06172839506172834,61.666666666666615,0)" xlink:href="#p"/><use transform="matrix(0.06172839506172834,0,0,0.06172839506172834,69.01234567901228,0)" xlink:href="#q"/></g></defs></g></svg>