<svg xmlns="http://www.w3.org/2000/svg" xmlns:xlink="http://www.w3.org/1999/xlink" xmlns:lucid="lucid" width="600" height="492"><g transform="translate(0 11)" lucid:page-tab-id="0_0"><path d="M0 0h1760v1360H0z" fill="#fff"/><path d="M280 21h40v40h-40z" stroke="#000" stroke-width="2" fill="#fff"/><path d="M301.03 41.13l100.47-.1M301.05 41.13h-1.02" stroke="#000" stroke-width="2" fill="none"/><path d="M416.76 41l-14.26 4.65v-9.27z" stroke="#000" stroke-width="2"/><path d="M20 61h160v40H20z" stroke="#000" stroke-width="2" fill="#fff"/><use xlink:href="#a" transform="matrix(1,0,0,1,25,66) translate(39.96975308641976 21.511111111111106)"/><path d="M20 101h160v40H20z" stroke="#000" stroke-width="2" fill="#fff"/><use xlink:href="#b" transform="matrix(1,0,0,1,25,106) translate(38.40123456790124 21.511111111111106)"/><path d="M20 21h160v40H20z" stroke="#000" stroke-width="2" fill="#fff"/><use xlink:href="#c" transform="matrix(1,0,0,1,25,26) translate(44.11512345679013 21.511111111111106)"/><use xlink:href="#d" transform="matrix(1,0,0,1,25,26) translate(90.9466049382716 21.511111111111106)"/><path d="M280 61h40v40h-40z" stroke="#000" stroke-width="2" fill="#fff"/><path d="M301 81.3l100.75 16.68M301.04 81.3l-1-.17" stroke="#000" stroke-width="2" fill="none"/><path d="M416.8 100.47L402 102.7l1.5-9.13z" stroke="#000" stroke-width="2"/><path d="M280 101h40v40h-40z" stroke="#000" stroke-width="2" fill="#fff"/><path d="M300.97 121.44l101.47 33.72M301 121.45l-.97-.32" stroke="#000" stroke-width="2" fill="none"/><path d="M416.93 159.98l-15-.1 2.92-8.8z" stroke="#000" stroke-width="2"/><path d="M280 141h40v40h-40z" stroke="#000" stroke-width="2" fill="#fff"/><path d="M300.92 161.57l102.53 51.17M300.94 161.6l-.9-.47" stroke="#000" stroke-width="2" fill="none"/><path d="M417.1 219.55l-14.83-2.22 4.14-8.3z" stroke="#000" stroke-width="2"/><path d="M420 21h120v40H420z" stroke="#000" stroke-opacity="0" stroke-width="2" fill="#fff" fill-opacity="0"/><use xlink:href="#e" transform="matrix(1,0,0,1,425,26) translate(0 21.511111111111106)"/><path d="M420 81h120v40H420z" stroke="#000" stroke-opacity="0" stroke-width="2" fill="#fff" fill-opacity="0"/><use xlink:href="#f" transform="matrix(1,0,0,1,425,86) translate(0 21.511111111111106)"/><path d="M420 141h160v40H420z" stroke="#000" stroke-opacity="0" stroke-width="2" fill="#fff" fill-opacity="0"/><use xlink:href="#g" transform="matrix(1,0,0,1,425,146) translate(0 21.511111111111106)"/><path d="M420 201h120v40H420z" stroke="#000" stroke-opacity="0" stroke-width="2" fill="#fff" fill-opacity="0"/><use xlink:href="#h" transform="matrix(1,0,0,1,425,206) translate(0 21.511111111111106)"/><path d="M159.9 80.55l102.6-52.17M159.9 80.54l-.9.46" stroke="#000" stroke-width="2" fill="none"/><path d="M276.12 21.47l-10.62 10.6-4.2-8.27z" stroke="#000" stroke-width="2"/><path d="M281 301h40v40h-40z" stroke="#000" stroke-width="2" fill="#fff"/><use xlink:href="#i" transform="matrix(1,0,0,1,285.99999999999966,305.9999999999998) translate(14.32098765432099 2.022222222222222)"/><use xlink:href="#j" transform="matrix(1,0,0,1,285.99999999999966,305.9999999999998) translate(8.765432098765434 20.95555555555555)"/><path d="M321 301h40v40h-40z" stroke="#000" stroke-width="2" fill="#fff"/><use xlink:href="#i" transform="matrix(1,0,0,1,325.99999999999966,305.9999999999998) translate(14.32098765432099 2.022222222222222)"/><use xlink:href="#k" transform="matrix(1,0,0,1,325.99999999999966,305.9999999999998) translate(8.765432098765434 20.95555555555555)"/><path d="M361 301h40v40h-40z" stroke="#000" stroke-width="2" fill="#fff"/><use xlink:href="#i" transform="matrix(1,0,0,1,365.99999999999966,305.9999999999998) translate(14.32098765432099 2.022222222222222)"/><use xlink:href="#k" transform="matrix(1,0,0,1,365.99999999999966,305.9999999999998) translate(8.765432098765434 20.95555555555555)"/><path d="M401 301h40v40h-40z" stroke="#000" stroke-width="2" fill="#fff"/><use xlink:href="#i" transform="matrix(1,0,0,1,405.99999999999966,305.9999999999998) translate(14.32098765432099 2.022222222222222)"/><use xlink:href="#j" transform="matrix(1,0,0,1,405.99999999999966,305.9999999999998) translate(8.765432098765434 20.95555555555555)"/><path d="M281 341h40v40h-40z" stroke="#000" stroke-width="2" fill="#fff"/><use xlink:href="#i" transform="matrix(1,0,0,1,285.99999999999966,345.9999999999998) translate(14.32098765432099 2.022222222222222)"/><use xlink:href="#k" transform="matrix(1,0,0,1,285.99999999999966,345.9999999999998) translate(8.765432098765434 20.95555555555555)"/><path d="M321 341h40v40h-40z" stroke="#000" stroke-width="2" fill="#fff"/><use xlink:href="#i" transform="matrix(1,0,0,1,325.99999999999966,345.9999999999998) translate(14.32098765432099 2.022222222222222)"/><use xlink:href="#j" transform="matrix(1,0,0,1,325.99999999999966,345.9999999999998) translate(8.765432098765434 20.95555555555555)"/><path d="M361 341h40v40h-40z" stroke="#000" stroke-width="2" fill="#fff"/><use xlink:href="#i" transform="matrix(1,0,0,1,365.99999999999966,345.9999999999998) translate(14.32098765432099 2.022222222222222)"/><use xlink:href="#j" transform="matrix(1,0,0,1,365.99999999999966,345.9999999999998) translate(8.765432098765434 20.95555555555555)"/><path d="M401 341h40v40h-40z" stroke="#000" stroke-width="2" fill="#fff"/><use xlink:href="#i" transform="matrix(1,0,0,1,405.99999999999966,345.9999999999998) translate(14.32098765432099 2.022222222222222)"/><use xlink:href="#j" transform="matrix(1,0,0,1,405.99999999999966,345.9999999999998) translate(8.765432098765434 20.95555555555555)"/><path d="M281 381h40v40h-40z" stroke="#000" stroke-width="2" fill="#fff"/><use xlink:href="#i" transform="matrix(1,0,0,1,285.99999999999966,385.9999999999998) translate(14.32098765432099 2.022222222222222)"/><use xlink:href="#k" transform="matrix(1,0,0,1,285.99999999999966,385.9999999999998) translate(8.765432098765434 20.95555555555555)"/><path d="M321 381h40v40h-40z" stroke="#000" stroke-width="2" fill="#fff"/><use xlink:href="#i" transform="matrix(1,0,0,1,325.99999999999966,385.9999999999998) translate(14.32098765432099 2.022222222222222)"/><use xlink:href="#j" transform="matrix(1,0,0,1,325.99999999999966,385.9999999999998) translate(8.765432098765434 20.95555555555555)"/><path d="M361 381h40v40h-40z" stroke="#000" stroke-width="2" fill="#fff"/><use xlink:href="#i" transform="matrix(1,0,0,1,365.99999999999966,385.9999999999998) translate(14.32098765432099 2.022222222222222)"/><use xlink:href="#j" transform="matrix(1,0,0,1,365.99999999999966,385.9999999999998) translate(8.765432098765434 20.95555555555555)"/><path d="M401 381h40v40h-40z" stroke="#000" stroke-width="2" fill="#fff"/><use xlink:href="#i" transform="matrix(1,0,0,1,405.99999999999966,385.9999999999998) translate(14.32098765432099 2.022222222222222)"/><use xlink:href="#k" transform="matrix(1,0,0,1,405.99999999999966,385.9999999999998) translate(8.765432098765434 20.95555555555555)"/><path d="M281 421h40v40h-40z" stroke="#000" stroke-width="2" fill="#fff"/><use xlink:href="#i" transform="matrix(1,0,0,1,285.99999999999966,425.9999999999998) translate(14.32098765432099 2.022222222222222)"/><use xlink:href="#j" transform="matrix(1,0,0,1,285.99999999999966,425.9999999999998) translate(8.765432098765434 20.95555555555555)"/><path d="M321 421h40v40h-40z" stroke="#000" stroke-width="2" fill="#fff"/><use xlink:href="#i" transform="matrix(1,0,0,1,325.99999999999966,425.9999999999998) translate(14.32098765432099 2.022222222222222)"/><use xlink:href="#j" transform="matrix(1,0,0,1,325.99999999999966,425.9999999999998) translate(8.765432098765434 20.95555555555555)"/><path d="M361 421h40v40h-40z" stroke="#000" stroke-width="2" fill="#fff"/><use xlink:href="#i" transform="matrix(1,0,0,1,365.99999999999966,425.9999999999998) translate(14.32098765432099 2.022222222222222)"/><use xlink:href="#k" transform="matrix(1,0,0,1,365.99999999999966,425.9999999999998) translate(8.765432098765434 20.95555555555555)"/><path d="M401 421h40v40h-40z" stroke="#000" stroke-width="2" fill="#fff"/><use xlink:href="#i" transform="matrix(1,0,0,1,405.99999999999966,425.9999999999998) translate(14.32098765432099 2.022222222222222)"/><use xlink:href="#j" transform="matrix(1,0,0,1,405.99999999999966,425.9999999999998) translate(8.765432098765434 20.95555555555555)"/><path d="M159.56 121.83l110.08 162.84M159.57 121.85L159 121" stroke="#000" stroke-width="2" fill="none"/><path d="M278.2 297.3l-11.84-9.2 7.68-5.2z" stroke="#000" stroke-width="2"/><path d="M291 271h161v40H291z" stroke="#000" stroke-opacity="0" stroke-width="2" fill="#fff" fill-opacity="0"/><use xlink:href="#l" transform="matrix(1,0,0,1,295.99999999999966,275.9999999999999) translate(0 18.6)"/><use xlink:href="#m" transform="matrix(1,0,0,1,295.99999999999966,275.9999999999999) translate(40 18.6)"/><use xlink:href="#n" transform="matrix(1,0,0,1,295.99999999999966,275.9999999999999) translate(80 18.6)"/><use xlink:href="#o" transform="matrix(1,0,0,1,295.99999999999966,275.9999999999999) translate(120 18.6)"/><path d="M240 298h40v40h-40z" stroke="#000" stroke-opacity="0" stroke-width="2" fill-opacity="0"/><g><use xlink:href="#p" transform="matrix(1,0,0,1,245,302.9999999999998) translate(26.296296296296298 5.533333333333337)"/><use xlink:href="#q" transform="matrix(1,0,0,1,245,302.9999999999998) translate(20.000000000000004 22.599999999999998)"/></g><path d="M240 338h40v40h-40z" stroke="#000" stroke-opacity="0" stroke-width="2" fill-opacity="0"/><g><use xlink:href="#p" transform="matrix(1,0,0,1,245,342.9999999999998) translate(26.296296296296298 5.533333333333337)"/><use xlink:href="#r" transform="matrix(1,0,0,1,245,342.9999999999998) translate(20.000000000000004 22.599999999999998)"/></g><path d="M240 378h40v40h-40z" stroke="#000" stroke-opacity="0" stroke-width="2" fill-opacity="0"/><g><use xlink:href="#p" transform="matrix(1,0,0,1,245,382.9999999999998) translate(26.296296296296298 5.533333333333337)"/><use xlink:href="#s" transform="matrix(1,0,0,1,245,382.9999999999998) translate(20.000000000000004 22.599999999999998)"/></g><path d="M240 418h40v40h-40z" stroke="#000" stroke-opacity="0" stroke-width="2" fill-opacity="0"/><g><use xlink:href="#p" transform="matrix(1,0,0,1,245,422.9999999999998) translate(26.296296296296298 5.533333333333337)"/><use xlink:href="#t" transform="matrix(1,0,0,1,245,422.9999999999998) translate(20.000000000000004 22.599999999999998)"/></g><path d="M239 20h40v40h-40z" stroke="#000" stroke-opacity="0" stroke-width="2" fill-opacity="0"/><g><use xlink:href="#p" transform="matrix(1,0,0,1,243.99999999999966,25.000000000000007) translate(26.296296296296298 5.533333333333337)"/><use xlink:href="#q" transform="matrix(1,0,0,1,243.99999999999966,25.000000000000007) translate(20.000000000000004 22.599999999999998)"/></g><path d="M239 60h40v40h-40z" stroke="#000" stroke-opacity="0" stroke-width="2" fill-opacity="0"/><g><use xlink:href="#p" transform="matrix(1,0,0,1,243.99999999999966,65) translate(26.296296296296298 5.533333333333337)"/><use xlink:href="#r" transform="matrix(1,0,0,1,243.99999999999966,65) translate(20.000000000000004 22.599999999999998)"/></g><path d="M239 100h40v40h-40z" stroke="#000" stroke-opacity="0" stroke-width="2" fill-opacity="0"/><g><use xlink:href="#p" transform="matrix(1,0,0,1,243.99999999999966,105) translate(26.296296296296298 5.533333333333337)"/><use xlink:href="#s" transform="matrix(1,0,0,1,243.99999999999966,105) translate(20.000000000000004 22.599999999999998)"/></g><path d="M239 140h40v40h-40z" stroke="#000" stroke-opacity="0" stroke-width="2" fill-opacity="0"/><g><use xlink:href="#p" transform="matrix(1,0,0,1,243.99999999999966,145) translate(26.296296296296298 5.533333333333337)"/><use xlink:href="#t" transform="matrix(1,0,0,1,243.99999999999966,145) translate(20.000000000000004 22.599999999999998)"/></g><defs><path d="M24 0v-261h32V0H24" id="u"/><path d="M141-36C126-15 110 5 73 4 37 3 15-17 15-53c-1-64 63-63 125-63 3-35-9-54-41-54-24 1-41 7-42 31l-33-3c5-37 33-52 76-52 45 0 72 20 72 64v82c-1 20 7 32 28 27v20c-31 9-61-2-59-35zM48-53c0 20 12 33 32 33 41-3 63-29 60-74-43 2-92-5-92 41" id="v"/><path d="M115-194c53 0 69 39 70 98 0 66-23 100-70 100C84 3 66-7 56-30L54 0H23l1-261h32v101c10-23 28-34 59-34zm-8 174c40 0 45-34 45-75 0-40-5-75-45-74-42 0-51 32-51 76 0 43 10 73 51 73" id="w"/><path d="M100-194c63 0 86 42 84 106H49c0 40 14 67 53 68 26 1 43-12 49-29l28 8c-11 28-37 45-77 45C44 4 14-33 15-96c1-61 26-98 85-98zm52 81c6-60-76-77-97-28-3 7-6 17-6 28h103" id="x"/><path d="M135-143c-3-34-86-38-87 0 15 53 115 12 119 90S17 21 10-45l28-5c4 36 97 45 98 0-10-56-113-15-118-90-4-57 82-63 122-42 12 7 21 19 24 35" id="y"/><g id="a"><use transform="matrix(0.07469135802469135,0,0,0.07469135802469135,0,0)" xlink:href="#u"/><use transform="matrix(0.07469135802469135,0,0,0.07469135802469135,5.900617283950616,0)" xlink:href="#v"/><use transform="matrix(0.07469135802469135,0,0,0.07469135802469135,20.838888888888885,0)" xlink:href="#w"/><use transform="matrix(0.07469135802469135,0,0,0.07469135802469135,35.777160493827154,0)" xlink:href="#x"/><use transform="matrix(0.07469135802469135,0,0,0.07469135802469135,50.71543209876541,0)" xlink:href="#u"/><use transform="matrix(0.07469135802469135,0,0,0.07469135802469135,56.61604938271603,0)" xlink:href="#y"/></g><path d="M85-194c31 0 48 13 60 33l-1-100h32l1 261h-30c-2-10 0-23-3-31C134-8 116 4 85 4 32 4 16-35 15-94c0-66 23-100 70-100zm9 24c-40 0-46 34-46 75 0 40 6 74 45 74 42 0 51-32 51-76 0-42-9-74-50-73" id="z"/><path d="M177-190C167-65 218 103 67 71c-23-6-38-20-44-43l32-5c15 47 100 32 89-28v-30C133-14 115 1 83 1 29 1 15-40 15-95c0-56 16-97 71-98 29-1 48 16 59 35 1-10 0-23 2-32h30zM94-22c36 0 50-32 50-73 0-42-14-75-50-75-39 0-46 34-46 75s6 73 46 73" id="A"/><g id="b"><use transform="matrix(0.07469135802469135,0,0,0.07469135802469135,0,0)" xlink:href="#x"/><use transform="matrix(0.07469135802469135,0,0,0.07469135802469135,14.938271604938269,0)" xlink:href="#z"/><use transform="matrix(0.07469135802469135,0,0,0.07469135802469135,29.876543209876537,0)" xlink:href="#A"/><use transform="matrix(0.07469135802469135,0,0,0.07469135802469135,44.81481481481481,0)" xlink:href="#x"/><use transform="matrix(0.07469135802469135,0,0,0.07469135802469135,59.753086419753075,0)" xlink:href="#y"/></g><path d="M117-194c89-4 53 116 60 194h-32v-121c0-31-8-49-39-48C34-167 62-67 57 0H25l-1-190h30c1 10-1 24 2 32 11-22 29-35 61-36" id="B"/><path d="M137 0h-34L2-248h35l83 218 83-218h36" id="C"/><path d="M33-154v-36h34v36H33zM33 0v-36h34V0H33" id="D"/><g id="c"><use transform="matrix(0.07469135802469135,0,0,0.07469135802469135,0,0)" xlink:href="#B"/><use transform="matrix(0.07469135802469135,0,0,0.07469135802469135,14.938271604938269,0)" xlink:href="#C"/><use transform="matrix(0.07469135802469135,0,0,0.07469135802469135,31.893209876543203,0)" xlink:href="#D"/></g><path d="M155-56V0h-30v-56H8v-25l114-167h33v167h35v25h-35zm-30-156c-27 46-58 90-88 131h88v-131" id="E"/><use transform="matrix(0.07469135802469135,0,0,0.07469135802469135,0,0)" xlink:href="#E" id="d"/><path d="M109-170H84l-4-78h32zm-65 0H19l-4-78h33" id="F"/><path d="M197 0v-115H63V0H30v-248h33v105h134v-105h34V0h-34" id="G"/><path d="M114-163C36-179 61-72 57 0H25l-1-190h30c1 12-1 29 2 39 6-27 23-49 58-41v29" id="H"/><path d="M179-190L93 31C79 59 56 82 12 73V49c39 6 53-20 64-50L1-190h34L92-34l54-156h33" id="I"/><g id="e"><use transform="matrix(0.07469135802469135,0,0,0.07469135802469135,0,0)" xlink:href="#F"/><use transform="matrix(0.07469135802469135,0,0,0.07469135802469135,9.4858024691358,0)" xlink:href="#G"/><use transform="matrix(0.07469135802469135,0,0,0.07469135802469135,28.83086419753086,0)" xlink:href="#v"/><use transform="matrix(0.07469135802469135,0,0,0.07469135802469135,43.76913580246912,0)" xlink:href="#H"/><use transform="matrix(0.07469135802469135,0,0,0.07469135802469135,52.65740740740739,0)" xlink:href="#H"/><use transform="matrix(0.07469135802469135,0,0,0.07469135802469135,61.54567901234566,0)" xlink:href="#I"/><use transform="matrix(0.07469135802469135,0,0,0.07469135802469135,74.9901234567901,0)" xlink:href="#F"/></g><path d="M233-177c-1 41-23 64-60 70L243 0h-38l-65-103H63V0H30v-248c88 3 205-21 203 71zM63-129c60-2 137 13 137-47 0-61-80-42-137-45v92" id="J"/><path d="M100-194c62-1 85 37 85 99 1 63-27 99-86 99S16-35 15-95c0-66 28-99 85-99zM99-20c44 1 53-31 53-75 0-43-8-75-51-75s-53 32-53 75 10 74 51 75" id="K"/><g id="f"><use transform="matrix(0.07469135802469135,0,0,0.07469135802469135,0,0)" xlink:href="#F"/><use transform="matrix(0.07469135802469135,0,0,0.07469135802469135,9.4858024691358,0)" xlink:href="#J"/><use transform="matrix(0.07469135802469135,0,0,0.07469135802469135,28.83086419753086,0)" xlink:href="#K"/><use transform="matrix(0.07469135802469135,0,0,0.07469135802469135,43.76913580246912,0)" xlink:href="#B"/><use transform="matrix(0.07469135802469135,0,0,0.07469135802469135,58.70740740740739,0)" xlink:href="#F"/></g><path d="M210-169c-67 3-38 105-44 169h-31v-121c0-29-5-50-35-48C34-165 62-65 56 0H25l-1-190h30c1 10-1 24 2 32 10-44 99-50 107 0 11-21 27-35 58-36 85-2 47 119 55 194h-31v-121c0-29-5-49-35-48" id="L"/><path d="M24-231v-30h32v30H24zM24 0v-190h32V0H24" id="M"/><g id="g"><use transform="matrix(0.07469135802469135,0,0,0.07469135802469135,0,0)" xlink:href="#F"/><use transform="matrix(0.07469135802469135,0,0,0.07469135802469135,9.4858024691358,0)" xlink:href="#G"/><use transform="matrix(0.07469135802469135,0,0,0.07469135802469135,28.83086419753086,0)" xlink:href="#x"/><use transform="matrix(0.07469135802469135,0,0,0.07469135802469135,43.76913580246912,0)" xlink:href="#H"/><use transform="matrix(0.07469135802469135,0,0,0.07469135802469135,52.65740740740739,0)" xlink:href="#L"/><use transform="matrix(0.07469135802469135,0,0,0.07469135802469135,74.9901234567901,0)" xlink:href="#M"/><use transform="matrix(0.07469135802469135,0,0,0.07469135802469135,80.89074074074071,0)" xlink:href="#K"/><use transform="matrix(0.07469135802469135,0,0,0.07469135802469135,95.82901234567898,0)" xlink:href="#B"/><use transform="matrix(0.07469135802469135,0,0,0.07469135802469135,110.76728395061726,0)" xlink:href="#x"/><use transform="matrix(0.07469135802469135,0,0,0.07469135802469135,125.7055555555555,0)" xlink:href="#F"/></g><path d="M30-248c118-7 216 8 213 122C240-48 200 0 122 0H30v-248zM63-27c89 8 146-16 146-99s-60-101-146-95v194" id="N"/><path d="M96-169c-40 0-48 33-48 73s9 75 48 75c24 0 41-14 43-38l32 2c-6 37-31 61-74 61-59 0-76-41-82-99-10-93 101-131 147-64 4 7 5 14 7 22l-32 3c-4-21-16-35-41-35" id="O"/><g id="h"><use transform="matrix(0.07469135802469135,0,0,0.07469135802469135,0,0)" xlink:href="#F"/><use transform="matrix(0.07469135802469135,0,0,0.07469135802469135,9.4858024691358,0)" xlink:href="#N"/><use transform="matrix(0.07469135802469135,0,0,0.07469135802469135,28.83086419753086,0)" xlink:href="#H"/><use transform="matrix(0.07469135802469135,0,0,0.07469135802469135,37.719135802469125,0)" xlink:href="#v"/><use transform="matrix(0.07469135802469135,0,0,0.07469135802469135,52.65740740740739,0)" xlink:href="#O"/><use transform="matrix(0.07469135802469135,0,0,0.07469135802469135,66.10185185185183,0)" xlink:href="#K"/><use transform="matrix(0.07469135802469135,0,0,0.07469135802469135,81.0401234567901,0)" xlink:href="#F"/></g><path fill="#fff" d="M141-36C126-15 110 5 73 4 37 3 15-17 15-53c-1-64 63-63 125-63 3-35-9-54-41-54-24 1-41 7-42 31l-33-3c5-37 33-52 76-52 45 0 72 20 72 64v82c-1 20 7 32 28 27v20c-31 9-61-2-59-35zM48-53c0 20 12 33 32 33 41-3 63-29 60-74-43 2-92-5-92 41" id="P"/><use transform="matrix(0.006790123456790099,0,0,0.006790123456790099,0,0)" xlink:href="#P" id="i"/><path d="M101-251c68 0 85 55 85 127S166 4 100 4C33 4 14-52 14-124c0-73 17-127 87-127zm-1 229c47 0 54-49 54-102s-4-102-53-102c-51 0-55 48-55 102 0 53 5 102 54 102" id="Q"/><use transform="matrix(0.06234567901234567,0,0,0.06234567901234567,0,0)" xlink:href="#Q" id="j"/><path d="M27 0v-27h64v-190l-56 39v-29l58-41h29v221h61V0H27" id="R"/><use transform="matrix(0.06234567901234567,0,0,0.06234567901234567,0,0)" xlink:href="#R" id="k"/><path fill="#b2b2b2" d="M101-251c68 0 85 55 85 127S166 4 100 4C33 4 14-52 14-124c0-73 17-127 87-127zm-1 229c47 0 54-49 54-102s-4-102-53-102c-51 0-55 48-55 102 0 53 5 102 54 102" id="S"/><use transform="matrix(0.05,0,0,0.05,0,0)" xlink:href="#S" id="l"/><path fill="#b2b2b2" d="M27 0v-27h64v-190l-56 39v-29l58-41h29v221h61V0H27" id="T"/><use transform="matrix(0.05,0,0,0.05,0,0)" xlink:href="#T" id="m"/><path fill="#b2b2b2" d="M101-251c82-7 93 87 43 132L82-64C71-53 59-42 53-27h129V0H18c2-99 128-94 128-182 0-28-16-43-45-43s-46 15-49 41l-32-3c6-41 34-60 81-64" id="U"/><use transform="matrix(0.05,0,0,0.05,0,0)" xlink:href="#U" id="n"/><path fill="#b2b2b2" d="M126-127c33 6 58 20 58 59 0 88-139 92-164 29-3-8-5-16-6-25l32-3c6 27 21 44 54 44 32 0 52-15 52-46 0-38-36-46-79-43v-28c39 1 72-4 72-42 0-27-17-43-46-43-28 0-47 15-49 41l-32-3c6-42 35-63 81-64 48-1 79 21 79 65 0 36-21 52-52 59" id="V"/><use transform="matrix(0.05,0,0,0.05,0,0)" xlink:href="#V" id="o"/><path fill-opacity="0" d="M141-36C126-15 110 5 73 4 37 3 15-17 15-53c-1-64 63-63 125-63 3-35-9-54-41-54-24 1-41 7-42 31l-33-3c5-37 33-52 76-52 45 0 72 20 72 64v82c-1 20 7 32 28 27v20c-31 9-61-2-59-35zM48-53c0 20 12 33 32 33 41-3 63-29 60-74-43 2-92-5-92 41" id="W"/><use transform="matrix(0.01851851851851852,0,0,0.01851851851851852,0,0)" xlink:href="#W" id="p"/><path fill="#ccc" d="M101-251c68 0 85 55 85 127S166 4 100 4C33 4 14-52 14-124c0-73 17-127 87-127zm-1 229c47 0 54-49 54-102s-4-102-53-102c-51 0-55 48-55 102 0 53 5 102 54 102" id="X"/><use transform="matrix(0.04999999999999998,0,0,0.04999999999999998,0,0)" xlink:href="#X" id="q"/><path fill="#ccc" d="M27 0v-27h64v-190l-56 39v-29l58-41h29v221h61V0H27" id="Y"/><use transform="matrix(0.04999999999999998,0,0,0.04999999999999998,0,0)" xlink:href="#Y" id="r"/><path fill="#ccc" d="M101-251c82-7 93 87 43 132L82-64C71-53 59-42 53-27h129V0H18c2-99 128-94 128-182 0-28-16-43-45-43s-46 15-49 41l-32-3c6-41 34-60 81-64" id="Z"/><use transform="matrix(0.04999999999999998,0,0,0.04999999999999998,0,0)" xlink:href="#Z" id="s"/><path fill="#ccc" d="M126-127c33 6 58 20 58 59 0 88-139 92-164 29-3-8-5-16-6-25l32-3c6 27 21 44 54 44 32 0 52-15 52-46 0-38-36-46-79-43v-28c39 1 72-4 72-42 0-27-17-43-46-43-28 0-47 15-49 41l-32-3c6-42 35-63 81-64 48-1 79 21 79 65 0 36-21 52-52 59" id="aa"/><use transform="matrix(0.04999999999999998,0,0,0.04999999999999998,0,0)" xlink:href="#aa" id="t"/></defs></g></svg>