<svg xmlns="http://www.w3.org/2000/svg" xmlns:xlink="http://www.w3.org/1999/xlink" xmlns:lucid="lucid" width="462" height="202"><g transform="translate(1 1)" lucid:page-tab-id="0_0"><path d="M0 0h1760v1360H0z" fill="#fff"/><path d="M80 60c0 11.05-8.95 20-20 20s-20-8.95-20-20 8.95-20 20-20 20 8.95 20 20z" stroke="#000" stroke-width="2" fill="#fff"/><use xlink:href="#a" transform="matrix(1,0,0,1,45,45) translate(8.765432098765437 20.988888888888884)"/><path d="M180 40c0 11.05-8.95 20-20 20s-20-8.95-20-20 8.95-20 20-20 20 8.95 20 20z" stroke="#000" stroke-width="2" fill="#fff"/><use xlink:href="#b" transform="matrix(1,0,0,1,145,25) translate(8.765432098765437 20.988888888888884)"/><path d="M60 160c0 11.05-8.95 20-20 20s-20-8.95-20-20 8.95-20 20-20 20 8.95 20 20z" stroke="#000" stroke-width="2" fill="#fff"/><use xlink:href="#c" transform="matrix(1,0,0,1,25,145) translate(8.765432098765437 20.988888888888884)"/><path d="M98.6 52.28l22.8-4.56" stroke="#000" stroke-width="2" fill="none"/><path d="M83.62 55.28l13.08-7.35 1.8 9.1zM136.38 44.72l-13.08 7.35-1.8-9.1z" stroke="#000" stroke-width="2"/><path d="M55.7 81.48l-7.97 39.88" stroke="#000" stroke-width="2" fill="none"/><path d="M56.9 80.62l-.22 1.08-1.96-.4.2-.93z" stroke="#000" stroke-width=".05"/><path d="M44.73 136.33L43 121.43l9.08 1.82z" stroke="#000" stroke-width="2"/><path d="M160 140c0 11.05-8.95 20-20 20s-20-8.95-20-20 8.95-20 20-20 20 8.95 20 20z" stroke="#000" stroke-width="2" fill="#fff"/><use xlink:href="#d" transform="matrix(1,0,0,1,125,125) translate(8.765432098765437 20.988888888888884)"/><path d="M260 160c0 11.05-8.95 20-20 20s-20-8.95-20-20 8.95-20 20-20 20 8.95 20 20z" stroke="#000" stroke-width="2" fill="#fff"/><use xlink:href="#e" transform="matrix(1,0,0,1,225,145) translate(8.765432098765437 20.988888888888884)"/><path d="M161.48 144.3l39.88 7.97" stroke="#000" stroke-width="2" fill="none"/><path d="M161.7 143.32l-.4 1.96-.93-.2.25-1.98z" stroke="#000" stroke-width=".05"/><path d="M216.33 155.27l-14.9 1.74 1.82-9.08z" stroke="#000" stroke-width="2"/><path d="M267.95 60c0 11.05-8.95 20-20 20s-20-8.95-20-20 8.95-20 20-20 20 8.95 20 20z" stroke="#000" stroke-width="2" fill="#fff"/><use xlink:href="#f" transform="matrix(1,0,0,1,232.950143128502,45) translate(8.765432098765437 20.988888888888884)"/><path d="M360 120c0 11.05-8.95 20-20 20s-20-8.95-20-20 8.95-20 20-20 20 8.95 20 20z" stroke="#000" stroke-width="2" fill="#fff"/><use xlink:href="#g" transform="matrix(1,0,0,1,325,105) translate(8.765432098765437 20.988888888888884)"/><path d="M241.73 138.2l3.1-38.95" stroke="#000" stroke-width="2" fill="none"/><path d="M242.73 138.26l-.08 1.06-2-.25.1-.97z" stroke="#000" stroke-width=".05"/><path d="M246.04 84.03l3.5 14.58-9.25-.72z" stroke="#000" stroke-width="2"/><path d="M260.33 151.87l43.1-17.24" stroke="#000" stroke-width="2" fill="none"/><path d="M260.72 152.8l-.9.34-.85-1.8 1-.4z" stroke="#000" stroke-width=".05"/><path d="M317.6 128.96l-11.53 9.6-3.44-8.6z" stroke="#000" stroke-width="2"/><path d="M280.93 81.5l26.1 17" stroke="#000" stroke-width="2" fill="none"/><path d="M268.14 73.16l14.5 3.9-5.08 7.78zM319.8 106.84l-14.48-3.9 5.07-7.78z" stroke="#000" stroke-width="2"/><path d="M440 160c0 11.05-8.95 20-20 20s-20-8.95-20-20 8.95-20 20-20 20 8.95 20 20z" stroke="#000" stroke-width="2" fill="#fff"/><use xlink:href="#h" transform="matrix(1,0,0,1,405,145) translate(8.765432098765437 20.988888888888884)"/><path d="M400 40c0 11.05-8.95 20-20 20s-20-8.95-20-20 8.95-20 20-20 20 8.95 20 20z" stroke="#000" stroke-width="2" fill="#fff"/><use xlink:href="#i" transform="matrix(1,0,0,1,365,25) translate(8.765432098765437 20.988888888888884)"/><path d="M392.5 77.48l15 45.03" stroke="#000" stroke-width="2" fill="none"/><path d="M387.67 63l8.9 12.07-8.8 2.93zM412.33 137l-8.9-12.07 8.8-2.93z" stroke="#000" stroke-width="2"/><defs><path d="M101-251c68 0 85 55 85 127S166 4 100 4C33 4 14-52 14-124c0-73 17-127 87-127zm-1 229c47 0 54-49 54-102s-4-102-53-102c-51 0-55 48-55 102 0 53 5 102 54 102" id="j"/><use transform="matrix(0.06234567901234562,0,0,0.06234567901234562,0,0)" xlink:href="#j" id="a"/><path d="M126-127c33 6 58 20 58 59 0 88-139 92-164 29-3-8-5-16-6-25l32-3c6 27 21 44 54 44 32 0 52-15 52-46 0-38-36-46-79-43v-28c39 1 72-4 72-42 0-27-17-43-46-43-28 0-47 15-49 41l-32-3c6-42 35-63 81-64 48-1 79 21 79 65 0 36-21 52-52 59" id="k"/><use transform="matrix(0.06234567901234562,0,0,0.06234567901234562,0,0)" xlink:href="#k" id="b"/><path d="M54-142c48-35 137-8 131 61C196 18 31 33 14-55l32-4c7 23 22 37 52 37 35-1 51-22 54-58 4-55-73-65-99-34H22l8-134h141v27H59" id="l"/><use transform="matrix(0.06234567901234562,0,0,0.06234567901234562,0,0)" xlink:href="#l" id="c"/><path d="M27 0v-27h64v-190l-56 39v-29l58-41h29v221h61V0H27" id="m"/><use transform="matrix(0.06234567901234562,0,0,0.06234567901234562,0,0)" xlink:href="#m" id="d"/><path d="M155-56V0h-30v-56H8v-25l114-167h33v167h35v25h-35zm-30-156c-27 46-58 90-88 131h88v-131" id="n"/><use transform="matrix(0.06234567901234562,0,0,0.06234567901234562,0,0)" xlink:href="#n" id="e"/><path d="M64 0c3-98 48-159 88-221H18v-27h164v26C143-157 98-101 97 0H64" id="o"/><use transform="matrix(0.06234567901234562,0,0,0.06234567901234562,0,0)" xlink:href="#o" id="f"/><path d="M134-131c28 9 52 24 51 62-1 50-34 73-85 73S17-19 16-69c0-36 21-54 49-61-75-25-45-126 34-121 46 3 78 18 79 63 0 33-17 51-44 57zm-34-11c31 1 46-15 46-44 0-28-17-43-47-42-29 0-46 13-45 42 1 28 16 44 46 44zm1 122c35 0 51-18 51-52 0-30-18-46-53-46-33 0-51 17-51 47 0 34 19 51 53 51" id="p"/><use transform="matrix(0.06234567901234562,0,0,0.06234567901234562,0,0)" xlink:href="#p" id="g"/><path d="M110-160c48 1 74 30 74 79 0 53-28 85-80 85-65 0-83-55-86-122-5-90 50-162 133-122 14 7 22 21 27 39l-31 6c-5-40-67-38-82-6-9 19-15 44-15 74 11-20 30-34 60-33zm-7 138c34 0 49-23 49-58s-16-56-50-56c-29 0-50 16-49 49 1 36 15 65 50 65" id="q"/><use transform="matrix(0.06234567901234562,0,0,0.06234567901234562,0,0)" xlink:href="#q" id="h"/><path d="M101-251c82-7 93 87 43 132L82-64C71-53 59-42 53-27h129V0H18c2-99 128-94 128-182 0-28-16-43-45-43s-46 15-49 41l-32-3c6-41 34-60 81-64" id="r"/><use transform="matrix(0.06234567901234562,0,0,0.06234567901234562,0,0)" xlink:href="#r" id="i"/></defs></g></svg>