<svg xmlns="http://www.w3.org/2000/svg" xmlns:xlink="http://www.w3.org/1999/xlink" xmlns:lucid="lucid" width="742" height="182"><g transform="translate(1 1)" lucid:page-tab-id="0_0"><path d="M0 0h1760v1360H0z" fill="#fff"/><path d="M20 20h140v140H20z" stroke="#000" stroke-width="2" fill="#fff"/><use xlink:href="#a" transform="matrix(1,0,0,1,25,25) translate(0 12.6222222222222)"/><use xlink:href="#b" transform="matrix(1,0,0,1,25,25) translate(77.88086419753071 12.6222222222222)"/><use xlink:href="#c" transform="matrix(1,0,0,1,25,25) translate(0 31.5555555555555)"/><use xlink:href="#d" transform="matrix(1,0,0,1,25,25) translate(59.561111111111 31.5555555555555)"/><use xlink:href="#e" transform="matrix(1,0,0,1,25,25) translate(0 50.4888888888888)"/><use xlink:href="#f" transform="matrix(1,0,0,1,25,25) translate(39.400617283950545 50.4888888888888)"/><use xlink:href="#g" transform="matrix(1,0,0,1,25,25) translate(0 69.4222222222221)"/><use xlink:href="#h" transform="matrix(1,0,0,1,25,25) translate(35.061728395061664 69.4222222222221)"/><use xlink:href="#i" transform="matrix(1,0,0,1,25,25) translate(0 88.35555555555541)"/><use xlink:href="#j" transform="matrix(1,0,0,1,25,25) translate(73.58580246913567 88.35555555555541)"/><use xlink:href="#k" transform="matrix(1,0,0,1,25,25) translate(0 107.28888888888872)"/><use xlink:href="#l" transform="matrix(1,0,0,1,25,25) translate(0 126.22222222222203)"/><use xlink:href="#m" transform="matrix(1,0,0,1,25,25) translate(97.99753086419736 126.22222222222203)"/><path d="M220 41.93h100v100H220z" stroke="#000" stroke-width="2" fill="#fff"/><use xlink:href="#a" transform="matrix(1,0,0,1,225,46.93333333333328) translate(0 12.6222222222222)"/><use xlink:href="#b" transform="matrix(1,0,0,1,225,46.93333333333328) translate(77.88086419753071 12.6222222222222)"/><use xlink:href="#c" transform="matrix(1,0,0,1,225,46.93333333333328) translate(0 31.5555555555555)"/><use xlink:href="#n" transform="matrix(1,0,0,1,225,46.93333333333328) translate(59.561111111111 31.5555555555555)"/><use xlink:href="#e" transform="matrix(1,0,0,1,225,46.93333333333328) translate(0 50.4888888888888)"/><use xlink:href="#f" transform="matrix(1,0,0,1,225,46.93333333333328) translate(39.400617283950545 50.4888888888888)"/><use xlink:href="#g" transform="matrix(1,0,0,1,225,46.93333333333328) translate(0 69.4222222222221)"/><use xlink:href="#o" transform="matrix(1,0,0,1,225,46.93333333333328) translate(35.061728395061664 69.4222222222221)"/><use xlink:href="#p" transform="matrix(1,0,0,1,225,46.93333333333328) translate(0 88.35555555555541)"/><use xlink:href="#q" transform="matrix(1,0,0,1,225,46.93333333333328) translate(65.65308641975295 88.35555555555541)"/><path d="M320 41.93h100v100H320z" stroke="#000" stroke-width="2" fill="#fff"/><g><use xlink:href="#a" transform="matrix(1,0,0,1,325,46.93333333333328) translate(0 12.6222222222222)"/><use xlink:href="#n" transform="matrix(1,0,0,1,325,46.93333333333328) translate(77.88086419753071 12.6222222222222)"/><use xlink:href="#c" transform="matrix(1,0,0,1,325,46.93333333333328) translate(0 31.5555555555555)"/><use xlink:href="#j" transform="matrix(1,0,0,1,325,46.93333333333328) translate(59.561111111111 31.5555555555555)"/><use xlink:href="#e" transform="matrix(1,0,0,1,325,46.93333333333328) translate(0 50.4888888888888)"/><use xlink:href="#r" transform="matrix(1,0,0,1,325,46.93333333333328) translate(39.400617283950545 50.4888888888888)"/><use xlink:href="#g" transform="matrix(1,0,0,1,325,46.93333333333328) translate(0 69.4222222222221)"/><use xlink:href="#s" transform="matrix(1,0,0,1,325,46.93333333333328) translate(35.061728395061664 69.4222222222221)"/><use xlink:href="#p" transform="matrix(1,0,0,1,325,46.93333333333328) translate(0 88.35555555555541)"/><use xlink:href="#t" transform="matrix(1,0,0,1,325,46.93333333333328) translate(65.65308641975295 88.35555555555541)"/></g><path d="M420 41.93h100v100H420z" stroke="#000" stroke-width="2" fill="#fff"/><g><use xlink:href="#a" transform="matrix(1,0,0,1,425,46.93333333333328) translate(0 12.6222222222222)"/><use xlink:href="#j" transform="matrix(1,0,0,1,425,46.93333333333328) translate(77.88086419753071 12.6222222222222)"/><use xlink:href="#c" transform="matrix(1,0,0,1,425,46.93333333333328) translate(0 31.5555555555555)"/><use xlink:href="#u" transform="matrix(1,0,0,1,425,46.93333333333328) translate(59.561111111111 31.5555555555555)"/><use xlink:href="#e" transform="matrix(1,0,0,1,425,46.93333333333328) translate(0 50.4888888888888)"/><use xlink:href="#v" transform="matrix(1,0,0,1,425,46.93333333333328) translate(39.400617283950545 50.4888888888888)"/><use xlink:href="#g" transform="matrix(1,0,0,1,425,46.93333333333328) translate(0 69.4222222222221)"/><use xlink:href="#w" transform="matrix(1,0,0,1,425,46.93333333333328) translate(35.061728395061664 69.4222222222221)"/><use xlink:href="#p" transform="matrix(1,0,0,1,425,46.93333333333328) translate(0 88.35555555555541)"/><use xlink:href="#x" transform="matrix(1,0,0,1,425,46.93333333333328) translate(65.65308641975295 88.35555555555541)"/></g><path d="M71.37 127.53l19.44-.14 13.9-.7 10.05-.92 7.6-1.02 6-1.06 4.84-1.08 4.04-1.07 3.45-1.07 3-1.08 2.7-1.1 2.47-1.12 2.3-1.17 2.25-1.25 2.27-1.4 2.53-1.72 4.13-3.08 6.45-4.9 2.25-1.5 1.94-1.2 1.84-1.05 1.84-.93 1.92-.87 2.03-.83 2.2-.8 2.46-.75 2.78-.74 3.22-.72 3.84-.68 4.68-.63.7-.06" stroke="#000" stroke-width="2" stroke-linejoin="round" fill="none"/><path d="M71.4 127.53h-1.03" stroke="#000" stroke-width="2" fill="none"/><path d="M215.77 92.1l-14 5.37-.5-9.26z" stroke="#000" stroke-width="2"/><path d="M520 41.93h100v100H520z" stroke="#000" stroke-width="2" fill="#fff"/><g><use xlink:href="#a" transform="matrix(1,0,0,1,525,46.93333333333328) translate(0 12.6222222222222)"/><use xlink:href="#u" transform="matrix(1,0,0,1,525,46.93333333333328) translate(77.88086419753071 12.6222222222222)"/><use xlink:href="#c" transform="matrix(1,0,0,1,525,46.93333333333328) translate(0 31.5555555555555)"/><use xlink:href="#y" transform="matrix(1,0,0,1,525,46.93333333333328) translate(59.561111111111 31.5555555555555)"/><use xlink:href="#e" transform="matrix(1,0,0,1,525,46.93333333333328) translate(0 50.4888888888888)"/><use xlink:href="#w" transform="matrix(1,0,0,1,525,46.93333333333328) translate(39.400617283950545 50.4888888888888)"/><use xlink:href="#g" transform="matrix(1,0,0,1,525,46.93333333333328) translate(0 69.4222222222221)"/><use xlink:href="#z" transform="matrix(1,0,0,1,525,46.93333333333328) translate(35.061728395061664 69.4222222222221)"/><use xlink:href="#p" transform="matrix(1,0,0,1,525,46.93333333333328) translate(0 88.35555555555541)"/><use xlink:href="#q" transform="matrix(1,0,0,1,525,46.93333333333328) translate(65.65308641975295 88.35555555555541)"/></g><path d="M620 41.93h100v100H620z" stroke="#000" stroke-width="2" fill="#fff"/><g><use xlink:href="#a" transform="matrix(1,0,0,1,625,46.93333333333328) translate(0 12.6222222222222)"/><use xlink:href="#y" transform="matrix(1,0,0,1,625,46.93333333333328) translate(77.88086419753071 12.6222222222222)"/><use xlink:href="#c" transform="matrix(1,0,0,1,625,46.93333333333328) translate(0 31.5555555555555)"/><use xlink:href="#d" transform="matrix(1,0,0,1,625,46.93333333333328) translate(59.561111111111 31.5555555555555)"/><use xlink:href="#e" transform="matrix(1,0,0,1,625,46.93333333333328) translate(0 50.4888888888888)"/><use xlink:href="#z" transform="matrix(1,0,0,1,625,46.93333333333328) translate(39.400617283950545 50.4888888888888)"/><use xlink:href="#g" transform="matrix(1,0,0,1,625,46.93333333333328) translate(0 69.4222222222221)"/><use xlink:href="#h" transform="matrix(1,0,0,1,625,46.93333333333328) translate(35.061728395061664 69.4222222222221)"/><use xlink:href="#p" transform="matrix(1,0,0,1,625,46.93333333333328) translate(0 88.35555555555541)"/><use xlink:href="#t" transform="matrix(1,0,0,1,625,46.93333333333328) translate(65.65308641975295 88.35555555555541)"/></g><defs><path d="M101-234c-31-9-42 10-38 44h38v23H63V0H32v-167H5v-23h27c-7-52 17-82 69-68v24" id="A"/><path d="M114-163C36-179 61-72 57 0H25l-1-190h30c1 12-1 29 2 39 6-27 23-49 58-41v29" id="B"/><path d="M100-194c62-1 85 37 85 99 1 63-27 99-86 99S16-35 15-95c0-66 28-99 85-99zM99-20c44 1 53-31 53-75 0-43-8-75-51-75s-53 32-53 75 10 74 51 75" id="C"/><path d="M210-169c-67 3-38 105-44 169h-31v-121c0-29-5-50-35-48C34-165 62-65 56 0H25l-1-190h30c1 10-1 24 2 32 10-44 99-50 107 0 11-21 27-35 58-36 85-2 47 119 55 194h-31v-121c0-29-5-49-35-48" id="D"/><path d="M190 0L58-211 59 0H30v-248h39L202-35l-2-213h31V0h-41" id="E"/><path d="M85-194c31 0 48 13 60 33l-1-100h32l1 261h-30c-2-10 0-23-3-31C134-8 116 4 85 4 32 4 16-35 15-94c0-66 23-100 70-100zm9 24c-40 0-46 34-46 75 0 40 6 74 45 74 42 0 51-32 51-76 0-42-9-74-50-73" id="F"/><path d="M100-194c63 0 86 42 84 106H49c0 40 14 67 53 68 26 1 43-12 49-29l28 8c-11 28-37 45-77 45C44 4 14-33 15-96c1-61 26-98 85-98zm52 81c6-60-76-77-97-28-3 7-6 17-6 28h103" id="G"/><path d="M33-154v-36h34v36H33zM33 0v-36h34V0H33" id="H"/><g id="a"><use transform="matrix(0.04382716049382708,0,0,0.04382716049382708,0,0)" xlink:href="#A"/><use transform="matrix(0.04382716049382708,0,0,0.04382716049382708,4.382716049382708,0)" xlink:href="#B"/><use transform="matrix(0.04382716049382708,0,0,0.04382716049382708,9.59814814814813,0)" xlink:href="#C"/><use transform="matrix(0.04382716049382708,0,0,0.04382716049382708,18.363580246913546,0)" xlink:href="#D"/><use transform="matrix(0.04382716049382708,0,0,0.04382716049382708,31.467901234567844,0)" xlink:href="#E"/><use transform="matrix(0.04382716049382708,0,0,0.04382716049382708,42.819135802469056,0)" xlink:href="#C"/><use transform="matrix(0.04382716049382708,0,0,0.04382716049382708,51.58456790123447,0)" xlink:href="#F"/><use transform="matrix(0.04382716049382708,0,0,0.04382716049382708,60.34999999999989,0)" xlink:href="#G"/><use transform="matrix(0.04382716049382708,0,0,0.04382716049382708,69.1154320987653,0)" xlink:href="#H"/></g><path d="M101-251c68 0 85 55 85 127S166 4 100 4C33 4 14-52 14-124c0-73 17-127 87-127zm-1 229c47 0 54-49 54-102s-4-102-53-102c-51 0-55 48-55 102 0 53 5 102 54 102" id="I"/><use transform="matrix(0.04382716049382708,0,0,0.04382716049382708,0,0)" xlink:href="#I" id="b"/><path d="M59-47c-2 24 18 29 38 22v24C64 9 27 4 27-40v-127H5v-23h24l9-43h21v43h35v23H59v120" id="J"/><g id="c"><use transform="matrix(0.04382716049382708,0,0,0.04382716049382708,0,0)" xlink:href="#J"/><use transform="matrix(0.04382716049382708,0,0,0.04382716049382708,4.382716049382708,0)" xlink:href="#C"/><use transform="matrix(0.04382716049382708,0,0,0.04382716049382708,13.148148148148124,0)" xlink:href="#E"/><use transform="matrix(0.04382716049382708,0,0,0.04382716049382708,24.49938271604934,0)" xlink:href="#C"/><use transform="matrix(0.04382716049382708,0,0,0.04382716049382708,33.264814814814756,0)" xlink:href="#F"/><use transform="matrix(0.04382716049382708,0,0,0.04382716049382708,42.03024691358017,0)" xlink:href="#G"/><use transform="matrix(0.04382716049382708,0,0,0.04382716049382708,50.79567901234559,0)" xlink:href="#H"/></g><path d="M126-127c33 6 58 20 58 59 0 88-139 92-164 29-3-8-5-16-6-25l32-3c6 27 21 44 54 44 32 0 52-15 52-46 0-38-36-46-79-43v-28c39 1 72-4 72-42 0-27-17-43-46-43-28 0-47 15-49 41l-32-3c6-42 35-63 81-64 48-1 79 21 79 65 0 36-21 52-52 59" id="K"/><use transform="matrix(0.04382716049382708,0,0,0.04382716049382708,0,0)" xlink:href="#K" id="d"/><path d="M135-143c-3-34-86-38-87 0 15 53 115 12 119 90S17 21 10-45l28-5c4 36 97 45 98 0-10-56-113-15-118-90-4-57 82-63 122-42 12 7 21 19 24 35" id="L"/><path d="M141-36C126-15 110 5 73 4 37 3 15-17 15-53c-1-64 63-63 125-63 3-35-9-54-41-54-24 1-41 7-42 31l-33-3c5-37 33-52 76-52 45 0 72 20 72 64v82c-1 20 7 32 28 27v20c-31 9-61-2-59-35zM48-53c0 20 12 33 32 33 41-3 63-29 60-74-43 2-92-5-92 41" id="M"/><g id="e"><use transform="matrix(0.04382716049382708,0,0,0.04382716049382708,0,0)" xlink:href="#L"/><use transform="matrix(0.04382716049382708,0,0,0.04382716049382708,7.888888888888874,0)" xlink:href="#J"/><use transform="matrix(0.04382716049382708,0,0,0.04382716049382708,12.271604938271583,0)" xlink:href="#M"/><use transform="matrix(0.04382716049382708,0,0,0.04382716049382708,21.037037037037,0)" xlink:href="#B"/><use transform="matrix(0.04382716049382708,0,0,0.04382716049382708,26.25246913580242,0)" xlink:href="#J"/><use transform="matrix(0.04382716049382708,0,0,0.04382716049382708,30.63518518518513,0)" xlink:href="#H"/></g><path d="M27 0v-27h64v-190l-56 39v-29l58-41h29v221h61V0H27" id="N"/><path d="M101-251c82-7 93 87 43 132L82-64C71-53 59-42 53-27h129V0H18c2-99 128-94 128-182 0-28-16-43-45-43s-46 15-49 41l-32-3c6-41 34-60 81-64" id="O"/><path d="M155-56V0h-30v-56H8v-25l114-167h33v167h35v25h-35zm-30-156c-27 46-58 90-88 131h88v-131" id="P"/><g id="f"><use transform="matrix(0.04382716049382708,0,0,0.04382716049382708,0,0)" xlink:href="#N"/><use transform="matrix(0.04382716049382708,0,0,0.04382716049382708,8.765432098765416,0)" xlink:href="#O"/><use transform="matrix(0.04382716049382708,0,0,0.04382716049382708,17.530864197530832,0)" xlink:href="#H"/><use transform="matrix(0.04382716049382708,0,0,0.04382716049382708,21.91358024691354,0)" xlink:href="#I"/><use transform="matrix(0.04382716049382708,0,0,0.04382716049382708,30.679012345678956,0)" xlink:href="#P"/></g><path d="M117-194c89-4 53 116 60 194h-32v-121c0-31-8-49-39-48C34-167 62-67 57 0H25l-1-190h30c1 10-1 24 2 32 11-22 29-35 61-36" id="Q"/><g id="g"><use transform="matrix(0.04382716049382708,0,0,0.04382716049382708,0,0)" xlink:href="#G"/><use transform="matrix(0.04382716049382708,0,0,0.04382716049382708,8.765432098765416,0)" xlink:href="#Q"/><use transform="matrix(0.04382716049382708,0,0,0.04382716049382708,17.530864197530832,0)" xlink:href="#F"/><use transform="matrix(0.04382716049382708,0,0,0.04382716049382708,26.296296296296248,0)" xlink:href="#H"/></g><g id="h"><use transform="matrix(0.04382716049382708,0,0,0.04382716049382708,0,0)" xlink:href="#N"/><use transform="matrix(0.04382716049382708,0,0,0.04382716049382708,8.765432098765416,0)" xlink:href="#O"/><use transform="matrix(0.04382716049382708,0,0,0.04382716049382708,17.530864197530832,0)" xlink:href="#H"/><use transform="matrix(0.04382716049382708,0,0,0.04382716049382708,21.91358024691354,0)" xlink:href="#K"/><use transform="matrix(0.04382716049382708,0,0,0.04382716049382708,30.679012345678956,0)" xlink:href="#P"/></g><path d="M84 4C-5 8 30-112 23-190h32v120c0 31 7 50 39 49 72-2 45-101 50-169h31l1 190h-30c-1-10 1-25-2-33-11 22-28 36-60 37" id="R"/><path d="M30 0v-248h33v221h125V0H30" id="S"/><path d="M177-190C167-65 218 103 67 71c-23-6-38-20-44-43l32-5c15 47 100 32 89-28v-30C133-14 115 1 83 1 29 1 15-40 15-95c0-56 16-97 71-98 29-1 48 16 59 35 1-10 0-23 2-32h30zM94-22c36 0 50-32 50-73 0-42-14-75-50-75-39 0-46 34-46 75s6 73 46 73" id="T"/><g id="i"><use transform="matrix(0.04382716049382708,0,0,0.04382716049382708,0,0)" xlink:href="#Q"/><use transform="matrix(0.04382716049382708,0,0,0.04382716049382708,8.765432098765416,0)" xlink:href="#R"/><use transform="matrix(0.04382716049382708,0,0,0.04382716049382708,17.530864197530832,0)" xlink:href="#D"/><use transform="matrix(0.04382716049382708,0,0,0.04382716049382708,30.63518518518513,0)" xlink:href="#S"/><use transform="matrix(0.04382716049382708,0,0,0.04382716049382708,39.400617283950545,0)" xlink:href="#G"/><use transform="matrix(0.04382716049382708,0,0,0.04382716049382708,48.16604938271596,0)" xlink:href="#T"/><use transform="matrix(0.04382716049382708,0,0,0.04382716049382708,56.93148148148138,0)" xlink:href="#L"/><use transform="matrix(0.04382716049382708,0,0,0.04382716049382708,64.82037037037026,0)" xlink:href="#H"/></g><path d="M54-142c48-35 137-8 131 61C196 18 31 33 14-55l32-4c7 23 22 37 52 37 35-1 51-22 54-58 4-55-73-65-99-34H22l8-134h141v27H59" id="U"/><use transform="matrix(0.04382716049382708,0,0,0.04382716049382708,0,0)" xlink:href="#U" id="j"/><path d="M24 0v-261h32V0H24" id="V"/><g id="k"><use transform="matrix(0.04382716049382708,0,0,0.04382716049382708,0,0)" xlink:href="#V"/><use transform="matrix(0.04382716049382708,0,0,0.04382716049382708,3.4623456790123393,0)" xlink:href="#G"/><use transform="matrix(0.04382716049382708,0,0,0.04382716049382708,12.227777777777755,0)" xlink:href="#T"/><use transform="matrix(0.04382716049382708,0,0,0.04382716049382708,20.99320987654317,0)" xlink:href="#L"/><use transform="matrix(0.04382716049382708,0,0,0.04382716049382708,28.882098765432048,0)" xlink:href="#H"/></g><path d="M30-248c118-7 216 8 213 122C240-48 200 0 122 0H30v-248zM63-27c89 8 146-16 146-99s-60-101-146-95v194" id="W"/><path d="M24-231v-30h32v30H24zM24 0v-190h32V0H24" id="X"/><g id="l"><use transform="matrix(0.04382716049382708,0,0,0.04382716049382708,0,0)" xlink:href="#J"/><use transform="matrix(0.04382716049382708,0,0,0.04382716049382708,4.382716049382708,0)" xlink:href="#C"/><use transform="matrix(0.04382716049382708,0,0,0.04382716049382708,13.148148148148124,0)" xlink:href="#J"/><use transform="matrix(0.04382716049382708,0,0,0.04382716049382708,17.530864197530832,0)" xlink:href="#M"/><use transform="matrix(0.04382716049382708,0,0,0.04382716049382708,26.296296296296248,0)" xlink:href="#V"/><use transform="matrix(0.04382716049382708,0,0,0.04382716049382708,29.75864197530859,0)" xlink:href="#W"/><use transform="matrix(0.04382716049382708,0,0,0.04382716049382708,41.1098765432098,0)" xlink:href="#R"/><use transform="matrix(0.04382716049382708,0,0,0.04382716049382708,49.87530864197522,0)" xlink:href="#B"/><use transform="matrix(0.04382716049382708,0,0,0.04382716049382708,55.09074074074064,0)" xlink:href="#M"/><use transform="matrix(0.04382716049382708,0,0,0.04382716049382708,63.85617283950606,0)" xlink:href="#J"/><use transform="matrix(0.04382716049382708,0,0,0.04382716049382708,68.23888888888877,0)" xlink:href="#X"/><use transform="matrix(0.04382716049382708,0,0,0.04382716049382708,71.70123456790111,0)" xlink:href="#C"/><use transform="matrix(0.04382716049382708,0,0,0.04382716049382708,80.46666666666653,0)" xlink:href="#Q"/><use transform="matrix(0.04382716049382708,0,0,0.04382716049382708,89.23209876543194,0)" xlink:href="#H"/></g><g id="m"><use transform="matrix(0.04382716049382708,0,0,0.04382716049382708,0,0)" xlink:href="#K"/><use transform="matrix(0.04382716049382708,0,0,0.04382716049382708,8.765432098765416,0)" xlink:href="#I"/></g><use transform="matrix(0.04382716049382708,0,0,0.04382716049382708,0,0)" xlink:href="#N" id="n"/><path d="M99-251c64 0 84 50 84 122C183-37 130 33 47-8c-14-7-20-23-25-40l30-5c6 39 69 39 84 7 9-19 16-44 16-74-10 22-31 35-62 35-49 0-73-33-73-83 0-54 28-83 82-83zm-1 141c31-1 51-18 51-49 0-36-14-67-51-67-34 0-49 23-49 58 0 34 15 58 49 58" id="Y"/><g id="o"><use transform="matrix(0.04382716049382708,0,0,0.04382716049382708,0,0)" xlink:href="#N"/><use transform="matrix(0.04382716049382708,0,0,0.04382716049382708,8.765432098765416,0)" xlink:href="#O"/><use transform="matrix(0.04382716049382708,0,0,0.04382716049382708,17.530864197530832,0)" xlink:href="#H"/><use transform="matrix(0.04382716049382708,0,0,0.04382716049382708,21.91358024691354,0)" xlink:href="#I"/><use transform="matrix(0.04382716049382708,0,0,0.04382716049382708,30.679012345678956,0)" xlink:href="#Y"/></g><g id="p"><use transform="matrix(0.04382716049382708,0,0,0.04382716049382708,0,0)" xlink:href="#F"/><use transform="matrix(0.04382716049382708,0,0,0.04382716049382708,8.765432098765416,0)" xlink:href="#R"/><use transform="matrix(0.04382716049382708,0,0,0.04382716049382708,17.530864197530832,0)" xlink:href="#B"/><use transform="matrix(0.04382716049382708,0,0,0.04382716049382708,22.746296296296254,0)" xlink:href="#M"/><use transform="matrix(0.04382716049382708,0,0,0.04382716049382708,31.51172839506167,0)" xlink:href="#J"/><use transform="matrix(0.04382716049382708,0,0,0.04382716049382708,35.894444444444375,0)" xlink:href="#X"/><use transform="matrix(0.04382716049382708,0,0,0.04382716049382708,39.35679012345671,0)" xlink:href="#C"/><use transform="matrix(0.04382716049382708,0,0,0.04382716049382708,48.12222222222213,0)" xlink:href="#Q"/><use transform="matrix(0.04382716049382708,0,0,0.04382716049382708,56.887654320987544,0)" xlink:href="#H"/></g><use transform="matrix(0.04382716049382708,0,0,0.04382716049382708,0,0)" xlink:href="#U" id="q"/><g id="r"><use transform="matrix(0.04382716049382708,0,0,0.04382716049382708,0,0)" xlink:href="#N"/><use transform="matrix(0.04382716049382708,0,0,0.04382716049382708,8.765432098765416,0)" xlink:href="#O"/><use transform="matrix(0.04382716049382708,0,0,0.04382716049382708,17.530864197530832,0)" xlink:href="#H"/><use transform="matrix(0.04382716049382708,0,0,0.04382716049382708,21.91358024691354,0)" xlink:href="#N"/><use transform="matrix(0.04382716049382708,0,0,0.04382716049382708,30.679012345678956,0)" xlink:href="#I"/></g><g id="s"><use transform="matrix(0.04382716049382708,0,0,0.04382716049382708,0,0)" xlink:href="#N"/><use transform="matrix(0.04382716049382708,0,0,0.04382716049382708,8.765432098765416,0)" xlink:href="#O"/><use transform="matrix(0.04382716049382708,0,0,0.04382716049382708,17.530864197530832,0)" xlink:href="#H"/><use transform="matrix(0.04382716049382708,0,0,0.04382716049382708,21.91358024691354,0)" xlink:href="#N"/><use transform="matrix(0.04382716049382708,0,0,0.04382716049382708,30.679012345678956,0)" xlink:href="#P"/></g><use transform="matrix(0.04382716049382708,0,0,0.04382716049382708,0,0)" xlink:href="#P" id="t"/><path d="M110-160c48 1 74 30 74 79 0 53-28 85-80 85-65 0-83-55-86-122-5-90 50-162 133-122 14 7 22 21 27 39l-31 6c-5-40-67-38-82-6-9 19-15 44-15 74 11-20 30-34 60-33zm-7 138c34 0 49-23 49-58s-16-56-50-56c-29 0-50 16-49 49 1 36 15 65 50 65" id="Z"/><use transform="matrix(0.04382716049382708,0,0,0.04382716049382708,0,0)" xlink:href="#Z" id="u"/><g id="v"><use transform="matrix(0.04382716049382708,0,0,0.04382716049382708,0,0)" xlink:href="#N"/><use transform="matrix(0.04382716049382708,0,0,0.04382716049382708,8.765432098765416,0)" xlink:href="#O"/><use transform="matrix(0.04382716049382708,0,0,0.04382716049382708,17.530864197530832,0)" xlink:href="#H"/><use transform="matrix(0.04382716049382708,0,0,0.04382716049382708,21.91358024691354,0)" xlink:href="#N"/><use transform="matrix(0.04382716049382708,0,0,0.04382716049382708,30.679012345678956,0)" xlink:href="#U"/></g><g id="w"><use transform="matrix(0.04382716049382708,0,0,0.04382716049382708,0,0)" xlink:href="#N"/><use transform="matrix(0.04382716049382708,0,0,0.04382716049382708,8.765432098765416,0)" xlink:href="#O"/><use transform="matrix(0.04382716049382708,0,0,0.04382716049382708,17.530864197530832,0)" xlink:href="#H"/><use transform="matrix(0.04382716049382708,0,0,0.04382716049382708,21.91358024691354,0)" xlink:href="#O"/><use transform="matrix(0.04382716049382708,0,0,0.04382716049382708,30.679012345678956,0)" xlink:href="#U"/></g><g id="x"><use transform="matrix(0.04382716049382708,0,0,0.04382716049382708,0,0)" xlink:href="#N"/><use transform="matrix(0.04382716049382708,0,0,0.04382716049382708,8.765432098765416,0)" xlink:href="#I"/></g><path d="M64 0c3-98 48-159 88-221H18v-27h164v26C143-157 98-101 97 0H64" id="aa"/><use transform="matrix(0.04382716049382708,0,0,0.04382716049382708,0,0)" xlink:href="#aa" id="y"/><g id="z"><use transform="matrix(0.04382716049382708,0,0,0.04382716049382708,0,0)" xlink:href="#N"/><use transform="matrix(0.04382716049382708,0,0,0.04382716049382708,8.765432098765416,0)" xlink:href="#O"/><use transform="matrix(0.04382716049382708,0,0,0.04382716049382708,17.530864197530832,0)" xlink:href="#H"/><use transform="matrix(0.04382716049382708,0,0,0.04382716049382708,21.91358024691354,0)" xlink:href="#K"/><use transform="matrix(0.04382716049382708,0,0,0.04382716049382708,30.679012345678956,0)" xlink:href="#I"/></g></defs></g></svg>