<svg xmlns="http://www.w3.org/2000/svg" xmlns:xlink="http://www.w3.org/1999/xlink" xmlns:lucid="lucid" width="502" height="182"><g transform="translate(1 1)" lucid:page-tab-id="0_0"><path d="M0 0h1870.4v1323.2H0z" fill="#fff"/><path d="M60 40c0 11.05-8.95 20-20 20s-20-8.95-20-20 8.95-20 20-20 20 8.95 20 20z" stroke="#000" stroke-width="2" fill="#fff"/><use xlink:href="#a" transform="matrix(1,0,0,1,25,25) translate(8.770432098765438 22.830555555555538)"/><path d="M180 40c0 11.05-8.95 20-20 20s-20-8.95-20-20 8.95-20 20-20 20 8.95 20 20z" fill="#fff"/><path d="M178.53 47.1l-.97 2.48-2.12 2.93m-2.95 2.93l-1.7 1.4-3.67 1.76m-4.03 1.02l-1.66.33L160 60l-3.1-.4m-4-1.07l-2.47-.97-2.94-2.12m-2.93-2.95l-1.4-1.7-1.76-3.67m-1.02-4.03l-.33-1.66L140 40l.4-3.1m1.07-4l.97-2.47 2.12-2.94m2.95-2.93l1.7-1.4 3.67-1.76m4.03-1.02l1.66-.33L160 20l3.1.4m4 1.07l2.47.97 2.94 2.12m2.93 2.95l1.4 1.7 1.76 3.67m1.02 4.03l.33 1.66L180 40l-.4 3.1" stroke="#e81313" stroke-width="2" fill="none"/><use xlink:href="#b" transform="matrix(1,0,0,1,145,25) translate(8.770432098765438 22.830555555555538)"/><path d="M360 40c0 11.05-8.95 20-20 20s-20-8.95-20-20 8.95-20 20-20 20 8.95 20 20z" stroke="#000" stroke-width="2" fill="#fff"/><use xlink:href="#c" transform="matrix(1,0,0,1,325,25) translate(8.770432098765438 22.830555555555538)"/><path d="M62 40h76" stroke="#333" stroke-width="2" fill="none"/><path d="M62.03 41h-1.15l.12-.95-.03-1.05h1.06zM139 39.95l.03 1.05h-1.06v-2h1.15z" stroke="#333" stroke-width=".05" fill="#333"/><use xlink:href="#d" transform="matrix(1,0,0,1,95.06172839506172,14.666666666666664) translate(0.004999999999999893 14.222222222222223)"/><path d="M182 40h136" stroke="#333" stroke-width="2" fill="none"/><path d="M182.03 41h-1.15l.12-.95-.03-1.05h1.06zM319 39.95l.04 1.05h-1.07v-2h1.15z" stroke="#333" stroke-width=".05" fill="#333"/><use xlink:href="#e" transform="matrix(1,0,0,1,240.12345679012344,14.666666666666664) translate(0.005000000000000782 14.222222222222223)"/><use xlink:href="#f" transform="matrix(1,0,0,1,217.29938271604937,44) translate(16.671666666666667 8.88888888888889)"/><use xlink:href="#g" transform="matrix(1,0,0,1,217.29938271604937,44) translate(0.005000000000002558 22.22222222222222)"/><use xlink:href="#h" transform="matrix(1,0,0,1,217.29938271604937,44) translate(30.8691975308642 22.22222222222222)"/><use xlink:href="#i" transform="matrix(1,0,0,1,217.29938271604937,44) translate(37.62845679012346 22.22222222222222)"/><path d="M60 140c0 11.05-8.95 20-20 20s-20-8.95-20-20 8.95-20 20-20 20 8.95 20 20z" stroke="#000" stroke-width="2" fill="#fff"/><use xlink:href="#j" transform="matrix(1,0,0,1,25,125) translate(8.770432098765438 22.830555555555538)"/><path d="M40 62v56" stroke="#333" stroke-width="2" fill="none"/><path d="M39.95 61l1.05-.03v1.06h-2v-1.15zM41 119.12l-.95-.12-1.05.03v-1.06h2z" stroke="#333" stroke-width=".05" fill="#333"/><use xlink:href="#k" transform="matrix(1,0,0,1,22.123456790123452,79.33333333333333) translate(0.004999999999999893 14.222222222222223)"/><path d="M180 140c0 11.05-8.95 20-20 20s-20-8.95-20-20 8.95-20 20-20 20 8.95 20 20z" fill="#fff"/><path d="M178.53 147.1l-.97 2.47-2.12 2.94m-2.95 2.93l-1.7 1.4-3.67 1.76m-4.03 1.02l-1.66.33-1.44.05-3.1-.4m-4-1.07l-2.47-.97-2.94-2.12m-2.93-2.95l-1.4-1.7-1.76-3.67m-1.02-4.03l-.33-1.66L140 140l.4-3.1m1.07-4l.97-2.47 2.12-2.94m2.95-2.93l1.7-1.4 3.67-1.76m4.03-1.02l1.66-.33L160 120l3.1.4m4 1.07l2.47.97 2.94 2.12m2.93 2.95l1.4 1.7 1.76 3.67m1.02 4.03l.33 1.66.05 1.44-.4 3.1" stroke="#e81313" stroke-width="2" fill="none"/><use xlink:href="#l" transform="matrix(1,0,0,1,145,125) translate(8.770432098765438 22.830555555555538)"/><path d="M480 40c0 11.05-8.95 20-20 20s-20-8.95-20-20 8.95-20 20-20 20 8.95 20 20z" stroke="#000" stroke-width="2" fill="#fff"/><use xlink:href="#m" transform="matrix(1,0,0,1,445,25) translate(8.770432098765438 22.830555555555538)"/><path d="M362 40h76" stroke="#333" stroke-width="2" fill="none"/><path d="M362.03 41h-1.15l.12-.95-.04-1.05h1.07zM439 39.95l.04 1.05h-1.07v-2h1.15z" stroke="#333" stroke-width=".05" fill="#333"/><use xlink:href="#n" transform="matrix(1,0,0,1,390.12345679012344,14.666666666666664) translate(0.005000000000000782 14.222222222222223)"/><path d="M62 140h76" stroke="#333" stroke-width="2" fill="none"/><path d="M62.03 141h-1.15l.12-.96-.03-1.04h1.06zM139 139.96l.03 1.04h-1.06v-2h1.15z" stroke="#333" stroke-width=".05" fill="#333"/><use xlink:href="#o" transform="matrix(1,0,0,1,95.06172839506172,114.66666666666667) translate(0.004999999999999893 14.222222222222223)"/><path d="M160 100.5V62" stroke="#333" stroke-width="2" fill="none"/><path d="M160 115.76l-4.63-14.26h9.26z" stroke="#333" stroke-width="2" fill="#333"/><path d="M159.96 61l1.04-.03v1.06h-2v-1.15z" stroke="#333" stroke-width=".05" fill="#333"/><use xlink:href="#p" transform="matrix(1,0,0,1,137.48820187449923,79.33333333333333) translate(0.004999999999999893 14.222222222222223)"/><path d="M360 140c0 11.05-8.95 20-20 20s-20-8.95-20-20 8.95-20 20-20 20 8.95 20 20z" stroke="#000" stroke-width="2" fill="#fff"/><use xlink:href="#q" transform="matrix(1,0,0,1,325,125) translate(8.770432098765438 22.830555555555538)"/><path d="M340 79.5V118" stroke="#333" stroke-width="2" fill="none"/><path d="M340 64.24l4.63 14.26h-9.26z" stroke="#333" stroke-width="2" fill="#333"/><path d="M341 119.12l-.95-.12-1.05.03v-1.06h2z" stroke="#333" stroke-width=".05" fill="#333"/><use xlink:href="#k" transform="matrix(1,0,0,1,317.4882018744992,79.33333333333333) translate(0.004999999999999893 14.222222222222223)"/><path d="M480 140c0 11.05-8.95 20-20 20s-20-8.95-20-20 8.95-20 20-20 20 8.95 20 20z" stroke="#000" stroke-width="2" fill="#fff"/><use xlink:href="#r" transform="matrix(1,0,0,1,445,125) translate(8.770432098765438 22.830555555555538)"/><path d="M460 62v56" stroke="#333" stroke-width="2" fill="none"/><path d="M459.95 61l1.05-.03v1.06h-2v-1.15zM461 119.12l-.95-.12-1.05.03v-1.06h2z" stroke="#333" stroke-width=".05" fill="#333"/><use xlink:href="#p" transform="matrix(1,0,0,1,442.12345679012344,79.33333333333333) translate(0.004999999999999893 14.222222222222223)"/><path d="M438 140h-76" stroke="#333" stroke-width="2" fill="none"/><path d="M439 139.96l.04 1.04h-1.07v-2h1.15zM362.03 141h-1.15l.12-.96-.04-1.04h1.07z" stroke="#333" stroke-width=".05" fill="#333"/><use xlink:href="#d" transform="matrix(1,0,0,1,395.0617283950617,114.66666666666667) translate(0.004999999999999893 14.222222222222223)"/><path d="M318 140H182" stroke="#333" stroke-width="2" fill="none"/><path d="M319 139.96l.04 1.04h-1.07v-2h1.15zM182.03 141h-1.15l.12-.96-.03-1.04h1.06z" stroke="#333" stroke-width=".05" fill="#333"/><g><use xlink:href="#e" transform="matrix(1,0,0,1,240.12345679012344,114.66666666666667) translate(0.005000000000000782 14.222222222222223)"/></g><g><use xlink:href="#s" transform="matrix(1,0,0,1,217.29938271604937,143.99999999999997) translate(16.671666666666667 8.888888888888888)"/><use xlink:href="#t" transform="matrix(1,0,0,1,217.29938271604937,143.99999999999997) translate(0.005000000000002558 22.22222222222222)"/><use xlink:href="#u" transform="matrix(1,0,0,1,217.29938271604937,143.99999999999997) translate(30.8691975308642 22.22222222222222)"/><use xlink:href="#v" transform="matrix(1,0,0,1,217.29938271604937,143.99999999999997) translate(37.62845679012346 22.22222222222222)"/></g><defs><path d="M101-251c68 0 85 55 85 127S166 4 100 4C33 4 14-52 14-124c0-73 17-127 87-127zm-1 229c47 0 54-49 54-102s-4-102-53-102c-51 0-55 48-55 102 0 53 5 102 54 102" id="w"/><use transform="matrix(0.06234567901234562,0,0,0.06234567901234562,0,0)" xlink:href="#w" id="a"/><path d="M27 0v-27h64v-190l-56 39v-29l58-41h29v221h61V0H27" id="x"/><use transform="matrix(0.06234567901234562,0,0,0.06234567901234562,0,0)" xlink:href="#x" id="b"/><path d="M101-251c82-7 93 87 43 132L82-64C71-53 59-42 53-27h129V0H18c2-99 128-94 128-182 0-28-16-43-45-43s-46 15-49 41l-32-3c6-41 34-60 81-64" id="y"/><use transform="matrix(0.06234567901234562,0,0,0.06234567901234562,0,0)" xlink:href="#y" id="c"/><path fill="#333" d="M54-142c48-35 137-8 131 61C196 18 31 33 14-55l32-4c7 23 22 37 52 37 35-1 51-22 54-58 4-55-73-65-99-34H22l8-134h141v27H59" id="z"/><use transform="matrix(0.04938271604938272,0,0,0.04938271604938272,0,0)" xlink:href="#z" id="d"/><path fill="#333" d="M27 0v-27h64v-190l-56 39v-29l58-41h29v221h61V0H27" id="A"/><path fill="#333" d="M101-251c68 0 85 55 85 127S166 4 100 4C33 4 14-52 14-124c0-73 17-127 87-127zm-1 229c47 0 54-49 54-102s-4-102-53-102c-51 0-55 48-55 102 0 53 5 102 54 102" id="B"/><g id="e"><use transform="matrix(0.04938271604938272,0,0,0.04938271604938272,0,0)" xlink:href="#A"/><use transform="matrix(0.04938271604938272,0,0,0.04938271604938272,9.876543209876544,0)" xlink:href="#B"/></g><path fill="#333" d="M96-169c-40 0-48 33-48 73s9 75 48 75c24 0 41-14 43-38l32 2c-6 37-31 61-74 61-59 0-76-41-82-99-10-93 101-131 147-64 4 7 5 14 7 22l-32 3c-4-21-16-35-41-35" id="C"/><path fill="#333" d="M24 0v-261h32V0H24" id="D"/><path fill="#333" d="M100-194c62-1 85 37 85 99 1 63-27 99-86 99S16-35 15-95c0-66 28-99 85-99zM99-20c44 1 53-31 53-75 0-43-8-75-51-75s-53 32-53 75 10 74 51 75" id="E"/><path fill="#333" d="M135-143c-3-34-86-38-87 0 15 53 115 12 119 90S17 21 10-45l28-5c4 36 97 45 98 0-10-56-113-15-118-90-4-57 82-63 122-42 12 7 21 19 24 35" id="F"/><path fill="#333" d="M100-194c63 0 86 42 84 106H49c0 40 14 67 53 68 26 1 43-12 49-29l28 8c-11 28-37 45-77 45C44 4 14-33 15-96c1-61 26-98 85-98zm52 81c6-60-76-77-97-28-3 7-6 17-6 28h103" id="G"/><path fill="#333" d="M85-194c31 0 48 13 60 33l-1-100h32l1 261h-30c-2-10 0-23-3-31C134-8 116 4 85 4 32 4 16-35 15-94c0-66 23-100 70-100zm9 24c-40 0-46 34-46 75 0 40 6 74 45 74 42 0 51-32 51-76 0-42-9-74-50-73" id="H"/><g id="f"><use transform="matrix(0.030864197530864196,0,0,0.030864197530864196,0,0)" xlink:href="#C"/><use transform="matrix(0.030864197530864196,0,0,0.030864197530864196,5.555555555555555,0)" xlink:href="#D"/><use transform="matrix(0.030864197530864196,0,0,0.030864197530864196,7.993827160493827,0)" xlink:href="#E"/><use transform="matrix(0.030864197530864196,0,0,0.030864197530864196,14.166666666666666,0)" xlink:href="#F"/><use transform="matrix(0.030864197530864196,0,0,0.030864197530864196,19.72222222222222,0)" xlink:href="#G"/><use transform="matrix(0.030864197530864196,0,0,0.030864197530864196,25.89506172839506,0)" xlink:href="#H"/></g><path fill="#333" d="M101-251c82-7 93 87 43 132L82-64C71-53 59-42 53-27h129V0H18c2-99 128-94 128-182 0-28-16-43-45-43s-46 15-49 41l-32-3c6-41 34-60 81-64" id="I"/><path fill="#333" d="M33-154v-36h34v36H33zM33 0v-36h34V0H33" id="J"/><g id="g"><use transform="matrix(0.030864197530864196,0,0,0.030864197530864196,0,0)" xlink:href="#A"/><use transform="matrix(0.030864197530864196,0,0,0.030864197530864196,6.172839506172839,0)" xlink:href="#I"/><use transform="matrix(0.030864197530864196,0,0,0.030864197530864196,12.345679012345679,0)" xlink:href="#J"/><use transform="matrix(0.030864197530864196,0,0,0.030864197530864196,15.432098765432098,0)" xlink:href="#B"/><use transform="matrix(0.030864197530864196,0,0,0.030864197530864196,21.604938271604937,0)" xlink:href="#B"/></g><path fill="#333" d="M16-82v-28h88v28H16" id="K"/><use transform="matrix(0.030864197530864196,0,0,0.030864197530864196,0,0)" xlink:href="#K" id="h"/><g id="i"><use transform="matrix(0.030864197530864196,0,0,0.030864197530864196,0,0)" xlink:href="#A"/><use transform="matrix(0.030864197530864196,0,0,0.030864197530864196,6.172839506172839,0)" xlink:href="#I"/><use transform="matrix(0.030864197530864196,0,0,0.030864197530864196,12.345679012345679,0)" xlink:href="#J"/><use transform="matrix(0.030864197530864196,0,0,0.030864197530864196,15.432098765432098,0)" xlink:href="#A"/><use transform="matrix(0.030864197530864196,0,0,0.030864197530864196,21.604938271604937,0)" xlink:href="#B"/></g><path d="M155-56V0h-30v-56H8v-25l114-167h33v167h35v25h-35zm-30-156c-27 46-58 90-88 131h88v-131" id="L"/><use transform="matrix(0.06234567901234562,0,0,0.06234567901234562,0,0)" xlink:href="#L" id="j"/><path fill="#333" d="M126-127c33 6 58 20 58 59 0 88-139 92-164 29-3-8-5-16-6-25l32-3c6 27 21 44 54 44 32 0 52-15 52-46 0-38-36-46-79-43v-28c39 1 72-4 72-42 0-27-17-43-46-43-28 0-47 15-49 41l-32-3c6-42 35-63 81-64 48-1 79 21 79 65 0 36-21 52-52 59" id="M"/><use transform="matrix(0.04938271604938272,0,0,0.04938271604938272,0,0)" xlink:href="#M" id="k"/><path d="M54-142c48-35 137-8 131 61C196 18 31 33 14-55l32-4c7 23 22 37 52 37 35-1 51-22 54-58 4-55-73-65-99-34H22l8-134h141v27H59" id="N"/><use transform="matrix(0.06234567901234562,0,0,0.06234567901234562,0,0)" xlink:href="#N" id="l"/><path d="M126-127c33 6 58 20 58 59 0 88-139 92-164 29-3-8-5-16-6-25l32-3c6 27 21 44 54 44 32 0 52-15 52-46 0-38-36-46-79-43v-28c39 1 72-4 72-42 0-27-17-43-46-43-28 0-47 15-49 41l-32-3c6-42 35-63 81-64 48-1 79 21 79 65 0 36-21 52-52 59" id="O"/><use transform="matrix(0.06234567901234562,0,0,0.06234567901234562,0,0)" xlink:href="#O" id="m"/><g id="n"><use transform="matrix(0.04938271604938272,0,0,0.04938271604938272,0,0)" xlink:href="#A"/><use transform="matrix(0.04938271604938272,0,0,0.04938271604938272,9.876543209876544,0)" xlink:href="#z"/></g><path fill="#333" d="M99-251c64 0 84 50 84 122C183-37 130 33 47-8c-14-7-20-23-25-40l30-5c6 39 69 39 84 7 9-19 16-44 16-74-10 22-31 35-62 35-49 0-73-33-73-83 0-54 28-83 82-83zm-1 141c31-1 51-18 51-49 0-36-14-67-51-67-34 0-49 23-49 58 0 34 15 58 49 58" id="P"/><use transform="matrix(0.04938271604938272,0,0,0.04938271604938272,0,0)" xlink:href="#P" id="o"/><path fill="#333" d="M155-56V0h-30v-56H8v-25l114-167h33v167h35v25h-35zm-30-156c-27 46-58 90-88 131h88v-131" id="Q"/><use transform="matrix(0.04938271604938272,0,0,0.04938271604938272,0,0)" xlink:href="#Q" id="p"/><path d="M110-160c48 1 74 30 74 79 0 53-28 85-80 85-65 0-83-55-86-122-5-90 50-162 133-122 14 7 22 21 27 39l-31 6c-5-40-67-38-82-6-9 19-15 44-15 74 11-20 30-34 60-33zm-7 138c34 0 49-23 49-58s-16-56-50-56c-29 0-50 16-49 49 1 36 15 65 50 65" id="R"/><use transform="matrix(0.06234567901234562,0,0,0.06234567901234562,0,0)" xlink:href="#R" id="q"/><path d="M64 0c3-98 48-159 88-221H18v-27h164v26C143-157 98-101 97 0H64" id="S"/><use transform="matrix(0.06234567901234562,0,0,0.06234567901234562,0,0)" xlink:href="#S" id="r"/><g id="s"><use transform="matrix(0.030864197530864192,0,0,0.030864197530864192,0,0)" xlink:href="#C"/><use transform="matrix(0.030864197530864192,0,0,0.030864197530864192,5.5555555555555545,0)" xlink:href="#D"/><use transform="matrix(0.030864197530864192,0,0,0.030864197530864192,7.993827160493826,0)" xlink:href="#E"/><use transform="matrix(0.030864197530864192,0,0,0.030864197530864192,14.166666666666664,0)" xlink:href="#F"/><use transform="matrix(0.030864197530864192,0,0,0.030864197530864192,19.722222222222218,0)" xlink:href="#G"/><use transform="matrix(0.030864197530864192,0,0,0.030864197530864192,25.895061728395056,0)" xlink:href="#H"/></g><g id="t"><use transform="matrix(0.030864197530864192,0,0,0.030864197530864192,0,0)" xlink:href="#A"/><use transform="matrix(0.030864197530864192,0,0,0.030864197530864192,6.1728395061728385,0)" xlink:href="#I"/><use transform="matrix(0.030864197530864192,0,0,0.030864197530864192,12.345679012345677,0)" xlink:href="#J"/><use transform="matrix(0.030864197530864192,0,0,0.030864197530864192,15.432098765432096,0)" xlink:href="#B"/><use transform="matrix(0.030864197530864192,0,0,0.030864197530864192,21.604938271604937,0)" xlink:href="#z"/></g><use transform="matrix(0.030864197530864192,0,0,0.030864197530864192,0,0)" xlink:href="#K" id="u"/><g id="v"><use transform="matrix(0.030864197530864192,0,0,0.030864197530864192,0,0)" xlink:href="#A"/><use transform="matrix(0.030864197530864192,0,0,0.030864197530864192,6.1728395061728385,0)" xlink:href="#I"/><use transform="matrix(0.030864197530864192,0,0,0.030864197530864192,12.345679012345677,0)" xlink:href="#J"/><use transform="matrix(0.030864197530864192,0,0,0.030864197530864192,15.432098765432096,0)" xlink:href="#A"/><use transform="matrix(0.030864197530864192,0,0,0.030864197530864192,21.604938271604937,0)" xlink:href="#z"/></g></defs></g></svg>