<svg xmlns="http://www.w3.org/2000/svg" xmlns:xlink="http://www.w3.org/1999/xlink" xmlns:lucid="lucid" width="422" height="325.87"><g transform="translate(1 1.000000000000007)" lucid:page-tab-id="0_0"><path d="M0 0h1760v1360H0z" fill="#fff"/><path d="M60 140.97c0 11.58-8.95 20.96-20 20.96s-20-9.38-20-20.96S28.95 120 40 120s20 9.4 20 20.97z" fill="#fff"/><path d="M58.6 148.28l-1 2.66-2 2.97m-2.93 3.1l-1.48 1.34-3.9 2.12m-4.1 1.15l-.5.15-2.7.18-3.2-.38m-4.07-1.18l-1.56-.6-3.93-2.65v-.02m-2.88-3.17l-.42-.47-2.4-4.43-.2-.72m-1.1-4.13l-.02-.1-.22-3.1.38-3.2m1.03-4.12l1-2.66 2-2.97m2.93-3.1l1.48-1.34 3.9-2.13m4.1-1.15l.5-.13 2.7-.2 3.2.38m4.07 1.2l1.56.57 3.93 2.67m2.88 3.18l.42.47 2.4 4.44.2.73m1.1 4.14l.02.1.22 3.1-.38 3.2" stroke="#e81313" stroke-width="2" fill="none"/><use xlink:href="#a" transform="matrix(1,0,0,1,25,125) translate(8.76543209876544 22.988888888888884)"/><path d="M300 40.97c0 11.58-8.95 20.96-20 20.96s-20-9.38-20-20.96S268.95 20 280 20s20 9.4 20 20.97z" fill="#fff"/><path d="M298.6 48.28l-1 2.66-2 2.97m-2.93 3.1l-1.48 1.34-3.9 2.12m-4.1 1.15l-.5.15-2.7.18-3.2-.38m-4.07-1.18l-1.56-.6-3.93-2.65v-.02m-2.88-3.17l-.42-.47-2.4-4.43-.2-.72m-1.1-4.13l-.02-.1-.22-3.1.38-3.2m1.03-4.12l1-2.66 2-2.97m2.93-3.1l1.48-1.34 3.9-2.13m4.1-1.15l.5-.13 2.7-.2 3.2.38m4.07 1.2l1.56.57 3.93 2.67m2.88 3.18l.42.47 2.4 4.44.2.73m1.1 4.14l.02.1.22 3.1-.38 3.2" stroke="#e81313" stroke-width="2" fill="none"/><use xlink:href="#b" transform="matrix(1,0,0,1,265,24.999999999999993) translate(8.76543209876544 22.988888888888884)"/><path d="M400 100.97c0 11.58-8.95 20.96-20 20.96s-20-9.38-20-20.96S368.95 80 380 80s20 9.4 20 20.97z" fill="#fff"/><path d="M398.6 108.28l-1 2.66-2 2.97m-2.93 3.1l-1.48 1.34-3.9 2.12m-4.1 1.15l-.5.15-2.7.18-3.2-.38m-4.07-1.18l-1.56-.6-3.93-2.65v-.02m-2.88-3.17l-.42-.47-2.4-4.43-.2-.72m-1.1-4.13l-.02-.1-.22-3.1.38-3.2m1.03-4.12l1-2.66 2-2.97m2.93-3.1l1.48-1.34 3.9-2.13m4.1-1.15l.5-.13 2.7-.2 3.2.38m4.07 1.2l1.56.57 3.93 2.67m2.88 3.18l.42.47 2.4 4.44.2.73m1.1 4.14l.02.1.22 3.1-.38 3.2" stroke="#e81313" stroke-width="2" fill="none"/><use xlink:href="#c" transform="matrix(1,0,0,1,365,85) translate(8.76543209876544 22.988888888888884)"/><path d="M100 282.9c0 11.58-8.95 20.97-20 20.97s-20-9.4-20-20.97c0-11.58 8.95-20.97 20-20.97s20 9.4 20 20.97z" stroke="#000" stroke-width="2" fill="#fff"/><use xlink:href="#d" transform="matrix(1,0,0,1,65,266.9333333333333) translate(8.76543209876544 22.988888888888884)"/><path d="M260 160.97c0 11.58-8.95 20.96-20 20.96s-20-9.38-20-20.96S228.95 140 240 140s20 9.4 20 20.97z" stroke="#000" stroke-width="2" fill="#fff"/><use xlink:href="#e" transform="matrix(1,0,0,1,225,145) translate(8.76543209876544 22.988888888888884)"/><path d="M340 240.97c0 11.58-8.95 20.96-20 20.96s-20-9.38-20-20.96S308.95 220 320 220s20 9.4 20 20.97z" stroke="#000" stroke-width="2" fill="#fff"/><use xlink:href="#f" transform="matrix(1,0,0,1,305,225) translate(8.76543209876544 22.988888888888884)"/><path d="M60.4 132.46l199.2-83" stroke="#000" stroke-width="2" fill="none"/><path d="M60.82 133.38l-1.07.44-.34-1.28-.32-.6.97-.4zM260.6 49.4l.32.6-.97.4-.77-1.84 1.07-.45z" stroke="#000" stroke-width=".05"/><use xlink:href="#g" transform="matrix(1,0,0,1,138.54949724496203,61.80451537219619) translate(0 17.955555555555538)"/><path d="M299.03 52.38l61.94 37.17" stroke="#000" stroke-width="2" fill="none"/><path d="M299.57 51.54l-1.03 1.72-.93-.56.9-1.3.15-.4zM362.4 89.23l-.9 1.3-.15.4-.92-.54 1.03-1.72z" stroke="#000" stroke-width=".05"/><use xlink:href="#h" transform="matrix(1,0,0,1,330.0182739082374,41.80874486500382) translate(0 17.955555555555538)"/><path d="M272.8 62.53l-25.6 76.87" stroke="#000" stroke-width="2" fill="none"/><path d="M274.06 61.94l-.3.93-1.9-.63.33-1zM248.15 139.7l-.34 1-1.86-.7.3-.94z" stroke="#000" stroke-width=".05"/><use xlink:href="#i" transform="matrix(1,0,0,1,266.9405207119865,94.11247079379802) translate(0 17.955555555555538)"/><path d="M46.18 162.9l27.64 98.08" stroke="#000" stroke-width="2" fill="none"/><path d="M47.15 162.64l-1.93.55-.28-1.02 1.93-.5zM75.06 261.68l-1.93.52-.28-.97 1.93-.55z" stroke="#000" stroke-width=".05"/><use xlink:href="#j" transform="matrix(1,0,0,1,40.312546939951744,204.17517315109154) translate(0 17.955555555555538)"/><path d="M101.67 279.1l196.66-34.35" stroke="#000" stroke-width="2" fill="none"/><path d="M101.86 280.1l-1.04.18-.04-.63-.36-1.33 1.1-.2zM299.23 244.22l.35 1.33-1.1.2-.34-1.98 1.04-.18z" stroke="#000" stroke-width=".05"/><use xlink:href="#k" transform="matrix(1,0,0,1,191.6368633350021,265.5783114197057) translate(0 17.955555555555538)"/><path d="M328.96 220.06l42.08-98.2" stroke="#000" stroke-width="2" fill="none"/><path d="M329.9 220.43l-.42.95-.2-.13-1.65-.62.42-.98zM370.7 120.68l1.67.62-.42 1-1.84-.8.42-.95z" stroke="#000" stroke-width=".05"/><use xlink:href="#l" transform="matrix(1,0,0,1,356.36410826066293,165.62979521854805) translate(0 17.955555555555538)"/><path d="M255.85 176.82l48.3 48.3" stroke="#000" stroke-width="2" fill="none"/><path d="M256.58 176.13l-1.42 1.4-.76-.75 1.15-1.04.26-.38zM305.6 225.15l-1.15 1.04-.26.37-.78-.76 1.42-1.4z" stroke="#000" stroke-width=".05"/><use xlink:href="#m" transform="matrix(1,0,0,1,282.7579610168295,173.96016610680243) translate(0 17.955555555555538)"/><path d="M222.24 174.5L97.76 269.37" stroke="#000" stroke-width="2" fill="none"/><path d="M223.12 174.05l.56.6-.85.66-1.22-1.58.95-.72zM98.4 270.14l-.95.72-.57-1.04-.56-.62.85-.64z" stroke="#000" stroke-width=".05"/><use xlink:href="#n" transform="matrix(1,0,0,1,133.89617641637724,195.43908546358915) translate(0 17.955555555555538)"/><path d="M61.76 143.14l156.5 15.65" stroke="#000" stroke-width="2" fill="none"/><path d="M61.88 142.15l-.2 2-1.04-.1.24-2zM219.36 157.9l-.24 1.98-1-.1.2-2z" stroke="#000" stroke-width=".05"/><use xlink:href="#o" transform="matrix(1,0,0,1,134.92165384810315,120.0910486020302) translate(0 17.955555555555538)"/><defs><path d="M101-251c68 0 85 55 85 127S166 4 100 4C33 4 14-52 14-124c0-73 17-127 87-127zm-1 229c47 0 54-49 54-102s-4-102-53-102c-51 0-55 48-55 102 0 53 5 102 54 102" id="p"/><use transform="matrix(0.0623456790123456,0,0,0.0623456790123456,0,0)" xlink:href="#p" id="a"/><path d="M101-251c82-7 93 87 43 132L82-64C71-53 59-42 53-27h129V0H18c2-99 128-94 128-182 0-28-16-43-45-43s-46 15-49 41l-32-3c6-41 34-60 81-64" id="q"/><use transform="matrix(0.0623456790123456,0,0,0.0623456790123456,0,0)" xlink:href="#q" id="b"/><path d="M54-142c48-35 137-8 131 61C196 18 31 33 14-55l32-4c7 23 22 37 52 37 35-1 51-22 54-58 4-55-73-65-99-34H22l8-134h141v27H59" id="r"/><use transform="matrix(0.0623456790123456,0,0,0.0623456790123456,0,0)" xlink:href="#r" id="c"/><path d="M126-127c33 6 58 20 58 59 0 88-139 92-164 29-3-8-5-16-6-25l32-3c6 27 21 44 54 44 32 0 52-15 52-46 0-38-36-46-79-43v-28c39 1 72-4 72-42 0-27-17-43-46-43-28 0-47 15-49 41l-32-3c6-42 35-63 81-64 48-1 79 21 79 65 0 36-21 52-52 59" id="s"/><use transform="matrix(0.0623456790123456,0,0,0.0623456790123456,0,0)" xlink:href="#s" id="d"/><path d="M27 0v-27h64v-190l-56 39v-29l58-41h29v221h61V0H27" id="t"/><use transform="matrix(0.0623456790123456,0,0,0.0623456790123456,0,0)" xlink:href="#t" id="e"/><path d="M155-56V0h-30v-56H8v-25l114-167h33v167h35v25h-35zm-30-156c-27 46-58 90-88 131h88v-131" id="u"/><use transform="matrix(0.0623456790123456,0,0,0.0623456790123456,0,0)" xlink:href="#u" id="f"/><g id="g"><use transform="matrix(0.06234567901234562,0,0,0.06234567901234562,0,0)" xlink:href="#t"/><use transform="matrix(0.06234567901234562,0,0,0.06234567901234562,12.469135802469124,0)" xlink:href="#u"/></g><use transform="matrix(0.06234567901234562,0,0,0.06234567901234562,0,0)" xlink:href="#r" id="h"/><use transform="matrix(0.06234567901234562,0,0,0.06234567901234562,0,0)" xlink:href="#u" id="i"/><path d="M64 0c3-98 48-159 88-221H18v-27h164v26C143-157 98-101 97 0H64" id="v"/><use transform="matrix(0.06234567901234562,0,0,0.06234567901234562,0,0)" xlink:href="#v" id="j"/><g id="k"><use transform="matrix(0.06234567901234562,0,0,0.06234567901234562,0,0)" xlink:href="#t"/><use transform="matrix(0.06234567901234562,0,0,0.06234567901234562,12.469135802469124,0)" xlink:href="#r"/></g><path d="M134-131c28 9 52 24 51 62-1 50-34 73-85 73S17-19 16-69c0-36 21-54 49-61-75-25-45-126 34-121 46 3 78 18 79 63 0 33-17 51-44 57zm-34-11c31 1 46-15 46-44 0-28-17-43-47-42-29 0-46 13-45 42 1 28 16 44 46 44zm1 122c35 0 51-18 51-52 0-30-18-46-53-46-33 0-51 17-51 47 0 34 19 51 53 51" id="w"/><use transform="matrix(0.06234567901234562,0,0,0.06234567901234562,0,0)" xlink:href="#w" id="l"/><use transform="matrix(0.06234567901234562,0,0,0.06234567901234562,0,0)" xlink:href="#s" id="m"/><g id="n"><use transform="matrix(0.06234567901234562,0,0,0.06234567901234562,0,0)" xlink:href="#t"/><use transform="matrix(0.06234567901234562,0,0,0.06234567901234562,12.469135802469124,0)" xlink:href="#p"/></g><path d="M99-251c64 0 84 50 84 122C183-37 130 33 47-8c-14-7-20-23-25-40l30-5c6 39 69 39 84 7 9-19 16-44 16-74-10 22-31 35-62 35-49 0-73-33-73-83 0-54 28-83 82-83zm-1 141c31-1 51-18 51-49 0-36-14-67-51-67-34 0-49 23-49 58 0 34 15 58 49 58" id="x"/><use transform="matrix(0.06234567901234562,0,0,0.06234567901234562,0,0)" xlink:href="#x" id="o"/></defs></g></svg>