<svg xmlns="http://www.w3.org/2000/svg" xmlns:xlink="http://www.w3.org/1999/xlink" xmlns:lucid="lucid" width="382" height="82"><g transform="translate(1 1)" lucid:page-tab-id="0_0"><path d="M0 0h1870.4v1323.2H0z" fill="#fff"/><path d="M60 40c0 11.05-8.95 20-20 20s-20-8.95-20-20 8.95-20 20-20 20 8.95 20 20z" stroke="#000" stroke-width="2" fill="#fff"/><use xlink:href="#a" transform="matrix(1,0,0,1,25,25) translate(8.770432098765438 22.830555555555538)"/><path d="M210 40c0 11.05-8.95 20-20 20s-20-8.95-20-20 8.95-20 20-20 20 8.95 20 20z" stroke="#000" stroke-width="2" fill="#fff"/><use xlink:href="#b" transform="matrix(1,0,0,1,175,25) translate(8.770432098765438 22.830555555555538)"/><path d="M360 40c0 11.05-8.95 20-20 20s-20-8.95-20-20 8.95-20 20-20 20 8.95 20 20z" stroke="#000" stroke-width="2" fill="#fff"/><use xlink:href="#c" transform="matrix(1,0,0,1,325,25) translate(8.770432098765438 22.830555555555538)"/><path d="M62 40h106" stroke="#333" stroke-width="2" fill="none"/><path d="M62.03 41h-1.15l.12-.95-.03-1.05h1.06zM169 39.95l.03 1.05h-1.06v-2h1.15z" stroke="#333" stroke-width=".05" fill="#333"/><use xlink:href="#d" transform="matrix(1,0,0,1,105.12345679012346,14.666666666666664) translate(0.005000000000000782 14.222222222222223)"/><path d="M212 40h106" stroke="#333" stroke-width="2" fill="none"/><path d="M212.03 41h-1.15l.12-.95-.03-1.05h1.06zM319 39.95l.04 1.05h-1.07v-2h1.15z" stroke="#333" stroke-width=".05" fill="#333"/><use xlink:href="#e" transform="matrix(1,0,0,1,255.12345679012344,14.666666666666664) translate(0.005000000000000782 14.222222222222223)"/><use xlink:href="#f" transform="matrix(1,0,0,1,232.29938271604937,44) translate(16.671666666666667 8.88888888888889)"/><use xlink:href="#g" transform="matrix(1,0,0,1,232.29938271604937,44) translate(0.005000000000002558 22.22222222222222)"/><use xlink:href="#h" transform="matrix(1,0,0,1,232.29938271604937,44) translate(30.8691975308642 22.22222222222222)"/><use xlink:href="#i" transform="matrix(1,0,0,1,232.29938271604937,44) translate(37.62845679012346 22.22222222222222)"/><defs><path d="M101-251c68 0 85 55 85 127S166 4 100 4C33 4 14-52 14-124c0-73 17-127 87-127zm-1 229c47 0 54-49 54-102s-4-102-53-102c-51 0-55 48-55 102 0 53 5 102 54 102" id="j"/><use transform="matrix(0.06234567901234562,0,0,0.06234567901234562,0,0)" xlink:href="#j" id="a"/><path d="M27 0v-27h64v-190l-56 39v-29l58-41h29v221h61V0H27" id="k"/><use transform="matrix(0.06234567901234562,0,0,0.06234567901234562,0,0)" xlink:href="#k" id="b"/><path d="M101-251c82-7 93 87 43 132L82-64C71-53 59-42 53-27h129V0H18c2-99 128-94 128-182 0-28-16-43-45-43s-46 15-49 41l-32-3c6-41 34-60 81-64" id="l"/><use transform="matrix(0.06234567901234562,0,0,0.06234567901234562,0,0)" xlink:href="#l" id="c"/><path fill="#333" d="M27 0v-27h64v-190l-56 39v-29l58-41h29v221h61V0H27" id="m"/><path fill="#333" d="M101-251c68 0 85 55 85 127S166 4 100 4C33 4 14-52 14-124c0-73 17-127 87-127zm-1 229c47 0 54-49 54-102s-4-102-53-102c-51 0-55 48-55 102 0 53 5 102 54 102" id="n"/><g id="d"><use transform="matrix(0.04938271604938272,0,0,0.04938271604938272,0,0)" xlink:href="#m"/><use transform="matrix(0.04938271604938272,0,0,0.04938271604938272,9.876543209876544,0)" xlink:href="#n"/></g><path fill="#333" d="M54-142c48-35 137-8 131 61C196 18 31 33 14-55l32-4c7 23 22 37 52 37 35-1 51-22 54-58 4-55-73-65-99-34H22l8-134h141v27H59" id="o"/><g id="e"><use transform="matrix(0.04938271604938272,0,0,0.04938271604938272,0,0)" xlink:href="#m"/><use transform="matrix(0.04938271604938272,0,0,0.04938271604938272,9.876543209876544,0)" xlink:href="#o"/></g><path fill="#333" d="M96-169c-40 0-48 33-48 73s9 75 48 75c24 0 41-14 43-38l32 2c-6 37-31 61-74 61-59 0-76-41-82-99-10-93 101-131 147-64 4 7 5 14 7 22l-32 3c-4-21-16-35-41-35" id="p"/><path fill="#333" d="M24 0v-261h32V0H24" id="q"/><path fill="#333" d="M100-194c62-1 85 37 85 99 1 63-27 99-86 99S16-35 15-95c0-66 28-99 85-99zM99-20c44 1 53-31 53-75 0-43-8-75-51-75s-53 32-53 75 10 74 51 75" id="r"/><path fill="#333" d="M135-143c-3-34-86-38-87 0 15 53 115 12 119 90S17 21 10-45l28-5c4 36 97 45 98 0-10-56-113-15-118-90-4-57 82-63 122-42 12 7 21 19 24 35" id="s"/><path fill="#333" d="M100-194c63 0 86 42 84 106H49c0 40 14 67 53 68 26 1 43-12 49-29l28 8c-11 28-37 45-77 45C44 4 14-33 15-96c1-61 26-98 85-98zm52 81c6-60-76-77-97-28-3 7-6 17-6 28h103" id="t"/><path fill="#333" d="M85-194c31 0 48 13 60 33l-1-100h32l1 261h-30c-2-10 0-23-3-31C134-8 116 4 85 4 32 4 16-35 15-94c0-66 23-100 70-100zm9 24c-40 0-46 34-46 75 0 40 6 74 45 74 42 0 51-32 51-76 0-42-9-74-50-73" id="u"/><g id="f"><use transform="matrix(0.030864197530864196,0,0,0.030864197530864196,0,0)" xlink:href="#p"/><use transform="matrix(0.030864197530864196,0,0,0.030864197530864196,5.555555555555555,0)" xlink:href="#q"/><use transform="matrix(0.030864197530864196,0,0,0.030864197530864196,7.993827160493827,0)" xlink:href="#r"/><use transform="matrix(0.030864197530864196,0,0,0.030864197530864196,14.166666666666666,0)" xlink:href="#s"/><use transform="matrix(0.030864197530864196,0,0,0.030864197530864196,19.72222222222222,0)" xlink:href="#t"/><use transform="matrix(0.030864197530864196,0,0,0.030864197530864196,25.89506172839506,0)" xlink:href="#u"/></g><path fill="#333" d="M33-154v-36h34v36H33zM33 0v-36h34V0H33" id="v"/><path fill="#333" d="M101-251c82-7 93 87 43 132L82-64C71-53 59-42 53-27h129V0H18c2-99 128-94 128-182 0-28-16-43-45-43s-46 15-49 41l-32-3c6-41 34-60 81-64" id="w"/><g id="g"><use transform="matrix(0.030864197530864196,0,0,0.030864197530864196,0,0)" xlink:href="#m"/><use transform="matrix(0.030864197530864196,0,0,0.030864197530864196,6.172839506172839,0)" xlink:href="#o"/><use transform="matrix(0.030864197530864196,0,0,0.030864197530864196,12.345679012345679,0)" xlink:href="#v"/><use transform="matrix(0.030864197530864196,0,0,0.030864197530864196,15.432098765432098,0)" xlink:href="#w"/><use transform="matrix(0.030864197530864196,0,0,0.030864197530864196,21.604938271604937,0)" xlink:href="#n"/></g><path fill="#333" d="M16-82v-28h88v28H16" id="x"/><use transform="matrix(0.030864197530864196,0,0,0.030864197530864196,0,0)" xlink:href="#x" id="h"/><path fill="#333" d="M155-56V0h-30v-56H8v-25l114-167h33v167h35v25h-35zm-30-156c-27 46-58 90-88 131h88v-131" id="y"/><g id="i"><use transform="matrix(0.030864197530864196,0,0,0.030864197530864196,0,0)" xlink:href="#m"/><use transform="matrix(0.030864197530864196,0,0,0.030864197530864196,6.172839506172839,0)" xlink:href="#o"/><use transform="matrix(0.030864197530864196,0,0,0.030864197530864196,12.345679012345679,0)" xlink:href="#v"/><use transform="matrix(0.030864197530864196,0,0,0.030864197530864196,15.432098765432098,0)" xlink:href="#y"/><use transform="matrix(0.030864197530864196,0,0,0.030864197530864196,21.604938271604937,0)" xlink:href="#n"/></g></defs></g></svg>